<svg xmlns="http://www.w3.org/2000/svg" xmlns:xlink="http://www.w3.org/1999/xlink" width="256" zoomAndPan="magnify"
    viewBox="0 0 192 191.999996" height="256" preserveAspectRatio="xMidYMid meet" version="1.0">
    <defs>
        <clipPath id="34a167270c">
            <path
                d="M 81.792969 30.414062 L 143.347656 30.414062 L 143.347656 191.394531 L 81.792969 191.394531 Z M 81.792969 30.414062 "
                clip-rule="nonzero" />
        </clipPath>
        <clipPath id="d6291222ec">
            <path
                d="M 34.207031 27.394531 L 169.40625 27.394531 L 169.40625 191.394531 L 34.207031 191.394531 Z M 34.207031 27.394531 "
                clip-rule="nonzero" />
        </clipPath>
        <clipPath id="4c44cd329c">
            <path
                d="M 32.699219 11.164062 L 173.617188 11.164062 L 173.617188 148.933594 L 32.699219 148.933594 Z M 32.699219 11.164062 "
                clip-rule="nonzero" />
        </clipPath>
    </defs>
    <rect x="-19.2" width="230.4" fill="#ffffff" y="-19.2" height="230.399995" fill-opacity="1" />
    <rect x="-19.2" width="230.4" fill="#ffffff" y="-19.2" height="230.399995" fill-opacity="1" />
    <path fill="#5ec9cc"
        d="M 136.820312 160.636719 C 102.414062 178.105469 51.34375 146.65625 33.867188 112.265625 C 16.390625 77.875 30.117188 35.839844 64.523438 18.371094 C 98.933594 0.902344 140.992188 14.621094 158.46875 49.011719 C 175.945312 83.402344 171.230469 143.171875 136.820312 160.636719 "
        fill-opacity="1" fill-rule="nonzero" />
    <g clip-path="url(#34a167270c)">
        <path fill="#f2ab8f"
            d="M 82.324219 191.402344 L 87.320312 191.402344 L 89.40625 181.453125 L 83.035156 184.4375 Z M 89.753906 92.597656 C 87.804688 90.554688 85.015625 88.203125 85.015625 88.203125 L 81.816406 91.632812 L 87.324219 94.828125 L 87.785156 97.589844 L 88.035156 99.089844 L 92.949219 99.03125 C 92.949219 99.03125 92.652344 96.308594 91.113281 94.179688 C 90.777344 93.714844 90.296875 93.167969 89.753906 92.597656 Z M 108.554688 37.109375 C 108.28125 36.847656 107.992188 36.871094 107.746094 37 C 107.808594 35.515625 107.714844 34.417969 107.714844 34.417969 C 107.714844 34.417969 107.367188 31.546875 104.273438 30.757812 C 104.515625 30.980469 104.832031 31.296875 104.953125 31.304688 C 104.636719 31.289062 104.320312 31.269531 104.007812 31.25 C 104.109375 31.800781 104.445312 32.300781 104.910156 32.605469 C 104.300781 32.582031 103.699219 32.386719 103.1875 32.050781 C 103.476562 32.664062 103.652344 33.332031 103.699219 34.007812 C 102.925781 33.722656 101.746094 32.804688 101.332031 31.8125 C 99.207031 34.789062 96.425781 34.417969 96.425781 34.417969 C 96.425781 34.417969 96.332031 35.515625 96.394531 37 C 96.144531 36.871094 95.859375 36.847656 95.585938 37.109375 C 94.90625 37.761719 95.152344 40.3125 96.871094 40.546875 C 97.085938 41.414062 97.390625 42.253906 97.816406 42.960938 C 98.269531 43.710938 98.863281 44.226562 99.464844 44.582031 L 99.464844 47.328125 C 99.464844 47.347656 99.46875 47.367188 99.46875 47.386719 C 99.484375 48.417969 99.949219 49.390625 100.742188 50.050781 L 102.070312 51.152344 L 103.398438 50.050781 C 104.191406 49.390625 104.65625 48.417969 104.671875 47.386719 C 104.671875 47.367188 104.675781 47.347656 104.675781 47.328125 L 104.675781 44.582031 C 105.273438 44.226562 105.871094 43.710938 106.324219 42.960938 C 106.75 42.253906 107.054688 41.414062 107.269531 40.546875 C 108.988281 40.3125 109.234375 37.761719 108.554688 37.109375 Z M 142.191406 38.628906 C 140.292969 38.390625 136.546875 39.6875 134.875 39.609375 C 134.570312 39.59375 133.355469 39.679688 132.507812 39.3125 C 131.34375 38.808594 129.660156 38.527344 129.042969 38.664062 C 127.976562 38.898438 129.691406 39.6875 131.144531 41.382812 C 132.53125 43.003906 132.957031 43.632812 132.957031 43.632812 L 137.066406 43.632812 C 137.066406 43.632812 139.019531 42.179688 140.976562 41.113281 C 142.929688 40.050781 144.085938 38.863281 142.191406 38.628906 Z M 108.425781 183.84375 L 114.339844 185.265625 L 113.75 191.402344 L 108.6875 191.402344 L 108.425781 183.84375 "
            fill-opacity="1" fill-rule="nonzero" />
    </g>
    <path fill="#ffffff"
        d="M 79.765625 26.410156 L 70.269531 29.273438 L 65.136719 19.503906 L 78.632812 15.429688 Z M 28.042969 49.9375 C 28.074219 48.515625 29.089844 47.316406 30.15625 46.367188 C 33.324219 43.546875 37.351562 41.832031 41.476562 40.835938 C 44.726562 40.050781 48.058594 39.691406 51.382812 39.417969 C 52.652344 39.316406 53.785156 39.488281 55.027344 39.492188 C 56.769531 39.503906 58.460938 39.089844 60.226562 39.222656 C 62.238281 39.375 64.273438 39.992188 65.804688 41.308594 C 66.699219 42.082031 67.398438 43.078125 68.359375 43.769531 C 69.699219 44.742188 71.40625 45.035156 73.054688 45.171875 C 74.703125 45.3125 76.386719 45.328125 77.957031 45.847656 C 79.527344 46.367188 81.007812 47.515625 81.394531 49.125 C 81.894531 51.195312 80.347656 53.347656 78.378906 54.167969 C 76.410156 54.988281 74.164062 54.765625 72.082031 54.304688 C 69.675781 53.773438 66.980469 52.988281 64.898438 54.304688 C 62.554688 55.789062 62.152344 59.292969 59.800781 60.761719 C 57.957031 61.914062 55.535156 61.421875 53.546875 60.550781 C 48.5625 58.359375 44.328125 53.992188 38.890625 53.710938 C 36.734375 53.597656 34.566406 54.164062 32.425781 53.898438 C 30.28125 53.636719 28.003906 52.097656 28.042969 49.9375 Z M 37.351562 36.917969 C 37.453125 36.648438 37.722656 36.492188 37.976562 36.359375 C 38.765625 35.949219 39.542969 35.65625 40.378906 35.402344 C 41.078125 35.1875 41.140625 34.792969 41.671875 34.347656 C 41.914062 34.144531 42.242188 34.097656 42.550781 34.054688 C 43.246094 33.960938 43.9375 33.863281 44.632812 33.769531 C 45.332031 33.675781 46.132812 33.609375 46.660156 34.082031 C 47.347656 34.703125 47.078125 35.917969 46.367188 36.511719 C 45.65625 37.105469 44.683594 37.246094 43.765625 37.363281 C 42.214844 37.558594 40.664062 37.753906 39.113281 37.953125 C 38.703125 38.003906 38.273438 38.054688 37.890625 37.898438 C 37.507812 37.742188 37.207031 37.304688 37.351562 36.917969 Z M 67.371094 63.808594 C 67.148438 64.253906 67.324219 64.785156 67.492188 65.253906 C 67.695312 65.832031 67.882812 66.429688 67.875 67.039062 C 67.867188 67.652344 67.625 68.292969 67.125 68.644531 C 66.585938 69.019531 65.867188 69 65.21875 68.878906 C 62.941406 68.449219 60.953125 66.980469 58.664062 66.605469 C 57.335938 66.386719 55.941406 66.546875 54.660156 66.125 C 54.332031 66.015625 54 65.855469 53.804688 65.570312 C 53.378906 64.941406 53.871094 64.039062 54.558594 63.722656 C 55.25 63.40625 56.042969 63.480469 56.800781 63.480469 C 57.902344 63.480469 59.003906 63.285156 60.042969 62.925781 C 61.859375 62.300781 63.503906 61.179688 64.726562 59.695312 C 65.570312 58.675781 67.289062 56.582031 68.792969 57.84375 C 69.222656 58.199219 69.335938 58.929688 68.9375 59.320312 C 68.722656 59.527344 68.375 59.671875 68.371094 59.96875 C 68.367188 60.359375 68.910156 60.429688 69.261719 60.597656 C 69.660156 60.792969 69.882812 61.265625 69.835938 61.703125 C 69.789062 62.140625 69.5 62.535156 69.121094 62.765625 C 68.53125 63.128906 67.679688 63.1875 67.371094 63.808594 Z M 63.828125 34.789062 C 63.703125 32.78125 69.382812 33.457031 70.457031 33.4375 C 71 33.425781 71.558594 33.417969 72.0625 33.621094 C 72.566406 33.820312 73.003906 34.292969 72.992188 34.835938 C 72.980469 35.335938 72.589844 35.769531 72.128906 35.972656 C 71.671875 36.175781 71.152344 36.195312 70.652344 36.195312 C 69.523438 36.195312 63.921875 36.308594 63.828125 34.789062 Z M 41.6875 56.996094 C 42.015625 57.101562 42.96875 57.320312 43.097656 57.5 C 43.253906 57.71875 43 58.609375 42.84375 58.808594 C 42.488281 59.265625 41.828125 59.347656 41.25 59.289062 C 40.296875 59.1875 39.375 58.78125 38.65625 58.148438 C 38.273438 57.816406 37.925781 57.324219 38.082031 56.84375 C 38.261719 56.28125 38.996094 56.128906 39.574219 56.234375 C 40.3125 56.371094 40.972656 56.769531 41.6875 56.996094 Z M 41.613281 93.089844 C 41.679688 93.332031 41.816406 93.542969 41.996094 93.707031 L 40.535156 93.707031 C 40.089844 93.707031 39.695312 93.410156 39.574219 92.984375 L 39.058594 91.191406 L 41.066406 91.191406 Z M 38.285156 93.707031 L 38.132812 93.707031 C 37.6875 93.707031 37.292969 93.410156 37.171875 92.984375 L 36.65625 91.191406 L 38.664062 91.191406 L 39.210938 93.089844 C 39.28125 93.332031 39.417969 93.542969 39.59375 93.707031 Z M 35.882812 93.707031 L 35.730469 93.707031 C 35.289062 93.707031 34.890625 93.410156 34.769531 92.984375 L 34.253906 91.191406 L 36.265625 91.191406 L 36.808594 93.089844 C 36.878906 93.332031 37.015625 93.542969 37.191406 93.707031 Z M 33.480469 93.707031 L 33.332031 93.707031 C 32.886719 93.707031 32.492188 93.410156 32.371094 92.984375 L 31.855469 91.191406 L 33.863281 91.191406 L 34.40625 93.089844 C 34.476562 93.332031 34.613281 93.542969 34.789062 93.707031 Z M 31.082031 93.707031 L 30.929688 93.707031 C 30.484375 93.707031 30.089844 93.410156 29.96875 92.984375 L 29.453125 91.191406 L 31.460938 91.191406 L 32.007812 93.089844 C 32.078125 93.332031 32.214844 93.542969 32.390625 93.707031 Z M 45.902344 94.5625 L 45.902344 78.789062 C 45.902344 77.554688 44.898438 76.550781 43.664062 76.550781 L 26.40625 76.550781 C 26.398438 76.675781 26.386719 76.800781 26.378906 76.929688 L 43.664062 76.929688 C 44.691406 76.929688 45.527344 77.761719 45.527344 78.789062 L 45.527344 90.8125 L 27.019531 90.8125 C 27.039062 90.941406 27.0625 91.066406 27.078125 91.191406 L 29.0625 91.191406 L 29.605469 93.089844 C 29.675781 93.332031 29.8125 93.542969 29.988281 93.707031 L 28.527344 93.707031 C 28.085938 93.707031 27.6875 93.410156 27.566406 92.984375 L 27.113281 91.410156 C 27.230469 92.144531 27.355469 92.878906 27.496094 93.609375 C 27.523438 93.644531 27.554688 93.675781 27.585938 93.707031 L 27.511719 93.707031 C 27.535156 93.832031 27.558594 93.960938 27.582031 94.085938 L 45.488281 94.085938 L 45.488281 93.707031 L 42.933594 93.707031 C 42.492188 93.707031 42.097656 93.410156 41.976562 92.984375 L 41.460938 91.191406 L 45.527344 91.191406 L 45.527344 94.5625 C 45.527344 95.589844 44.691406 96.421875 43.664062 96.421875 L 28.089844 96.421875 C 28.117188 96.546875 28.148438 96.675781 28.175781 96.800781 L 43.664062 96.800781 C 44.898438 96.800781 45.902344 95.796875 45.902344 94.5625 Z M 30.203125 103.6875 L 61.523438 103.6875 L 61.523438 144.636719 C 61.398438 144.539062 61.273438 144.4375 61.148438 144.335938 L 61.148438 104.0625 L 30.332031 104.0625 C 30.285156 103.9375 30.246094 103.8125 30.203125 103.6875 Z M 49.460938 84.992188 C 48.828125 84.992188 48.3125 84.472656 48.3125 83.839844 C 48.3125 83.207031 48.828125 82.691406 49.460938 82.691406 C 50.09375 82.691406 50.609375 83.207031 50.609375 83.839844 C 50.609375 84.472656 50.09375 84.992188 49.460938 84.992188 Z M 49.460938 82.3125 C 48.617188 82.3125 47.933594 83 47.933594 83.839844 C 47.933594 84.683594 48.617188 85.367188 49.460938 85.367188 C 50.304688 85.367188 50.988281 84.683594 50.988281 83.839844 C 50.988281 83 50.304688 82.3125 49.460938 82.3125 Z M 64.558594 98.867188 L 53.042969 98.867188 L 53.042969 74.726562 L 64.558594 74.726562 Z M 64.9375 74.347656 L 26.574219 74.347656 C 26.558594 74.472656 26.546875 74.601562 26.539062 74.726562 L 52.667969 74.726562 L 52.667969 98.867188 L 28.703125 98.867188 C 28.738281 98.992188 28.769531 99.117188 28.804688 99.246094 L 69.652344 99.246094 L 69.652344 150.441406 C 69.777344 150.527344 69.90625 150.609375 70.03125 150.691406 L 70.03125 98.867188 L 64.9375 98.867188 Z M 132.261719 117.445312 L 165.933594 117.445312 C 165.90625 117.570312 165.875 117.695312 165.847656 117.820312 L 132.640625 117.820312 L 132.640625 162.484375 C 132.515625 162.53125 132.390625 162.582031 132.261719 162.628906 Z M 128.519531 57.332031 L 123.933594 55.382812 L 123.933594 51.339844 L 130.460938 51.339844 Z M 132.640625 113.015625 L 132.640625 67.5 C 133.871094 67.027344 134.835938 65.933594 135.058594 64.519531 L 135.542969 59.492188 L 156.492188 59.492188 C 156.449219 59.367188 156.40625 59.238281 156.363281 59.113281 L 135.578125 59.113281 L 136.324219 51.339844 L 159.59375 51.339844 C 159.535156 51.210938 159.476562 51.085938 159.421875 50.960938 L 136.363281 50.960938 L 137.066406 43.632812 L 132.957031 43.632812 L 130.582031 50.960938 L 123.554688 50.960938 L 123.554688 55.222656 L 109.859375 49.410156 L 106.8125 48.117188 C 106.816406 48.113281 106.816406 48.113281 106.816406 48.113281 L 104.675781 45.707031 L 102.792969 47.746094 C 102.632812 47.921875 102.523438 48.140625 102.488281 48.375 L 102.070312 51.152344 L 101.652344 48.375 C 101.617188 48.140625 101.511719 47.921875 101.347656 47.746094 L 99.464844 45.707031 L 97.324219 48.113281 L 94.277344 49.410156 L 90.277344 51.109375 C 89.886719 51.273438 89.507812 51.488281 89.160156 51.742188 L 87.691406 52.410156 C 85.886719 53.234375 84.367188 54.578125 83.335938 56.273438 L 68.878906 79.964844 C 67.996094 81.417969 68.351562 83.300781 69.703125 84.328125 L 81.816406 91.632812 L 85.015625 88.203125 L 78.050781 81.621094 L 89.96875 69.710938 C 92.160156 77.132812 94.957031 83.347656 94.957031 83.347656 C 92.984375 86.050781 91.261719 89.167969 89.753906 92.597656 C 90.296875 93.167969 90.777344 93.714844 91.113281 94.179688 C 92.652344 96.308594 92.949219 99.03125 92.949219 99.03125 L 88.035156 99.089844 L 87.785156 97.589844 C 75.859375 131.25 80.851562 186.792969 80.851562 186.792969 L 88.265625 186.882812 L 102.007812 109.074219 C 102.246094 107.953125 103.894531 108.097656 103.933594 109.246094 L 107.039062 187.042969 L 115.011719 187.042969 C 115.011719 187.042969 119.496094 140.324219 119.566406 119.492188 C 119.636719 98.65625 115.328125 83.503906 115.328125 83.503906 L 116.90625 74.035156 C 116.90625 74.035156 118.960938 71.039062 118.484375 66.773438 C 118.378906 65.820312 118.167969 64.910156 117.90625 64.0625 L 123.554688 65.691406 L 123.554688 164.929688 C 123.679688 164.910156 123.804688 164.882812 123.933594 164.863281 L 123.933594 65.800781 L 130.203125 67.605469 C 130.90625 67.804688 131.613281 67.796875 132.261719 67.625 L 132.261719 113.390625 L 166.734375 113.390625 C 166.757812 113.265625 166.777344 113.140625 166.800781 113.015625 Z M 91.277344 20.816406 C 92.460938 19.238281 93.324219 19.777344 93.324219 19.777344 C 93.324219 19.777344 93.179688 16.007812 96.199219 15.578125 C 99.214844 15.148438 98.605469 14.25 100.183594 13.710938 C 101.765625 13.171875 102.699219 15.398438 104.53125 15.183594 C 106.363281 14.96875 107.761719 14.140625 108.875 15.46875 C 109.988281 16.796875 110.132812 18.304688 110.132812 18.304688 C 110.132812 18.304688 112.359375 18.054688 112.574219 19.5625 C 112.789062 21.066406 110.527344 23.222656 110.527344 23.222656 C 110.527344 23.222656 111.316406 24.191406 110.382812 24.910156 C 109.449219 25.628906 108.917969 26.40625 108.917969 26.40625 C 108.917969 26.40625 108.914062 26.40625 108.914062 26.40625 C 109.132812 27.09375 109.253906 27.828125 109.253906 28.589844 C 109.253906 29.785156 108.964844 30.910156 108.449219 31.898438 C 108.382812 32.027344 108.238281 32.273438 108.238281 32.273438 C 108.238281 32.273438 104.691406 29.273438 102.070312 29.273438 C 99.957031 29.273438 96.738281 33.40625 96.738281 33.40625 C 96.738281 33.40625 96.183594 32.734375 95.953125 32.359375 C 95.277344 31.265625 94.886719 29.972656 94.886719 28.589844 C 94.886719 28.023438 94.957031 27.472656 95.082031 26.941406 C 95.058594 26.984375 95.035156 27.023438 95.011719 27.0625 C 95.011719 27.0625 90.488281 26.597656 92.679688 23.582031 C 92.679688 23.582031 90.09375 22.398438 91.277344 20.816406 Z M 49.460938 80.394531 C 48.589844 80.394531 47.882812 79.6875 47.882812 78.820312 C 47.882812 77.949219 48.589844 77.242188 49.460938 77.242188 C 50.332031 77.242188 51.039062 77.949219 51.039062 78.820312 C 51.039062 79.6875 50.332031 80.394531 49.460938 80.394531 Z M 49.460938 76.863281 C 48.382812 76.863281 47.503906 77.742188 47.503906 78.820312 C 47.503906 79.894531 48.382812 80.773438 49.460938 80.773438 C 50.539062 80.773438 51.417969 79.894531 51.417969 78.820312 C 51.417969 77.742188 50.539062 76.863281 49.460938 76.863281 "
        fill-opacity="1" fill-rule="nonzero" />
    <g clip-path="url(#d6291222ec)">
        <path fill="#30526a"
            d="M 48.304688 111.0625 C 46.648438 109.792969 44.398438 109.648438 42.320312 109.800781 C 41 109.894531 39.644531 110.105469 38.515625 110.796875 C 37.320312 111.527344 36.496094 112.730469 35.765625 113.925781 C 35.234375 114.804688 34.722656 115.710938 34.46875 116.703125 C 34.214844 117.695312 34.242188 118.796875 34.734375 119.695312 C 35.171875 120.488281 35.941406 121.058594 36.773438 121.421875 C 37.601562 121.78125 38.503906 121.957031 39.394531 122.117188 C 40.972656 122.398438 42.574219 122.652344 44.175781 122.578125 C 45.78125 122.5 47.40625 122.070312 48.683594 121.105469 C 51.867188 118.703125 51.355469 113.390625 48.304688 111.0625 Z M 149.511719 72.867188 C 150.742188 73.632812 152.339844 73.617188 153.707031 73.128906 C 155.066406 72.636719 156.238281 71.730469 157.324219 70.773438 C 162.902344 65.863281 166.980469 59.269531 168.875 52.089844 C 169.023438 51.515625 169.164062 50.917969 169.050781 50.339844 C 168.878906 49.453125 168.140625 48.757812 167.300781 48.429688 C 165.625 47.769531 164.308594 47.730469 162.894531 48.847656 C 161.476562 49.964844 159.832031 52.175781 158.757812 53.621094 C 156.914062 56.101562 154.804688 58.375 152.925781 60.828125 C 151.292969 62.957031 150.046875 65.171875 148.992188 67.632812 C 148.648438 68.445312 147.976562 69.121094 147.941406 70.03125 C 147.894531 71.148438 148.578125 72.289062 149.511719 72.867188 Z M 96.238281 38.617188 C 96.101562 38.710938 96.0625 38.890625 96.09375 39.03125 C 96.128906 39.171875 96.234375 39.292969 96.359375 39.351562 C 96.484375 39.410156 96.621094 39.410156 96.746094 39.386719 C 96.765625 39.382812 96.78125 39.363281 96.78125 39.34375 C 96.777344 39.320312 96.761719 39.300781 96.738281 39.300781 C 96.511719 39.3125 96.292969 39.1875 96.265625 38.992188 C 96.25 38.902344 96.277344 38.808594 96.34375 38.765625 C 96.414062 38.71875 96.515625 38.710938 96.566406 38.753906 C 96.59375 38.777344 96.632812 38.785156 96.664062 38.769531 C 96.707031 38.746094 96.726562 38.695312 96.707031 38.648438 C 96.636719 38.503906 96.558594 38.339844 96.417969 38.21875 C 96.277344 38.097656 96.066406 38.042969 95.898438 38.132812 C 95.886719 38.140625 95.878906 38.160156 95.882812 38.175781 C 95.890625 38.195312 95.910156 38.203125 95.929688 38.199219 C 96.070312 38.152344 96.21875 38.230469 96.316406 38.328125 C 96.371094 38.386719 96.417969 38.460938 96.457031 38.539062 C 96.375 38.542969 96.296875 38.570312 96.238281 38.617188 Z M 108.089844 37.851562 C 108.082031 37.832031 108.058594 37.828125 108.039062 37.839844 C 107.722656 38.027344 107.523438 38.417969 107.566406 38.800781 C 107.570312 38.832031 107.585938 38.855469 107.609375 38.871094 C 107.652344 38.898438 107.707031 38.882812 107.734375 38.839844 C 107.796875 38.738281 107.859375 38.660156 107.929688 38.644531 C 108.003906 38.625 108.039062 38.664062 108.066406 38.773438 C 108.121094 38.964844 108.015625 39.191406 107.808594 39.273438 C 107.789062 39.285156 107.777344 39.304688 107.78125 39.324219 C 107.785156 39.347656 107.808594 39.363281 107.832031 39.355469 C 107.960938 39.328125 108.082031 39.25 108.160156 39.136719 C 108.234375 39.019531 108.261719 38.875 108.238281 38.734375 C 108.222656 38.667969 108.203125 38.597656 108.140625 38.53125 C 108.070312 38.460938 107.96875 38.445312 107.890625 38.464844 C 107.832031 38.476562 107.789062 38.5 107.75 38.53125 C 107.78125 38.296875 107.898438 38.066406 108.082031 37.894531 C 108.09375 37.886719 108.101562 37.867188 108.089844 37.851562 Z M 102.476562 41.945312 C 102.246094 41.953125 102.019531 41.925781 101.78125 41.894531 C 101.765625 41.894531 101.753906 41.898438 101.746094 41.914062 C 101.734375 41.929688 101.742188 41.953125 101.757812 41.964844 C 101.976562 42.082031 102.226562 42.128906 102.476562 42.136719 C 102.722656 42.132812 102.972656 42.089844 103.191406 41.972656 C 103.207031 41.964844 103.21875 41.949219 103.214844 41.929688 C 103.210938 41.90625 103.191406 41.886719 103.167969 41.890625 C 102.929688 41.917969 102.707031 41.953125 102.476562 41.945312 Z M 106.496094 36.238281 C 106.519531 36.242188 106.550781 36.234375 106.570312 36.214844 C 106.59375 36.179688 106.589844 36.136719 106.558594 36.109375 C 106.40625 35.976562 106.234375 35.875 106.058594 35.78125 C 105.882812 35.6875 105.695312 35.613281 105.507812 35.546875 C 105.316406 35.488281 105.121094 35.433594 104.921875 35.40625 C 104.726562 35.375 104.527344 35.355469 104.324219 35.371094 C 104.292969 35.375 104.261719 35.394531 104.25 35.425781 C 104.230469 35.46875 104.253906 35.523438 104.296875 35.539062 C 104.480469 35.613281 104.664062 35.667969 104.847656 35.730469 L 105.390625 35.90625 L 105.9375 36.078125 C 106.117188 36.132812 106.300781 36.191406 106.496094 36.238281 Z M 100.605469 35.289062 C 100.839844 35.242188 101.074219 35.210938 101.3125 35.167969 C 101.347656 35.164062 101.378906 35.136719 101.386719 35.097656 C 101.394531 35.050781 101.363281 35.007812 101.316406 34.996094 C 101.070312 34.949219 100.816406 34.941406 100.566406 34.957031 C 100.3125 34.972656 100.0625 35.019531 99.820312 35.085938 C 99.578125 35.15625 99.339844 35.246094 99.117188 35.367188 C 98.894531 35.484375 98.683594 35.621094 98.496094 35.792969 C 98.476562 35.8125 98.46875 35.84375 98.480469 35.871094 C 98.492188 35.910156 98.535156 35.929688 98.574219 35.914062 C 98.800781 35.828125 99.023438 35.734375 99.246094 35.660156 C 99.46875 35.582031 99.691406 35.511719 99.921875 35.449219 C 100.148438 35.386719 100.375 35.335938 100.605469 35.289062 Z M 93.597656 99.070312 C 93.089844 99.027344 92.582031 99.007812 92.078125 98.988281 C 91.574219 98.972656 91.070312 98.976562 90.5625 98.96875 C 90.058594 98.976562 89.550781 98.976562 89.046875 98.996094 C 88.542969 99.015625 88.039062 99.039062 87.53125 99.085938 C 87.496094 99.085938 87.46875 99.117188 87.464844 99.152344 C 87.460938 99.191406 87.492188 99.222656 87.53125 99.230469 C 88.039062 99.273438 88.542969 99.296875 89.046875 99.316406 C 89.550781 99.335938 90.058594 99.335938 90.5625 99.34375 C 91.070312 99.339844 91.574219 99.339844 92.078125 99.324219 C 92.582031 99.308594 93.089844 99.285156 93.597656 99.242188 C 93.636719 99.238281 93.667969 99.207031 93.675781 99.164062 C 93.675781 99.117188 93.644531 99.074219 93.597656 99.070312 Z M 81.046875 91.171875 L 81.050781 91.167969 C 81.371094 90.878906 81.671875 90.578125 81.96875 90.273438 C 82.269531 89.972656 82.554688 89.660156 82.839844 89.347656 C 83.125 89.027344 83.410156 88.710938 83.679688 88.382812 C 83.949219 88.054688 84.21875 87.722656 84.472656 87.375 L 84.476562 87.371094 C 84.5 87.339844 84.496094 87.292969 84.46875 87.265625 C 84.4375 87.230469 84.382812 87.226562 84.347656 87.257812 C 84.03125 87.546875 83.730469 87.847656 83.433594 88.15625 C 83.132812 88.460938 82.847656 88.777344 82.5625 89.09375 C 82.28125 89.414062 81.996094 89.734375 81.726562 90.066406 C 81.457031 90.394531 81.191406 90.730469 80.9375 91.074219 C 80.917969 91.101562 80.921875 91.140625 80.945312 91.164062 C 80.972656 91.195312 81.015625 91.199219 81.046875 91.171875 Z M 137.023438 44.542969 C 136.652344 44.496094 136.285156 44.476562 135.914062 44.460938 C 135.546875 44.441406 135.179688 44.4375 134.808594 44.4375 C 134.441406 44.445312 134.070312 44.445312 133.703125 44.46875 C 133.335938 44.488281 132.96875 44.507812 132.597656 44.554688 C 132.566406 44.558594 132.539062 44.585938 132.535156 44.617188 C 132.527344 44.65625 132.558594 44.695312 132.597656 44.699219 C 132.96875 44.746094 133.335938 44.769531 133.703125 44.789062 C 134.070312 44.808594 134.441406 44.8125 134.808594 44.816406 C 135.179688 44.816406 135.546875 44.8125 135.914062 44.792969 C 136.285156 44.777344 136.652344 44.757812 137.023438 44.714844 C 137.0625 44.707031 137.089844 44.679688 137.097656 44.636719 C 137.101562 44.589844 137.070312 44.546875 137.023438 44.542969 Z M 129.972656 57.917969 C 129.816406 57.738281 129.636719 57.574219 129.433594 57.449219 C 129.230469 57.324219 129.011719 57.230469 128.777344 57.1875 C 128.75 57.183594 128.722656 57.195312 128.703125 57.21875 C 128.6875 57.246094 128.695312 57.277344 128.710938 57.300781 C 128.675781 57.277344 128.640625 57.246094 128.597656 57.226562 C 128.578125 57.214844 128.550781 57.214844 128.527344 57.226562 C 128.492188 57.246094 128.476562 57.292969 128.5 57.328125 L 128.5 57.332031 C 128.566406 57.457031 128.632812 57.574219 128.6875 57.695312 C 128.742188 57.816406 128.789062 57.9375 128.828125 58.058594 C 128.867188 58.183594 128.898438 58.308594 128.925781 58.4375 C 128.953125 58.566406 128.964844 58.695312 128.988281 58.839844 L 128.988281 58.84375 C 128.992188 58.871094 129.007812 58.894531 129.035156 58.910156 C 129.078125 58.929688 129.132812 58.914062 129.152344 58.871094 C 129.226562 58.726562 129.253906 58.570312 129.257812 58.410156 C 129.265625 58.25 129.234375 58.09375 129.1875 57.941406 C 129.132812 57.792969 129.058594 57.648438 128.957031 57.527344 C 128.917969 57.476562 128.875 57.4375 128.832031 57.394531 C 128.976562 57.492188 129.117188 57.59375 129.246094 57.707031 C 129.402344 57.847656 129.554688 57.996094 129.683594 58.160156 C 129.820312 58.320312 129.9375 58.492188 130.046875 58.671875 C 130.15625 58.855469 130.246094 59.046875 130.332031 59.25 C 130.347656 59.28125 130.378906 59.304688 130.414062 59.304688 C 130.464844 59.304688 130.503906 59.261719 130.5 59.214844 C 130.496094 58.980469 130.4375 58.746094 130.347656 58.523438 C 130.257812 58.304688 130.128906 58.101562 129.972656 57.917969 Z M 115.199219 56.316406 C 115.550781 57.15625 115.894531 58 116.207031 58.851562 C 116.535156 59.699219 116.832031 60.5625 117.125 61.421875 C 117.414062 62.285156 117.6875 63.152344 117.957031 64.027344 C 117.96875 64.058594 118.003906 64.082031 118.042969 64.074219 C 118.078125 64.066406 118.105469 64.027344 118.097656 63.988281 C 117.914062 63.09375 117.6875 62.207031 117.425781 61.324219 C 117.171875 60.445312 116.871094 59.582031 116.558594 58.71875 C 116.230469 57.863281 115.886719 57.015625 115.503906 56.183594 C 115.121094 55.351562 114.714844 54.53125 114.261719 53.734375 C 114.238281 53.695312 114.191406 53.679688 114.152344 53.699219 C 114.105469 53.71875 114.085938 53.769531 114.105469 53.8125 C 114.480469 54.644531 114.847656 55.476562 115.199219 56.316406 Z M 91.773438 57.644531 C 92.269531 58.808594 92.59375 60.050781 92.691406 61.3125 C 92.808594 62.570312 92.703125 63.847656 92.414062 65.082031 C 92.121094 66.3125 91.640625 67.503906 90.980469 68.597656 C 90.957031 68.636719 90.96875 68.6875 91.007812 68.710938 C 91.046875 68.738281 91.097656 68.730469 91.125 68.691406 C 91.863281 67.625 92.410156 66.421875 92.738281 65.160156 C 93.066406 63.898438 93.175781 62.582031 93.070312 61.277344 C 92.945312 59.976562 92.609375 58.699219 92.0625 57.515625 C 91.519531 56.332031 90.773438 55.242188 89.863281 54.324219 C 89.835938 54.296875 89.792969 54.292969 89.761719 54.320312 C 89.734375 54.347656 89.730469 54.390625 89.757812 54.421875 C 90.59375 55.386719 91.273438 56.480469 91.773438 57.644531 Z M 75.84375 80.996094 C 76.238281 81.054688 76.621094 81.140625 76.980469 81.28125 C 77.339844 81.417969 77.679688 81.597656 77.992188 81.820312 C 78.035156 81.851562 78.097656 81.863281 78.152344 81.851562 C 78.253906 81.820312 78.3125 81.71875 78.285156 81.621094 C 78.089844 80.910156 77.53125 80.328125 76.863281 80.105469 C 76.828125 80.09375 76.785156 80.105469 76.761719 80.140625 C 76.738281 80.183594 76.75 80.234375 76.792969 80.261719 C 77.183594 80.503906 77.507812 80.835938 77.71875 81.21875 C 77.515625 81.117188 77.300781 81.03125 77.082031 80.96875 C 76.679688 80.859375 76.257812 80.808594 75.847656 80.855469 C 75.816406 80.859375 75.789062 80.882812 75.78125 80.917969 C 75.777344 80.957031 75.804688 80.992188 75.84375 80.996094 Z M 101.382812 41.433594 C 101.78125 41.539062 102.203125 41.605469 102.628906 41.605469 C 103.054688 41.597656 103.488281 41.523438 103.882812 41.355469 C 104.277344 41.191406 104.644531 40.949219 104.921875 40.625 C 104.945312 40.59375 104.949219 40.546875 104.921875 40.515625 C 104.894531 40.476562 104.839844 40.472656 104.800781 40.5 C 104.488281 40.742188 104.136719 40.925781 103.769531 41.042969 C 103.398438 41.160156 103.015625 41.226562 102.625 41.226562 C 102.234375 41.234375 101.84375 41.183594 101.445312 41.121094 L 100.84375 41.023438 C 100.644531 40.992188 100.453125 40.957031 100.277344 40.878906 C 100.246094 40.867188 100.210938 40.875 100.191406 40.902344 C 100.167969 40.933594 100.171875 40.980469 100.203125 41.003906 C 100.378906 41.140625 100.59375 41.203125 100.789062 41.269531 C 100.984375 41.328125 101.179688 41.382812 101.382812 41.433594 Z M 102.902344 45.378906 C 103.332031 45.355469 103.765625 45.277344 104.171875 45.113281 C 104.347656 45.042969 104.515625 44.953125 104.675781 44.855469 L 104.675781 46.035156 C 108.550781 45.457031 111.386719 43.433594 111.386719 39.195312 C 111.386719 34.050781 107.214844 27.59375 102.070312 27.59375 C 96.925781 27.59375 92.753906 34.050781 92.753906 39.195312 C 92.753906 43.433594 95.585938 45.457031 99.464844 46.035156 L 99.464844 44.582031 C 98.863281 44.226562 98.269531 43.710938 97.816406 42.960938 C 97.390625 42.253906 97.085938 41.414062 96.871094 40.546875 C 95.152344 40.3125 94.90625 37.761719 95.585938 37.109375 C 95.859375 36.847656 96.144531 36.871094 96.394531 37 C 96.332031 35.515625 96.425781 34.417969 96.425781 34.417969 C 96.425781 34.417969 99.207031 34.789062 101.332031 31.8125 C 101.746094 32.804688 102.925781 33.722656 103.699219 34.007812 C 103.652344 33.332031 103.476562 32.664062 103.1875 32.050781 C 103.699219 32.386719 104.300781 32.582031 104.910156 32.605469 C 104.445312 32.300781 104.109375 31.800781 104.007812 31.25 C 104.320312 31.269531 104.636719 31.289062 104.953125 31.304688 C 104.832031 31.296875 104.515625 30.980469 104.273438 30.757812 C 107.367188 31.546875 107.714844 34.417969 107.714844 34.417969 C 107.714844 34.417969 107.808594 35.515625 107.746094 37 C 107.992188 36.871094 108.28125 36.847656 108.554688 37.109375 C 109.234375 37.761719 108.988281 40.3125 107.269531 40.546875 C 107.054688 41.414062 106.75 42.253906 106.324219 42.960938 C 105.9375 43.601562 105.445312 44.070312 104.9375 44.414062 C 104.660156 44.585938 104.367188 44.722656 104.0625 44.8125 C 103.683594 44.925781 103.285156 44.988281 102.882812 45 C 102.480469 45.023438 102.078125 44.996094 101.667969 44.957031 C 101.261719 44.914062 100.855469 44.847656 100.445312 44.785156 C 100.40625 44.78125 100.367188 44.800781 100.351562 44.839844 C 100.335938 44.882812 100.355469 44.933594 100.402344 44.949219 C 100.792969 45.101562 101.203125 45.210938 101.625 45.289062 C 102.042969 45.367188 102.46875 45.398438 102.902344 45.378906 Z M 102.777344 40.070312 L 102.769531 40.070312 C 102.738281 40.082031 102.710938 40.113281 102.710938 40.148438 C 102.707031 40.195312 102.742188 40.238281 102.789062 40.238281 C 103.109375 40.261719 103.378906 40.015625 103.492188 39.734375 C 103.609375 39.445312 103.582031 39.144531 103.535156 38.886719 C 103.480469 38.625 103.40625 38.367188 103.296875 38.125 C 103.1875 37.882812 103.054688 37.652344 102.882812 37.449219 C 102.863281 37.425781 102.832031 37.414062 102.800781 37.425781 C 102.765625 37.4375 102.746094 37.480469 102.757812 37.519531 C 102.84375 37.761719 102.929688 37.996094 102.996094 38.234375 C 103.0625 38.472656 103.121094 38.710938 103.164062 38.953125 C 103.207031 39.191406 103.226562 39.421875 103.175781 39.625 C 103.125 39.820312 102.984375 40.011719 102.777344 40.070312 Z M 100.621094 36.90625 C 100.621094 36.566406 100.40625 36.292969 100.140625 36.292969 C 99.871094 36.292969 99.65625 36.566406 99.65625 36.90625 C 99.65625 37.246094 99.871094 37.523438 100.140625 37.523438 C 100.40625 37.523438 100.621094 37.246094 100.621094 36.90625 Z M 105.050781 36.292969 C 104.78125 36.292969 104.566406 36.566406 104.566406 36.90625 C 104.566406 37.246094 104.78125 37.523438 105.050781 37.523438 C 105.316406 37.523438 105.53125 37.246094 105.53125 36.90625 C 105.53125 36.566406 105.316406 36.292969 105.050781 36.292969 Z M 105.171875 90.390625 C 104.828125 90.390625 104.550781 90.667969 104.550781 91.011719 C 104.550781 91.355469 104.828125 91.632812 105.171875 91.632812 C 105.515625 91.632812 105.792969 91.355469 105.792969 91.011719 C 105.792969 90.667969 105.515625 90.390625 105.171875 90.390625 Z M 107.039062 82.441406 C 107.039062 82.097656 106.757812 81.820312 106.414062 81.820312 C 106.070312 81.820312 105.792969 82.097656 105.792969 82.441406 C 105.792969 82.78125 106.070312 83.0625 106.414062 83.0625 C 106.757812 83.0625 107.039062 82.78125 107.039062 82.441406 Z M 107.292969 72.574219 C 107.292969 72.917969 107.570312 73.199219 107.914062 73.199219 C 108.257812 73.199219 108.535156 72.917969 108.535156 72.574219 C 108.535156 72.234375 108.257812 71.953125 107.914062 71.953125 C 107.570312 71.953125 107.292969 72.234375 107.292969 72.574219 Z M 108.859375 64.359375 C 109.203125 64.359375 109.480469 64.082031 109.480469 63.738281 C 109.480469 63.394531 109.203125 63.117188 108.859375 63.117188 C 108.515625 63.117188 108.238281 63.394531 108.238281 63.738281 C 108.238281 64.082031 108.515625 64.359375 108.859375 64.359375 Z M 105.066406 58.105469 C 105.40625 58.105469 105.6875 57.828125 105.6875 57.484375 C 105.6875 57.140625 105.40625 56.863281 105.066406 56.863281 C 104.722656 56.863281 104.441406 57.140625 104.441406 57.484375 C 104.441406 57.828125 104.722656 58.105469 105.066406 58.105469 Z M 109.09375 81.84375 L 111.003906 70.457031 L 111.957031 64.761719 L 112.078125 64.050781 L 112.136719 63.691406 C 112.152344 63.566406 112.175781 63.433594 112.183594 63.300781 C 112.230469 62.777344 112.179688 62.246094 112.039062 61.738281 C 111.902344 61.230469 111.671875 60.746094 111.367188 60.316406 C 111.21875 60.105469 111.035156 59.894531 110.863281 59.722656 L 110.363281 59.203125 L 102.425781 50.96875 L 101.867188 47.878906 C 101.828125 47.671875 101.632812 47.535156 101.425781 47.574219 C 101.222656 47.609375 101.085938 47.808594 101.121094 48.011719 L 101.691406 51.21875 L 101.714844 51.332031 L 101.792969 51.417969 L 109.800781 59.742188 L 110.300781 60.265625 C 110.464844 60.433594 110.601562 60.585938 110.730469 60.769531 C 110.980469 61.125 111.171875 61.523438 111.285156 61.945312 C 111.402344 62.363281 111.445312 62.804688 111.410156 63.238281 C 111.402344 63.347656 111.382812 63.453125 111.367188 63.5625 L 111.308594 63.921875 L 111.191406 64.632812 L 108.347656 81.71875 L 107.417969 87.417969 C 107.113281 89.320312 106.804688 91.21875 106.527344 93.125 C 106.503906 93.28125 106.605469 93.425781 106.761719 93.453125 C 106.921875 93.484375 107.074219 93.378906 107.105469 93.21875 C 107.460938 91.328125 107.789062 89.433594 108.117188 87.535156 Z M 117.398438 37.417969 L 118.425781 38.617188 L 153.617188 38.617188 L 154.644531 37.417969 Z M 121.742188 188.757812 C 117.238281 188.027344 114.167969 187.042969 114.167969 187.042969 C 114.167969 187.042969 113.6875 188.757812 111.675781 188.996094 C 109.660156 189.230469 108.601562 188.878906 108.601562 188.878906 C 108.601562 188.878906 108.003906 189.90625 107.828125 191.402344 L 126.652344 191.402344 C 127.023438 191.402344 127.195312 190.933594 126.902344 190.703125 C 126.121094 190.085938 124.566406 189.21875 121.742188 188.757812 Z M 88.023438 188.050781 C 88.023438 188.050781 88.816406 189.195312 88.402344 191.402344 L 75.078125 191.402344 C 75.078125 191.402344 76.027344 189.054688 78.453125 188.460938 C 80.804688 187.890625 82.707031 187.632812 82.707031 187.632812 C 82.707031 187.632812 82.734375 187.648438 82.78125 187.679688 C 84.054688 188.460938 85.597656 188.675781 87.042969 188.300781 L 88.023438 188.050781 "
            fill-opacity="1" fill-rule="nonzero" />
    </g>
    <g clip-path="url(#4c44cd329c)">
        <path fill="#f55951"
            d="M 149.179688 68.945312 L 149.183594 68.945312 C 149.707031 69.054688 150.195312 69.175781 150.667969 69.339844 C 151.136719 69.507812 151.59375 69.699219 152.019531 69.941406 C 152.453125 70.171875 152.859375 70.449219 153.25 70.753906 C 153.640625 71.0625 154.003906 71.40625 154.378906 71.78125 L 154.382812 71.785156 C 154.449219 71.851562 154.550781 71.882812 154.644531 71.851562 C 154.785156 71.808594 154.863281 71.664062 154.824219 71.523438 C 154.65625 70.964844 154.339844 70.457031 153.945312 70.023438 C 153.554688 69.582031 153.074219 69.222656 152.558594 68.945312 C 152.035156 68.671875 151.46875 68.476562 150.886719 68.398438 C 150.308594 68.320312 149.710938 68.339844 149.15625 68.515625 C 149.082031 68.539062 149.019531 68.597656 149.003906 68.679688 C 148.980469 68.800781 149.058594 68.917969 149.179688 68.945312 Z M 151.738281 63.628906 C 151.714844 63.773438 151.816406 63.90625 151.957031 63.925781 L 151.964844 63.925781 C 152.613281 64.023438 153.230469 64.152344 153.828125 64.335938 C 154.425781 64.523438 155.003906 64.757812 155.550781 65.050781 C 156.101562 65.335938 156.617188 65.6875 157.109375 66.078125 C 157.601562 66.46875 158.054688 66.914062 158.496094 67.40625 L 158.5 67.40625 C 158.558594 67.46875 158.648438 67.496094 158.734375 67.46875 C 158.851562 67.429688 158.914062 67.304688 158.871094 67.1875 C 158.648438 66.519531 158.253906 65.90625 157.773438 65.378906 C 157.292969 64.84375 156.714844 64.40625 156.085938 64.054688 C 155.453125 63.714844 154.765625 63.464844 154.058594 63.351562 C 153.351562 63.234375 152.621094 63.238281 151.933594 63.414062 C 151.835938 63.4375 151.753906 63.519531 151.738281 63.628906 Z M 155.992188 57.652344 C 155.972656 57.792969 156.070312 57.925781 156.210938 57.949219 L 156.214844 57.949219 C 156.867188 58.046875 157.484375 58.171875 158.082031 58.359375 C 158.679688 58.546875 159.257812 58.777344 159.800781 59.074219 C 160.355469 59.359375 160.871094 59.707031 161.363281 60.097656 C 161.851562 60.492188 162.308594 60.9375 162.753906 61.425781 L 162.753906 61.429688 C 162.8125 61.492188 162.902344 61.519531 162.988281 61.488281 C 163.105469 61.453125 163.164062 61.324219 163.125 61.210938 C 162.898438 60.542969 162.507812 59.929688 162.027344 59.398438 C 161.546875 58.867188 160.96875 58.425781 160.339844 58.078125 C 159.703125 57.738281 159.019531 57.488281 158.3125 57.375 C 157.605469 57.257812 156.875 57.261719 156.1875 57.4375 C 156.085938 57.460938 156.007812 57.542969 155.992188 57.652344 Z M 159.765625 52.527344 C 159.738281 52.667969 159.832031 52.808594 159.976562 52.832031 L 159.984375 52.835938 C 160.523438 52.933594 161.023438 53.0625 161.507812 53.242188 C 161.984375 53.421875 162.445312 53.640625 162.878906 53.914062 C 163.316406 54.179688 163.722656 54.492188 164.113281 54.839844 C 164.503906 55.1875 164.867188 55.578125 165.242188 55.996094 L 165.242188 56 C 165.296875 56.058594 165.378906 56.085938 165.460938 56.066406 C 165.582031 56.039062 165.652344 55.917969 165.625 55.796875 C 165.480469 55.21875 165.195312 54.671875 164.828125 54.191406 C 164.460938 53.703125 163.996094 53.289062 163.480469 52.957031 C 162.957031 52.628906 162.378906 52.382812 161.769531 52.269531 C 161.167969 52.148438 160.535156 52.152344 159.949219 52.324219 C 159.859375 52.351562 159.785156 52.425781 159.765625 52.527344 Z M 163.800781 49.011719 L 163.8125 49.011719 C 164.238281 49.121094 164.625 49.234375 164.996094 49.382812 C 165.367188 49.53125 165.714844 49.710938 166.054688 49.917969 C 166.394531 50.125 166.714844 50.363281 167.027344 50.625 C 167.339844 50.886719 167.636719 51.179688 167.960938 51.5 L 167.964844 51.503906 C 168.015625 51.554688 168.089844 51.578125 168.164062 51.5625 C 168.285156 51.542969 168.367188 51.421875 168.34375 51.300781 C 168.253906 50.820312 168.035156 50.371094 167.742188 49.972656 C 167.449219 49.574219 167.078125 49.226562 166.65625 48.957031 C 166.234375 48.6875 165.757812 48.496094 165.261719 48.410156 C 164.765625 48.320312 164.25 48.332031 163.777344 48.5 C 163.699219 48.53125 163.632812 48.597656 163.609375 48.6875 C 163.574219 48.828125 163.660156 48.972656 163.800781 49.011719 Z M 153.085938 59.347656 C 159.355469 50.433594 166.800781 44.867188 169.710938 46.914062 C 172.621094 48.960938 169.898438 57.84375 163.628906 66.757812 C 157.359375 75.671875 149.917969 81.238281 147.003906 79.191406 C 144.09375 77.144531 146.816406 68.261719 153.085938 59.347656 Z M 49.429688 115.441406 C 49.242188 114.644531 48.933594 113.871094 48.53125 113.15625 C 48.332031 112.792969 48.109375 112.453125 47.859375 112.109375 C 47.59375 111.777344 47.300781 111.453125 46.945312 111.195312 C 46.246094 110.65625 45.359375 110.378906 44.53125 110.414062 C 44.433594 110.417969 44.34375 110.472656 44.300781 110.570312 C 44.242188 110.703125 44.300781 110.855469 44.433594 110.917969 L 44.4375 110.917969 C 44.789062 111.078125 45.121094 111.238281 45.425781 111.414062 C 45.726562 111.597656 46 111.804688 46.257812 112.03125 C 46.761719 112.5 47.203125 113.070312 47.601562 113.703125 C 47.996094 114.328125 48.332031 114.996094 48.59375 115.695312 C 48.863281 116.398438 49.058594 117.132812 49.222656 117.886719 L 49.222656 117.890625 C 49.246094 117.984375 49.324219 118.054688 49.425781 118.0625 C 49.546875 118.066406 49.648438 117.972656 49.65625 117.855469 C 49.691406 117.054688 49.617188 116.238281 49.429688 115.441406 Z M 46.1875 119.929688 C 46.207031 118.980469 46.109375 118.023438 45.894531 117.089844 C 45.679688 116.152344 45.351562 115.230469 44.878906 114.367188 C 44.402344 113.507812 43.769531 112.679688 42.890625 112.117188 C 42.457031 111.832031 41.957031 111.628906 41.4375 111.535156 C 40.921875 111.4375 40.378906 111.484375 39.898438 111.660156 C 39.800781 111.695312 39.730469 111.785156 39.726562 111.890625 C 39.71875 112.035156 39.832031 112.15625 39.976562 112.164062 L 39.984375 112.164062 C 40.859375 112.199219 41.613281 112.511719 42.269531 113.011719 C 42.925781 113.511719 43.492188 114.160156 43.945312 114.90625 C 44.398438 115.652344 44.765625 116.476562 45.054688 117.324219 C 45.351562 118.179688 45.574219 119.0625 45.757812 119.964844 L 45.761719 119.96875 C 45.777344 120.066406 45.863281 120.140625 45.96875 120.140625 C 46.089844 120.144531 46.1875 120.046875 46.1875 119.929688 Z M 42.046875 118.378906 C 41.832031 117.609375 41.492188 116.863281 41.015625 116.195312 C 40.53125 115.53125 39.894531 114.9375 39.125 114.585938 C 38.363281 114.21875 37.453125 114.113281 36.671875 114.371094 C 36.589844 114.402344 36.527344 114.480469 36.523438 114.570312 C 36.515625 114.691406 36.609375 114.796875 36.730469 114.800781 L 36.738281 114.800781 C 37.457031 114.832031 38.105469 115.058594 38.664062 115.425781 C 39.226562 115.792969 39.707031 116.28125 40.09375 116.847656 C 40.492188 117.410156 40.8125 118.046875 41.089844 118.703125 C 41.363281 119.367188 41.578125 120.058594 41.792969 120.777344 L 41.792969 120.785156 C 41.824219 120.882812 41.914062 120.960938 42.023438 120.96875 C 42.167969 120.976562 42.292969 120.867188 42.300781 120.726562 C 42.355469 119.941406 42.265625 119.144531 42.046875 118.378906 Z M 53.226562 117.605469 C 53.226562 121.734375 48.695312 125.078125 43.105469 125.078125 C 37.515625 125.078125 32.984375 121.734375 32.984375 117.605469 C 32.984375 113.480469 36.3125 108.621094 41.902344 108.621094 C 47.492188 108.621094 53.226562 113.480469 53.226562 117.605469 Z M 77.949219 13.480469 C 77.882812 13.503906 77.816406 13.53125 77.753906 13.5625 C 77.226562 13.085938 76.46875 12.882812 75.734375 13.105469 C 75.476562 13.183594 75.246094 13.308594 75.046875 13.464844 C 74.039062 11.839844 72.03125 11.023438 70.113281 11.601562 C 68.296875 12.152344 67.109375 13.785156 67.039062 15.582031 C 66.84375 15.585938 66.648438 15.613281 66.449219 15.671875 C 65.613281 15.921875 65.050781 16.648438 64.96875 17.464844 C 64.851562 17.460938 64.730469 17.472656 64.609375 17.507812 C 64.027344 17.683594 63.699219 18.296875 63.875 18.878906 C 64.050781 19.460938 64.664062 19.792969 65.246094 19.617188 C 65.4375 19.558594 65.601562 19.449219 65.730469 19.3125 C 66.253906 19.738281 66.972656 19.902344 67.667969 19.695312 C 68.042969 19.582031 68.363281 19.367188 68.609375 19.097656 C 69.691406 19.984375 71.179688 20.335938 72.621094 19.902344 C 74.050781 19.46875 75.089844 18.367188 75.507812 17.042969 C 75.945312 17.234375 76.457031 17.277344 76.953125 17.128906 C 77.683594 16.90625 78.207031 16.320312 78.378906 15.628906 C 78.449219 15.625 78.519531 15.613281 78.585938 15.589844 C 79.171875 15.414062 79.5 14.800781 79.324219 14.21875 C 79.148438 13.636719 78.53125 13.308594 77.949219 13.480469 Z M 172.585938 128.082031 C 172.25 128 171.875 127.980469 171.523438 128.121094 C 170.535156 128.519531 168.492188 130.59375 167.914062 130.738281 C 167.339844 130.882812 166.292969 130.8125 166.292969 130.8125 L 165.949219 130.199219 C 165.539062 129.464844 164.613281 129.203125 163.882812 129.609375 L 144.71875 140.300781 C 143.988281 140.707031 143.722656 141.632812 144.132812 142.367188 L 144.476562 142.980469 C 144.476562 142.980469 143.988281 143.910156 143.5625 144.324219 C 143.136719 144.738281 140.296875 145.386719 139.4375 146.019531 C 139.132812 146.242188 138.953125 146.570312 138.847656 146.902344 C 138.613281 147.648438 139.054688 148.441406 139.8125 148.632812 C 140.152344 148.71875 140.527344 148.738281 140.875 148.59375 C 141.863281 148.195312 143.910156 146.121094 144.484375 145.976562 C 145.0625 145.832031 146.109375 145.902344 146.109375 145.902344 L 146.453125 146.519531 C 146.863281 147.253906 147.789062 147.515625 148.519531 147.105469 L 167.679688 136.417969 C 168.414062 136.007812 168.675781 135.082031 168.269531 134.351562 L 167.925781 133.734375 C 167.925781 133.734375 168.414062 132.804688 168.839844 132.394531 C 169.265625 131.980469 172.105469 131.328125 172.964844 130.699219 C 173.269531 130.472656 173.449219 130.144531 173.554688 129.8125 C 173.789062 129.070312 173.347656 128.273438 172.585938 128.082031 Z M 100.648438 22.992188 C 95.617188 23.273438 94.277344 26.925781 94.277344 26.925781 L 95.011719 27.0625 C 95.011719 27.0625 99.125 20.898438 108.917969 26.40625 L 109.625 25.582031 C 109.625 25.582031 105.617188 22.710938 100.648438 22.992188 Z M 140.523438 37.417969 C 142.371094 37.417969 143.871094 37.578125 143.871094 36.472656 C 143.871094 35.363281 142.371094 33.40625 140.523438 33.40625 C 138.675781 33.40625 137.179688 35.363281 137.179688 36.472656 C 137.179688 37.578125 138.675781 37.417969 140.523438 37.417969 Z M 131.636719 33.40625 C 129.789062 33.40625 128.289062 35.363281 128.289062 36.472656 C 128.289062 37.578125 129.789062 37.417969 131.636719 37.417969 C 133.484375 37.417969 134.980469 37.578125 134.980469 36.472656 C 134.980469 35.363281 133.484375 33.40625 131.636719 33.40625 Z M 122.746094 33.40625 C 120.898438 33.40625 119.402344 35.363281 119.402344 36.472656 C 119.402344 37.578125 120.898438 37.417969 122.746094 37.417969 C 124.59375 37.417969 126.09375 37.578125 126.09375 36.472656 C 126.09375 35.363281 124.59375 33.40625 122.746094 33.40625 Z M 146.066406 36.472656 C 146.066406 35.363281 147.566406 33.40625 149.414062 33.40625 C 151.261719 33.40625 152.757812 35.363281 152.757812 36.472656 C 152.757812 37.578125 151.261719 37.417969 149.414062 37.417969 C 147.566406 37.417969 146.066406 37.578125 146.066406 36.472656 "
            fill-opacity="1" fill-rule="nonzero" />
    </g>
</svg>