<svg xmlns="http://www.w3.org/2000/svg" xmlns:xlink="http://www.w3.org/1999/xlink" width="256" zoomAndPan="magnify" viewBox="0 0 192 191.999996" height="256" preserveAspectRatio="xMidYMid meet" version="1.0"><defs><clipPath id="a2497db5c9"><path d="M 44 9.601562 L 148 9.601562 L 148 182 L 44 182 Z M 44 9.601562 " clip-rule="nonzero"/></clipPath></defs><rect x="-19.2" width="230.4" fill="#ffffff" y="-19.2" height="230.399995" fill-opacity="1"/><rect x="-19.2" width="230.4" fill="#ffffff" y="-19.2" height="230.399995" fill-opacity="1"/><g clip-path="url(#a2497db5c9)"><path fill="#f55951" d="M 92.238281 163.839844 C 91.773438 162.15625 91.980469 160.378906 91.859375 158.636719 C 90.71875 159.925781 89.558594 161.21875 88.359375 162.515625 C 87.523438 163.414062 86.664062 164.371094 85.769531 165.320312 C 87.988281 164.917969 90.136719 164.417969 92.238281 163.839844 Z M 98.902344 107.785156 C 96.679688 104.449219 91.292969 102.480469 88.503906 99.871094 C 86.234375 97.742188 84.414062 95.421875 83.054688 92.773438 C 83.054688 92.800781 83.054688 92.824219 83.054688 92.851562 C 83.0625 93.152344 83.074219 93.457031 83.082031 93.78125 C 83.144531 94.132812 83.199219 94.496094 83.261719 94.859375 L 83.300781 95.144531 C 83.320312 95.144531 83.351562 95.28125 83.375 95.332031 L 83.527344 95.824219 C 83.6875 96.511719 84.050781 97.105469 84.324219 97.710938 C 84.6875 98.277344 84.996094 98.851562 85.410156 99.34375 C 86.160156 100.359375 86.976562 101.214844 87.625 101.976562 C 88.972656 103.484375 89.6875 104.511719 89.527344 104.6875 C 89.359375 104.847656 88.339844 104.109375 86.785156 102.84375 C 86.019531 102.175781 85.082031 101.390625 84.179688 100.320312 C 83.710938 99.820312 83.320312 99.183594 82.882812 98.546875 C 82.53125 97.851562 82.105469 97.160156 81.902344 96.339844 L 81.722656 95.746094 C 81.691406 95.625 81.667969 95.605469 81.628906 95.394531 L 81.589844 95.121094 C 81.539062 94.746094 81.488281 94.386719 81.4375 94.023438 C 81.429688 93.617188 81.429688 93.214844 81.429688 92.824219 C 81.429688 92.621094 81.449219 92.433594 81.476562 92.238281 C 81.316406 92.359375 81.109375 92.449219 80.851562 92.488281 C 78.234375 92.914062 76.644531 94.496094 74.382812 95.632812 C 72.492188 96.574219 68.898438 96.359375 67.640625 98.09375 C 67.492188 98.304688 67.304688 98.445312 67.117188 98.554688 C 67.003906 98.679688 66.878906 98.796875 66.710938 98.890625 C 65.285156 99.707031 63.789062 99.898438 62.195312 100.070312 C 60.601562 100.238281 59.710938 100.652344 59.21875 102.265625 C 59.195312 102.328125 59.179688 102.367188 59.15625 102.417969 C 59.179688 103.304688 59.371094 104.339844 59.699219 105.441406 C 60.296875 107.414062 61.042969 109.210938 61.496094 110.558594 C 61.957031 111.910156 62.105469 112.835938 61.871094 112.90625 C 61.65625 112.976562 61.140625 112.285156 60.398438 111.0625 C 59.671875 109.832031 58.71875 108.082031 58.066406 105.914062 C 57.84375 105.148438 57.679688 104.371094 57.613281 103.617188 C 54.609375 105.378906 52.449219 107.617188 50.957031 110.179688 C 50.894531 110.496094 50.855469 110.84375 50.835938 111.207031 C 50.796875 111.496094 50.824219 111.777344 50.824219 112.070312 L 50.824219 112.511719 L 50.875 113.015625 L 50.921875 113.53125 L 50.945312 113.652344 C 50.945312 113.652344 50.957031 113.714844 50.964844 113.730469 L 51.007812 113.945312 C 51.046875 114.238281 51.175781 114.519531 51.277344 114.796875 C 51.769531 115.9375 52.617188 116.925781 53.484375 117.730469 C 54.351562 118.546875 55.230469 119.222656 55.96875 119.789062 C 57.460938 120.929688 58.390625 121.683594 58.257812 121.894531 C 58.140625 122.089844 57.019531 121.703125 55.3125 120.804688 C 54.464844 120.339844 53.472656 119.738281 52.457031 118.910156 C 51.449219 118.078125 50.382812 116.988281 49.703125 115.46875 C 49.574219 115.074219 49.414062 114.703125 49.351562 114.285156 L 49.289062 113.984375 C 49.289062 113.945312 49.28125 113.925781 49.269531 113.882812 C 46.203125 123.007812 48.875 134.746094 50.019531 144.105469 C 51.398438 140.800781 53.3125 138.148438 54.988281 136.503906 C 55.839844 135.683594 56.625 135.113281 57.226562 134.8125 C 57.84375 134.5 58.199219 134.492188 58.257812 134.570312 C 58.351562 134.796875 57.226562 135.539062 55.886719 137.316406 C 54.535156 139.046875 52.882812 141.65625 51.589844 144.757812 C 50.824219 146.585938 50.320312 148.390625 50.117188 149.980469 C 50.570312 151.804688 51.550781 153.597656 52.519531 154.835938 C 52.589844 154.925781 52.65625 155.027344 52.695312 155.128906 C 52.941406 155.375 53.105469 155.714844 53.09375 156.15625 C 53.042969 157.894531 52.417969 160.351562 53.375 161.910156 C 54.234375 163.324219 55.324219 164.566406 56.160156 165.972656 C 56.257812 166.136719 56.308594 166.296875 56.34375 166.449219 C 56.421875 166.609375 56.472656 166.789062 56.496094 166.988281 C 56.5625 167.703125 56.722656 168.332031 56.976562 168.894531 C 57.066406 168.734375 57.175781 168.570312 57.289062 168.421875 C 57.273438 168.359375 57.261719 168.3125 57.25 168.253906 C 55.984375 157.484375 62.25 146.03125 70.554688 139.472656 C 70.667969 139.378906 70.773438 139.320312 70.894531 139.261719 C 70.90625 139.25 70.917969 139.226562 70.925781 139.214844 C 72.351562 137.757812 73.917969 136.539062 75.550781 135.425781 C 75.464844 135.214844 75.265625 134.984375 74.921875 134.761719 C 74.519531 134.511719 74.023438 134.296875 73.507812 134.089844 C 72.402344 133.667969 71.460938 133.011719 70.605469 132.554688 C 70.382812 132.445312 70.167969 132.316406 69.96875 132.214844 C 69.765625 132.125 69.578125 132.035156 69.386719 131.941406 C 69.035156 131.738281 68.535156 131.648438 68.117188 131.523438 C 67.378906 131.320312 66.539062 131.285156 65.808594 131.277344 C 64.308594 131.277344 63.0625 131.277344 62.183594 131.085938 C 61.730469 131.007812 61.433594 130.882812 61.230469 130.773438 C 61.03125 130.671875 60.929688 130.59375 60.953125 130.542969 C 60.964844 130.492188 61.082031 130.472656 61.316406 130.472656 C 61.535156 130.480469 61.871094 130.511719 62.261719 130.480469 C 63.050781 130.480469 64.230469 130.320312 65.773438 130.167969 C 66.539062 130.109375 67.40625 130.046875 68.414062 130.242188 C 68.859375 130.34375 69.296875 130.382812 69.816406 130.605469 C 70.070312 130.707031 70.320312 130.804688 70.582031 130.90625 C 70.824219 131.007812 71.046875 131.125 71.289062 131.246094 C 72.261719 131.699219 73.105469 132.253906 74.117188 132.601562 C 74.632812 132.800781 75.203125 133.011719 75.789062 133.367188 C 76.082031 133.554688 76.394531 133.757812 76.667969 134.082031 C 76.691406 134.109375 76.707031 134.148438 76.730469 134.179688 C 76.898438 134.070312 77.070312 133.945312 77.246094 133.828125 C 77.394531 133.746094 77.546875 133.679688 77.699219 133.59375 C 77.648438 133.542969 77.597656 133.503906 77.550781 133.453125 C 77.382812 133.316406 77.171875 133.101562 76.898438 132.816406 C 76.730469 132.628906 76.515625 132.398438 76.292969 132.140625 C 75.175781 130.945312 74.136719 129.695312 73.390625 128.347656 C 72.167969 126.234375 71.1875 124.449219 70.050781 123.105469 C 67.792969 120.4375 65.738281 119.386719 65.902344 119.125 C 65.964844 118.984375 68.257812 119.636719 70.9375 122.296875 C 71.421875 122.804688 71.898438 123.386719 72.367188 124 C 72.160156 123.410156 71.949219 122.8125 71.734375 122.191406 C 71.382812 121.203125 71.070312 120.183594 70.582031 119.144531 C 70.140625 118.105469 69.710938 117.101562 69.296875 116.121094 L 69.164062 115.800781 L 68.988281 115.4375 C 68.878906 115.183594 68.769531 114.945312 68.660156 114.710938 C 68.445312 114.230469 68.261719 113.765625 68.070312 113.3125 C 67.34375 111.472656 66.710938 109.875 66.101562 108.5625 C 65.773438 107.9375 65.488281 107.324219 65.195312 106.859375 C 64.882812 106.40625 64.683594 105.964844 64.410156 105.640625 C 63.886719 105 63.648438 104.597656 63.726562 104.511719 C 63.804688 104.433594 64.207031 104.664062 64.878906 105.167969 C 65.207031 105.410156 65.542969 105.84375 65.964844 106.304688 C 66.378906 106.78125 66.730469 107.355469 67.164062 107.988281 C 67.941406 109.289062 68.714844 110.910156 69.515625 112.6875 C 69.714844 113.128906 69.917969 113.582031 70.140625 114.035156 C 70.253906 114.257812 70.363281 114.480469 70.472656 114.710938 L 70.632812 115.054688 L 70.824219 115.457031 C 71.25 116.4375 71.695312 117.441406 72.148438 118.46875 C 72.617188 119.488281 72.953125 120.574219 73.300781 121.605469 C 73.621094 122.632812 73.960938 123.648438 74.234375 124.566406 C 74.675781 126.269531 75.175781 127.671875 75.667969 128.890625 C 76.734375 130.269531 78.089844 131.582031 79.519531 133.03125 C 80.8125 132.304688 82.132812 131.601562 83.457031 130.882812 C 83.75 130.722656 84.011719 130.558594 84.292969 130.398438 C 84.503906 129.453125 84.398438 128.214844 84.234375 126.960938 C 83.699219 123.773438 82.984375 120.917969 82.382812 118.933594 C 82.277344 118.417969 82.082031 117.957031 81.929688 117.554688 C 81.78125 117.152344 81.65625 116.800781 81.578125 116.503906 C 81.398438 115.921875 81.359375 115.570312 81.460938 115.515625 C 81.5625 115.457031 81.8125 115.710938 82.167969 116.199219 C 82.34375 116.453125 82.558594 116.765625 82.78125 117.128906 C 83.023438 117.492188 83.273438 117.90625 83.476562 118.429688 C 84.429688 120.476562 85.355469 123.386719 85.90625 126.695312 C 86.019531 127.589844 86.109375 128.402344 86.074219 129.292969 C 86.074219 129.304688 86.074219 129.316406 86.074219 129.324219 C 86.394531 129.128906 86.703125 128.929688 87.011719 128.714844 C 86.3125 124.101562 85.40625 119.464844 84.542969 114.882812 C 84.023438 112.089844 82.648438 109.441406 82.570312 106.589844 C 82.53125 105.289062 84.0625 104.703125 85.121094 105.050781 C 89.863281 106.558594 93.945312 107.769531 98.902344 107.785156 Z M 99.878906 110.496094 C 99.847656 110.082031 99.757812 109.679688 99.640625 109.300781 C 95.953125 109.402344 92.335938 109.25 88.8125 108.027344 C 88.605469 107.960938 83.699219 105.863281 84.226562 107.980469 C 84.476562 108.976562 84.757812 109.964844 85.082031 110.945312 C 86.8125 116.160156 87.628906 122.167969 88.398438 127.722656 C 91.746094 125.21875 94.441406 122.257812 96.730469 118.269531 C 98.261719 115.609375 99.253906 113.21875 99.878906 110.496094 Z M 101.703125 101.199219 C 101.753906 101.097656 101.824219 101.003906 101.875 100.914062 C 99.226562 101.921875 96.34375 101.992188 93.464844 100.410156 C 89.421875 98.191406 86.5625 94.96875 84.597656 91.171875 C 84.589844 91.359375 84.566406 91.554688 84.566406 91.746094 C 84.566406 91.90625 84.515625 92.023438 84.453125 92.136719 C 87.464844 97.75 92.648438 100.625 97.949219 104.585938 C 99.019531 105.378906 99.855469 106.277344 100.445312 107.246094 C 100.457031 107.171875 100.460938 107.105469 100.472656 107.019531 C 100.695312 105.097656 100.8125 102.953125 101.703125 101.199219 Z M 110.914062 101.351562 C 112.234375 100.222656 112.609375 97.976562 112.023438 96.289062 C 108.816406 98.226562 104.734375 99.949219 103.949219 104.046875 C 103.933594 104.148438 103.921875 104.273438 103.90625 104.371094 C 105.667969 103.195312 107.867188 102.605469 109.863281 101.871094 C 110.1875 101.730469 110.5 101.601562 110.824219 101.460938 C 110.851562 101.429688 110.875 101.390625 110.914062 101.351562 Z M 113.3125 73.898438 C 113.449219 72.558594 113.605469 71.21875 113.789062 69.875 C 108 68.738281 102.109375 69.074219 96.238281 68.699219 C 91.566406 68.40625 87.378906 67.691406 82.921875 66.703125 C 82.546875 66.925781 82.066406 66.976562 81.628906 66.867188 C 79.007812 67.078125 79.917969 70.714844 80.007812 72.6875 C 80.097656 74.765625 80.136719 77.476562 82.542969 77.949219 C 82.832031 74.945312 83.375 72.648438 83.8125 72.6875 C 84.28125 72.730469 84.441406 75.457031 84.175781 78.792969 C 84.152344 80.546875 84.011719 82.125 83.816406 83.21875 C 83.929688 84.53125 84.164062 85.816406 84.441406 87.121094 C 85.875 91.320312 88.179688 95.304688 91.933594 97.730469 C 95.269531 99.898438 99.011719 101.417969 102.765625 98.742188 C 105.003906 97.136719 107.171875 95.554688 108.90625 93.425781 C 110.691406 90.554688 111.714844 87.460938 112.496094 84.136719 C 112.738281 80.710938 113 77.296875 113.3125 73.898438 Z M 114 68.386719 C 114.445312 65.351562 114.980469 62.328125 115.457031 59.304688 C 109.320312 58.210938 103.128906 57.25 96.925781 56.722656 C 92.535156 56.355469 88.054688 56.507812 83.6875 55.96875 C 83.648438 59.078125 83.609375 62.1875 83.609375 65.289062 C 89.761719 66.601562 95.75 67.257812 102.140625 67.402344 C 106.132812 67.480469 110.085938 67.628906 114 68.386719 Z M 117.78125 99.121094 C 116.550781 98.535156 115.34375 97.878906 114.152344 97.226562 C 114.230469 98.253906 114.101562 99.304688 113.789062 100.3125 C 115.105469 99.808594 116.433594 99.371094 117.78125 99.121094 Z M 120.707031 97.113281 C 121.910156 88.945312 123.078125 81.335938 122.625 72.984375 C 122.386719 68.621094 122.363281 64.234375 122.101562 59.871094 C 121.9375 57.195312 121.507812 53.058594 119.679688 50.578125 C 119.410156 52.417969 119.164062 54.261719 118.972656 56.117188 C 118.320312 62.628906 116.363281 69.101562 116.261719 75.671875 C 116.160156 81.851562 115.300781 87.96875 114.785156 94.125 C 116.714844 95.203125 118.671875 96.28125 120.707031 97.113281 Z M 122.464844 111.386719 C 122.300781 111.210938 123.203125 108.863281 122.96875 108.285156 C 122.714844 107.609375 122.027344 107.382812 121.597656 106.84375 C 121.375 106.558594 121.058594 106.253906 120.605469 105.933594 C 119.699219 105.277344 118.734375 105.054688 118.609375 104.597656 C 118.597656 104.371094 118.8125 104.089844 119.449219 103.988281 C 120.015625 103.898438 120.84375 104.019531 121.585938 104.539062 C 121.984375 104.804688 122.28125 105.167969 122.488281 105.539062 C 122.546875 105.429688 122.613281 105.316406 122.699219 105.214844 C 123.027344 104.078125 123.027344 103.207031 122.800781 102.566406 C 121.183594 100.085938 114.253906 102.355469 112.167969 103.144531 C 109.355469 104.210938 106.625 105.480469 103.882812 106.742188 C 103.851562 106.769531 103.824219 106.804688 103.792969 106.832031 C 103.734375 106.902344 103.660156 106.933594 103.597656 106.972656 C 103.4375 108.816406 103.335938 110.679688 102.832031 112.414062 C 101.816406 115.976562 99.847656 119.359375 97.71875 122.480469 C 97.492188 123.058594 97.246094 123.546875 96.992188 124.113281 C 95.886719 126.460938 94.558594 128.324219 93.59375 129.65625 C 92.613281 130.984375 91.921875 131.75 91.71875 131.640625 C 91.519531 131.523438 91.847656 130.53125 92.558594 129.039062 C 92.6875 128.753906 92.847656 128.449219 93.015625 128.136719 C 89.800781 130.996094 85.898438 132.941406 82.082031 135.023438 L 81.882812 135.210938 L 81.941406 135.097656 C 78.75 136.851562 75.628906 138.722656 73.078125 141.355469 C 72.925781 141.515625 72.753906 141.617188 72.589844 141.683594 C 64.882812 147.835938 59.105469 158.222656 60.273438 168.253906 C 60.296875 168.441406 60.285156 168.605469 60.246094 168.753906 C 60.316406 169.21875 60.175781 169.710938 59.832031 170.074219 C 59.78125 170.125 59.734375 170.1875 59.675781 170.246094 C 59.671875 170.253906 59.648438 170.285156 59.609375 170.347656 C 59.558594 170.425781 59.519531 170.503906 59.476562 170.589844 C 59.46875 170.609375 59.46875 170.617188 59.449219 170.667969 C 59.417969 170.761719 59.398438 170.851562 59.375 170.941406 C 59.375 170.972656 59.375 170.988281 59.371094 171.03125 C 59.371094 171.191406 59.375 171.351562 59.386719 171.503906 C 60.773438 172.351562 62.46875 172.855469 64.144531 173.269531 C 63.691406 172.671875 63.351562 171.929688 63.222656 171 C 63.078125 169.871094 63.210938 168.894531 63.363281 168.050781 C 63.261719 167.988281 63.160156 167.941406 63.089844 167.867188 C 62.785156 167.625 62.609375 167.351562 62.484375 167.113281 C 62.234375 166.621094 62.160156 166.195312 62.109375 165.84375 C 62.042969 165.144531 62.144531 164.753906 62.292969 164.722656 C 62.449219 164.691406 62.65625 165.035156 62.949219 165.582031 C 63.109375 165.851562 63.285156 166.183594 63.523438 166.449219 C 63.636719 166.585938 63.765625 166.6875 63.867188 166.738281 C 63.988281 166.789062 64.039062 166.777344 64.128906 166.761719 L 65.035156 166.527344 L 64.96875 167.59375 C 64.90625 168.605469 64.761719 169.722656 64.90625 170.761719 C 64.957031 171.164062 65.078125 171.542969 65.1875 171.816406 C 65.207031 171.953125 65.386719 172.167969 65.5 172.351562 L 65.582031 172.492188 L 65.632812 172.566406 C 65.683594 172.621094 65.734375 172.695312 65.796875 172.753906 C 66.261719 173.257812 66.8125 173.648438 67.277344 173.894531 C 67.285156 173.894531 67.292969 173.882812 67.316406 173.882812 C 67.417969 173.863281 67.519531 173.835938 67.617188 173.796875 C 67.953125 173.597656 68.273438 173.398438 68.597656 173.1875 C 68.761719 173.046875 68.933594 172.894531 69.101562 172.714844 C 69.753906 172.007812 70.34375 171.234375 70.847656 170.710938 C 71.34375 170.175781 71.761719 169.882812 71.960938 170.011719 C 72.109375 170.113281 72.117188 170.425781 72.003906 170.878906 C 73.519531 169.84375 75.0625 168.832031 76.792969 168.078125 C 80.691406 166.359375 83.347656 163.425781 86.210938 160.378906 C 92.402344 153.820312 97.6875 147.488281 102.117188 139.574219 C 105.28125 133.894531 107.335938 127.046875 113.738281 124.214844 C 117.742188 122.441406 123.796875 121.21875 122.039062 115.222656 C 121.910156 114.769531 121.871094 114.339844 121.882812 113.914062 C 121.789062 113.652344 121.6875 113.378906 121.597656 113.117188 C 121.375 112.523438 121.09375 112.128906 120.910156 111.75 C 120.585938 111.355469 120.417969 111.011719 120.550781 110.808594 C 120.667969 110.621094 121.042969 110.589844 121.5625 110.730469 C 121.847656 110.871094 122.171875 111.09375 122.464844 111.386719 Z M 124.242188 98.242188 C 125.890625 81.246094 128.175781 62.339844 120.292969 46.640625 C 120.164062 47.4375 120.042969 48.21875 119.925781 49.019531 C 124.660156 53.445312 123.304688 63.558594 123.617188 69.113281 C 123.945312 74.84375 124.269531 80.609375 123.734375 86.332031 C 123.382812 90.152344 122.449219 93.78125 121.871094 97.550781 C 122.644531 97.832031 123.429688 98.066406 124.242188 98.242188 Z M 139.863281 171.628906 C 143.769531 170.824219 137.945312 166.074219 136.714844 165.007812 C 133.933594 162.574219 130.925781 160.289062 127.820312 158.3125 C 125.417969 156.78125 122.828125 155.574219 119.890625 155.703125 C 116.1875 155.875 114.28125 157.898438 111.207031 159.515625 C 101.636719 164.515625 92.3125 167.664062 81.601562 168.984375 C 80.953125 169.421875 80.296875 169.8125 79.59375 170.125 C 75.488281 171.941406 72.261719 174.738281 68.355469 176.867188 C 68.050781 177.03125 67.769531 177.070312 67.5 177.046875 C 67.285156 177.085938 67.054688 177.082031 66.8125 177.019531 C 62.523438 175.84375 57.824219 174.953125 55.28125 171.777344 C 54.191406 172.84375 54.089844 175.953125 54.917969 176.878906 C 54.929688 176.894531 54.941406 176.917969 54.949219 176.941406 C 60.453125 179.464844 68.46875 176.140625 74.460938 176.695312 C 81.539062 177.347656 88.53125 178.046875 95.640625 178.308594 C 108.566406 178.773438 124.332031 179.453125 136.515625 173.761719 C 136.40625 173.773438 136.296875 173.773438 136.183594 173.785156 C 133.796875 173.839844 131.703125 173.550781 130.242188 173.425781 C 129.515625 173.335938 128.890625 173.285156 128.453125 173.230469 C 128.035156 173.167969 127.789062 173.070312 127.777344 172.957031 C 127.773438 172.835938 127.996094 172.707031 128.402344 172.570312 C 128.816406 172.433594 129.425781 172.292969 130.210938 172.230469 C 131.78125 172.050781 133.894531 172.140625 136.132812 172.078125 C 136.6875 172.050781 137.230469 172.050781 137.738281 171.980469 C 138.253906 171.917969 138.757812 171.878906 139.199219 171.753906 C 139.433594 171.714844 139.652344 171.667969 139.863281 171.628906 Z M 142.980469 155.289062 C 144.730469 147.613281 143.464844 141.269531 142.671875 133.605469 C 142.460938 131.589844 142.515625 128.527344 140.792969 127.0625 C 140.1875 126.554688 139.445312 126.007812 139.023438 125.304688 C 137.554688 122.773438 137.476562 119.308594 135.898438 116.585938 C 134.8125 114.703125 134.175781 113.152344 133.671875 111.296875 C 133.609375 112.238281 133.472656 113.21875 133.246094 114.207031 C 131.636719 120.789062 128.039062 125.0625 127.6875 124.75 C 127.496094 124.605469 128.097656 123.4375 128.929688 121.515625 C 129.757812 119.574219 130.871094 116.886719 131.585938 113.820312 C 131.9375 112.289062 132.128906 110.820312 132.101562 109.511719 C 132.066406 108.199219 131.804688 107.050781 131.375 106.195312 C 131.265625 105.980469 131.160156 105.804688 131.050781 105.617188 C 129.382812 103.875 127.042969 102.597656 124.835938 102.40625 C 124.898438 102.882812 124.898438 103.394531 124.835938 103.9375 C 124.859375 104.273438 124.847656 104.625 124.800781 104.976562 C 124.925781 105.078125 125.035156 105.214844 125.136719 105.390625 C 127.285156 109.367188 125.074219 112.011719 125.460938 116.339844 C 125.742188 119.519531 124.433594 121.703125 121.9375 123.636719 C 119.152344 125.804688 114.886719 126.039062 112.40625 128.476562 C 109.058594 131.773438 107.699219 135.773438 105.476562 139.75 C 101.824219 146.28125 97.800781 151.753906 93.171875 157.132812 C 93.535156 159.179688 93.050781 161.457031 93.675781 163.4375 C 96.441406 162.609375 99.152344 161.621094 101.925781 160.46875 C 102.140625 160.28125 102.355469 160.066406 102.59375 159.839844 C 102.730469 159.691406 102.933594 159.503906 103.027344 159.386719 L 103.429688 158.875 C 103.710938 158.546875 103.984375 158.199219 104.277344 157.859375 C 104.539062 157.496094 104.761719 157.105469 105.015625 156.71875 C 107.03125 153.621094 107.675781 150.207031 108.078125 147.765625 C 108.261719 146.523438 108.402344 145.519531 108.515625 144.820312 C 108.621094 144.125 108.746094 143.734375 108.867188 143.734375 C 108.980469 143.734375 109.089844 144.125 109.167969 144.839844 C 109.207031 145.195312 109.257812 145.628906 109.28125 146.132812 C 109.28125 146.644531 109.28125 147.226562 109.28125 147.875 C 109.230469 149.175781 109.070312 150.714844 108.667969 152.40625 C 108.441406 153.246094 108.167969 154.121094 107.828125 155 C 107.414062 155.867188 107.050781 156.792969 106.460938 157.621094 C 106.195312 158.035156 105.941406 158.457031 105.65625 158.835938 C 108.292969 157.519531 110.941406 155.5625 113.738281 154.210938 C 114.011719 153.84375 114.292969 153.445312 114.566406 153.003906 C 114.679688 152.820312 114.796875 152.640625 114.917969 152.445312 C 115.007812 152.265625 115.105469 152.078125 115.191406 151.886719 C 115.382812 151.511719 115.585938 151.128906 115.683594 150.6875 C 115.820312 150.261719 115.960938 149.84375 116.027344 149.355469 C 116.109375 148.890625 116.210938 148.417969 116.285156 147.902344 C 116.875 143.839844 117.53125 140.175781 117.882812 137.554688 C 118.234375 134.914062 118.4375 133.230469 118.699219 133.230469 C 118.914062 133.242188 119.136719 134.90625 119.085938 137.628906 C 119.035156 140.386719 118.558594 144.085938 117.957031 148.15625 C 117.894531 148.65625 117.78125 149.183594 117.683594 149.695312 C 117.613281 150.183594 117.453125 150.648438 117.300781 151.109375 C 117.742188 150.445312 118.175781 149.792969 118.621094 149.066406 C 118.875 148.5625 119.125 148.039062 119.398438 147.5 C 119.589844 146.988281 119.78125 146.449219 119.980469 145.910156 C 120.332031 144.71875 120.707031 143.484375 121.09375 142.199219 C 122.753906 137.515625 125.164062 133.667969 127.183594 131.164062 C 129.152344 128.628906 130.546875 127.234375 130.714844 127.359375 C 130.925781 127.5 129.847656 129.179688 128.164062 131.863281 C 126.441406 134.5 124.289062 138.292969 122.699219 142.761719 C 122.503906 143.390625 122.324219 143.996094 122.140625 144.601562 C 121.9375 145.222656 121.75 145.835938 121.558594 146.445312 C 121.304688 147.058594 121.105469 147.589844 120.832031 148.246094 C 120.539062 148.765625 120.265625 149.277344 119.992188 149.769531 C 119.640625 150.300781 119.265625 150.816406 118.914062 151.289062 C 119.164062 151.121094 119.414062 150.9375 119.679688 150.765625 C 120.640625 150.171875 121.34375 149.445312 121.9375 148.617188 C 123.164062 146.886719 123.757812 144.640625 124.9375 142.824219 C 125.164062 142.40625 125.511719 141.96875 125.84375 141.554688 C 126.15625 141.121094 126.519531 140.789062 126.859375 140.449219 C 127.183594 140.09375 127.558594 139.824219 127.910156 139.5625 C 128.253906 139.269531 128.617188 139.046875 128.96875 138.859375 C 129.644531 138.410156 130.332031 138.171875 130.910156 137.90625 C 131.503906 137.71875 132.015625 137.535156 132.453125 137.445312 C 133.320312 137.269531 133.800781 137.230469 133.835938 137.34375 C 133.863281 137.464844 133.4375 137.71875 132.671875 138.070312 C 132.289062 138.261719 131.839844 138.496094 131.300781 138.761719 C 130.804688 139.097656 130.203125 139.386719 129.625 139.851562 C 128.4375 140.730469 127.234375 141.941406 126.289062 143.625 C 126.167969 143.839844 126.042969 144.066406 125.914062 144.292969 C 125.84375 144.429688 125.714844 144.730469 125.613281 144.941406 C 125.398438 145.40625 125.199219 145.910156 124.976562 146.410156 C 124.550781 147.429688 124.070312 148.550781 123.332031 149.597656 C 122.566406 150.675781 121.585938 151.574219 120.652344 152.117188 C 120.355469 152.304688 120.070312 152.5 119.789062 152.679688 C 119.824219 152.679688 119.863281 152.679688 119.890625 152.679688 C 124.59375 152.894531 128.148438 154.660156 131.828125 157.519531 C 135.734375 160.5625 139.703125 163.441406 142.648438 167.375 C 142.515625 166.761719 142.359375 165.960938 142.105469 164.996094 C 141.84375 163.90625 141.417969 162.625 140.914062 161.234375 C 140.378906 159.847656 139.734375 158.347656 138.957031 156.816406 C 137.386719 153.769531 135.589844 151.210938 134.113281 149.519531 C 132.695312 147.824219 131.5625 146.875 131.726562 146.664062 C 131.855469 146.507812 133.1875 147.066406 134.980469 148.679688 C 135.882812 149.457031 136.816406 150.511719 137.777344 151.742188 C 138.71875 152.992188 139.640625 154.445312 140.46875 156.039062 C 141.128906 157.328125 141.660156 158.597656 142.09375 159.816406 C 142.296875 158.296875 142.636719 156.78125 142.980469 155.289062 Z M 144.667969 127.570312 C 146.726562 134.472656 148.085938 143.976562 146.894531 151.109375 C 146.039062 156.230469 144.320312 160.855469 145.5625 166.039062 C 146 167.839844 146.664062 170.359375 145.097656 171.84375 C 140.097656 176.621094 132.398438 178.601562 125.804688 179.789062 C 117.003906 181.386719 108.089844 181.710938 99.164062 181.4375 C 94.503906 181.296875 89.773438 181.25 85.113281 180.847656 C 80.398438 180.433594 75.617188 179.453125 70.878906 179.542969 C 65.058594 179.667969 58.894531 182.136719 53.335938 179.503906 C 53.003906 179.34375 52.78125 179.125 52.667969 178.875 C 50.550781 176.292969 51.046875 171.078125 53.886719 169.105469 C 53.738281 168.617188 53.621094 168.066406 53.535156 167.492188 C 52.578125 165.871094 50.957031 164.417969 50.371094 162.609375 C 49.714844 160.601562 49.972656 158.597656 50.046875 156.53125 C 47.910156 153.628906 45.992188 149.207031 47.183594 145.667969 C 47.171875 145.636719 47.164062 145.605469 47.164062 145.578125 C 46.164062 136.175781 43.90625 127.226562 45.324219 117.632812 C 46.414062 110.246094 49.96875 104.371094 56.5625 100.714844 C 57.222656 99.109375 58.351562 97.78125 60.15625 97.359375 C 61.832031 96.976562 63.652344 97.160156 65.1875 96.28125 C 65.21875 96.261719 65.257812 96.25 65.285156 96.226562 C 67.105469 94.0625 69.203125 94.425781 71.785156 93.488281 C 74.648438 92.4375 76.644531 90.292969 79.695312 89.660156 C 80.074219 89.335938 80.449219 88.992188 80.789062 88.632812 C 81.125 88.257812 81.25 88.109375 81.476562 87.710938 C 80.964844 85.375 80.613281 83.007812 80.761719 80.597656 C 77.3125 79.332031 77.03125 74.878906 76.949219 71.542969 C 76.871094 67.933594 76.921875 64.699219 80.589844 63.972656 C 80.621094 55.390625 80.824219 46.800781 80.996094 38.214844 C 81.175781 29.546875 80.542969 20.238281 82.015625 11.652344 C 82.117188 11.066406 82.46875 10.734375 82.882812 10.613281 C 83.121094 10.222656 83.527344 9.9375 84.101562 9.917969 C 92.199219 9.605469 99.929688 11.589844 107.9375 12.304688 C 112.921875 12.753906 118.273438 11.636719 122.699219 14.523438 C 122.726562 14.558594 122.753906 14.574219 122.789062 14.597656 C 123.304688 14.785156 123.71875 15.238281 123.707031 15.964844 C 123.65625 19.128906 122.816406 22.132812 122.566406 25.277344 C 122.3125 28.457031 122.351562 31.675781 122.011719 34.851562 C 121.75 37.332031 121.382812 39.792969 120.992188 42.265625 C 121.273438 42.371094 121.535156 42.570312 121.730469 42.914062 C 131.59375 60.03125 128.902344 81 127.121094 99.796875 C 131.3125 101 135.46875 104.511719 136.132812 108.636719 C 136.816406 112.867188 139.613281 115.75 140.902344 119.699219 C 141.519531 121.605469 141.546875 123.476562 142.933594 124.917969 C 143.707031 125.726562 144.332031 126.460938 144.667969 127.570312 Z M 87.523438 54.863281 C 88.378906 54.929688 89.257812 54.988281 90.125 55.027344 C 90.640625 27.554688 91.132812 19.117188 91.546875 19.117188 C 91.960938 19.128906 92.140625 27.59375 91.636719 55.09375 C 93.464844 55.175781 95.277344 55.238281 97.105469 55.34375 C 97.679688 26.878906 98.195312 18.121094 98.605469 18.121094 C 99.019531 18.121094 99.1875 26.898438 98.621094 55.445312 C 99.890625 55.539062 101.160156 55.644531 102.414062 55.820312 C 102.503906 55.832031 102.59375 55.839844 102.679688 55.851562 C 102.78125 55.066406 102.925781 54.359375 102.996094 53.546875 C 103.089844 52.71875 103.167969 51.917969 103.246094 51.136719 C 103.417969 49.574219 103.542969 48.0625 103.683594 46.628906 C 103.949219 43.757812 104.1875 41.167969 104.410156 38.839844 C 104.828125 34.164062 105.1875 30.527344 105.488281 27.742188 C 106.070312 22.246094 106.457031 20.117188 106.679688 20.117188 C 106.882812 20.148438 106.871094 22.25 106.558594 27.839844 C 106.394531 30.625 106.15625 34.273438 105.800781 38.953125 C 105.605469 41.285156 105.394531 43.890625 105.164062 46.761719 C 105.03125 48.203125 104.925781 49.699219 104.75 51.289062 C 104.667969 52.082031 104.589844 52.886719 104.511719 53.710938 C 104.4375 54.429688 104.296875 55.253906 104.175781 56.054688 C 106.285156 56.34375 108.390625 56.644531 110.5 56.96875 C 110.703125 55.214844 110.953125 53.625 111.1875 52.09375 C 111.441406 50.460938 111.679688 48.90625 111.910156 47.425781 C 112.398438 44.464844 112.832031 41.796875 113.222656 39.382812 C 114.03125 34.578125 114.667969 30.839844 115.148438 27.976562 C 115.65625 25.117188 116.015625 23.140625 116.273438 21.898438 C 116.5 20.660156 116.664062 20.117188 116.765625 20.117188 C 116.867188 20.117188 116.90625 20.660156 116.867188 21.972656 C 116.789062 23.261719 116.582031 25.246094 116.222656 28.140625 C 115.847656 31.011719 115.320312 34.777344 114.59375 39.605469 C 114.230469 42.011719 113.828125 44.695312 113.386719 47.65625 C 113.152344 49.136719 112.921875 50.691406 112.683594 52.308594 C 112.4375 53.898438 112.195312 55.546875 111.992188 57.199219 C 113.222656 57.394531 114.453125 57.597656 115.683594 57.8125 C 115.863281 56.605469 116.039062 55.398438 116.1875 54.1875 C 117.054688 47.09375 118.785156 40.089844 119.113281 32.933594 C 119.367188 27.574219 120.457031 22.171875 120.640625 16.832031 C 116.171875 14.34375 109.207031 15.527344 104.238281 14.898438 C 97.757812 14.070312 91.421875 12.792969 84.867188 12.929688 C 83.488281 21.433594 84.175781 30.738281 84 39.304688 C 83.898438 44.355469 83.789062 49.410156 83.710938 54.460938 C 84.453125 54.5625 85.203125 54.652344 85.945312 54.722656 C 85.945312 54.652344 85.929688 54.578125 85.929688 54.523438 L 85.90625 53.847656 C 85.886719 53.398438 85.886719 52.96875 85.898438 52.546875 C 85.898438 51.691406 85.90625 50.851562 85.917969 50.035156 C 85.945312 48.417969 85.988281 46.863281 86.019531 45.394531 C 86.121094 42.4375 86.210938 39.765625 86.292969 37.371094 C 86.472656 32.570312 86.65625 28.820312 86.808594 25.972656 C 87.128906 20.261719 87.328125 18.121094 87.511719 18.097656 C 87.742188 18.082031 87.925781 20.300781 87.875 26 C 87.867188 28.867188 87.792969 32.613281 87.679688 37.410156 C 87.628906 39.8125 87.570312 42.476562 87.503906 45.421875 C 87.480469 46.902344 87.453125 48.445312 87.417969 50.058594 C 87.417969 50.863281 87.414062 51.691406 87.414062 52.535156 C 87.414062 52.957031 87.414062 53.382812 87.429688 53.808594 L 87.441406 54.4375 L 87.46875 54.664062 L 87.492188 54.773438 L 87.511719 54.824219 L 87.511719 54.851562 C 87.511719 54.863281 87.511719 54.863281 87.523438 54.863281 " fill-opacity="1" fill-rule="nonzero"/></g><path fill="#f55951" d="M 105.757812 86.425781 C 105.769531 86.726562 105.65625 87.199219 105.347656 87.53125 C 104.410156 88.523438 102.507812 88.207031 101.3125 88.425781 C 100.9375 88.511719 100.625 88.53125 100.210938 88.589844 C 99.90625 88.621094 99.324219 88.671875 98.789062 88.488281 C 98.207031 88.277344 97.9375 87.933594 97.699219 87.757812 C 97.582031 87.65625 97.46875 87.554688 97.347656 87.453125 L 97.308594 87.421875 L 97.285156 87.402344 C 97.277344 87.394531 97.222656 87.359375 97.222656 87.359375 L 97.042969 87.257812 C 96.765625 87.121094 96.488281 86.980469 96.226562 86.839844 C 96.09375 86.765625 95.949219 86.679688 95.8125 86.582031 C 95.652344 86.441406 95.511719 86.441406 95.257812 85.972656 L 95.210938 85.761719 C 95.1875 85.636719 95.175781 85.503906 95.1875 85.398438 C 95.199219 85.203125 95.238281 85.039062 95.289062 84.894531 C 95.386719 84.597656 95.527344 84.371094 95.671875 84.167969 C 95.964844 83.773438 96.265625 83.511719 96.539062 83.320312 C 97.070312 82.945312 97.480469 82.90625 97.519531 83.019531 C 97.558594 83.128906 97.324219 83.34375 96.992188 83.804688 C 96.832031 84.023438 96.640625 84.320312 96.488281 84.648438 C 95.902344 86.0625 97.144531 85.617188 98.011719 86.152344 L 98.113281 86.214844 L 98.132812 86.230469 L 98.195312 86.265625 C 98.335938 86.363281 98.496094 86.464844 98.625 86.566406 C 98.921875 86.789062 99.164062 86.96875 99.277344 86.980469 C 99.414062 86.996094 99.578125 86.996094 99.996094 86.929688 C 100.371094 86.84375 100.746094 86.757812 101.132812 86.679688 C 101.511719 86.617188 101.902344 86.582031 102.300781 86.542969 L 102.96875 86.527344 C 103.144531 86.515625 103.335938 86.503906 103.507812 86.480469 C 103.753906 86.476562 103.984375 86.402344 104.074219 86.375 C 104.085938 86.292969 104.0625 86.152344 104.035156 86 C 103.910156 85.359375 103.609375 84.609375 103.519531 83.8125 C 103.296875 82.273438 103.5 80.941406 103.65625 79.871094 C 103.832031 78.792969 103.972656 77.976562 104.097656 77.410156 C 104.1875 76.800781 104.285156 76.46875 104.410156 76.46875 C 104.527344 76.457031 104.640625 76.789062 104.761719 77.386719 C 104.839844 78.011719 104.886719 78.917969 104.851562 79.972656 C 104.851562 81.039062 104.800781 82.28125 105.0625 83.542969 C 105.164062 84.15625 105.46875 84.789062 105.667969 85.648438 C 105.707031 85.878906 105.757812 86.113281 105.757812 86.425781 " fill-opacity="1" fill-rule="nonzero"/><path fill="#f55951" d="M 91.433594 118.609375 C 91.445312 118.328125 91.457031 118.308594 91.34375 118.015625 C 91.234375 117.726562 91.003906 117.523438 90.617188 117.53125 C 89.992188 117.582031 89.683594 117.894531 90.152344 118.378906 C 90.417969 118.644531 90.75 118.859375 91.121094 118.921875 C 91.144531 118.933594 91.234375 118.933594 91.261719 118.921875 C 91.277344 118.921875 91.292969 118.910156 91.316406 118.910156 C 91.320312 118.90625 91.332031 118.894531 91.332031 118.894531 C 91.378906 118.832031 91.433594 118.691406 91.433594 118.609375 Z M 92.867188 117.828125 C 93.089844 118.808594 92.828125 119.960938 91.785156 120.339844 C 90.617188 120.777344 89.074219 119.8125 88.609375 118.742188 C 88.351562 118.15625 88.339844 117.476562 88.710938 116.925781 C 89.15625 116.289062 89.890625 116.074219 90.617188 116.023438 C 91.707031 115.988281 92.636719 116.777344 92.867188 117.828125 " fill-opacity="1" fill-rule="nonzero"/><path fill="#f55951" d="M 89.421875 111.558594 C 89.425781 111.273438 89.4375 111.257812 89.324219 110.960938 C 89.21875 110.667969 88.984375 110.46875 88.605469 110.480469 C 87.976562 110.53125 87.664062 110.84375 88.132812 111.324219 C 88.398438 111.585938 88.734375 111.808594 89.105469 111.871094 C 89.125 111.875 89.21875 111.875 89.246094 111.871094 C 89.257812 111.871094 89.273438 111.859375 89.296875 111.859375 C 89.308594 111.847656 89.320312 111.835938 89.320312 111.835938 C 89.359375 111.777344 89.421875 111.636719 89.421875 111.558594 Z M 90.851562 110.769531 C 91.070312 111.757812 90.808594 112.90625 89.773438 113.289062 C 88.605469 113.71875 87.054688 112.753906 86.589844 111.6875 C 86.332031 111.105469 86.320312 110.417969 86.691406 109.875 C 87.136719 109.238281 87.875 109.015625 88.605469 108.964844 C 89.6875 108.9375 90.617188 109.71875 90.851562 110.769531 " fill-opacity="1" fill-rule="nonzero"/><path fill="#f55951" d="M 78.839844 116.039062 C 79.359375 117.828125 79.570312 118.957031 79.359375 119.046875 C 79.140625 119.125 78.53125 118.132812 77.726562 116.492188 C 77.324219 115.675781 76.882812 114.691406 76.40625 113.582031 C 75.925781 112.472656 75.316406 111.273438 74.761719 109.992188 C 73.609375 107.421875 72.703125 105.078125 71.898438 103.507812 C 71.511719 102.691406 71.132812 102.117188 70.894531 101.691406 C 70.582031 101.261719 70.453125 100.988281 70.53125 100.902344 C 70.605469 100.8125 70.894531 100.925781 71.34375 101.199219 C 71.785156 101.539062 72.378906 102.09375 72.925781 102.871094 C 74.074219 104.410156 75.175781 106.742188 76.316406 109.289062 C 76.871094 110.582031 77.433594 111.789062 77.835938 112.9375 C 78.238281 114.09375 78.574219 115.15625 78.839844 116.039062 " fill-opacity="1" fill-rule="nonzero"/></svg>