<svg xmlns="http://www.w3.org/2000/svg" xmlns:xlink="http://www.w3.org/1999/xlink" width="256" zoomAndPan="magnify"
    viewBox="0 0 192 191.999996" height="256" preserveAspectRatio="xMidYMid meet" version="1.0">
    <defs>
        <clipPath id="dad5055a8d">
            <path d="M 18 13.355469 L 172.808594 13.355469 L 172.808594 178.347656 L 18 178.347656 Z M 18 13.355469 "
                clip-rule="nonzero" />
        </clipPath>
        <clipPath id="ed65a646af">
            <path
                d="M 18.292969 13.355469 L 171.648438 13.355469 L 171.648438 178.347656 L 18.292969 178.347656 Z M 18.292969 13.355469 "
                clip-rule="nonzero" />
        </clipPath>
        <clipPath id="b4ab18da47">
            <path
                d="M 9.773438 24.953125 L 182.234375 24.953125 L 182.234375 150.597656 L 9.773438 150.597656 Z M 9.773438 24.953125 "
                clip-rule="nonzero" />
        </clipPath>
    </defs>
    <rect x="-19.2" width="230.4" fill="#ffffff" y="-19.2" height="230.399995" fill-opacity="1" />
    <rect x="-19.2" width="230.4" fill="#ffffff" y="-19.2" height="230.399995" fill-opacity="1" />
    <rect x="-19.2" width="230.4" fill="#ffffff" y="-19.2" height="230.399995" fill-opacity="1" />
    <g clip-path="url(#dad5055a8d)">
        <path fill="#f6836b"
            d="M 172.597656 78.480469 C 172.597656 123.980469 150.917969 178.347656 105.339844 178.347656 C 59.761719 178.347656 18.136719 134.300781 18.136719 88.800781 C 18.136719 43.300781 45.757812 31.25 89.03125 16.953125 C 132.554688 2.570312 172.597656 32.980469 172.597656 78.480469 "
            fill-opacity="1" fill-rule="nonzero" />
    </g>
    <g clip-path="url(#ed65a646af)">
        <path fill="#ffffff"
            d="M 171.429688 56.839844 L 170.375 58.925781 L 169.285156 58.308594 C 167.171875 57.113281 164.488281 57.921875 163.390625 60.085938 L 159.28125 68.222656 C 159.132812 71.570312 159.210938 74.679688 159.640625 77.253906 C 160.414062 81.910156 161.875 86.515625 163.421875 91.386719 C 165.691406 98.53125 168.023438 105.867188 168.335938 113.929688 C 168.21875 114.410156 168.101562 114.890625 167.980469 115.371094 C 167.90625 106.789062 165.449219 99.042969 163.054688 91.503906 C 161.503906 86.617188 160.035156 82 159.257812 77.316406 C 158.863281 74.9375 158.761719 72.101562 158.863281 69.046875 L 157.902344 70.953125 L 143.601562 62.59375 C 142 68.265625 141.394531 73.855469 143.367188 79.042969 C 144.804688 82.824219 146.519531 86.710938 148.332031 90.824219 C 155.304688 106.628906 162.511719 122.972656 154.609375 134.753906 C 147.554688 145.277344 144.832031 154.753906 143.894531 161.707031 C 143.746094 161.855469 143.597656 162 143.449219 162.144531 C 144.332031 155.09375 147.035156 145.359375 154.289062 134.539062 C 162.070312 122.933594 154.90625 106.691406 147.980469 90.980469 C 146.160156 86.863281 144.445312 82.972656 143.003906 79.179688 C 140.980469 73.863281 141.617188 68.164062 143.257812 62.390625 L 136.183594 58.253906 C 132.433594 56.0625 131.035156 51.332031 132.992188 47.457031 L 137.847656 37.847656 L 149.761719 44.585938 C 151.492188 39.695312 152.808594 34.796875 152.746094 30.058594 C 152.878906 30.183594 153.011719 30.316406 153.140625 30.441406 C 153.132812 35.136719 151.816406 39.960938 150.105469 44.777344 L 160.992188 50.9375 C 161.5625 47.707031 162.167969 44.738281 162.691406 42.320312 C 162.789062 42.480469 162.890625 42.636719 162.984375 42.792969 C 162.476562 45.164062 161.898438 48.035156 161.351562 51.136719 L 162.941406 52.039062 Z M 159.429688 104.863281 C 159.460938 104.914062 159.496094 104.96875 159.523438 105.050781 C 159.535156 105.089844 159.5625 105.160156 159.574219 105.261719 C 159.59375 105.40625 159.558594 105.539062 159.480469 105.644531 C 159.398438 105.75 159.28125 105.816406 159.148438 105.835938 L 159.074219 105.839844 C 158.945312 105.839844 158.820312 105.804688 158.699219 105.730469 C 158.605469 105.675781 158.519531 105.589844 158.445312 105.476562 C 158.390625 105.375 158.332031 105.253906 158.328125 105.101562 C 158.316406 104.960938 158.34375 104.828125 158.414062 104.703125 C 158.503906 104.554688 158.664062 104.460938 158.835938 104.460938 C 158.921875 104.460938 159.003906 104.484375 159.074219 104.523438 L 159.113281 104.550781 C 159.183594 104.597656 159.234375 104.640625 159.277344 104.683594 C 159.328125 104.722656 159.367188 104.773438 159.390625 104.808594 Z M 156.984375 102.1875 C 156.925781 101.878906 156.90625 101.601562 156.921875 101.339844 C 156.9375 101.097656 157.140625 100.90625 157.382812 100.90625 C 157.601562 100.917969 157.761719 101.042969 157.820312 101.222656 L 157.902344 101.46875 C 157.949219 101.613281 157.996094 101.761719 158.046875 101.90625 L 158.066406 101.960938 C 158.140625 102.160156 158.210938 102.355469 158.296875 102.546875 C 158.378906 102.753906 158.476562 102.945312 158.570312 103.144531 L 158.585938 103.179688 C 158.652344 103.304688 158.71875 103.433594 158.789062 103.5625 L 158.921875 103.8125 C 158.976562 103.921875 158.992188 104.050781 158.953125 104.171875 C 158.914062 104.292969 158.832031 104.394531 158.71875 104.453125 C 158.652344 104.488281 158.574219 104.507812 158.5 104.507812 C 158.382812 104.507812 158.273438 104.464844 158.1875 104.390625 C 157.988281 104.214844 157.804688 104.003906 157.625 103.738281 C 157.480469 103.527344 157.347656 103.285156 157.226562 103 C 157.105469 102.699219 157.027344 102.4375 156.984375 102.1875 Z M 159.277344 94.949219 C 158.882812 95.464844 158.566406 95.996094 158.339844 96.523438 C 158.089844 97.066406 157.914062 97.652344 157.800781 98.285156 C 157.695312 98.875 157.667969 99.496094 157.714844 100.128906 C 157.730469 100.390625 157.535156 100.617188 157.273438 100.636719 L 157.238281 100.636719 C 157.015625 100.636719 156.820312 100.480469 156.773438 100.261719 C 156.628906 99.589844 156.601562 98.867188 156.695312 98.117188 C 156.78125 97.441406 156.976562 96.75 157.273438 96.0625 C 157.597656 95.363281 157.984375 94.757812 158.429688 94.253906 C 158.921875 93.6875 159.476562 93.226562 160.074219 92.882812 L 160.164062 92.832031 L 160.304688 92.820312 C 160.472656 92.820312 160.625 92.910156 160.707031 93.050781 C 160.820312 93.25 160.769531 93.503906 160.589844 93.644531 C 160.089844 94.035156 159.648438 94.476562 159.277344 94.949219 Z M 85.101562 56.261719 L 86.507812 26.074219 C 86.5625 24.984375 87.25 24.03125 88.265625 23.632812 C 92.339844 22.039062 103.144531 19.035156 112.863281 27.046875 C 113.574219 27.632812 113.925781 28.554688 113.820312 29.472656 L 110.246094 60.191406 C 110.246094 60.191406 101.878906 50.285156 85.101562 56.261719 Z M 123.414062 78.613281 C 123.558594 77.964844 123.832031 77.589844 124.234375 77.5 C 124.304688 77.484375 124.363281 77.476562 124.417969 77.476562 C 124.503906 77.476562 124.574219 77.496094 124.625 77.53125 C 124.835938 77.671875 124.917969 78.117188 125.011719 78.632812 C 125.152344 79.394531 125.324219 80.34375 126.007812 81.148438 C 126.882812 82.1875 127.019531 83.339844 126.703125 83.898438 C 126.617188 84.050781 126.457031 84.222656 126.183594 84.183594 C 125.769531 84.117188 124.929688 83.101562 123.9375 81.464844 C 123.394531 80.570312 123.207031 79.554688 123.414062 78.613281 Z M 126.125 84.566406 C 126.171875 84.574219 126.222656 84.574219 126.269531 84.574219 C 126.585938 84.574219 126.863281 84.402344 127.042969 84.089844 C 127.429688 83.398438 127.300781 82.082031 126.300781 80.898438 C 125.6875 80.171875 125.523438 79.28125 125.394531 78.5625 C 125.277344 77.9375 125.1875 77.441406 124.839844 77.210938 C 124.660156 77.089844 124.433594 77.0625 124.148438 77.125 C 123.589844 77.25 123.214844 77.722656 123.035156 78.53125 C 122.808594 79.570312 123.007812 80.683594 123.605469 81.664062 C 124.71875 83.5 125.566406 84.476562 126.125 84.566406 Z M 124.625 67.261719 C 124.113281 69.171875 124.269531 70.402344 124.433594 71.703125 C 124.523438 72.417969 124.617188 73.15625 124.617188 74.066406 C 124.617188 75.308594 124.085938 75.921875 123.558594 75.980469 C 123.027344 76.039062 122.378906 75.550781 122.109375 74.332031 C 121.558594 71.835938 123.222656 66.753906 123.238281 66.703125 C 123.242188 66.699219 123.242188 66.699219 123.242188 66.695312 C 123.535156 65.652344 124.054688 65.21875 124.367188 65.21875 C 124.394531 65.21875 124.417969 65.222656 124.445312 65.230469 C 124.78125 65.324219 124.949219 66.050781 124.625 67.261719 Z M 124.546875 64.859375 C 123.996094 64.707031 123.246094 65.253906 122.871094 66.585938 C 122.78125 66.851562 121.160156 71.832031 121.730469 74.414062 C 122.03125 75.78125 122.804688 76.371094 123.476562 76.371094 C 123.519531 76.371094 123.558594 76.367188 123.601562 76.363281 C 124.300781 76.289062 125.003906 75.546875 125.003906 74.066406 C 125.003906 73.128906 124.910156 72.378906 124.816406 71.65625 C 124.652344 70.335938 124.503906 69.199219 125 67.363281 C 125.4375 65.726562 125.054688 64.996094 124.546875 64.859375 Z M 143.9375 88.742188 C 143.988281 88.835938 143.921875 88.890625 143.890625 88.910156 C 143.859375 88.925781 143.785156 88.960938 143.71875 88.878906 C 141.753906 86.253906 139.203125 82.414062 138.214844 79.035156 C 137.070312 75.132812 137.882812 70.613281 138.472656 68.269531 C 138.496094 68.175781 138.574219 68.171875 138.605469 68.171875 C 138.632812 68.175781 138.71875 68.191406 138.726562 68.292969 C 138.871094 70.152344 138.980469 72.789062 138.664062 74.808594 C 138.292969 77.175781 141.808594 84.554688 143.9375 88.742188 Z M 139.109375 68.261719 C 139.089844 68.003906 138.894531 67.808594 138.636719 67.789062 C 138.382812 67.769531 138.15625 67.925781 138.09375 68.175781 C 137.5 70.558594 136.675781 75.152344 137.84375 79.144531 C 138.847656 82.578125 141.425781 86.457031 143.410156 89.109375 C 143.519531 89.253906 143.671875 89.316406 143.816406 89.316406 C 143.914062 89.316406 144.015625 89.289062 144.09375 89.238281 C 144.328125 89.09375 144.40625 88.8125 144.285156 88.566406 C 142.175781 84.421875 138.695312 77.128906 139.046875 74.867188 C 139.371094 72.8125 139.257812 70.140625 139.109375 68.261719 Z M 134.117188 27.621094 C 134.117188 23.273438 132.542969 19.4375 131.125 16.859375 C 131.308594 16.921875 131.488281 16.992188 131.667969 17.058594 C 133.054688 19.671875 134.507812 23.410156 134.507812 27.621094 C 134.507812 31.054688 134.207031 33.625 133.988281 35.5 C 133.695312 38.027344 133.605469 39.066406 134.363281 39.265625 C 134.421875 39.28125 134.5 39.226562 134.554688 39.175781 C 135.96875 37.847656 137.722656 27.328125 136.929688 19.238281 C 137.0625 19.300781 137.203125 19.367188 137.339844 19.429688 C 138.117188 27.695312 136.304688 38.066406 134.820312 39.457031 C 134.65625 39.609375 134.503906 39.65625 134.386719 39.65625 C 134.339844 39.65625 134.300781 39.648438 134.261719 39.636719 C 133.152344 39.34375 133.304688 38.042969 133.605469 35.457031 C 133.820312 33.589844 134.117188 31.035156 134.117188 27.621094 Z M 59.105469 29.394531 C 58.953125 29.039062 58.78125 28.648438 58.570312 28.226562 C 58.6875 28.175781 58.804688 28.121094 58.921875 28.070312 C 59.136719 28.492188 59.308594 28.886719 59.460938 29.246094 C 60.09375 30.730469 60.476562 31.625 63.105469 32.28125 C 65.078125 32.773438 67.925781 36.445312 70.003906 39.125 C 70.890625 40.265625 71.882812 41.546875 72.253906 41.796875 C 72.25 41.65625 72.199219 41.328125 71.960938 40.566406 C 70.714844 36.628906 65.949219 30.097656 63.011719 26.296875 C 63.136719 26.246094 63.261719 26.195312 63.390625 26.140625 C 66.34375 29.960938 71.058594 36.4375 72.328125 40.449219 C 72.742188 41.757812 72.695312 42.070312 72.464844 42.1875 C 72.417969 42.210938 72.375 42.226562 72.324219 42.226562 C 71.957031 42.226562 71.382812 41.535156 69.699219 39.363281 C 67.65625 36.726562 64.851562 33.113281 63.011719 32.652344 C 60.195312 31.953125 59.761719 30.9375 59.105469 29.394531 Z M 150.769531 132.542969 C 151.328125 130.613281 152.085938 128.023438 152.527344 126.648438 C 152.988281 125.21875 153.324219 123.3125 153.519531 121.96875 C 153.542969 121.828125 153.648438 121.765625 153.742188 121.753906 C 153.835938 121.742188 153.957031 121.78125 154.007812 121.910156 C 154.578125 123.367188 155.25 126.269531 153.355469 129.378906 C 152.546875 130.699219 151.828125 131.835938 151.226562 132.753906 C 151.136719 132.886719 151.003906 132.890625 150.90625 132.84375 C 150.8125 132.800781 150.726562 132.699219 150.769531 132.542969 Z M 151.019531 133.257812 C 151.226562 133.257812 151.425781 133.15625 151.546875 132.96875 C 152.15625 132.046875 152.875 130.90625 153.6875 129.578125 C 155.667969 126.328125 154.964844 123.292969 154.367188 121.769531 C 154.261719 121.496094 153.992188 121.335938 153.699219 121.371094 C 153.40625 121.402344 153.179688 121.621094 153.136719 121.914062 C 152.941406 123.242188 152.613281 125.125 152.160156 126.53125 C 151.714844 127.910156 150.957031 130.503906 150.398438 132.4375 C 150.308594 132.75 150.453125 133.0625 150.746094 133.195312 C 150.835938 133.238281 150.929688 133.257812 151.019531 133.257812 Z M 158.117188 138.847656 C 159.058594 137.890625 160.007812 136.917969 160.925781 135.890625 C 160.753906 136.273438 160.578125 136.65625 160.402344 137.039062 C 159.738281 137.75 159.0625 138.4375 158.390625 139.121094 C 155.203125 142.363281 151.910156 145.722656 150.066406 151.222656 C 149.484375 152.949219 149.105469 154.5625 148.871094 156.078125 C 148.710938 156.277344 148.550781 156.476562 148.390625 156.671875 C 148.613281 154.953125 149.027344 153.09375 149.695312 151.101562 C 151.570312 145.515625 154.898438 142.125 158.117188 138.847656 Z M 45.148438 125.953125 C 56.679688 137.714844 52.75 148.566406 52.253906 149.78125 L 50.078125 149.78125 C 49.800781 148.261719 47.363281 136.582031 36.835938 127.066406 C 28.820312 119.828125 25.558594 108.171875 24.269531 98.625 L 25.585938 100.304688 L 29.984375 96.875 L 34.25 102.328125 C 34.25 102.328125 35.453125 101.480469 37.332031 100.035156 C 37.113281 111.761719 38.289062 118.957031 45.148438 125.953125 Z M 46.046875 108.871094 C 46.34375 102.230469 47.457031 97.871094 48.539062 93.65625 C 48.902344 92.234375 49.269531 90.800781 49.609375 89.269531 C 55.96875 82.773438 61.394531 75.117188 59.117188 69.441406 L 51.058594 75.71875 C 51.0625 74.710938 51.050781 73.652344 51.015625 72.535156 C 50.609375 59.574219 42.308594 46.992188 37.609375 40.875 C 37.511719 40.957031 37.410156 41.039062 37.3125 41.125 C 41.984375 47.207031 50.226562 59.695312 50.628906 72.546875 C 50.667969 73.769531 50.679688 74.925781 50.667969 76.023438 L 38.238281 85.710938 C 38.117188 70.128906 26.183594 63.636719 22.46875 61.992188 C 22.421875 62.113281 22.378906 62.234375 22.335938 62.355469 C 26.019531 63.988281 37.882812 70.464844 37.851562 86.015625 L 24.042969 96.777344 C 23.578125 92.636719 23.472656 89.003906 23.480469 86.472656 C 23.484375 84.289062 20.945312 82.230469 18.449219 80.730469 C 18.4375 80.878906 18.429688 81.027344 18.417969 81.171875 C 20.773438 82.609375 23.097656 84.523438 23.09375 86.472656 C 23.085938 89.0625 23.195312 92.800781 23.6875 97.054688 L 23.285156 97.367188 L 23.804688 98.03125 C 25.039062 107.757812 28.296875 119.871094 36.574219 127.355469 C 47.695312 137.402344 49.703125 149.878906 49.722656 150.003906 C 49.738281 150.097656 49.816406 150.167969 49.914062 150.167969 L 52.382812 150.167969 C 52.457031 150.167969 52.527344 150.125 52.558594 150.054688 C 52.613281 149.941406 57.800781 138.300781 45.425781 125.683594 C 38.609375 118.734375 37.484375 111.535156 37.726562 99.730469 C 40.664062 97.453125 45.027344 93.871094 49.09375 89.789062 C 48.796875 91.09375 48.480469 92.332031 48.164062 93.5625 C 47.078125 97.796875 45.957031 102.175781 45.660156 108.855469 C 45.414062 114.40625 48.246094 119.667969 51.25 125.234375 C 55.15625 132.476562 59.195312 139.964844 56.871094 148.886719 L 57.246094 148.984375 C 59.605469 139.914062 55.53125 132.359375 51.59375 125.050781 C 48.617188 119.53125 45.804688 114.320312 46.046875 108.871094 Z M 68.351562 57.914062 C 68.328125 57.839844 68.378906 57.804688 68.410156 57.792969 C 68.425781 57.789062 68.441406 57.78125 68.460938 57.78125 C 68.488281 57.78125 68.519531 57.792969 68.542969 57.835938 C 69.339844 59.238281 69.632812 61.390625 69.734375 62.945312 C 69.75 63.203125 69.941406 63.402344 70.199219 63.433594 C 70.460938 63.460938 70.695312 63.308594 70.769531 63.058594 C 71.238281 61.480469 71.578125 61.402344 71.640625 61.402344 C 71.695312 61.402344 71.988281 61.464844 72.359375 62.734375 C 73.699219 67.277344 70.179688 79.683594 67.535156 81.660156 C 66.910156 82.125 66.457031 82.292969 66.230469 82.144531 C 65.316406 81.539062 66.464844 76.371094 67.839844 70.882812 C 69.53125 64.140625 68.886719 59.863281 68.351562 57.914062 Z M 66.015625 82.464844 C 66.144531 82.550781 66.285156 82.585938 66.429688 82.585938 C 66.878906 82.585938 67.386719 82.253906 67.769531 81.964844 C 70.550781 79.886719 74.136719 67.390625 72.734375 62.625 C 72.410156 61.527344 72.0625 61.015625 71.644531 61.015625 C 71.203125 61.019531 70.789062 61.628906 70.394531 62.949219 C 70.367188 63.054688 70.273438 63.050781 70.242188 63.050781 C 70.207031 63.042969 70.128906 63.023438 70.121094 62.921875 C 70.015625 61.324219 69.714844 59.113281 68.878906 57.644531 C 68.753906 57.421875 68.5 57.335938 68.261719 57.4375 C 68.027344 57.53125 67.910156 57.773438 67.976562 58.015625 C 68.5 59.929688 69.132812 64.132812 67.464844 70.789062 C 65.433594 78.890625 65.066406 81.835938 66.015625 82.464844 Z M 136.003906 97.414062 C 138.804688 99.894531 140.921875 102.589844 141.726562 107.839844 C 142.046875 109.917969 141.640625 113.0625 140.867188 116.878906 C 139.417969 109.105469 137.621094 101.675781 136.003906 97.414062 Z M 119.007812 136.144531 C 119.769531 133.320312 120.582031 130.253906 121.375 127.101562 C 123.105469 131.628906 124.492188 135 124.492188 135 Z M 141.050781 117.886719 C 141.960938 113.609375 142.460938 110.074219 142.109375 107.785156 C 141.230469 102.046875 138.835938 99.304688 135.695312 96.628906 C 135.210938 95.457031 134.742188 94.589844 134.316406 94.125 C 132.703125 92.367188 130.003906 90.546875 127.289062 88.96875 C 126.359375 87.882812 125.425781 86.65625 124.5 85.242188 C 118.6875 76.347656 120.300781 70.816406 123.832031 58.691406 C 125.035156 54.558594 126.402344 49.878906 127.789062 44.023438 C 130.660156 31.902344 126.253906 23.414062 122.050781 18.425781 C 120.449219 16.53125 118.757812 14.984375 117.230469 13.773438 C 116.992188 13.75 116.75 13.722656 116.507812 13.699219 C 118.136719 14.945312 120.007812 16.601562 121.761719 18.6875 C 125.902344 23.605469 130.246094 31.976562 127.410156 43.933594 C 126.027344 49.777344 124.664062 54.457031 123.460938 58.582031 C 119.894531 70.824219 118.265625 76.410156 124.175781 85.453125 C 124.890625 86.546875 125.613281 87.53125 126.335938 88.425781 C 122.347656 86.1875 118.613281 84.566406 118.613281 84.5625 C 115.78125 82.882812 112.949219 82.132812 111.484375 81.988281 C 109.5 81.792969 104.203125 83.160156 100 84.382812 C 93.992188 86.121094 89 90.375 86.480469 96.089844 C 85.707031 97.847656 85 99.816406 84.390625 102 C 83.523438 105.101562 77.355469 109 77.371094 113.085938 C 77.375 113.800781 77.488281 115.222656 77.667969 117.085938 L 68.867188 114.234375 C 63.949219 111.5625 61.742188 117.15625 61.234375 122.09375 C 61.199219 122.453125 61.1875 122.792969 61.195312 123.113281 C 60.953125 121.554688 60.789062 119.984375 60.722656 118.425781 C 60.4375 111.59375 62.84375 108.125 66.175781 103.324219 C 70.195312 97.53125 75.699219 89.601562 78.578125 71.238281 C 81.246094 54.234375 76.414062 40.691406 71.890625 32.328125 C 70.269531 29.332031 68.574219 26.769531 67.023438 24.675781 C 66.902344 24.726562 66.777344 24.773438 66.652344 24.824219 C 68.210938 26.921875 69.921875 29.5 71.558594 32.523438 C 76.046875 40.835938 80.847656 54.285156 78.195312 71.175781 C 75.328125 89.457031 69.855469 97.34375 65.859375 103.105469 C 62.609375 107.785156 60.046875 111.484375 60.335938 118.441406 C 60.929688 132.660156 69.621094 147.511719 71 149.78125 L 66.375 149.78125 C 65.359375 148.09375 51.101562 124.0625 52.699219 107.402344 C 53.441406 99.683594 56.679688 92.574219 59.816406 85.695312 C 63.605469 77.382812 67.183594 69.527344 64.761719 62.699219 C 62 54.90625 51.585938 43.167969 44.503906 35.785156 C 44.398438 35.855469 44.289062 35.925781 44.179688 36 C 51.238281 43.355469 61.648438 55.078125 64.394531 62.828125 C 66.765625 69.511719 63.382812 76.9375 59.464844 85.535156 C 56.316406 92.441406 53.058594 99.582031 52.3125 107.363281 C 50.652344 124.679688 65.949219 149.824219 66.101562 150.074219 C 66.136719 150.132812 66.199219 150.167969 66.265625 150.167969 L 71.34375 150.167969 C 71.414062 150.167969 71.480469 150.128906 71.515625 150.066406 C 71.546875 150.007812 71.546875 149.929688 71.507812 149.871094 C 71.421875 149.734375 64.074219 138.015625 61.539062 125.085938 C 62.40625 127.453125 64.578125 128.007812 64.578125 128.007812 L 79.636719 136.636719 C 79.761719 138.101562 79.863281 139.480469 79.929688 140.699219 C 80.070312 143.179688 80.144531 145.351562 80.1875 147.011719 L 78.035156 173.117188 C 86.75 176.476562 95.960938 178.347656 105.339844 178.347656 C 113.046875 178.347656 120.066406 176.789062 126.417969 173.984375 C 125.597656 165.691406 123.679688 157.578125 119.828125 151.640625 C 125.121094 150.949219 129.910156 150.460938 133.792969 149.683594 C 132.878906 157.335938 133.230469 164.109375 136.449219 168.164062 C 136.554688 168.085938 136.660156 168.007812 136.761719 167.933594 C 133.59375 163.953125 133.265625 157.222656 134.191406 149.601562 C 138.320312 148.742188 141.378906 147.527344 142.875 145.34375 C 144.566406 142.871094 143.269531 130.105469 141.050781 117.886719 "
            fill-opacity="1" fill-rule="nonzero" />
    </g>
    <g clip-path="url(#b4ab18da47)">
        <path fill="#f55951"
            d="M 180.867188 61.636719 L 168.160156 54.4375 C 167.832031 54.25 167.414062 54.375 167.246094 54.714844 L 165.398438 58.367188 C 165.242188 58.679688 165.355469 59.058594 165.660156 59.234375 L 178.195312 66.335938 C 179.539062 67.097656 181.246094 66.582031 181.945312 65.203125 C 182.59375 63.917969 182.121094 62.351562 180.867188 61.636719 Z M 10.945312 106.984375 C 9.621094 108.019531 9.382812 109.929688 10.421875 111.253906 C 11.53125 112.675781 13.628906 112.824219 14.933594 111.578125 L 26.0625 100.917969 L 23.285156 97.367188 Z M 39.609375 25.410156 C 37.148438 24.285156 32.917969 25.304688 30.394531 27.84375 C 28.519531 29.722656 28.261719 32.769531 29.699219 34.929688 C 34.042969 41.449219 47.226562 60.972656 49.105469 60.644531 C 51.359375 60.25 43.328125 27.113281 39.609375 25.410156 Z M 160.371094 93.246094 C 160.351562 93.210938 160.304688 93.199219 160.269531 93.21875 C 159.6875 93.550781 159.164062 93.996094 158.71875 94.507812 C 158.273438 95.015625 157.914062 95.601562 157.628906 96.214844 C 157.359375 96.835938 157.164062 97.492188 157.082031 98.167969 C 156.996094 98.839844 157.011719 99.523438 157.152344 100.179688 C 157.160156 100.222656 157.199219 100.253906 157.242188 100.25 C 157.292969 100.246094 157.328125 100.203125 157.324219 100.15625 C 157.277344 99.503906 157.308594 98.851562 157.417969 98.21875 C 157.53125 97.582031 157.714844 96.960938 157.984375 96.371094 C 158.238281 95.777344 158.578125 95.226562 158.972656 94.714844 C 159.371094 94.203125 159.832031 93.746094 160.351562 93.339844 C 160.378906 93.320312 160.386719 93.277344 160.371094 93.246094 Z M 159.195312 105.328125 L 159.191406 105.3125 C 159.183594 105.25 159.167969 105.207031 159.152344 105.167969 C 159.140625 105.125 159.117188 105.09375 159.097656 105.058594 C 159.074219 105.03125 159.054688 104.996094 159.019531 104.96875 C 158.984375 104.9375 158.953125 104.90625 158.894531 104.871094 L 158.886719 104.863281 C 158.886719 104.863281 158.882812 104.863281 158.882812 104.859375 C 158.835938 104.835938 158.777344 104.851562 158.75 104.898438 C 158.714844 104.960938 158.710938 105.023438 158.714844 105.089844 C 158.714844 105.152344 158.742188 105.210938 158.769531 105.265625 C 158.804688 105.316406 158.847656 105.367188 158.902344 105.398438 C 158.953125 105.433594 159.015625 105.457031 159.089844 105.453125 C 159.089844 105.453125 159.09375 105.453125 159.097656 105.453125 C 159.160156 105.445312 159.203125 105.390625 159.195312 105.328125 Z M 158.578125 103.992188 C 158.464844 103.773438 158.34375 103.5625 158.238281 103.347656 C 158.136719 103.132812 158.03125 102.917969 157.941406 102.699219 C 157.84375 102.484375 157.765625 102.261719 157.679688 102.035156 C 157.601562 101.808594 157.53125 101.578125 157.457031 101.34375 C 157.445312 101.316406 157.417969 101.296875 157.386719 101.292969 C 157.347656 101.289062 157.3125 101.320312 157.308594 101.363281 C 157.292969 101.617188 157.316406 101.871094 157.363281 102.121094 C 157.410156 102.371094 157.488281 102.613281 157.582031 102.847656 C 157.683594 103.085938 157.800781 103.3125 157.945312 103.519531 C 158.085938 103.730469 158.246094 103.929688 158.4375 104.097656 C 158.464844 104.121094 158.503906 104.128906 158.539062 104.109375 C 158.582031 104.085938 158.597656 104.035156 158.578125 103.992188 Z M 178.507812 103.578125 C 176.878906 108.265625 172.300781 111.199219 167.414062 111.085938 C 166.210938 111.058594 165.480469 109.433594 164.277344 109.015625 C 163.050781 108.589844 161.445312 109.402344 160.46875 108.65625 C 156.605469 105.714844 154.859375 100.613281 156.476562 95.949219 C 158.507812 90.109375 163.960938 90.308594 170.046875 92.414062 C 176.128906 94.519531 180.535156 97.734375 178.507812 103.578125 Z M 106.847656 147.609375 C 106.847656 149.210938 105.511719 150.492188 103.910156 150.425781 L 90.773438 149.878906 C 89.554688 149.828125 88.59375 148.828125 88.59375 147.609375 C 88.59375 146.390625 89.554688 145.390625 90.773438 145.339844 L 103.910156 144.792969 C 105.511719 144.726562 106.847656 146.007812 106.847656 147.609375 "
            fill-opacity="1" fill-rule="nonzero" />
    </g>
    <path fill="#ffebcb"
        d="M 175.066406 92.53125 C 174.21875 91.597656 171.507812 92.707031 171.507812 92.707031 C 171.507812 92.707031 172.796875 89.730469 171.816406 89.808594 C 170.839844 89.882812 170.441406 92.039062 170.441406 92.039062 C 170.441406 92.039062 168.703125 89.109375 168.214844 89.808594 C 167.726562 90.503906 169.726562 93.019531 169.726562 93.019531 C 169.726562 93.019531 166.480469 93.460938 167.726562 94.171875 C 168.972656 94.882812 170.394531 94.085938 170.394531 94.085938 C 170.394531 94.085938 172.128906 96.570312 173.019531 95.992188 C 173.910156 95.414062 171.863281 93.816406 171.863281 93.816406 C 171.863281 93.816406 175.910156 93.460938 175.066406 92.53125 Z M 32.300781 16.03125 C 31.167969 15.199219 32.6875 22.28125 32.6875 22.28125 C 32.6875 22.28125 31.207031 19.46875 30.039062 18.738281 C 28.875 18.003906 28.945312 19.992188 30.039062 21.25 C 31.128906 22.5 32.351562 24.019531 32.351562 24.019531 C 32.351562 24.019531 27.894531 20.5 26.851562 20.355469 C 25.808594 20.210938 33.121094 25.945312 33.121094 25.945312 C 33.449219 25.789062 33.78125 25.65625 34.117188 25.535156 C 34.117188 25.535156 33.429688 16.859375 32.300781 16.03125 Z M 60.03125 109.605469 C 58.621094 107.820312 54.464844 105.113281 54.464844 105.113281 C 52.304688 105.523438 50.960938 106.835938 50.183594 108.441406 C 49.8125 108.445312 49.328125 108.191406 48.597656 108.9375 C 47.496094 110.078125 47.539062 110.09375 46.617188 110.792969 C 45.699219 111.492188 45.925781 115.089844 46.011719 116.050781 C 46.097656 117.011719 46.910156 118.207031 47.253906 118.785156 C 47.597656 119.363281 47.847656 120.441406 48.847656 120.433594 C 49.851562 120.425781 50.019531 118.886719 50.019531 118.886719 C 50.019531 118.886719 52.035156 117.609375 52.191406 116.929688 C 52.203125 116.886719 52.214844 116.839844 52.234375 116.785156 C 52.476562 116.78125 52.730469 116.769531 52.992188 116.757812 C 52.800781 117.117188 52.644531 117.46875 52.554688 117.789062 C 52.109375 119.371094 52.871094 120.824219 53.90625 119.75 C 54.535156 119.097656 55.816406 117.699219 56.695312 116.476562 C 57.359375 116.410156 57.796875 116.359375 57.796875 116.359375 L 67 123.351562 C 67.359375 122.722656 67.746094 122.082031 68.144531 121.460938 C 70.402344 117.941406 68.871094 114.242188 68.867188 114.234375 C 64.8125 112.414062 60.675781 110.421875 60.03125 109.605469 Z M 115.117188 139.121094 L 99.589844 141.527344 C 99.589844 141.527344 95.363281 143.300781 94.222656 145.199219 L 100.617188 145.195312 C 100.617188 145.195312 97.035156 151.003906 96.039062 151.867188 C 95.042969 152.726562 93.167969 156.40625 94.980469 155.988281 C 96.796875 155.574219 96.863281 154.6875 97.9375 154.625 C 99.015625 154.5625 100.726562 154.625 101.488281 154.246094 C 102.25 153.863281 103.261719 152.984375 104.46875 153.171875 C 105.671875 153.359375 106.546875 153.019531 107.382812 152.21875 C 108.214844 151.421875 108.585938 148.304688 110.488281 147.949219 C 112.390625 147.601562 116.644531 147.558594 116.644531 147.558594 C 116.644531 147.558594 119.933594 140.261719 115.117188 139.121094 Z M 94.914062 80.765625 C 89.03125 80.664062 85.285156 69.726562 85.257812 66.28125 C 85.253906 65.371094 85.03125 62.304688 84.898438 61.390625 C 84.628906 59.558594 84.746094 57.816406 85.191406 56.230469 C 101.910156 50.320312 110.246094 60.191406 110.246094 60.191406 L 110.667969 56.574219 C 110.855469 60.621094 109.8125 65.742188 107.746094 70.226562 C 107.96875 76.539062 110.234375 82.390625 110.234375 82.390625 C 106.996094 85.558594 103.613281 86.542969 101.988281 88.238281 C 100.359375 89.941406 101.25 91.90625 100.386719 92.105469 C 98.808594 92.46875 98.628906 92.101562 98.628906 92.101562 L 98.121094 80.289062 C 97.101562 80.617188 96.035156 80.785156 94.914062 80.765625 "
        fill-opacity="1" fill-rule="nonzero" />
    <path fill="#393a3f"
        d="M 177.894531 62.078125 C 177.464844 61.859375 176.9375 62.03125 176.722656 62.464844 C 176.503906 62.890625 176.679688 63.414062 177.109375 63.628906 C 177.539062 63.847656 178.0625 63.675781 178.277344 63.246094 C 178.496094 62.816406 178.324219 62.292969 177.894531 62.078125 Z M 170.054688 59.558594 C 170.484375 59.777344 171.011719 59.605469 171.226562 59.175781 C 171.441406 58.746094 171.269531 58.222656 170.839844 58.007812 C 170.410156 57.789062 169.886719 57.960938 169.671875 58.390625 C 169.453125 58.820312 169.625 59.34375 170.054688 59.558594 Z M 151.6875 63.011719 L 144.777344 58.824219 L 137.847656 54.671875 C 135.613281 53.269531 134.179688 50.671875 134.1875 48.003906 C 134.1875 47.957031 134.152344 47.917969 134.101562 47.914062 C 134.054688 47.914062 134.011719 47.953125 134.011719 48 C 133.972656 49.359375 134.28125 50.738281 134.917969 51.949219 C 135.554688 53.164062 136.496094 54.222656 137.652344 54.972656 L 144.574219 59.144531 L 151.519531 63.28125 C 153.835938 64.65625 156.164062 66.015625 158.492188 67.371094 C 158.523438 67.390625 158.570312 67.378906 158.589844 67.347656 C 158.613281 67.3125 158.601562 67.265625 158.566406 67.246094 C 156.277344 65.824219 153.988281 64.410156 151.6875 63.011719 Z M 14.667969 107.140625 C 14.195312 107.046875 13.738281 107.355469 13.644531 107.824219 C 13.554688 108.296875 13.859375 108.753906 14.332031 108.847656 C 14.804688 108.9375 15.261719 108.632812 15.355469 108.160156 C 15.449219 107.691406 15.140625 107.234375 14.667969 107.140625 Z M 20.613281 101.804688 C 20.140625 101.714844 19.683594 102.019531 19.589844 102.492188 C 19.496094 102.960938 19.804688 103.417969 20.277344 103.511719 C 20.75 103.605469 21.207031 103.300781 21.300781 102.828125 C 21.394531 102.355469 21.085938 101.898438 20.613281 101.804688 Z M 41.5 93.558594 C 39.199219 95.535156 36.804688 97.40625 34.359375 99.203125 C 34.328125 99.226562 34.320312 99.273438 34.34375 99.304688 C 34.367188 99.339844 34.414062 99.347656 34.445312 99.324219 C 35.695312 98.457031 36.921875 97.5625 38.144531 96.652344 C 39.351562 95.730469 40.542969 94.785156 41.710938 93.808594 C 44.046875 91.859375 46.285156 89.792969 48.410156 87.609375 C 50.511719 85.410156 52.492188 83.082031 54.253906 80.597656 C 56.015625 78.117188 57.5625 75.472656 58.742188 72.664062 C 58.761719 72.621094 58.742188 72.570312 58.699219 72.550781 C 58.65625 72.53125 58.605469 72.546875 58.585938 72.589844 L 58.582031 72.59375 L 57.585938 74.636719 C 57.246094 75.3125 56.839844 75.953125 56.472656 76.613281 C 56.117188 77.28125 55.671875 77.894531 55.269531 78.535156 C 55.058594 78.851562 54.859375 79.171875 54.644531 79.480469 L 53.976562 80.398438 C 52.199219 82.847656 50.234375 85.160156 48.128906 87.34375 C 46.03125 89.527344 43.800781 91.585938 41.5 93.558594 Z M 31.777344 25.082031 C 32.195312 25.363281 32.625 25.636719 33.09375 25.84375 C 33.128906 25.859375 33.175781 25.847656 33.199219 25.8125 C 33.226562 25.769531 33.21875 25.714844 33.175781 25.6875 C 32.769531 25.410156 32.371094 25.109375 31.976562 24.808594 C 31.582031 24.503906 31.191406 24.199219 30.804688 23.882812 L 29.632812 22.953125 C 29.242188 22.640625 28.851562 22.328125 28.449219 22.027344 C 28.421875 22.007812 28.382812 22.007812 28.355469 22.03125 C 28.324219 22.058594 28.324219 22.105469 28.351562 22.136719 C 28.691406 22.511719 29.054688 22.859375 29.421875 23.199219 C 29.789062 23.539062 30.175781 23.859375 30.5625 24.183594 C 30.960938 24.492188 31.355469 24.804688 31.777344 25.082031 Z M 29.988281 18.792969 C 30.363281 19.226562 30.726562 19.675781 31.070312 20.136719 C 31.410156 20.597656 31.746094 21.0625 32.039062 21.554688 C 32.351562 22.035156 32.613281 22.539062 32.859375 23.054688 C 33.097656 23.574219 33.28125 24.109375 33.4375 24.664062 L 33.441406 24.664062 C 33.453125 24.707031 33.492188 24.734375 33.535156 24.730469 C 33.582031 24.722656 33.617188 24.679688 33.613281 24.628906 C 33.542969 24.046875 33.386719 23.472656 33.171875 22.921875 C 32.949219 22.375 32.675781 21.851562 32.367188 21.347656 C 32.046875 20.859375 31.707031 20.378906 31.328125 19.933594 C 30.945312 19.488281 30.542969 19.0625 30.089844 18.683594 C 30.0625 18.660156 30.023438 18.660156 29.996094 18.683594 C 29.964844 18.710938 29.960938 18.757812 29.988281 18.789062 Z M 30.375 22.746094 C 30.945312 23.160156 31.507812 23.601562 32.070312 24.035156 L 33.757812 25.347656 C 33.789062 25.371094 33.832031 25.367188 33.855469 25.339844 C 33.886719 25.3125 33.886719 25.265625 33.855469 25.238281 C 33.351562 24.726562 32.820312 24.25 32.277344 23.78125 C 31.738281 23.3125 31.171875 22.871094 30.605469 22.433594 C 30.027344 22.011719 29.441406 21.59375 28.828125 21.21875 C 28.210938 20.847656 27.578125 20.492188 26.878906 20.273438 C 26.839844 20.261719 26.792969 20.28125 26.773438 20.324219 C 26.753906 20.367188 26.773438 20.417969 26.820312 20.4375 C 27.457031 20.730469 28.054688 21.113281 28.640625 21.507812 C 29.226562 21.902344 29.808594 22.3125 30.375 22.746094 Z M 46.652344 57.875 C 46.628906 57.894531 46.617188 57.929688 46.628906 57.960938 C 46.644531 58 46.6875 58.019531 46.726562 58.003906 C 47.003906 57.902344 47.273438 57.808594 47.550781 57.742188 C 47.828125 57.675781 48.105469 57.621094 48.390625 57.597656 C 48.671875 57.566406 48.953125 57.5625 49.238281 57.570312 C 49.523438 57.582031 49.808594 57.621094 50.097656 57.664062 C 50.132812 57.667969 50.171875 57.652344 50.191406 57.617188 C 50.214844 57.570312 50.191406 57.519531 50.152344 57.496094 C 49.875 57.359375 49.574219 57.277344 49.273438 57.230469 C 48.96875 57.183594 48.65625 57.183594 48.347656 57.210938 C 48.042969 57.25 47.738281 57.316406 47.453125 57.429688 C 47.164062 57.542969 46.890625 57.6875 46.652344 57.875 Z M 46.46875 52.851562 C 46.132812 52.898438 45.808594 53.007812 45.507812 53.160156 C 45.207031 53.320312 44.929688 53.519531 44.699219 53.765625 C 44.46875 54.011719 44.277344 54.292969 44.160156 54.605469 C 44.148438 54.644531 44.160156 54.6875 44.191406 54.710938 C 44.230469 54.738281 44.285156 54.730469 44.316406 54.691406 C 44.503906 54.441406 44.707031 54.210938 44.9375 54.015625 C 45.167969 53.816406 45.417969 53.640625 45.6875 53.503906 C 45.953125 53.359375 46.238281 53.253906 46.53125 53.171875 C 46.824219 53.09375 47.132812 53.054688 47.449219 53.042969 C 47.480469 53.039062 47.507812 53.019531 47.515625 52.984375 C 47.527344 52.945312 47.503906 52.90625 47.464844 52.894531 C 47.140625 52.8125 46.800781 52.804688 46.46875 52.851562 Z M 43.449219 48.226562 C 43.082031 48.460938 42.738281 48.726562 42.445312 49.039062 C 42.414062 49.070312 42.410156 49.117188 42.433594 49.152344 C 42.460938 49.191406 42.515625 49.199219 42.558594 49.171875 C 42.90625 48.941406 43.257812 48.714844 43.621094 48.519531 C 43.988281 48.328125 44.363281 48.148438 44.746094 48 C 45.132812 47.847656 45.527344 47.726562 45.929688 47.625 C 46.332031 47.523438 46.742188 47.449219 47.160156 47.390625 C 47.195312 47.386719 47.222656 47.355469 47.222656 47.324219 C 47.226562 47.28125 47.195312 47.246094 47.15625 47.242188 C 46.726562 47.210938 46.292969 47.238281 45.863281 47.304688 C 45.4375 47.371094 45.015625 47.488281 44.609375 47.640625 C 44.203125 47.796875 43.8125 47.988281 43.449219 48.226562 Z M 42.460938 44.761719 C 41.898438 44.949219 41.367188 45.21875 40.867188 45.542969 C 40.382812 45.882812 39.925781 46.269531 39.542969 46.71875 C 39.15625 47.167969 38.832031 47.667969 38.605469 48.210938 C 38.589844 48.242188 38.601562 48.28125 38.632812 48.300781 C 38.667969 48.324219 38.714844 48.3125 38.734375 48.277344 C 39.042969 47.796875 39.390625 47.34375 39.785156 46.941406 C 40.179688 46.535156 40.609375 46.167969 41.082031 45.863281 C 41.546875 45.546875 42.054688 45.292969 42.578125 45.085938 C 43.105469 44.878906 43.652344 44.730469 44.21875 44.636719 C 44.257812 44.628906 44.292969 44.59375 44.289062 44.546875 C 44.289062 44.5 44.25 44.460938 44.203125 44.460938 C 43.613281 44.46875 43.027344 44.578125 42.460938 44.761719 Z M 44.613281 39.964844 C 44.617188 39.925781 44.585938 39.890625 44.542969 39.890625 C 43.75 39.84375 42.949219 39.941406 42.175781 40.15625 C 41.40625 40.371094 40.671875 40.71875 40 41.15625 C 39.335938 41.609375 38.738281 42.15625 38.246094 42.789062 C 37.753906 43.417969 37.355469 44.125 37.097656 44.875 C 37.085938 44.917969 37.101562 44.964844 37.144531 44.980469 C 37.1875 45.003906 37.238281 44.984375 37.257812 44.941406 C 37.59375 44.242188 38.011719 43.585938 38.511719 43.003906 C 39.007812 42.421875 39.574219 41.894531 40.214844 41.476562 C 40.84375 41.039062 41.546875 40.710938 42.273438 40.46875 C 43 40.226562 43.765625 40.085938 44.542969 40.035156 C 44.582031 40.035156 44.613281 40.003906 44.613281 39.964844 Z M 42.230469 36.03125 C 42.207031 36.042969 42.1875 36.070312 42.1875 36.097656 C 42.1875 36.140625 42.222656 36.175781 42.261719 36.175781 C 42.472656 36.179688 42.671875 36.179688 42.871094 36.195312 C 43.066406 36.210938 43.261719 36.230469 43.457031 36.265625 C 43.652344 36.296875 43.84375 36.34375 44.035156 36.390625 C 44.226562 36.441406 44.417969 36.503906 44.613281 36.566406 C 44.644531 36.574219 44.683594 36.566406 44.707031 36.542969 C 44.742188 36.503906 44.738281 36.449219 44.703125 36.414062 C 44.539062 36.265625 44.351562 36.15625 44.148438 36.066406 C 43.949219 35.976562 43.734375 35.917969 43.519531 35.882812 C 43.304688 35.851562 43.082031 35.84375 42.863281 35.867188 C 42.644531 35.890625 42.429688 35.941406 42.230469 36.03125 Z M 35.136719 39.589844 C 34.722656 40.230469 34.402344 40.929688 34.21875 41.664062 C 34.207031 41.699219 34.226562 41.738281 34.261719 41.75 C 34.300781 41.765625 34.34375 41.75 34.359375 41.710938 C 34.628906 41.019531 34.980469 40.367188 35.40625 39.773438 C 35.835938 39.175781 36.324219 38.625 36.886719 38.15625 C 37.4375 37.671875 38.050781 37.269531 38.707031 36.933594 C 39.359375 36.601562 40.054688 36.355469 40.777344 36.1875 C 40.820312 36.179688 40.847656 36.136719 40.84375 36.09375 C 40.839844 36.046875 40.796875 36.011719 40.746094 36.015625 C 39.992188 36.09375 39.25 36.3125 38.554688 36.628906 C 37.859375 36.945312 37.214844 37.371094 36.632812 37.863281 C 36.0625 38.371094 35.546875 38.945312 35.136719 39.589844 Z M 36.347656 33.585938 C 36.101562 33.765625 35.863281 33.953125 35.644531 34.160156 C 35.425781 34.367188 35.214844 34.582031 35.03125 34.824219 C 35.007812 34.851562 35.007812 34.894531 35.03125 34.929688 C 35.058594 34.96875 35.113281 34.976562 35.152344 34.949219 C 35.398438 34.777344 35.628906 34.597656 35.867188 34.421875 L 36.574219 33.898438 L 38.007812 32.867188 C 38.03125 32.847656 38.042969 32.8125 38.035156 32.78125 C 38.019531 32.742188 37.976562 32.722656 37.9375 32.738281 C 37.652344 32.835938 37.378906 32.964844 37.113281 33.109375 C 36.84375 33.25 36.59375 33.414062 36.347656 33.585938 Z M 39.054688 32.207031 C 39.371094 32.097656 39.675781 31.988281 39.988281 31.890625 C 40.296875 31.796875 40.609375 31.703125 40.921875 31.625 C 41.238281 31.542969 41.554688 31.476562 41.875 31.410156 C 42.195312 31.347656 42.515625 31.296875 42.84375 31.242188 C 42.875 31.234375 42.902344 31.210938 42.90625 31.175781 C 42.910156 31.136719 42.878906 31.097656 42.839844 31.09375 C 42.503906 31.054688 42.164062 31.058594 41.828125 31.085938 C 41.492188 31.109375 41.15625 31.171875 40.828125 31.25 C 40.5 31.332031 40.175781 31.433594 39.867188 31.570312 C 39.558594 31.703125 39.257812 31.855469 38.976562 32.046875 C 38.945312 32.070312 38.929688 32.113281 38.945312 32.148438 C 38.960938 32.195312 39.007812 32.222656 39.054688 32.207031 Z M 32.753906 31.460938 C 33.363281 30.882812 34.066406 30.402344 34.820312 30.011719 C 35.195312 29.820312 35.582031 29.640625 35.980469 29.492188 C 36.375 29.332031 36.785156 29.210938 37.191406 29.105469 L 37.199219 29.101562 C 37.242188 29.089844 37.269531 29.050781 37.265625 29.003906 C 37.257812 28.957031 37.210938 28.925781 37.164062 28.933594 C 36.292969 29.054688 35.460938 29.335938 34.667969 29.707031 C 33.875 30.082031 33.140625 30.582031 32.488281 31.179688 C 32.160156 31.472656 31.886719 31.820312 31.605469 32.160156 C 31.476562 32.339844 31.363281 32.527344 31.242188 32.714844 C 31.109375 32.890625 31.019531 33.09375 30.925781 33.292969 C 30.515625 34.078125 30.335938 34.949219 30.21875 35.804688 C 30.214844 35.84375 30.238281 35.878906 30.273438 35.886719 C 30.316406 35.898438 30.355469 35.871094 30.363281 35.832031 L 30.367188 35.828125 C 30.574219 35 30.792969 34.171875 31.21875 33.441406 C 31.398438 33.058594 31.660156 32.726562 31.894531 32.378906 C 32.167969 32.0625 32.433594 31.734375 32.753906 31.460938 Z M 173.972656 109.074219 C 173.027344 109.683594 172.003906 110.171875 170.925781 110.460938 C 169.851562 110.75 168.722656 110.832031 167.636719 110.628906 C 167.09375 110.535156 166.558594 110.375 166.0625 110.136719 C 165.558594 109.910156 165.117188 109.585938 164.664062 109.242188 C 164.214844 108.898438 163.757812 108.535156 163.222656 108.285156 C 162.695312 108.042969 162.085938 107.90625 161.503906 108.050781 C 161.464844 108.058594 161.441406 108.09375 161.449219 108.132812 C 161.457031 108.171875 161.492188 108.199219 161.535156 108.191406 C 162.078125 108.097656 162.628906 108.261719 163.109375 108.519531 C 163.597656 108.773438 164.023438 109.136719 164.460938 109.496094 C 164.894531 109.863281 165.375 110.214844 165.90625 110.464844 C 166.429688 110.722656 166.992188 110.902344 167.566406 111.007812 C 168.71875 111.210938 169.910156 111.125 171.019531 110.789062 C 172.132812 110.460938 173.160156 109.90625 174.074219 109.21875 C 174.109375 109.191406 174.121094 109.140625 174.09375 109.101562 C 174.070312 109.058594 174.015625 109.046875 173.972656 109.074219 Z M 170.445312 93.390625 C 170.441406 93.359375 170.414062 93.335938 170.386719 93.328125 C 170.34375 93.320312 170.304688 93.347656 170.296875 93.390625 C 170.25 93.648438 170.257812 93.917969 170.308594 94.179688 C 170.351562 94.445312 170.445312 94.695312 170.570312 94.9375 C 170.695312 95.171875 170.851562 95.390625 171.042969 95.578125 C 171.234375 95.765625 171.453125 95.929688 171.695312 96.035156 C 171.726562 96.046875 171.769531 96.042969 171.796875 96.015625 C 171.828125 95.980469 171.828125 95.921875 171.792969 95.890625 C 171.613281 95.714844 171.445312 95.542969 171.300781 95.351562 C 171.15625 95.160156 171.023438 94.964844 170.910156 94.753906 C 170.796875 94.546875 170.707031 94.324219 170.625 94.097656 C 170.546875 93.871094 170.492188 93.636719 170.445312 93.390625 Z M 171.203125 92.9375 C 171.226562 92.972656 171.273438 92.980469 171.308594 92.957031 C 171.535156 92.808594 171.714844 92.59375 171.859375 92.363281 C 172.003906 92.132812 172.105469 91.875 172.175781 91.617188 C 172.238281 91.355469 172.28125 91.089844 172.289062 90.828125 C 172.296875 90.5625 172.292969 90.300781 172.257812 90.042969 C 172.253906 90.007812 172.226562 89.976562 172.191406 89.96875 C 172.140625 89.957031 172.09375 89.988281 172.082031 90.035156 C 172.023438 90.289062 171.992188 90.542969 171.949219 90.789062 C 171.902344 91.039062 171.863281 91.28125 171.800781 91.519531 C 171.742188 91.757812 171.660156 91.988281 171.570312 92.210938 C 171.472656 92.433594 171.351562 92.644531 171.203125 92.851562 C 171.1875 92.878906 171.183594 92.914062 171.203125 92.9375 Z M 174.546875 93.527344 C 174.242188 93.539062 173.945312 93.574219 173.648438 93.605469 C 173.351562 93.632812 173.054688 93.667969 172.761719 93.691406 C 172.472656 93.710938 172.171875 93.730469 171.898438 93.714844 C 171.625 93.695312 171.355469 93.613281 171.148438 93.425781 L 171.144531 93.425781 C 171.121094 93.40625 171.085938 93.398438 171.058594 93.417969 C 171.023438 93.4375 171.011719 93.484375 171.03125 93.519531 C 171.203125 93.8125 171.535156 93.976562 171.851562 94.039062 C 172.175781 94.105469 172.484375 94.089844 172.792969 94.074219 C 173.097656 94.050781 173.402344 94.011719 173.699219 93.941406 C 174 93.878906 174.292969 93.800781 174.582031 93.699219 C 174.617188 93.6875 174.640625 93.652344 174.640625 93.613281 C 174.640625 93.566406 174.597656 93.527344 174.546875 93.527344 Z M 169.300781 90.691406 C 169.453125 90.867188 169.597656 91.042969 169.71875 91.234375 C 169.84375 91.417969 169.9375 91.621094 170.011719 91.828125 C 170.085938 92.035156 170.125 92.253906 170.128906 92.484375 L 170.128906 92.488281 C 170.132812 92.523438 170.152344 92.554688 170.1875 92.566406 C 170.234375 92.585938 170.285156 92.5625 170.304688 92.515625 C 170.394531 92.269531 170.394531 91.996094 170.34375 91.742188 C 170.292969 91.480469 170.183594 91.238281 170.042969 91.019531 C 169.898438 90.808594 169.722656 90.617188 169.527344 90.457031 C 169.335938 90.296875 169.132812 90.15625 168.910156 90.042969 C 168.882812 90.03125 168.851562 90.035156 168.824219 90.054688 C 168.796875 90.082031 168.792969 90.128906 168.820312 90.160156 Z M 167.523438 93.808594 L 167.523438 93.804688 C 167.894531 93.453125 168.382812 93.3125 168.890625 93.242188 C 169.144531 93.199219 169.402344 93.179688 169.664062 93.164062 C 169.925781 93.144531 170.191406 93.140625 170.457031 93.128906 L 170.460938 93.128906 C 170.496094 93.125 170.527344 93.101562 170.539062 93.066406 C 170.554688 93.019531 170.527344 92.96875 170.480469 92.957031 C 170.210938 92.875 169.941406 92.839844 169.664062 92.820312 C 169.386719 92.800781 169.109375 92.816406 168.832031 92.859375 C 168.554688 92.90625 168.273438 92.980469 168.019531 93.121094 C 167.765625 93.257812 167.527344 93.457031 167.402344 93.722656 C 167.390625 93.75 167.394531 93.785156 167.414062 93.808594 C 167.445312 93.835938 167.492188 93.835938 167.523438 93.808594 Z M 63.332031 124.769531 C 63.480469 124.949219 63.683594 125.09375 63.90625 125.152344 C 64.125 125.214844 64.339844 125.226562 64.550781 125.203125 L 64.273438 125.363281 L 63.632812 125.738281 L 63.625 125.746094 C 63.585938 125.765625 63.570312 125.816406 63.589844 125.855469 C 63.609375 125.898438 63.664062 125.917969 63.707031 125.898438 C 64.617188 125.476562 65.527344 124.980469 66.246094 124.246094 C 66.972656 123.539062 67.605469 122.71875 68.058594 121.808594 C 68.515625 120.898438 68.859375 119.9375 69.074219 118.953125 C 69.285156 117.964844 69.40625 116.957031 69.367188 115.945312 C 69.363281 115.910156 69.332031 115.878906 69.292969 115.875 C 69.253906 115.875 69.21875 115.902344 69.21875 115.945312 L 69.21875 115.949219 C 69.191406 116.441406 69.140625 116.9375 69.054688 117.425781 C 68.984375 117.914062 68.878906 118.398438 68.757812 118.875 C 68.507812 119.832031 68.171875 120.761719 67.714844 121.628906 C 67.289062 122.515625 66.683594 123.300781 66.003906 124.003906 L 65.476562 124.511719 L 64.957031 124.902344 C 64.625 124.933594 64.292969 124.9375 64.019531 124.828125 C 63.699219 124.707031 63.503906 124.421875 63.425781 124.070312 C 63.339844 123.71875 63.347656 123.335938 63.375 122.953125 C 63.402344 122.570312 63.46875 122.179688 63.539062 121.796875 L 63.542969 121.792969 C 63.546875 121.757812 63.53125 121.722656 63.496094 121.710938 C 63.460938 121.695312 63.417969 121.710938 63.402344 121.75 C 63.230469 122.121094 63.121094 122.507812 63.046875 122.910156 C 62.980469 123.3125 62.953125 123.734375 63.050781 124.160156 C 63.101562 124.371094 63.1875 124.585938 63.332031 124.769531 Z M 89.578125 93.210938 C 89.332031 93.667969 89.105469 94.136719 88.878906 94.605469 C 88.652344 95.074219 88.449219 95.550781 88.230469 96.023438 C 88.03125 96.503906 87.824219 96.980469 87.632812 97.464844 C 87.441406 97.945312 87.253906 98.433594 87.089844 98.925781 C 87.078125 98.964844 87.09375 99.011719 87.132812 99.03125 C 87.175781 99.054688 87.226562 99.039062 87.25 98.996094 C 87.5 98.539062 87.726562 98.070312 87.945312 97.601562 C 88.167969 97.128906 88.375 96.652344 88.585938 96.175781 C 88.785156 95.695312 88.992188 95.21875 89.179688 94.738281 C 89.367188 94.25 89.554688 93.765625 89.714844 93.269531 C 89.726562 93.238281 89.714844 93.199219 89.679688 93.179688 C 89.644531 93.160156 89.601562 93.175781 89.578125 93.210938 Z M 127.523438 95.320312 L 127.527344 95.316406 C 128.152344 95.109375 128.792969 94.933594 129.433594 94.792969 C 130.074219 94.65625 130.722656 94.546875 131.375 94.53125 C 132.019531 94.503906 132.675781 94.527344 133.292969 94.703125 C 133.910156 94.871094 134.484375 95.171875 134.972656 95.605469 L 134.972656 95.609375 C 135.007812 95.636719 135.054688 95.640625 135.089844 95.609375 C 135.125 95.582031 135.132812 95.523438 135.097656 95.488281 C 134.65625 94.964844 134.046875 94.585938 133.390625 94.375 C 133.222656 94.328125 133.058594 94.285156 132.890625 94.242188 L 132.378906 94.171875 C 132.207031 94.144531 132.039062 94.15625 131.867188 94.144531 C 131.695312 94.132812 131.523438 94.132812 131.355469 94.148438 C 130.675781 94.183594 130.003906 94.296875 129.355469 94.476562 C 128.707031 94.65625 128.070312 94.878906 127.464844 95.183594 C 127.433594 95.199219 127.417969 95.238281 127.429688 95.273438 C 127.445312 95.3125 127.484375 95.332031 127.523438 95.320312 Z M 93.949219 39.453125 C 93.949219 39.496094 93.988281 39.53125 94.03125 39.535156 C 94.082031 39.539062 94.121094 39.5 94.125 39.453125 C 94.167969 38.421875 94.191406 37.390625 94.207031 36.359375 L 94.230469 33.265625 L 94.199219 30.171875 C 94.179688 29.144531 94.15625 28.113281 94.109375 27.082031 C 94.109375 27.042969 94.078125 27.011719 94.039062 27.011719 C 94 27.007812 93.964844 27.039062 93.960938 27.082031 C 93.914062 28.113281 93.890625 29.144531 93.875 30.171875 L 93.84375 33.265625 L 93.867188 36.359375 C 93.882812 37.390625 93.902344 38.421875 93.949219 39.453125 Z M 100.082031 48.289062 C 100.128906 48.300781 100.179688 48.273438 100.191406 48.222656 C 100.261719 47.972656 100.300781 47.722656 100.339844 47.46875 C 100.378906 47.214844 100.402344 46.960938 100.425781 46.703125 C 100.441406 46.449219 100.460938 46.195312 100.460938 45.9375 C 100.460938 45.679688 100.460938 45.425781 100.433594 45.164062 C 100.433594 45.136719 100.410156 45.109375 100.382812 45.101562 C 100.339844 45.089844 100.300781 45.113281 100.285156 45.152344 C 100.21875 45.40625 100.175781 45.65625 100.132812 45.910156 C 100.09375 46.164062 100.066406 46.417969 100.039062 46.671875 C 100.019531 46.925781 100 47.183594 100 47.4375 C 99.992188 47.695312 99.992188 47.949219 100.019531 48.210938 C 100.019531 48.246094 100.046875 48.277344 100.082031 48.289062 Z M 100.355469 43.402344 C 100.402344 43.40625 100.445312 43.371094 100.449219 43.320312 C 100.5625 41.816406 100.667969 40.308594 100.753906 38.800781 L 101 34.28125 L 101.191406 29.757812 C 101.246094 28.246094 101.289062 26.738281 101.320312 25.230469 C 101.320312 25.191406 101.292969 25.15625 101.253906 25.152344 C 101.210938 25.148438 101.175781 25.179688 101.171875 25.222656 C 101.058594 26.726562 100.953125 28.234375 100.863281 29.738281 L 100.613281 34.261719 L 100.414062 38.785156 C 100.351562 40.292969 100.308594 41.804688 100.273438 43.3125 C 100.273438 43.359375 100.308594 43.398438 100.355469 43.402344 Z M 85.410156 50.734375 L 85.414062 50.734375 C 86.484375 50.421875 87.589844 50.195312 88.695312 50.019531 C 89.800781 49.839844 90.914062 49.714844 92.03125 49.644531 C 94.265625 49.511719 96.515625 49.5625 98.722656 49.925781 C 100.929688 50.257812 103.097656 50.882812 105.125 51.8125 C 105.640625 52.027344 106.128906 52.304688 106.625 52.554688 C 107.105469 52.84375 107.601562 53.101562 108.058594 53.421875 C 109.011719 54.011719 109.878906 54.71875 110.734375 55.445312 C 110.773438 55.476562 110.824219 55.472656 110.855469 55.4375 C 110.890625 55.402344 110.886719 55.347656 110.851562 55.316406 C 109.617188 54.160156 108.253906 53.128906 106.78125 52.28125 C 107 50.433594 107.210938 48.582031 107.40625 46.730469 L 107.988281 41.035156 L 108.519531 35.335938 C 108.691406 33.4375 108.847656 31.535156 108.988281 29.632812 C 108.996094 29.585938 108.960938 29.542969 108.914062 29.539062 C 108.867188 29.53125 108.820312 29.566406 108.816406 29.613281 C 108.589844 31.507812 108.378906 33.40625 108.179688 35.304688 L 107.605469 40.996094 L 107.082031 46.695312 C 106.917969 48.53125 106.773438 50.363281 106.632812 52.203125 C 106.1875 51.949219 105.734375 51.714844 105.269531 51.5 C 103.222656 50.53125 101.019531 49.894531 98.78125 49.542969 C 97.242188 49.304688 95.6875 49.207031 94.132812 49.226562 C 94.171875 48.648438 94.191406 48.066406 94.207031 47.488281 C 94.222656 46.847656 94.222656 46.214844 94.230469 45.578125 C 94.21875 44.941406 94.21875 44.304688 94.199219 43.667969 C 94.179688 43.03125 94.15625 42.394531 94.109375 41.757812 C 94.109375 41.722656 94.078125 41.691406 94.042969 41.6875 C 94 41.6875 93.964844 41.714844 93.960938 41.757812 C 93.914062 42.394531 93.890625 43.03125 93.875 43.667969 C 93.851562 44.304688 93.851562 44.941406 93.84375 45.578125 C 93.851562 46.214844 93.847656 46.847656 93.867188 47.488281 C 93.878906 48.066406 93.898438 48.648438 93.941406 49.230469 C 93.296875 49.238281 92.652344 49.269531 92.007812 49.320312 C 91.042969 49.398438 90.078125 49.519531 89.125 49.683594 C 89.207031 48.050781 89.277344 46.417969 89.335938 44.785156 L 89.492188 39.730469 L 89.601562 34.679688 C 89.628906 32.996094 89.640625 31.308594 89.644531 29.625 C 89.644531 29.585938 89.613281 29.554688 89.574219 29.550781 C 89.535156 29.550781 89.5 29.582031 89.496094 29.621094 C 89.410156 31.304688 89.332031 32.988281 89.273438 34.671875 L 89.105469 39.722656 L 88.992188 44.773438 C 88.960938 46.421875 88.945312 48.066406 88.941406 49.714844 C 87.734375 49.929688 86.535156 50.214844 85.367188 50.59375 C 85.328125 50.605469 85.304688 50.644531 85.316406 50.683594 C 85.328125 50.722656 85.371094 50.746094 85.410156 50.734375 Z M 118.734375 168.152344 L 118.726562 168.152344 L 117.886719 168.011719 L 117.46875 167.9375 L 117.0625 167.816406 C 116.789062 167.734375 116.515625 167.664062 116.25 167.574219 L 115.472656 167.246094 C 114.460938 166.761719 113.488281 166.167969 112.652344 165.40625 C 111.800781 164.667969 111.042969 163.820312 110.363281 162.914062 C 110.019531 162.460938 109.703125 161.988281 109.410156 161.503906 C 109.132812 161.066406 108.882812 160.613281 108.65625 160.152344 C 109.015625 159.980469 109.371094 159.808594 109.726562 159.636719 C 112.824219 158.113281 115.839844 156.433594 118.765625 154.601562 C 118.804688 154.578125 118.816406 154.523438 118.792969 154.480469 C 118.769531 154.441406 118.714844 154.429688 118.671875 154.457031 C 117.195312 155.335938 115.691406 156.179688 114.175781 156.988281 C 112.660156 157.808594 111.132812 158.601562 109.585938 159.351562 C 106.484375 160.839844 103.316406 162.210938 100.019531 163.164062 C 98.378906 163.648438 96.691406 164.019531 94.992188 164.0625 C 94.148438 164.0625 93.289062 164.015625 92.503906 163.726562 C 92.304688 163.664062 92.125 163.558594 91.933594 163.476562 C 91.890625 163.453125 91.839844 163.429688 91.796875 163.410156 L 91.699219 163.332031 C 91.640625 163.261719 91.570312 163.195312 91.523438 163.105469 C 91.308594 162.765625 91.164062 162.363281 91.039062 161.960938 C 90.558594 160.328125 90.324219 158.613281 90.101562 156.914062 C 89.882812 155.210938 89.710938 153.5 89.585938 151.785156 C 89.582031 151.746094 89.546875 151.714844 89.507812 151.714844 C 89.464844 151.71875 89.4375 151.753906 89.4375 151.792969 C 89.527344 153.515625 89.660156 155.230469 89.84375 156.945312 C 89.953125 157.84375 90.066406 158.746094 90.21875 159.640625 C 89.957031 160.121094 89.675781 160.589844 89.378906 161.046875 C 89.042969 161.566406 88.6875 162.074219 88.285156 162.53125 C 88.082031 162.753906 87.871094 162.976562 87.636719 163.152344 C 87.40625 163.339844 87.15625 163.460938 86.898438 163.457031 L 86.695312 163.445312 L 86.480469 163.394531 C 86.335938 163.367188 86.191406 163.324219 86.042969 163.277344 C 85.753906 163.191406 85.46875 163.074219 85.179688 162.964844 C 84.027344 162.519531 82.90625 161.984375 81.78125 161.453125 C 80.660156 160.914062 79.542969 160.367188 78.429688 159.8125 C 78.390625 159.792969 78.335938 159.808594 78.316406 159.847656 C 78.289062 159.890625 78.304688 159.941406 78.34375 159.96875 C 79.421875 160.59375 80.515625 161.195312 81.628906 161.757812 C 82.742188 162.320312 83.871094 162.859375 85.039062 163.324219 C 85.335938 163.429688 85.628906 163.546875 85.9375 163.632812 C 86.085938 163.683594 86.238281 163.726562 86.402344 163.757812 L 86.640625 163.804688 C 86.726562 163.816406 86.816406 163.816406 86.90625 163.820312 C 87.269531 163.816406 87.609375 163.632812 87.851562 163.429688 C 88.117188 163.226562 88.328125 162.984375 88.535156 162.742188 C 89.242188 161.871094 89.78125 160.90625 90.265625 159.910156 C 90.390625 160.628906 90.546875 161.339844 90.746094 162.046875 C 90.875 162.464844 91.015625 162.882812 91.257812 163.277344 C 91.3125 163.378906 91.398438 163.46875 91.480469 163.558594 L 91.632812 163.679688 C 91.683594 163.710938 91.734375 163.730469 91.785156 163.757812 C 91.988281 163.847656 92.183594 163.960938 92.394531 164.03125 C 93.234375 164.347656 94.128906 164.402344 95 164.40625 C 96.75 164.375 98.464844 164.011719 100.128906 163.535156 C 103.023438 162.679688 105.800781 161.507812 108.515625 160.21875 C 108.929688 161.238281 109.46875 162.199219 110.09375 163.105469 C 110.757812 164.050781 111.535156 164.921875 112.398438 165.695312 C 113.265625 166.472656 114.273438 167.085938 115.335938 167.558594 C 116.394531 168.050781 117.566406 168.230469 118.710938 168.328125 C 118.757812 168.332031 118.796875 168.300781 118.804688 168.253906 C 118.8125 168.207031 118.78125 168.164062 118.734375 168.152344 Z M 112.109375 137.457031 C 111.765625 137.554688 111.558594 137.917969 111.53125 138.222656 C 111.492188 138.539062 111.53125 138.84375 111.613281 139.140625 C 111.621094 139.179688 111.660156 139.203125 111.699219 139.195312 C 111.738281 139.1875 111.765625 139.148438 111.753906 139.105469 L 111.753906 139.101562 C 111.695312 138.824219 111.679688 138.527344 111.730469 138.257812 C 111.78125 137.988281 111.941406 137.757812 112.1875 137.707031 C 112.742188 137.585938 113.347656 137.476562 113.921875 137.359375 L 117.414062 136.636719 L 120.890625 135.867188 C 122 135.613281 123.101562 135.347656 124.207031 135.074219 C 124.25 135.117188 124.3125 135.144531 124.378906 135.128906 C 125.253906 134.953125 126.164062 134.910156 127.054688 135.015625 C 127.5 135.074219 127.945312 135.144531 128.378906 135.269531 C 128.8125 135.390625 129.242188 135.542969 129.660156 135.726562 C 129.691406 135.738281 129.734375 135.726562 129.753906 135.695312 C 129.773438 135.660156 129.761719 135.617188 129.726562 135.59375 C 129.328125 135.355469 128.90625 135.15625 128.464844 135.003906 C 128.019531 134.851562 127.566406 134.730469 127.101562 134.667969 C 126.328125 134.554688 125.535156 134.558594 124.761719 134.6875 C 124.816406 134.652344 124.875 134.621094 124.933594 134.585938 C 125.148438 134.460938 125.371094 134.347656 125.601562 134.253906 C 126.0625 134.058594 126.542969 133.910156 127.039062 133.816406 C 127.082031 133.808594 127.113281 133.769531 127.109375 133.726562 C 127.109375 133.675781 127.066406 133.640625 127.015625 133.644531 C 126.5 133.679688 125.980469 133.785156 125.488281 133.964844 C 125.242188 134.054688 125 134.160156 124.765625 134.277344 C 124.652344 134.335938 124.539062 134.390625 124.410156 134.484375 C 124.289062 134.570312 124.183594 134.734375 124.164062 134.894531 C 123.042969 135.097656 121.929688 135.308594 120.820312 135.53125 L 117.332031 136.261719 L 113.855469 137.039062 C 113.273438 137.179688 112.710938 137.300781 112.109375 137.457031 Z M 137.191406 148.847656 L 123.585938 150.792969 C 121.320312 151.121094 119.050781 151.429688 116.78125 151.6875 C 116.210938 151.753906 115.644531 151.800781 115.078125 151.84375 C 114.9375 151.855469 114.796875 151.851562 114.65625 151.859375 L 114.449219 151.863281 L 114.34375 151.863281 L 114.257812 151.851562 C 114.035156 151.796875 113.828125 151.605469 113.65625 151.398438 C 113.3125 150.96875 113.0625 150.453125 112.839844 149.933594 C 112.726562 149.675781 112.625 149.410156 112.53125 149.140625 L 112.394531 148.734375 C 112.355469 148.609375 112.308594 148.441406 112.285156 148.351562 L 112.277344 148.308594 C 112.269531 148.277344 112.234375 148.253906 112.199219 148.257812 C 112.160156 148.261719 112.132812 148.296875 112.140625 148.335938 C 112.164062 148.527344 112.203125 148.632812 112.242188 148.78125 L 112.363281 149.195312 C 112.449219 149.46875 112.542969 149.742188 112.648438 150.011719 C 112.859375 150.546875 113.09375 151.078125 113.453125 151.558594 C 113.636719 151.789062 113.859375 152.027344 114.195312 152.121094 L 114.324219 152.144531 L 114.652344 152.144531 C 114.800781 152.140625 114.949219 152.148438 115.09375 152.140625 C 115.667969 152.105469 116.242188 152.070312 116.8125 152.011719 C 119.097656 151.792969 121.367188 151.480469 123.640625 151.175781 C 125.910156 150.851562 128.175781 150.519531 130.4375 150.160156 C 132.703125 149.800781 134.960938 149.421875 137.21875 149.023438 C 137.265625 149.011719 137.296875 148.96875 137.289062 148.921875 C 137.28125 148.875 137.238281 148.84375 137.191406 148.847656 Z M 114.691406 150.867188 C 114.660156 150.894531 114.65625 150.941406 114.683594 150.96875 C 114.710938 151 114.753906 151.007812 114.785156 150.980469 C 115.8125 150.140625 116.449219 148.964844 116.929688 147.769531 C 117.402344 146.5625 117.683594 145.289062 117.847656 144.011719 C 118.015625 142.710938 117.777344 141.328125 117.039062 140.214844 C 116.667969 139.664062 116.15625 139.195312 115.550781 138.914062 C 114.9375 138.640625 114.261719 138.566406 113.613281 138.617188 C 113.566406 138.621094 113.53125 138.660156 113.53125 138.707031 C 113.53125 138.753906 113.574219 138.792969 113.621094 138.792969 L 113.625 138.792969 C 114.253906 138.777344 114.882812 138.886719 115.425781 139.171875 C 115.972656 139.445312 116.429688 139.882812 116.753906 140.402344 C 117.40625 141.445312 117.636719 142.742188 117.464844 143.964844 C 117.320312 145.222656 117.046875 146.464844 116.625 147.65625 C 116.410156 148.25 116.15625 148.828125 115.839844 149.375 C 115.734375 149.554688 115.621094 149.734375 115.503906 149.90625 C 115.363281 149.910156 115.21875 149.898438 115.109375 149.847656 C 114.980469 149.789062 114.871094 149.699219 114.785156 149.578125 C 114.691406 149.460938 114.625 149.308594 114.554688 149.15625 C 114.488281 149.003906 114.4375 148.835938 114.363281 148.667969 L 114.363281 148.664062 C 114.351562 148.632812 114.324219 148.613281 114.289062 148.609375 C 114.242188 148.605469 114.195312 148.640625 114.191406 148.691406 C 114.179688 148.785156 114.1875 148.878906 114.1875 148.976562 C 114.195312 149.070312 114.214844 149.164062 114.226562 149.261719 C 114.269531 149.449219 114.347656 149.640625 114.476562 149.8125 C 114.601562 149.980469 114.796875 150.125 115.019531 150.160156 C 115.125 150.179688 115.230469 150.179688 115.328125 150.164062 C 115.140625 150.417969 114.933594 150.65625 114.699219 150.859375 Z M 79.851562 132.097656 C 79.808594 131.464844 79.757812 130.828125 79.683594 130.195312 C 79.679688 130.160156 79.652344 130.132812 79.613281 130.128906 C 79.570312 130.128906 79.535156 130.160156 79.535156 130.199219 C 79.515625 130.839844 79.519531 131.476562 79.527344 132.109375 C 79.535156 132.75 79.5625 133.382812 79.578125 134.019531 C 79.609375 134.65625 79.636719 135.292969 79.679688 135.925781 C 79.722656 136.5625 79.769531 137.195312 79.84375 137.828125 C 79.847656 137.871094 79.882812 137.90625 79.925781 137.90625 C 79.976562 137.910156 80.015625 137.871094 80.019531 137.824219 C 80.039062 137.183594 80.03125 136.546875 80.019531 135.910156 C 80.011719 135.273438 79.984375 134.640625 79.964844 134.003906 C 79.925781 133.367188 79.898438 132.734375 79.851562 132.097656 Z M 78.640625 124.632812 C 78.648438 124.679688 78.691406 124.714844 78.738281 124.710938 C 78.785156 124.707031 78.820312 124.664062 78.816406 124.613281 C 78.703125 123.457031 78.566406 122.300781 78.386719 121.152344 C 78.199219 120 77.96875 118.859375 77.753906 117.722656 C 77.542969 116.585938 77.335938 115.445312 77.351562 114.304688 C 77.355469 113.738281 77.425781 113.171875 77.59375 112.644531 C 77.777344 112.101562 77.992188 111.570312 78.242188 111.054688 C 79.222656 108.972656 80.71875 107.179688 82.261719 105.453125 C 83.796875 103.726562 85.453125 102.046875 86.652344 100.03125 C 86.671875 99.996094 86.660156 99.953125 86.628906 99.929688 C 86.59375 99.910156 86.546875 99.917969 86.527344 99.953125 C 85.90625 100.929688 85.160156 101.820312 84.386719 102.679688 C 83.613281 103.546875 82.808594 104.382812 82.019531 105.234375 C 80.441406 106.941406 78.917969 108.757812 77.894531 110.890625 C 77.636719 111.417969 77.417969 111.96875 77.234375 112.527344 C 77.050781 113.105469 76.980469 113.707031 76.980469 114.300781 C 76.972656 115.488281 77.179688 116.648438 77.414062 117.789062 C 77.902344 120.0625 78.359375 122.328125 78.640625 124.632812 Z M 88.144531 139.207031 C 88.101562 139.207031 88.070312 139.242188 88.070312 139.28125 C 88.074219 139.699219 88.105469 140.113281 88.136719 140.53125 C 88.164062 140.945312 88.210938 141.359375 88.261719 141.769531 C 88.3125 142.183594 88.367188 142.59375 88.4375 143.003906 C 88.507812 143.417969 88.578125 143.824219 88.675781 144.230469 C 88.683594 144.269531 88.722656 144.300781 88.761719 144.300781 C 88.8125 144.296875 88.851562 144.257812 88.847656 144.210938 C 88.84375 143.792969 88.8125 143.375 88.777344 142.964844 C 88.746094 142.546875 88.695312 142.136719 88.644531 141.722656 C 88.589844 141.3125 88.535156 140.898438 88.460938 140.488281 C 88.390625 140.078125 88.316406 139.667969 88.21875 139.261719 C 88.207031 139.230469 88.179688 139.207031 88.144531 139.207031 Z M 98.964844 94.722656 C 98.9375 94.691406 98.890625 94.6875 98.859375 94.710938 L 94.050781 98.476562 C 92.449219 99.726562 90.847656 100.988281 89.140625 102.078125 C 88.257812 102.601562 87.453125 103.292969 86.808594 104.109375 C 86.175781 104.929688 85.683594 105.859375 85.386719 106.855469 C 85.234375 107.351562 85.125 107.863281 85.070312 108.378906 C 85.019531 108.890625 84.988281 109.398438 84.945312 109.90625 C 84.898438 110.414062 84.878906 110.921875 84.859375 111.433594 C 84.835938 111.941406 84.808594 112.453125 84.808594 112.960938 C 84.734375 117.046875 85.207031 121.117188 85.875 125.132812 C 86.539062 129.148438 87.367188 133.128906 88.035156 137.140625 C 88.042969 137.1875 88.089844 137.21875 88.136719 137.210938 C 88.183594 137.207031 88.21875 137.160156 88.210938 137.113281 C 87.910156 135.101562 87.574219 133.09375 87.230469 131.089844 C 86.875 129.085938 86.507812 127.085938 86.1875 125.078125 C 85.546875 121.070312 85.101562 117.023438 85.195312 112.96875 C 85.191406 112.460938 85.214844 111.957031 85.234375 111.449219 C 85.253906 110.941406 85.265625 110.4375 85.3125 109.929688 C 85.351562 109.425781 85.378906 108.917969 85.425781 108.417969 C 85.472656 107.921875 85.574219 107.433594 85.714844 106.953125 C 85.992188 105.996094 86.460938 105.097656 87.066406 104.308594 C 87.679688 103.519531 88.4375 102.855469 89.300781 102.332031 C 92.71875 100.070312 95.765625 97.359375 98.953125 94.828125 C 98.984375 94.804688 98.988281 94.757812 98.964844 94.722656 Z M 120.589844 124.644531 C 120.511719 124.363281 120.433594 124.082031 120.34375 123.796875 C 120.335938 123.765625 120.304688 123.742188 120.273438 123.742188 C 120.230469 123.742188 120.199219 123.777344 120.199219 123.816406 C 120.195312 124.121094 120.226562 124.417969 120.273438 124.714844 C 120.3125 125.011719 120.382812 125.304688 120.460938 125.59375 C 120.546875 125.882812 120.640625 126.167969 120.757812 126.445312 C 120.875 126.71875 121.003906 126.988281 121.164062 127.246094 C 121.183594 127.277344 121.226562 127.292969 121.261719 127.285156 C 121.308594 127.269531 121.339844 127.222656 121.324219 127.175781 C 121.25 126.890625 121.164062 126.609375 121.082031 126.328125 L 120.835938 125.488281 Z M 118.761719 119.351562 C 118.773438 119.398438 118.820312 119.425781 118.867188 119.417969 C 118.914062 119.40625 118.945312 119.359375 118.933594 119.3125 C 118.488281 117.261719 118.238281 115.167969 118.179688 113.074219 C 118.125 110.984375 118.253906 108.882812 118.609375 106.820312 C 118.949219 104.757812 119.46875 102.707031 120.414062 100.847656 C 120.882812 99.917969 121.464844 99.046875 122.171875 98.28125 C 122.867188 97.511719 123.691406 96.84375 124.617188 96.359375 C 124.652344 96.339844 124.667969 96.296875 124.648438 96.261719 C 124.632812 96.226562 124.585938 96.207031 124.550781 96.226562 C 123.589844 96.6875 122.722656 97.339844 121.980469 98.105469 C 121.238281 98.871094 120.621094 99.757812 120.125 100.699219 C 119.121094 102.585938 118.59375 104.675781 118.230469 106.757812 C 117.882812 108.847656 117.75 110.972656 117.835938 113.085938 C 117.925781 115.203125 118.234375 117.308594 118.761719 119.351562 Z M 96.894531 91.972656 L 96.890625 91.972656 C 96.878906 91.960938 96.859375 91.953125 96.839844 91.953125 C 96.792969 91.953125 96.757812 91.988281 96.757812 92.03125 C 96.757812 92.152344 96.792969 92.261719 96.835938 92.371094 C 96.878906 92.476562 96.945312 92.574219 97.019531 92.660156 C 97.097656 92.746094 97.183594 92.824219 97.285156 92.882812 C 97.382812 92.941406 97.488281 92.992188 97.609375 93.007812 C 97.628906 93.011719 97.65625 93.003906 97.675781 92.992188 C 97.71875 92.960938 97.726562 92.898438 97.699219 92.859375 L 97.695312 92.855469 C 97.632812 92.765625 97.5625 92.691406 97.5 92.621094 L 97.308594 92.40625 L 97.113281 92.191406 C 97.042969 92.121094 96.976562 92.046875 96.894531 91.972656 Z M 113.644531 83.289062 C 113.667969 83.371094 113.695312 83.441406 113.714844 83.515625 C 113.742188 83.59375 113.757812 83.667969 113.78125 83.746094 C 113.800781 83.824219 113.816406 83.902344 113.84375 83.996094 L 113.84375 84.003906 C 113.851562 84.023438 113.863281 84.042969 113.882812 84.054688 C 113.925781 84.085938 113.984375 84.078125 114.015625 84.035156 C 114.082031 83.945312 114.113281 83.835938 114.121094 83.726562 C 114.136719 83.617188 114.117188 83.503906 114.085938 83.402344 C 114.046875 83.296875 113.996094 83.199219 113.917969 83.117188 C 113.847656 83.035156 113.757812 82.96875 113.652344 82.933594 C 113.632812 82.929688 113.617188 82.929688 113.597656 82.9375 C 113.558594 82.953125 113.535156 82.996094 113.550781 83.039062 L 113.550781 83.042969 Z M 106.484375 91.003906 C 105.460938 91.433594 104.414062 91.820312 103.359375 92.183594 C 103.324219 92.195312 103.300781 92.234375 103.3125 92.273438 C 103.320312 92.3125 103.359375 92.335938 103.402344 92.324219 C 104.488281 92.050781 105.558594 91.707031 106.609375 91.304688 C 107.660156 90.90625 108.683594 90.4375 109.6875 89.9375 C 110.675781 89.40625 111.675781 88.882812 112.578125 88.179688 C 113.019531 87.820312 113.441406 87.425781 113.773438 86.949219 C 114.105469 86.480469 114.335938 85.933594 114.410156 85.363281 C 114.414062 85.316406 114.386719 85.273438 114.339844 85.265625 C 114.292969 85.253906 114.246094 85.285156 114.234375 85.335938 C 114.015625 86.414062 113.238281 87.261719 112.367188 87.910156 C 111.488281 88.558594 110.496094 89.082031 109.511719 89.589844 C 108.523438 90.109375 107.511719 90.570312 106.484375 91.003906 Z M 97.132812 86.414062 C 96.761719 86.628906 96.445312 86.933594 96.191406 87.285156 C 95.933594 87.636719 95.75 88.042969 95.648438 88.46875 C 95.550781 88.894531 95.53125 89.339844 95.601562 89.769531 C 95.671875 90.195312 95.820312 90.613281 96.054688 90.972656 C 96.074219 91.007812 96.121094 91.019531 96.160156 91.007812 C 96.203125 90.988281 96.226562 90.9375 96.210938 90.894531 C 96.066406 90.511719 95.972656 90.121094 95.941406 89.726562 C 95.914062 89.332031 95.933594 88.9375 96.023438 88.554688 C 96.109375 88.171875 96.265625 87.808594 96.464844 87.464844 C 96.664062 87.125 96.921875 86.8125 97.222656 86.53125 C 97.246094 86.507812 97.253906 86.472656 97.234375 86.441406 C 97.214844 86.40625 97.167969 86.394531 97.132812 86.414062 Z M 100.347656 92.402344 C 100.398438 92.40625 100.441406 92.375 100.449219 92.328125 C 100.621094 91.132812 101.046875 89.988281 101.660156 88.964844 C 102.25 87.929688 103.226562 87.191406 104.246094 86.554688 C 105.265625 85.90625 106.359375 85.367188 107.410156 84.734375 C 108.460938 84.109375 109.503906 83.398438 110.289062 82.441406 C 110.3125 82.410156 110.3125 82.367188 110.28125 82.339844 C 110.253906 82.3125 110.207031 82.3125 110.175781 82.34375 C 109.765625 82.785156 109.296875 83.167969 108.796875 83.507812 C 108.304688 83.851562 107.78125 84.160156 107.25 84.457031 C 106.1875 85.042969 105.09375 85.589844 104.042969 86.230469 C 103.003906 86.875 101.972656 87.671875 101.355469 88.785156 C 100.746094 89.867188 100.359375 91.078125 100.273438 92.308594 C 100.273438 92.351562 100.304688 92.394531 100.347656 92.402344 Z M 101.382812 76.753906 C 102.042969 75.925781 102.640625 75.042969 103.085938 74.074219 C 103.523438 73.109375 103.828125 72.042969 103.714844 70.972656 C 103.707031 70.933594 103.675781 70.90625 103.636719 70.90625 C 103.597656 70.90625 103.566406 70.941406 103.566406 70.980469 L 103.566406 70.984375 C 103.582031 72.015625 103.246094 73.015625 102.789062 73.933594 C 102.328125 74.851562 101.742188 75.714844 101.085938 76.511719 C 100.4375 77.320312 99.707031 78.0625 98.929688 78.75 C 98.152344 79.4375 97.324219 80.070312 96.421875 80.585938 C 96.382812 80.609375 96.363281 80.65625 96.382812 80.699219 C 96.402344 80.742188 96.457031 80.761719 96.5 80.742188 C 97.464844 80.296875 98.339844 79.683594 99.152344 79.007812 C 99.964844 78.332031 100.710938 77.574219 101.382812 76.753906 Z M 104.308594 65.941406 C 104.109375 66.164062 103.871094 66.351562 103.601562 66.5 C 103.5625 66.519531 103.546875 66.566406 103.558594 66.605469 C 103.574219 66.652344 103.625 66.675781 103.671875 66.660156 C 103.984375 66.550781 104.269531 66.371094 104.515625 66.144531 C 104.753906 65.910156 104.96875 65.65625 105.09375 65.308594 C 105.15625 65.132812 105.164062 64.917969 105.089844 64.726562 C 105.023438 64.535156 104.839844 64.347656 104.613281 64.308594 C 104.433594 64.273438 104.261719 64.3125 104.113281 64.382812 C 104.21875 64.089844 104.347656 63.820312 104.554688 63.609375 C 104.71875 63.4375 104.929688 63.320312 105.15625 63.296875 C 105.386719 63.269531 105.632812 63.335938 105.796875 63.507812 C 105.820312 63.535156 105.863281 63.539062 105.894531 63.519531 C 105.925781 63.496094 105.9375 63.449219 105.914062 63.417969 C 105.746094 63.167969 105.4375 63.046875 105.144531 63.042969 C 104.839844 63.042969 104.554688 63.1875 104.339844 63.378906 C 104.117188 63.570312 103.953125 63.820312 103.84375 64.074219 C 103.730469 64.332031 103.65625 64.59375 103.582031 64.847656 C 103.566406 64.914062 103.582031 64.988281 103.632812 65.035156 C 103.707031 65.105469 103.828125 65.105469 103.898438 65.03125 C 104.117188 64.808594 104.335938 64.636719 104.542969 64.675781 C 104.722656 64.699219 104.835938 64.960938 104.757812 65.207031 C 104.6875 65.460938 104.507812 65.726562 104.308594 65.941406 Z M 109.53125 70.894531 C 109.460938 70.816406 109.398438 70.730469 109.332031 70.644531 C 109.308594 67.769531 112.003906 64.738281 110.246094 60.191406 C 110.246094 60.191406 105.445312 54.511719 95.832031 54.351562 C 95.824219 54.335938 95.808594 54.328125 95.792969 54.320312 C 95.753906 54.308594 95.710938 54.328125 95.699219 54.363281 C 95.570312 54.714844 95.503906 55.085938 95.480469 55.460938 C 95.457031 55.835938 95.492188 56.214844 95.566406 56.585938 C 95.644531 56.953125 95.765625 57.316406 95.9375 57.648438 C 96.105469 57.984375 96.316406 58.300781 96.574219 58.570312 C 96.601562 58.597656 96.644531 58.605469 96.683594 58.585938 C 96.726562 58.5625 96.738281 58.507812 96.714844 58.464844 C 96.535156 58.152344 96.375 57.835938 96.25 57.507812 C 96.121094 57.183594 96.015625 56.847656 95.945312 56.503906 C 95.867188 56.164062 95.828125 55.8125 95.808594 55.464844 C 95.796875 55.203125 95.804688 54.941406 95.824219 54.675781 C 96.335938 56.4375 97.859375 60.390625 101.320312 60.90625 L 102.46875 65.082031 C 102.46875 65.082031 103.320312 60.238281 105.601562 61 C 107.886719 61.757812 108.929688 67.359375 102.941406 69.070312 L 105.183594 69.070312 L 105.3125 69.285156 C 105.285156 69.433594 105.269531 69.582031 105.257812 69.730469 C 105.242188 70.035156 105.269531 70.339844 105.324219 70.636719 C 105.382812 70.933594 105.472656 71.226562 105.605469 71.5 C 105.734375 71.773438 105.890625 72.035156 106.09375 72.257812 C 106.117188 72.289062 106.160156 72.296875 106.195312 72.28125 C 106.242188 72.261719 106.261719 72.210938 106.242188 72.164062 C 106.125 71.898438 106.011719 71.640625 105.921875 71.371094 C 105.835938 71.105469 105.757812 70.835938 105.703125 70.5625 C 105.648438 70.300781 105.613281 70.035156 105.589844 69.769531 L 107.238281 72.605469 C 108.09375 74.085938 109.878906 74.753906 111.496094 74.203125 C 111.496094 74.203125 109.726562 72.746094 109.394531 71.238281 C 109.578125 71.46875 109.792969 71.675781 110.035156 71.847656 C 110.332031 72.050781 110.65625 72.210938 111.003906 72.300781 C 111.347656 72.394531 111.707031 72.433594 112.058594 72.382812 C 112.097656 72.378906 112.128906 72.347656 112.132812 72.308594 C 112.140625 72.257812 112.105469 72.214844 112.058594 72.210938 C 111.726562 72.164062 111.410156 72.089844 111.109375 71.976562 C 110.808594 71.859375 110.519531 71.710938 110.257812 71.53125 C 109.988281 71.351562 109.75 71.132812 109.53125 70.894531 Z M 82.714844 64.84375 C 82.746094 64.875 82.796875 64.878906 82.832031 64.855469 C 82.871094 64.824219 82.878906 64.765625 82.847656 64.730469 C 82.351562 64.082031 82.011719 63.332031 81.851562 62.542969 C 81.691406 61.761719 81.695312 60.9375 81.910156 60.171875 C 82.246094 58.898438 83.121094 57.792969 84.261719 57.09375 C 83.410156 58.167969 82.503906 59.667969 82.40625 61.285156 C 82.28125 63.328125 84.015625 64.84375 85.238281 65.652344 C 85.179688 64.394531 85.011719 62.152344 84.898438 61.390625 C 84.628906 59.558594 84.746094 57.816406 85.191406 56.230469 C 85.164062 56.242188 85.132812 56.25 85.101562 56.261719 L 85.105469 56.132812 C 84.953125 56.292969 84.78125 56.476562 84.605469 56.683594 C 83.933594 56.9375 83.320312 57.351562 82.816406 57.867188 C 82.214844 58.476562 81.773438 59.242188 81.539062 60.070312 C 81.316406 60.90625 81.3125 61.789062 81.515625 62.621094 C 81.722656 63.449219 82.125 64.234375 82.714844 64.84375 Z M 96.085938 72.613281 C 95.949219 72.695312 95.824219 72.785156 95.695312 72.867188 C 95.5625 72.945312 95.4375 73.027344 95.304688 73.101562 C 95.175781 73.179688 95.042969 73.25 94.90625 73.324219 L 94.488281 73.539062 C 94.464844 73.550781 94.449219 73.574219 94.449219 73.601562 C 94.445312 73.644531 94.476562 73.683594 94.519531 73.683594 C 94.691406 73.695312 94.859375 73.667969 95.023438 73.628906 C 95.191406 73.585938 95.347656 73.515625 95.496094 73.4375 C 95.644531 73.351562 95.785156 73.253906 95.90625 73.132812 C 96.027344 73.015625 96.140625 72.882812 96.21875 72.730469 C 96.230469 72.703125 96.230469 72.667969 96.214844 72.640625 C 96.1875 72.597656 96.128906 72.585938 96.085938 72.613281 Z M 92.769531 72.410156 C 92.628906 72.410156 92.492188 72.386719 92.382812 72.316406 C 92.269531 72.246094 92.183594 72.132812 92.171875 72.003906 L 92.171875 72 C 92.167969 71.964844 92.140625 71.9375 92.101562 71.933594 C 92.0625 71.933594 92.027344 71.964844 92.023438 72.003906 C 92.003906 72.40625 92.425781 72.652344 92.757812 72.667969 C 92.929688 72.683594 93.09375 72.671875 93.25 72.652344 C 93.410156 72.636719 93.570312 72.621094 93.726562 72.589844 C 94.363281 72.488281 94.980469 72.28125 95.5625 72.007812 C 96.132812 71.71875 96.683594 71.367188 97.15625 70.933594 C 97.632812 70.503906 98.050781 70.007812 98.371094 69.460938 C 98.394531 69.421875 98.386719 69.375 98.351562 69.34375 C 98.3125 69.316406 98.257812 69.320312 98.226562 69.359375 C 97.839844 69.84375 97.410156 70.289062 96.933594 70.675781 C 96.460938 71.0625 95.941406 71.398438 95.390625 71.660156 C 94.847656 71.941406 94.261719 72.136719 93.664062 72.269531 C 93.371094 72.335938 93.054688 72.402344 92.769531 72.410156 Z M 90.960938 67.144531 C 91.113281 66.742188 91.3125 66.359375 91.539062 65.980469 C 91.554688 65.953125 91.550781 65.914062 91.523438 65.890625 C 91.492188 65.859375 91.445312 65.863281 91.417969 65.890625 C 91.109375 66.21875 90.859375 66.605469 90.660156 67.015625 C 90.460938 67.425781 90.328125 67.863281 90.25 68.316406 C 90.210938 68.539062 90.183594 68.78125 90.222656 69.035156 C 90.257812 69.285156 90.402344 69.558594 90.632812 69.703125 C 90.855469 69.847656 91.109375 69.902344 91.347656 69.902344 C 91.589844 69.898438 91.8125 69.851562 92.027344 69.796875 L 92.03125 69.796875 C 92.070312 69.785156 92.101562 69.746094 92.097656 69.707031 C 92.09375 69.65625 92.050781 69.621094 92.003906 69.625 C 91.566406 69.648438 91.121094 69.660156 90.832031 69.425781 C 90.550781 69.210938 90.550781 68.796875 90.628906 68.378906 C 90.695312 67.957031 90.8125 67.546875 90.960938 67.144531 Z M 94.8125 63.605469 C 94.777344 63.652344 94.765625 63.714844 94.789062 63.773438 C 94.824219 63.867188 94.925781 63.914062 95.019531 63.882812 L 95.046875 63.871094 C 95.179688 63.820312 95.328125 63.769531 95.476562 63.730469 C 95.625 63.6875 95.773438 63.65625 95.917969 63.632812 C 96.070312 63.613281 96.21875 63.59375 96.367188 63.597656 C 96.515625 63.605469 96.664062 63.625 96.8125 63.667969 L 96.820312 63.667969 C 96.847656 63.675781 96.878906 63.664062 96.898438 63.640625 C 96.921875 63.609375 96.917969 63.5625 96.882812 63.535156 C 96.601562 63.320312 96.226562 63.257812 95.882812 63.277344 C 95.859375 63.277344 95.835938 63.28125 95.8125 63.285156 C 96.054688 63.167969 96.320312 63.085938 96.59375 63.054688 C 96.878906 63.027344 97.171875 63.042969 97.449219 63.125 C 97.730469 63.207031 97.992188 63.351562 98.222656 63.539062 C 98.257812 63.566406 98.308594 63.5625 98.339844 63.53125 C 98.375 63.496094 98.375 63.441406 98.339844 63.40625 C 98.113281 63.183594 97.839844 63.003906 97.53125 62.890625 C 97.226562 62.769531 96.890625 62.730469 96.566406 62.753906 C 96.238281 62.777344 95.917969 62.859375 95.617188 62.992188 C 95.320312 63.132812 95.035156 63.292969 94.8125 63.605469 Z M 96.054688 59.832031 C 96.367188 59.957031 96.667969 60.105469 96.953125 60.28125 C 97.242188 60.453125 97.515625 60.65625 97.785156 60.867188 C 98.050781 61.082031 98.300781 61.3125 98.558594 61.550781 C 98.589844 61.574219 98.632812 61.578125 98.667969 61.558594 C 98.710938 61.53125 98.722656 61.476562 98.695312 61.4375 C 98.503906 61.136719 98.269531 60.863281 98.011719 60.613281 C 97.753906 60.359375 97.464844 60.140625 97.152344 59.949219 C 96.535156 59.582031 95.792969 59.355469 95.074219 59.429688 C 95.039062 59.433594 95.011719 59.457031 95.007812 59.492188 C 95 59.53125 95.027344 59.570312 95.066406 59.578125 C 95.410156 59.632812 95.738281 59.714844 96.054688 59.832031 Z M 89.886719 60.792969 C 89.925781 60.789062 89.957031 60.757812 89.960938 60.71875 C 89.964844 60.671875 89.929688 60.625 89.882812 60.621094 C 89.535156 60.578125 89.171875 60.578125 88.820312 60.667969 C 88.46875 60.738281 88.128906 60.890625 87.828125 61.089844 C 87.53125 61.285156 87.257812 61.527344 87.039062 61.8125 C 86.820312 62.089844 86.636719 62.394531 86.519531 62.734375 C 86.511719 62.761719 86.523438 62.796875 86.550781 62.816406 C 86.582031 62.84375 86.628906 62.832031 86.652344 62.796875 L 86.65625 62.792969 C 87.035156 62.246094 87.492188 61.757812 88.042969 61.410156 C 88.308594 61.234375 88.605469 61.097656 88.914062 61 C 89.21875 60.886719 89.546875 60.847656 89.878906 60.796875 Z M 45.316406 142.351562 C 45.226562 142.578125 45.347656 142.796875 45.585938 142.839844 C 45.824219 142.878906 46.09375 142.730469 46.183594 142.5 L 48.863281 135.65625 C 48.953125 135.429688 48.832031 135.210938 48.59375 135.167969 C 48.355469 135.128906 48.085938 135.28125 48 135.507812 Z M 43.210938 141.984375 L 45.894531 135.140625 C 45.984375 134.914062 45.863281 134.695312 45.625 134.652344 C 45.382812 134.613281 45.117188 134.761719 45.027344 134.992188 L 42.347656 141.835938 C 42.257812 142.0625 42.378906 142.28125 42.617188 142.324219 C 42.855469 142.363281 43.121094 142.210938 43.210938 141.984375 Z M 40.242188 141.46875 L 42.921875 134.625 C 43.015625 134.398438 42.890625 134.179688 42.652344 134.136719 C 42.414062 134.09375 42.148438 134.246094 42.058594 134.476562 L 39.375 141.320312 C 39.285156 141.546875 39.40625 141.765625 39.648438 141.804688 C 39.886719 141.847656 40.152344 141.699219 40.242188 141.46875 Z M 58.410156 102.027344 C 59.441406 102.207031 59.949219 103.171875 59.523438 104.148438 L 56.976562 110.054688 L 55.027344 113.894531 C 55.027344 113.894531 52.996094 116.207031 52.554688 117.789062 C 52.3125 118.640625 52.425781 119.453125 52.742188 119.855469 L 50.796875 124.359375 C 50.679688 124.628906 50.460938 124.851562 50.199219 125 L 47.566406 131.714844 L 50.941406 132.300781 C 52.132812 132.507812 52.820312 133.507812 52.566406 134.660156 L 50.730469 142.996094 C 50.414062 144.433594 48.785156 145.503906 47.300781 145.246094 L 36.386719 143.351562 C 34.902344 143.09375 34.265625 141.632812 35.042969 140.269531 L 39.558594 132.402344 C 40.183594 131.3125 41.519531 130.664062 42.707031 130.871094 L 46.082031 131.457031 L 48.714844 124.738281 C 48.59375 124.53125 48.566406 124.261719 48.664062 123.988281 L 50.601562 118.492188 C 51.207031 118.0625 52.089844 117.371094 52.191406 116.929688 C 52.347656 116.25 53.617188 114.199219 53.808594 112.796875 C 53.910156 112.050781 53.972656 110.65625 53.78125 109.46875 L 55.878906 103.515625 C 56.230469 102.523438 57.375 101.847656 58.410156 102.027344 Z M 78.972656 154.558594 L 81.722656 148.9375 L 90.402344 148.9375 C 91.132812 148.9375 91.722656 148.347656 91.722656 147.617188 C 91.722656 146.890625 91.132812 146.304688 90.402344 146.304688 L 32.382812 146.304688 C 31.792969 146.304688 31.410156 146.917969 31.667969 147.449219 L 35.148438 154.558594 C 35.585938 155.453125 36.496094 156.019531 37.496094 156.019531 L 76.625 156.019531 C 77.621094 156.019531 78.53125 155.453125 78.972656 154.558594 Z M 90.9375 153.359375 C 90.9375 154.101562 91.453125 154.707031 92.089844 154.707031 C 92.726562 154.707031 93.238281 154.101562 93.238281 153.359375 C 93.238281 152.613281 92.726562 152.011719 92.089844 152.011719 C 91.453125 152.011719 90.9375 152.613281 90.9375 153.359375 Z M 89.996094 136.496094 C 90.632812 136.496094 91.148438 135.890625 91.148438 135.144531 C 91.148438 134.402344 90.632812 133.796875 89.996094 133.796875 C 89.363281 133.796875 88.847656 134.402344 88.847656 135.144531 C 88.847656 135.890625 89.363281 136.496094 89.996094 136.496094 Z M 89.511719 122.15625 C 90.148438 122.15625 90.664062 121.550781 90.664062 120.804688 C 90.664062 120.058594 90.148438 119.457031 89.511719 119.457031 C 88.875 119.457031 88.359375 120.058594 88.359375 120.804688 C 88.359375 121.550781 88.875 122.15625 89.511719 122.15625 Z M 90.175781 105.113281 C 89.539062 105.113281 89.023438 105.71875 89.023438 106.464844 C 89.023438 107.207031 89.539062 107.8125 90.175781 107.8125 C 90.8125 107.8125 91.328125 107.207031 91.328125 106.464844 C 91.328125 105.71875 90.8125 105.113281 90.175781 105.113281 Z M 89.054688 63.324219 C 88.699219 63.324219 88.414062 63.707031 88.375 64.199219 C 88.363281 64.203125 88.355469 64.203125 88.34375 64.203125 C 88.238281 64.21875 88.128906 64.21875 88.011719 64.21875 C 87.894531 64.21875 87.777344 64.207031 87.648438 64.207031 L 87.640625 64.207031 C 87.617188 64.207031 87.589844 64.222656 87.574219 64.242188 C 87.539062 64.28125 87.546875 64.339844 87.585938 64.371094 C 87.695312 64.460938 87.820312 64.519531 87.960938 64.558594 C 88.097656 64.597656 88.246094 64.605469 88.394531 64.585938 C 88.394531 64.585938 88.398438 64.585938 88.398438 64.585938 C 88.484375 64.988281 88.742188 65.285156 89.054688 65.285156 C 89.433594 65.285156 89.738281 64.847656 89.738281 64.304688 C 89.738281 63.761719 89.433594 63.324219 89.054688 63.324219 Z M 85.84375 56.007812 C 85.632812 56.078125 85.421875 56.148438 85.207031 56.222656 C 85.421875 56.148438 85.632812 56.078125 85.84375 56.003906 L 85.84375 56.007812 "
        fill-opacity="1" fill-rule="nonzero" />
</svg>