<svg xmlns="http://www.w3.org/2000/svg" xmlns:xlink="http://www.w3.org/1999/xlink" width="256" zoomAndPan="magnify" viewBox="0 0 192 191.999996" height="256" preserveAspectRatio="xMidYMid meet" version="1.0"><defs><clipPath id="bacd2fe9d7"><path d="M 6.472656 7.035156 L 180 7.035156 L 180 180 L 6.472656 180 Z M 6.472656 7.035156 " clip-rule="nonzero"/></clipPath><clipPath id="22cfc76c8c"><path d="M 6.613281 7.28125 L 179.8125 7.28125 L 179.8125 184.078125 L 6.613281 184.078125 Z M 6.613281 7.28125 " clip-rule="nonzero"/></clipPath></defs><rect x="-19.2" width="230.4" fill="#ffffff" y="-19.2" height="230.399995" fill-opacity="1"/><rect x="-19.2" width="230.4" fill="#ffffff" y="-19.2" height="230.399995" fill-opacity="1"/><g clip-path="url(#bacd2fe9d7)"><path fill="#ffffff" d="M 103.859375 34.269531 C 103.949219 34.269531 104.039062 34.277344 104.125 34.277344 C 106.980469 35.285156 108.535156 33.761719 111.351562 34.6875 C 112.847656 35.179688 114.355469 35.664062 115.785156 36.308594 C 116.710938 36.925781 117.578125 37.621094 118.320312 38.445312 C 120.109375 40.421875 120.835938 38.816406 121.511719 41.394531 C 122.042969 43.417969 122.65625 44.144531 122.53125 46.234375 C 122.40625 48.320312 121.972656 50.8125 121.65625 52.9375 C 123.226562 53.265625 125.867188 47.320312 127.75 40.488281 C 128.269531 40.53125 128.792969 40.511719 129.304688 40.425781 C 131.511719 40.046875 133.429688 38.632812 134.90625 36.953125 C 135.410156 36.382812 135.875 35.769531 136.160156 35.066406 C 136.894531 33.265625 137.058594 30.566406 136.3125 28.769531 C 137.035156 27.042969 136.058594 25.042969 134.730469 23.714844 C 133.410156 22.390625 131.730469 21.429688 130.535156 19.984375 C 129.273438 18.457031 128.652344 16.515625 128.058594 14.628906 C 127.492188 12.824219 127.113281 10.628906 125.613281 9.476562 C 124.453125 8.589844 122.925781 8.351562 121.464844 8.316406 C 120.023438 8.28125 118.585938 8.417969 117.179688 8.71875 C 115.980469 8.976562 114.78125 9.355469 113.558594 9.277344 C 111.613281 9.152344 109.914062 7.898438 107.996094 7.546875 C 105.160156 7.027344 102.082031 8.828125 101.148438 11.550781 C 98.414062 12.253906 95.703125 14.886719 95.277344 17.671875 C 95.011719 19.398438 95.4375 21.195312 96.367188 22.667969 C 94.855469 24.714844 93.433594 26.828125 92.019531 28.9375 C 91.636719 29.507812 91.496094 30.542969 91.816406 31.148438 C 93.59375 32.914062 99.640625 34.214844 103.859375 34.269531 Z M 137.835938 95.242188 C 141 102.335938 144.347656 124.132812 144.511719 128.386719 C 150.097656 126.117188 159.199219 122.195312 160.492188 117.464844 C 164.34375 103.355469 137.835938 95.242188 137.835938 95.242188 Z M 178.265625 126.261719 C 172.867188 143.4375 158.355469 148.09375 149.117188 150.703125 C 151.863281 158.417969 152.441406 172.941406 152.441406 172.941406 C 114.902344 184.773438 86.042969 176.890625 86.042969 176.890625 C 82.269531 169.707031 80.894531 158.253906 80.691406 146.492188 C 75.695312 144.996094 70.519531 144.097656 65.308594 143.835938 C 62.277344 143.679688 59.121094 143.714844 56.378906 142.414062 C 55.15625 141.832031 54.007812 140.925781 53.550781 139.652344 C 53.09375 138.382812 53.574219 136.726562 54.824219 136.210938 C 58.851562 134.546875 63.550781 135.476562 67.910156 135.476562 C 69.214844 135.472656 70.527344 135.496094 71.796875 135.800781 C 72.597656 135.996094 73.371094 136.300781 74.179688 136.46875 C 75.433594 136.734375 76.949219 136.90625 78.136719 137.386719 C 78.976562 137.722656 79.84375 137.9375 80.730469 138.085938 C 81.171875 119.777344 83.765625 103.011719 83.765625 103.011719 C 83.765625 103.011719 65.78125 122.417969 49.363281 121.460938 C 33.292969 120.523438 24.785156 99.507812 23.53125 96.925781 C 23.792969 96.609375 23.253906 96.195312 23.53125 95.890625 C 22.167969 95.363281 21.941406 94.570312 21.941406 94.570312 L 21.597656 94.15625 L 21.425781 93.117188 L 18.722656 86.558594 C 18.722656 86.558594 21.222656 84.539062 25 83.730469 C 28.785156 82.921875 28.3125 86.3125 29.074219 87.617188 C 29.417969 88.199219 31.523438 84.109375 31.367188 85.804688 C 33.136719 84.484375 33.027344 88.964844 34.8125 87.660156 C 38.328125 94.636719 43.808594 100.539062 49.1875 100.539062 C 55.671875 100.539062 63.097656 92.1875 72.527344 83.835938 C 81.957031 75.484375 93.039062 69.484375 97.554688 68.734375 C 97.554688 68.734375 113.070312 66.324219 113.859375 66.324219 C 114.648438 66.324219 127.226562 65.714844 143.296875 71.058594 C 162.265625 77.367188 185.578125 103.011719 178.265625 126.261719 Z M 20.074219 154.453125 C 19.449219 153.722656 18.664062 153.144531 17.855469 152.617188 C 17.019531 152.066406 16.152344 151.5625 15.261719 151.109375 C 14.71875 150.832031 14.164062 150.574219 13.570312 150.425781 C 13.015625 150.285156 12.441406 150.25 11.871094 150.214844 C 10.625 150.136719 9.347656 150.03125 8.101562 150.171875 C 7.148438 150.28125 6.863281 151.683594 6.988281 152.496094 C 7.105469 153.246094 7.53125 153.910156 7.945312 154.550781 C 8.34375 155.160156 8.746094 155.777344 9.257812 156.296875 C 10.035156 157.085938 11.023438 157.625 11.96875 158.203125 C 12.667969 158.628906 13.363281 159.089844 14.136719 159.363281 C 15.402344 159.816406 16.789062 159.742188 18.128906 159.613281 C 18.679688 159.558594 19.238281 159.496094 19.757812 159.300781 C 20.277344 159.109375 20.757812 158.765625 21.011719 158.273438 C 21.207031 157.902344 21.257812 157.46875 21.226562 157.050781 C 21.160156 156.089844 20.703125 155.1875 20.074219 154.453125 Z M 92.273438 48.320312 L 91.589844 44.609375 C 91.589844 44.609375 97.015625 40.277344 99.980469 39.601562 C 102.945312 38.929688 107.527344 41.667969 109.140625 44.71875 C 110.753906 47.765625 108.007812 48.808594 102.46875 52.097656 C 96.929688 55.382812 92.273438 48.320312 92.273438 48.320312 " fill-opacity="1" fill-rule="nonzero"/></g><path fill="#fabe8c" d="M 21.984375 94.597656 C 21.972656 94.589844 21.957031 94.578125 21.941406 94.570312 C 22.609375 95.390625 23.148438 96.191406 23.460938 96.78125 C 23.480469 96.820312 23.503906 96.871094 23.53125 96.925781 C 24.226562 96.078125 24.984375 95.277344 25.777344 94.535156 C 25.148438 94.820312 24.421875 94.921875 23.722656 94.9375 C 23.125 94.953125 22.496094 94.910156 21.984375 94.597656 Z M 24.226562 74.023438 C 21.078125 73.460938 13.851562 76.082031 13.097656 76.660156 C 10.988281 78.273438 7.683594 81.890625 7.789062 84.015625 C 7.898438 86.144531 9.601562 85.613281 9.601562 85.613281 C 9.601562 85.613281 8.644531 87.316406 11.09375 87.738281 C 11.09375 87.738281 11.09375 89.867188 14.078125 89.65625 C 14.078125 89.65625 14.71875 90.929688 17.066406 91.039062 C 18.519531 91.105469 20.257812 92.597656 21.597656 94.15625 C 21.515625 93.886719 21.636719 93.585938 21.800781 93.351562 C 21.976562 93.101562 22.210938 92.886719 22.339844 92.609375 C 22.507812 92.246094 22.480469 91.828125 22.453125 91.429688 C 22.445312 91.351562 22.4375 91.265625 22.378906 91.210938 C 22.3125 91.144531 22.199219 91.15625 22.105469 91.171875 C 21.523438 91.261719 20.6875 91.292969 20.667969 90.5 C 20.65625 90.011719 21.039062 89.5 21.179688 89.035156 C 21.316406 88.574219 21.492188 88.191406 21.796875 87.8125 C 22.519531 86.914062 23.695312 86.367188 24.855469 86.496094 C 25.242188 86.539062 25.636719 86.660156 25.902344 86.941406 C 26.167969 87.222656 26.265625 87.625 26.230469 88.007812 C 26.195312 88.390625 26.039062 88.75 25.847656 89.082031 C 25.65625 89.410156 25.425781 89.726562 25.339844 90.09375 C 25.253906 90.464844 25.359375 90.917969 25.699219 91.085938 C 25.929688 91.207031 26.210938 91.164062 26.472656 91.152344 C 26.738281 91.136719 27.039062 91.171875 27.195312 91.386719 C 27.257812 91.472656 27.289062 91.578125 27.3125 91.6875 C 27.433594 92.269531 27.324219 92.894531 27.035156 93.417969 C 29.492188 91.335938 32.207031 89.566406 34.8125 87.660156 C 34.089844 86.226562 33.449219 84.746094 32.910156 83.265625 C 30.070312 75.457031 28.867188 74.855469 24.226562 74.023438 Z M 107.144531 44.113281 C 107.144531 44.113281 104.542969 41.386719 102.003906 42.753906 C 99.464844 44.128906 101.691406 46.109375 102.976562 47.542969 C 106.085938 46.765625 107.144531 44.113281 107.144531 44.113281 Z M 119.132812 68.214844 C 106.996094 75.238281 100.503906 73.261719 98.15625 71.574219 C 97.5625 71.148438 97.265625 69.398438 97.554688 68.734375 C 98.863281 65.691406 99.011719 61.511719 99.011719 61.511719 C 93.902344 61.429688 93.023438 54.863281 92.660156 51.066406 C 92.574219 50.164062 92.425781 49.195312 92.25 48.195312 C 92.257812 48.234375 92.265625 48.277344 92.273438 48.320312 C 92.71875 47.207031 93.210938 47.542969 93.773438 48.382812 C 94.195312 48.316406 94.601562 48.1875 94.929688 47.996094 C 94.535156 46.988281 94.078125 46.179688 93.324219 45.550781 C 92.488281 46.519531 92.097656 45.289062 91.589844 44.609375 C 91.582031 44.578125 91.570312 44.5 91.550781 44.402344 C 91.179688 42.363281 90.863281 40.347656 90.863281 38.59375 C 91.554688 38.355469 92.527344 34.527344 93.210938 34.78125 C 94 35.074219 94.898438 35.179688 95.671875 34.859375 C 96.070312 34.695312 96.414062 34.429688 96.777344 34.203125 C 98.003906 33.4375 99.488281 33.097656 100.925781 33.253906 C 101.625 33.328125 102.3125 33.519531 103.015625 33.496094 C 103.71875 33.472656 104.710938 33.433594 105.03125 32.808594 C 104.910156 33.769531 105.621094 34.660156 106.464844 35.136719 C 107.3125 35.613281 108.644531 37.984375 109.566406 38.285156 C 110.484375 38.589844 111.417969 39.089844 111.847656 39.957031 C 112.136719 40.550781 112.710938 40.367188 112.738281 41.023438 C 112.765625 41.71875 112.824219 42.441406 113.214844 43.019531 C 113.773438 43.835938 114.917969 43.929688 115.699219 43.324219 C 118.226562 41.378906 121.589844 44.613281 122.003906 46.609375 C 123.148438 52.132812 117.613281 54.992188 117.613281 54.992188 C 117.566406 56.488281 116.847656 56.617188 117.320312 58.542969 C 118.066406 61.574219 119.179688 64.664062 119.808594 66.3125 C 120.082031 67.027344 119.792969 67.832031 119.132812 68.214844 Z M 140.289062 154.265625 C 136.667969 155.753906 130.199219 161.175781 127.128906 160.207031 C 125.894531 159.820312 125.992188 159.085938 125.992188 159.085938 C 125.992188 159.085938 123.785156 160.597656 122.515625 158.9375 C 122.515625 158.9375 120.320312 160.183594 119.121094 158.460938 C 119.121094 158.460938 116.019531 160.46875 114.460938 159.332031 C 112.902344 158.195312 113.171875 156.535156 115.0625 154.609375 C 116.953125 152.6875 122.792969 149.472656 122.566406 146.855469 C 122.34375 144.238281 116.53125 145.3125 114.320312 145.351562 C 114.320312 145.351562 112.773438 143.949219 115.476562 141.792969 C 118.183594 139.632812 128.414062 140.070312 131.199219 137.582031 C 131.199219 137.582031 143.769531 137.683594 140.289062 154.265625 " fill-opacity="1" fill-rule="nonzero"/><path fill="#e16252" d="M 106.417969 58.746094 C 104.902344 63.484375 103.484375 68.253906 102.160156 73.046875 C 100.285156 72.78125 97.558594 75.40625 96.742188 74.820312 C 96.152344 74.394531 93.871094 69.722656 94.160156 69.058594 C 94.609375 68.007812 98.316406 66.5 98.535156 65.398438 C 98.945312 63.308594 99.011719 61.511719 99.011719 61.511719 C 99.035156 61.496094 99.058594 61.476562 99.082031 61.457031 C 101.265625 61.414062 103.417969 60.71875 105.277344 59.582031 C 105.679688 59.335938 106.070312 59.0625 106.417969 58.746094 " fill-opacity="1" fill-rule="nonzero"/><path fill="#e16252" d="M 50.320312 137.851562 C 50.570312 137.933594 52.417969 136.636719 51.527344 135.382812 C 51.84375 134.839844 52.109375 134.3125 52.179688 134.113281 C 52.382812 133.554688 52.417969 132.933594 52.277344 132.355469 C 52.171875 131.910156 51.875 131.421875 51.414062 131.40625 C 50.886719 131.386719 50.558594 131.964844 50.40625 132.464844 C 50.300781 132.816406 49.96875 134.324219 49.929688 135.472656 C 49.125 136.371094 50.019531 137.746094 50.320312 137.851562 Z M 128.894531 64.855469 C 128.230469 64.328125 127.363281 64.121094 126.519531 64.023438 C 125.671875 63.929688 124.816406 63.929688 123.984375 63.742188 C 123.121094 63.546875 122.3125 63.160156 121.460938 62.925781 C 120.609375 62.695312 119.460938 62.855469 118.667969 63.117188 L 119.492188 65.464844 C 116.859375 66.164062 113.714844 68.140625 111.421875 69.601562 C 110.066406 70.46875 107.8125 72.175781 106.441406 72.695312 C 106.304688 72.582031 106.152344 72.484375 105.988281 72.417969 C 105.589844 72.261719 105.148438 72.25 104.730469 72.332031 C 104.472656 72.382812 104.226562 72.472656 103.992188 72.589844 C 102.210938 71.789062 100.523438 70.777344 98.980469 69.574219 C 98.386719 69.113281 97.757812 68.492188 97.988281 67.777344 C 98.050781 67.578125 98.503906 65.558594 98.535156 65.398438 C 97.746094 65.082031 96.554688 65.550781 95.988281 66.179688 C 95.414062 66.8125 94.988281 67.589844 94.28125 68.066406 C 93.90625 68.320312 93.472656 68.46875 93.078125 68.691406 C 92.191406 69.195312 91.535156 70.078125 91.308594 71.070312 C 92.402344 72.875 94.214844 74.5 96.152344 75.335938 C 97.207031 75.792969 98.339844 76.058594 99.488281 76.140625 C 98.46875 77.808594 97.988281 79.820312 97.988281 81.789062 C 97.980469 84.574219 98.828125 87.289062 99.855469 89.875 C 102.085938 87.816406 103.046875 84.976562 103.660156 82.003906 C 103.996094 80.367188 104.269531 78.683594 104.128906 77.027344 C 104.308594 77.035156 104.484375 77.03125 104.660156 77.015625 C 104.851562 78.6875 105.65625 80.253906 106.636719 81.636719 C 107.683594 83.117188 108.929688 84.453125 109.96875 85.941406 C 111.054688 87.507812 111.898438 89.238281 112.464844 91.054688 C 113.230469 90.097656 113.835938 89.085938 114.183594 87.910156 C 114.398438 87.183594 114.542969 86.425781 114.542969 85.664062 C 114.542969 84.734375 114.332031 83.816406 114.117188 82.910156 C 113.78125 81.484375 113.425781 80.054688 112.835938 78.714844 C 112.445312 77.828125 111.9375 76.984375 111.300781 76.257812 C 117.730469 73.824219 123.125 69.957031 129.632812 67.613281 C 129.910156 66.8125 129.5625 65.386719 128.894531 64.855469 Z M 94.46875 149.808594 C 81.675781 168.429688 56.578125 167.484375 32.589844 162.695312 C 29.035156 161.988281 15.308594 157.765625 12.910156 155.058594 C 11.207031 153.136719 8.449219 152.414062 10.503906 146.769531 C 10.214844 142.777344 11.203125 138.371094 12.546875 134.882812 C 14.816406 129 18.941406 123.976562 23.691406 119.820312 C 26.621094 117.253906 29.925781 114.925781 33.730469 114.085938 C 35.203125 113.761719 36.625 114.488281 37.851562 115.367188 C 39.835938 116.789062 41.984375 118.5625 42.109375 120.996094 C 44.546875 122.75 45.65625 125.589844 45.371094 128.574219 C 47.265625 130.152344 48.160156 131.644531 47.5625 134.035156 C 48.835938 135.464844 49.433594 137.28125 49.964844 139.144531 C 50.570312 141.28125 51.957031 136.367188 53.28125 138.109375 C 54.953125 140.320312 59.464844 143.285156 62.054688 144.277344 C 71.835938 148.007812 88.71875 148.679688 94.46875 149.808594 " fill-opacity="1" fill-rule="nonzero"/><g clip-path="url(#22cfc76c8c)"><path fill="#151b14" d="M 36.148438 133.117188 C 35.820312 132.761719 35.308594 132.574219 34.773438 132.613281 C 34.242188 132.652344 33.765625 132.917969 33.496094 133.316406 L 33.789062 133.515625 C 33.996094 133.203125 34.375 133 34.804688 132.96875 C 35.226562 132.933594 35.632812 133.078125 35.886719 133.355469 Z M 35.328125 141.238281 L 35.074219 140.992188 C 34.699219 141.378906 33.996094 141.277344 33.621094 140.929688 C 33.25 140.589844 33.046875 140.011719 33.066406 139.347656 L 32.710938 139.335938 C 32.699219 139.789062 32.769531 140.628906 33.378906 141.191406 C 33.652344 141.441406 34.046875 141.59375 34.4375 141.59375 C 34.765625 141.59375 35.089844 141.484375 35.328125 141.238281 Z M 20.71875 134.214844 C 20.816406 133.617188 20.519531 132.980469 19.996094 132.671875 C 19.476562 132.359375 18.773438 132.398438 18.289062 132.765625 L 18.503906 133.046875 C 18.867188 132.769531 19.417969 132.738281 19.8125 132.972656 C 20.207031 133.207031 20.441406 133.707031 20.371094 134.160156 Z M 34.347656 148.921875 C 34.710938 148.46875 34.671875 147.765625 34.257812 147.359375 C 33.84375 146.953125 33.144531 146.917969 32.691406 147.28125 L 32.914062 147.554688 C 33.222656 147.304688 33.722656 147.328125 34.007812 147.609375 C 34.292969 147.890625 34.320312 148.390625 34.070312 148.699219 Z M 33.644531 120.128906 C 33.839844 120.058594 34.117188 120.046875 34.304688 120.226562 L 34.550781 119.96875 C 34.292969 119.726562 33.902344 119.660156 33.523438 119.792969 C 33.148438 119.929688 32.886719 120.226562 32.839844 120.578125 L 33.191406 120.621094 C 33.226562 120.363281 33.445312 120.195312 33.644531 120.128906 Z M 21.921875 153.710938 L 21.976562 153.363281 C 21.046875 153.21875 20.238281 152.445312 20.050781 151.523438 L 19.703125 151.59375 C 19.917969 152.652344 20.851562 153.542969 21.921875 153.710938 Z M 23.253906 130.234375 C 22.550781 130.324219 21.863281 129.953125 21.222656 129.5625 L 21.039062 129.867188 C 21.660156 130.242188 22.324219 130.601562 23.039062 130.601562 C 23.125 130.601562 23.210938 130.597656 23.296875 130.589844 C 23.789062 130.527344 24.261719 130.199219 24.503906 129.75 C 24.691406 129.402344 24.707031 129.035156 24.550781 128.71875 L 24.234375 128.875 C 24.339844 129.089844 24.324219 129.339844 24.191406 129.582031 C 24.007812 129.925781 23.628906 130.191406 23.253906 130.234375 Z M 27.84375 121.027344 C 27.390625 121.121094 26.980469 121.476562 26.800781 121.933594 C 26.660156 122.289062 26.695312 122.65625 26.894531 122.941406 L 27.183594 122.734375 C 27.003906 122.484375 27.074219 122.207031 27.132812 122.0625 C 27.265625 121.71875 27.582031 121.445312 27.917969 121.375 C 28.460938 121.257812 29.089844 121.472656 29.785156 122.003906 L 30 121.722656 C 29.21875 121.125 28.496094 120.890625 27.84375 121.027344 Z M 28.414062 131.917969 C 28.785156 131.679688 29.277344 131.691406 29.75 131.726562 L 29.773438 131.375 C 29.242188 131.335938 28.683594 131.324219 28.222656 131.621094 C 27.941406 131.804688 27.742188 132.144531 27.71875 132.488281 C 27.699219 132.761719 27.789062 133 27.976562 133.164062 L 28.210938 132.898438 C 28.078125 132.785156 28.0625 132.625 28.070312 132.511719 C 28.085938 132.28125 28.226562 132.042969 28.414062 131.917969 Z M 23.691406 96.847656 L 23.371094 97.003906 C 23.453125 97.167969 23.5625 97.410156 23.703125 97.714844 C 27.105469 105.171875 30.714844 110.394531 34.261719 114.011719 C 34.433594 114.003906 34.601562 114.007812 34.769531 114.023438 C 31.167969 110.421875 27.488281 105.167969 24.027344 97.570312 C 23.882812 97.257812 23.773438 97.015625 23.691406 96.847656 Z M 30.660156 117.9375 L 30.867188 118.222656 C 31.460938 117.792969 32.308594 117.757812 32.9375 118.132812 L 33.117188 117.828125 C 32.375 117.382812 31.363281 117.425781 30.660156 117.9375 Z M 29.789062 141 C 29.832031 140.585938 29.882812 140.070312 29.695312 139.617188 C 29.503906 139.152344 28.96875 138.753906 28.441406 138.917969 L 28.546875 139.253906 C 28.871094 139.152344 29.234375 139.429688 29.367188 139.75 C 29.523438 140.125 29.476562 140.570312 29.4375 140.964844 Z M 15.363281 144.890625 L 15.078125 144.683594 C 14.964844 144.835938 14.785156 144.929688 14.566406 144.953125 C 14.285156 144.984375 13.984375 144.890625 13.777344 144.710938 C 13.3125 144.296875 13.257812 143.613281 13.261719 143.242188 L 12.910156 143.238281 C 12.894531 143.980469 13.121094 144.597656 13.542969 144.972656 C 13.789062 145.191406 14.121094 145.3125 14.457031 145.3125 C 14.507812 145.3125 14.554688 145.3125 14.601562 145.304688 C 14.921875 145.273438 15.191406 145.125 15.363281 144.890625 Z M 31.164062 157.5 C 31.398438 156.59375 31.046875 155.558594 30.304688 154.984375 L 30.089844 155.261719 C 30.722656 155.753906 31.019531 156.636719 30.820312 157.410156 Z M 37.253906 137.878906 C 37.429688 137.691406 37.527344 137.421875 37.515625 137.140625 C 37.5 136.859375 37.382812 136.601562 37.1875 136.425781 C 36.992188 136.253906 36.71875 136.164062 36.4375 136.1875 C 36.15625 136.207031 35.902344 136.332031 35.734375 136.53125 L 36.003906 136.761719 C 36.109375 136.632812 36.277344 136.554688 36.464844 136.539062 C 36.648438 136.527344 36.828125 136.582031 36.953125 136.691406 C 37.074219 136.800781 37.152344 136.96875 37.160156 137.15625 C 37.167969 137.34375 37.109375 137.515625 36.996094 137.640625 Z M 39.410156 159.542969 C 39.855469 160.003906 40.445312 160.265625 41.023438 160.265625 C 41.097656 160.265625 41.175781 160.257812 41.25 160.25 L 41.207031 159.898438 C 40.671875 159.964844 40.09375 159.738281 39.664062 159.296875 C 39.234375 158.855469 39.03125 158.273438 39.117188 157.738281 L 38.765625 157.683594 C 38.664062 158.324219 38.90625 159.019531 39.410156 159.542969 Z M 39.898438 146.152344 L 39.773438 145.824219 C 39.351562 145.984375 39.058594 146.414062 39.066406 146.867188 C 39.074219 147.3125 39.386719 147.738281 39.808594 147.882812 L 39.925781 147.546875 C 39.636719 147.449219 39.425781 147.160156 39.421875 146.859375 C 39.414062 146.558594 39.617188 146.261719 39.898438 146.152344 Z M 41.261719 124.066406 L 41.035156 124.339844 C 41.753906 124.929688 42.109375 125.941406 41.917969 126.851562 L 42.265625 126.925781 C 42.484375 125.886719 42.078125 124.738281 41.261719 124.066406 Z M 40.214844 121.566406 C 39.613281 121.601562 39.054688 121.402344 38.683594 121.011719 L 38.425781 121.257812 C 38.835938 121.683594 39.433594 121.921875 40.078125 121.921875 C 40.128906 121.921875 40.183594 121.921875 40.234375 121.917969 C 40.941406 121.875 41.566406 121.558594 41.953125 121.046875 L 41.667969 120.832031 C 41.347656 121.261719 40.816406 121.53125 40.214844 121.566406 Z M 24.570312 156.492188 L 24.597656 156.84375 C 25.03125 156.808594 25.421875 157.15625 25.597656 157.5 C 25.8125 157.910156 25.855469 158.394531 25.894531 158.863281 L 26.246094 158.835938 C 26.207031 158.355469 26.160156 157.8125 25.914062 157.335938 C 25.675781 156.878906 25.167969 156.4375 24.570312 156.492188 Z M 17.597656 135.96875 C 17.960938 136.171875 18.15625 136.625 18.058594 137.027344 L 18.402344 137.109375 C 18.539062 136.558594 18.265625 135.9375 17.773438 135.660156 C 17.273438 135.382812 16.601562 135.476562 16.203125 135.882812 L 16.453125 136.128906 C 16.746094 135.835938 17.238281 135.765625 17.597656 135.96875 Z M 17.707031 84.417969 L 17.460938 84.367188 C 17.308594 84.332031 17.152344 84.296875 17.019531 84.230469 C 16.894531 84.167969 16.804688 84.074219 16.769531 83.976562 L 16.433594 84.089844 C 16.5 84.277344 16.648438 84.441406 16.859375 84.546875 C 17.03125 84.632812 17.21875 84.675781 17.382812 84.710938 L 17.824219 84.808594 L 17.894531 84.738281 C 18.128906 84.496094 18.332031 84.179688 18.484375 83.820312 C 18.65625 83.417969 18.667969 83.054688 18.523438 82.777344 C 18.429688 82.589844 18.257812 82.476562 18.089844 82.488281 L 18.105469 82.839844 C 18.117188 82.835938 18.179688 82.875 18.210938 82.941406 C 18.332031 83.167969 18.246094 83.472656 18.15625 83.683594 C 18.035156 83.96875 17.882812 84.21875 17.707031 84.417969 Z M 20.863281 126.039062 L 21.214844 125.996094 C 21.179688 125.703125 21.539062 125.460938 21.863281 125.34375 C 22.5625 125.085938 23.328125 124.988281 24.070312 125.058594 L 24.105469 124.707031 C 23.308594 124.632812 22.492188 124.734375 21.742188 125.011719 C 21.136719 125.234375 20.8125 125.617188 20.863281 126.039062 Z M 17.644531 146.597656 C 17.863281 146.488281 18.140625 146.480469 18.398438 146.582031 C 18.65625 146.683594 18.851562 146.875 18.9375 147.105469 L 19.269531 146.984375 C 19.148438 146.660156 18.878906 146.394531 18.527344 146.253906 C 18.175781 146.117188 17.796875 146.125 17.484375 146.28125 C 17.175781 146.441406 16.941406 146.738281 16.84375 147.101562 C 16.75 147.46875 16.804688 147.84375 16.996094 148.132812 L 17.289062 147.9375 C 17.152344 147.734375 17.117188 147.460938 17.1875 147.195312 C 17.257812 146.925781 17.425781 146.707031 17.644531 146.597656 Z M 16.105469 153.179688 L 16.21875 152.847656 C 15.707031 152.671875 15.269531 152.261719 15.023438 151.714844 C 14.773438 151.167969 14.753906 150.570312 14.964844 150.070312 L 14.636719 149.933594 C 14.390625 150.523438 14.414062 151.226562 14.699219 151.859375 C 14.988281 152.496094 15.5 152.976562 16.105469 153.179688 Z M 20 142.132812 C 20.046875 141.421875 19.582031 140.679688 18.863281 140.328125 C 18.113281 139.957031 17.289062 140.035156 16.730469 140.164062 L 16.808594 140.507812 C 17.3125 140.390625 18.050781 140.320312 18.707031 140.644531 C 19.296875 140.933594 19.683594 141.539062 19.648438 142.109375 Z M 26.980469 152.863281 C 27.03125 152.582031 26.957031 152.320312 26.769531 152.144531 L 26.527344 152.402344 C 26.660156 152.527344 26.648438 152.703125 26.632812 152.796875 C 26.59375 153.007812 26.441406 153.199219 26.261719 153.269531 C 25.855469 153.429688 25.398438 153.199219 25.128906 152.957031 C 25.015625 152.855469 24.753906 152.578125 24.789062 152.273438 L 24.4375 152.230469 C 24.382812 152.683594 24.699219 153.042969 24.894531 153.21875 C 25.21875 153.515625 25.613281 153.675781 25.976562 153.671875 C 26.125 153.671875 26.265625 153.648438 26.394531 153.597656 C 26.6875 153.480469 26.914062 153.191406 26.980469 152.863281 Z M 58.761719 153.460938 C 58.570312 154.136719 58.988281 154.820312 59.496094 155.148438 C 59.890625 155.398438 60.390625 155.527344 60.992188 155.527344 C 61.089844 155.527344 61.191406 155.523438 61.292969 155.515625 L 61.269531 155.164062 C 60.609375 155.207031 60.082031 155.101562 59.6875 154.851562 C 59.289062 154.59375 58.957031 154.066406 59.101562 153.558594 Z M 56.382812 157.273438 C 56.257812 157.886719 56.46875 158.558594 56.925781 158.988281 C 57.121094 159.175781 57.332031 159.273438 57.535156 159.273438 C 57.578125 159.273438 57.625 159.265625 57.667969 159.257812 C 57.84375 159.21875 58 159.070312 58.054688 158.886719 C 58.101562 158.734375 58.066406 158.578125 57.960938 158.46875 L 57.710938 158.714844 C 57.726562 158.734375 57.722656 158.765625 57.714844 158.785156 C 57.695312 158.847656 57.644531 158.902344 57.589844 158.914062 C 57.421875 158.949219 57.238281 158.796875 57.164062 158.730469 C 56.796875 158.386719 56.625 157.839844 56.730469 157.347656 Z M 56.542969 151.46875 C 56.539062 151.46875 56.539062 151.46875 56.535156 151.46875 C 56.15625 151.46875 55.8125 151.324219 55.59375 151.070312 L 55.324219 151.304688 C 55.613281 151.632812 56.054688 151.824219 56.535156 151.824219 C 56.539062 151.824219 56.542969 151.824219 56.546875 151.824219 C 57.03125 151.820312 57.472656 151.625 57.757812 151.289062 L 57.492188 151.0625 C 57.269531 151.320312 56.925781 151.46875 56.542969 151.46875 Z M 52.804688 153.777344 L 52.617188 154.078125 C 53.382812 154.550781 53.890625 155.4375 53.914062 156.335938 L 54.269531 156.324219 C 54.242188 155.3125 53.667969 154.3125 52.804688 153.777344 Z M 50.351562 152.921875 L 50.074219 153.148438 C 50.320312 153.449219 50.710938 153.621094 51.097656 153.621094 C 51.222656 153.621094 51.34375 153.605469 51.460938 153.570312 C 51.953125 153.417969 52.332031 152.957031 52.378906 152.445312 L 52.023438 152.414062 C 51.992188 152.78125 51.710938 153.125 51.359375 153.230469 C 51.007812 153.339844 50.582031 153.210938 50.351562 152.921875 Z M 51.46875 148.339844 L 51.621094 148.65625 C 52.042969 148.453125 52.566406 148.671875 52.867188 148.992188 C 53.214844 149.363281 53.390625 149.886719 53.550781 150.347656 L 53.886719 150.234375 C 53.714844 149.738281 53.523438 149.175781 53.125 148.753906 C 52.746094 148.347656 52.066406 148.046875 51.46875 148.339844 Z M 94.5625 89.457031 C 94.695312 89.453125 94.828125 89.34375 94.871094 89.203125 C 94.929688 89.023438 94.867188 88.789062 94.722656 88.632812 C 94.667969 88.570312 94.558594 88.480469 94.414062 88.480469 C 94.390625 88.480469 94.363281 88.484375 94.335938 88.488281 C 94.136719 88.535156 93.964844 88.699219 93.917969 88.890625 C 93.894531 89 93.898438 89.15625 94.066406 89.289062 C 94.15625 89.363281 94.28125 89.402344 94.390625 89.429688 C 94.449219 89.445312 94.507812 89.457031 94.5625 89.457031 Z M 94.574219 89.808594 C 94.566406 89.8125 94.558594 89.8125 94.550781 89.8125 C 94.460938 89.8125 94.378906 89.792969 94.304688 89.773438 C 94.164062 89.738281 93.988281 89.679688 93.839844 89.5625 C 93.605469 89.371094 93.507812 89.097656 93.574219 88.808594 C 93.648438 88.488281 93.921875 88.222656 94.257812 88.144531 C 94.519531 88.085938 94.785156 88.175781 94.984375 88.394531 C 95.214844 88.644531 95.304688 89.011719 95.207031 89.3125 C 95.117188 89.59375 94.855469 89.800781 94.574219 89.808594 Z M 64.730469 155.703125 C 64.738281 154.996094 64.148438 154.328125 63.445312 154.242188 L 63.402344 154.59375 C 63.9375 154.65625 64.382812 155.164062 64.375 155.699219 Z M 167.589844 116 C 166.191406 114.929688 164.464844 114.351562 162.6875 114.390625 L 162.691406 114.742188 C 164.363281 114.707031 166.039062 115.257812 167.375 116.28125 Z M 92.148438 134.605469 C 92.179688 134.722656 92.246094 134.847656 92.351562 134.984375 C 92.453125 135.117188 92.65625 135.332031 92.890625 135.332031 C 92.894531 135.332031 92.898438 135.332031 92.902344 135.332031 C 93.058594 135.328125 93.226562 135.210938 93.320312 135.039062 C 93.5 134.722656 93.574219 134.113281 93.386719 133.640625 C 93.289062 133.390625 93.140625 133.226562 92.9375 133.164062 C 92.875 133.140625 92.816406 133.132812 92.757812 133.132812 C 92.648438 133.132812 92.546875 133.171875 92.457031 133.257812 C 92.160156 133.535156 92.046875 134.222656 92.148438 134.605469 Z M 91.804688 134.695312 C 91.671875 134.199219 91.808594 133.378906 92.214844 133 C 92.445312 132.785156 92.734375 132.722656 93.046875 132.824219 C 93.351562 132.925781 93.582031 133.164062 93.71875 133.511719 C 93.921875 134.03125 93.882812 134.761719 93.628906 135.210938 C 93.472656 135.496094 93.195312 135.675781 92.914062 135.6875 C 92.902344 135.6875 92.898438 135.6875 92.886719 135.6875 C 92.523438 135.6875 92.242188 135.421875 92.070312 135.199219 C 91.933594 135.023438 91.847656 134.859375 91.804688 134.695312 Z M 92.742188 120.410156 C 92.789062 120.355469 92.828125 120.28125 92.855469 120.214844 C 93.058594 119.75 93.160156 119.066406 92.953125 118.660156 C 92.855469 118.46875 92.699219 118.351562 92.476562 118.304688 C 92.246094 118.25 92.066406 118.304688 91.925781 118.464844 C 91.621094 118.8125 91.578125 119.59375 91.746094 120.03125 C 91.835938 120.265625 91.996094 120.441406 92.1875 120.519531 C 92.382812 120.59375 92.621094 120.550781 92.742188 120.410156 Z M 92.390625 120.910156 C 92.277344 120.910156 92.164062 120.890625 92.054688 120.847656 C 91.773438 120.734375 91.539062 120.480469 91.414062 120.15625 C 91.238281 119.6875 91.222656 118.738281 91.660156 118.234375 C 91.886719 117.972656 92.195312 117.878906 92.554688 117.957031 C 92.875 118.03125 93.125 118.21875 93.269531 118.503906 C 93.578125 119.109375 93.359375 119.953125 93.179688 120.355469 C 93.140625 120.445312 93.089844 120.550781 93.011719 120.640625 C 92.863281 120.816406 92.632812 120.910156 92.390625 120.910156 Z M 94.21875 105.609375 C 94.238281 105.34375 94.167969 105.0625 94.101562 104.816406 C 93.984375 104.390625 93.71875 103.933594 93.441406 103.882812 C 93.425781 103.878906 93.410156 103.878906 93.390625 103.878906 C 93.25 103.878906 93.097656 103.988281 92.9375 104.207031 C 92.742188 104.472656 92.699219 104.816406 92.695312 105.054688 C 92.695312 105.46875 92.8125 105.820312 93.027344 106.042969 C 93.230469 106.257812 93.625 106.382812 93.902344 106.207031 C 94.078125 106.097656 94.195312 105.871094 94.21875 105.609375 Z M 94.089844 106.507812 C 93.941406 106.601562 93.769531 106.644531 93.589844 106.644531 C 93.296875 106.644531 92.992188 106.523438 92.769531 106.289062 C 92.492188 105.996094 92.339844 105.558594 92.34375 105.050781 C 92.34375 104.632812 92.453125 104.269531 92.652344 103.996094 C 92.980469 103.546875 93.296875 103.5 93.503906 103.535156 C 93.980469 103.621094 94.304688 104.230469 94.441406 104.722656 C 94.519531 104.996094 94.597656 105.3125 94.570312 105.636719 C 94.539062 106.011719 94.359375 106.335938 94.089844 106.507812 Z M 11.246094 78.90625 C 11.21875 78.929688 11.191406 78.976562 11.164062 79.023438 C 11.144531 79.054688 11.125 79.089844 11.101562 79.125 C 11.203125 79.402344 11.46875 79.625 11.761719 79.683594 C 11.828125 79.601562 11.902344 79.515625 11.972656 79.429688 C 12.0625 79.328125 12.148438 79.226562 12.210938 79.132812 C 12.355469 78.925781 12.421875 78.738281 12.421875 78.566406 C 12.421875 78.484375 12.398438 78.417969 12.363281 78.382812 C 12.328125 78.351562 12.261719 78.335938 12.175781 78.339844 C 11.835938 78.355469 11.539062 78.617188 11.246094 78.90625 Z M 13.742188 79.523438 C 13.855469 79.714844 14.039062 79.859375 14.25 79.917969 C 14.566406 79.769531 14.828125 79.542969 15.066406 79.21875 C 15.160156 79.09375 15.210938 79 15.230469 78.90625 C 15.25 78.808594 15.230469 78.714844 15.183594 78.65625 C 15.09375 78.558594 14.90625 78.566406 14.773438 78.601562 C 14.304688 78.730469 13.988281 79.128906 13.742188 79.523438 Z M 21.933594 75.117188 C 21.925781 75.125 21.917969 75.132812 21.910156 75.140625 L 21.886719 75.183594 C 21.800781 75.363281 21.78125 75.558594 21.828125 75.71875 C 21.878906 75.886719 22.015625 76.023438 22.167969 76.0625 C 22.316406 76.097656 22.488281 76.050781 22.671875 76 C 23.128906 75.875 23.597656 75.765625 24.0625 75.671875 C 24.050781 75.21875 23.996094 74.777344 23.765625 74.476562 C 23.75 74.460938 23.738281 74.441406 23.726562 74.421875 C 23.304688 74.464844 22.867188 74.515625 22.496094 74.710938 C 22.300781 74.816406 22.128906 74.957031 21.933594 75.117188 Z M 21.496094 90.972656 L 21.839844 90.878906 C 21.804688 90.746094 21.871094 90.582031 22.042969 90.367188 C 22.78125 89.457031 23.917969 88.949219 24.933594 89.074219 C 25.054688 89.085938 25.207031 89.117188 25.308594 89.195312 L 25.527344 88.917969 C 25.355469 88.785156 25.144531 88.742188 24.976562 88.722656 C 23.824219 88.582031 22.59375 89.125 21.769531 90.144531 C 21.679688 90.257812 21.398438 90.601562 21.496094 90.972656 Z M 21.933594 94.085938 L 22.230469 94.277344 C 23.246094 92.730469 25.09375 91.785156 26.945312 91.871094 L 26.960938 91.515625 C 24.984375 91.429688 23.015625 92.433594 21.933594 94.085938 Z M 26.675781 92.765625 C 26.527344 92.316406 25.953125 92.871094 25.898438 93.117188 C 25.894531 93.140625 25.890625 93.164062 25.902344 93.183594 C 25.910156 93.210938 25.9375 93.226562 25.964844 93.238281 C 26.246094 93.363281 26.800781 93.140625 26.675781 92.765625 Z M 24.957031 93.953125 C 24.933594 93.984375 24.917969 94.023438 24.910156 94.0625 C 24.882812 94.199219 24.992188 94.339844 25.125 94.375 C 25.261719 94.414062 25.410156 94.359375 25.511719 94.265625 C 25.894531 93.898438 25.246094 93.488281 24.957031 93.953125 Z M 24.679688 93.289062 C 24.925781 93.242188 25.355469 92.824219 24.953125 92.675781 C 24.683594 92.578125 24.195312 92.894531 24.40625 93.199219 C 24.464844 93.28125 24.578125 93.308594 24.679688 93.289062 Z M 23.5625 94.453125 C 23.589844 94.527344 23.644531 94.605469 23.722656 94.628906 C 23.765625 94.644531 23.8125 94.640625 23.859375 94.625 C 23.882812 94.617188 23.90625 94.605469 23.925781 94.597656 C 24.078125 94.515625 24.195312 94.367188 24.238281 94.203125 C 24.328125 93.84375 23.351562 93.84375 23.5625 94.453125 Z M 15.859375 80.761719 C 15.625 80.972656 15.320312 81.363281 15.144531 81.597656 C 15.253906 81.78125 15.414062 81.929688 15.609375 82.027344 C 15.664062 82.054688 15.71875 82.078125 15.773438 82.097656 C 15.820312 82.117188 15.867188 82.136719 15.914062 82.160156 C 16.097656 82.007812 16.265625 81.828125 16.453125 81.589844 C 16.648438 81.339844 16.757812 81.066406 16.75 80.816406 C 16.75 80.679688 16.707031 80.566406 16.636719 80.511719 C 16.609375 80.488281 16.574219 80.472656 16.53125 80.460938 C 16.347656 80.417969 16.128906 80.515625 15.859375 80.761719 Z M 11.070312 78.488281 C 11.070312 78.488281 6.695312 70.871094 7.789062 68.996094 C 11.367188 62.875 20.324219 63.476562 21.960938 64.167969 C 23.601562 64.859375 24.226562 74.023438 24.226562 74.023438 C 24.226562 74.023438 24.078125 74.039062 23.851562 74.074219 C 23.953125 74.105469 24.003906 74.191406 24.027344 74.230469 C 24.035156 74.242188 24.039062 74.253906 24.046875 74.261719 C 24.363281 74.675781 24.414062 75.253906 24.417969 75.816406 L 24.421875 75.964844 L 24.277344 75.992188 C 23.769531 76.085938 23.265625 76.203125 22.769531 76.339844 C 22.617188 76.382812 22.449219 76.425781 22.28125 76.425781 C 22.214844 76.425781 22.148438 76.417969 22.082031 76.40625 C 21.808594 76.335938 21.578125 76.109375 21.492188 75.820312 C 21.421875 75.59375 21.441406 75.328125 21.542969 75.082031 C 21.542969 75.015625 21.578125 74.9375 21.683594 74.863281 C 21.761719 74.800781 21.839844 74.742188 21.914062 74.683594 C 21.472656 74.933594 21.132812 75.265625 21.09375 75.71875 C 20.992188 77.035156 22.207031 77.648438 23.335938 77.933594 C 24.457031 78.214844 25.320312 79.109375 25.515625 80.246094 L 26.925781 88.445312 L 26.996094 88.425781 C 27.175781 89.167969 27.691406 89.820312 28.367188 90.171875 L 28.207031 90.488281 C 27.539062 90.140625 27.019531 89.542969 26.757812 88.84375 C 26.464844 89.070312 26.085938 89.324219 25.652344 89.585938 C 25.820312 90.183594 25.992188 90.6875 26.089844 90.804688 C 27.644531 90.675781 27.71875 91.550781 27.742188 92.199219 C 27.78125 93.148438 27.363281 93.777344 26.582031 94.316406 C 25.796875 94.851562 24.675781 95.335938 23.726562 95.335938 C 23.285156 95.335938 22.839844 95.292969 22.433594 95.125 C 22.027344 94.953125 21.667969 94.644531 21.511719 94.230469 C 21.265625 93.5625 21.746094 92.792969 22.292969 92.28125 C 22.226562 91.960938 22.074219 91.652344 21.894531 91.355469 C 21.105469 91.605469 20.476562 91.6875 20.222656 91.46875 C 19.613281 90.9375 18.304688 89.351562 17.734375 88.65625 C 17.710938 89 17.824219 89.359375 18.058594 89.609375 L 17.800781 89.851562 C 17.386719 89.40625 17.261719 88.734375 17.484375 88.171875 L 17.5 88.179688 C 17.59375 87.859375 17.859375 87.023438 18.25 86.246094 C 18.742188 85.261719 20.621094 83.878906 19.140625 82.894531 C 18.359375 82.375 17.820312 82.402344 17.480469 82.542969 C 15.214844 85.203125 13.832031 89.085938 14.214844 89.539062 L 13.945312 89.769531 C 13.261719 88.960938 15.296875 84.292969 17.675781 81.796875 C 17.902344 81.246094 17.984375 80.613281 17.460938 80.234375 C 16.996094 79.898438 16.53125 79.921875 16.152344 80.058594 C 16.070312 80.128906 15.988281 80.203125 15.90625 80.277344 C 16.09375 80.15625 16.339844 80.050781 16.613281 80.117188 C 16.707031 80.136719 16.792969 80.179688 16.863281 80.234375 C 17.015625 80.359375 17.097656 80.5625 17.105469 80.808594 C 17.113281 81.234375 16.90625 81.585938 16.734375 81.804688 C 16.496094 82.105469 16.285156 82.324219 16.046875 82.507812 L 15.953125 82.578125 L 15.847656 82.519531 C 15.78125 82.484375 15.710938 82.453125 15.640625 82.425781 C 15.578125 82.398438 15.511719 82.375 15.453125 82.34375 C 15.15625 82.195312 14.914062 81.953125 14.773438 81.65625 L 14.726562 81.558594 L 14.792969 81.472656 C 14.820312 81.433594 14.851562 81.398438 14.878906 81.359375 C 12.933594 83.667969 11.355469 86.933594 11.269531 87.757812 L 10.917969 87.722656 C 11.023438 86.6875 13.390625 81.933594 15.949219 79.769531 C 16.238281 79.261719 16.394531 78.667969 15.78125 78.359375 C 15.5625 78.253906 15.339844 78.222656 15.121094 78.242188 C 15.25 78.269531 15.363281 78.332031 15.445312 78.425781 C 15.570312 78.566406 15.621094 78.773438 15.574219 78.980469 C 15.535156 79.164062 15.433594 79.316406 15.351562 79.429688 C 15.058594 79.824219 14.738281 80.089844 14.339844 80.265625 L 14.285156 80.289062 L 14.230469 80.277344 C 13.859375 80.199219 13.535156 79.933594 13.378906 79.585938 L 13.347656 79.511719 C 11.835938 81.539062 10.0625 84.726562 9.769531 85.664062 L 9.433594 85.558594 C 9.789062 84.429688 11.796875 80.890625 13.359375 78.917969 C 13.402344 78.261719 12.824219 77.933594 12.171875 77.988281 C 12.347656 77.980469 12.496094 78.027344 12.597656 78.121094 C 12.710938 78.222656 12.773438 78.378906 12.773438 78.566406 C 12.777344 78.808594 12.6875 79.0625 12.507812 79.332031 C 12.433594 79.4375 12.335938 79.550781 12.242188 79.660156 C 12.152344 79.765625 12.054688 79.878906 11.996094 79.96875 L 11.9375 80.054688 L 11.835938 80.046875 C 11.320312 80.015625 10.859375 79.628906 10.730469 79.128906 L 10.707031 79.03125 L 10.777344 78.960938 C 10.804688 78.933594 10.832031 78.890625 10.859375 78.84375 C 10.894531 78.78125 10.9375 78.710938 10.996094 78.652344 C 11.21875 78.433594 11.539062 78.125 11.941406 78.023438 C 11.632812 78.09375 11.324219 78.242188 11.070312 78.488281 Z M 29.234375 146.769531 L 29.503906 146.542969 C 28.882812 145.796875 27.785156 145.527344 26.890625 145.902344 L 27.023438 146.226562 C 27.769531 145.917969 28.71875 146.148438 29.234375 146.769531 Z M 30.15625 142.847656 L 30.503906 142.910156 C 30.605469 142.375 30.457031 141.65625 29.898438 141.34375 C 29.601562 141.175781 29.191406 141.203125 28.878906 141.410156 C 28.617188 141.582031 28.480469 141.851562 28.507812 142.125 L 28.859375 142.089844 C 28.839844 141.882812 29.003906 141.75 29.074219 141.703125 C 29.277344 141.570312 29.542969 141.550781 29.726562 141.652344 C 30.132812 141.878906 30.234375 142.429688 30.15625 142.847656 Z M 23.890625 149.332031 L 24.035156 149.011719 C 23.605469 148.8125 23.164062 148.609375 22.824219 148.28125 C 22.550781 148.015625 22.289062 147.570312 22.386719 147.121094 L 22.042969 147.046875 C 21.933594 147.542969 22.140625 148.113281 22.578125 148.535156 C 22.960938 148.902344 23.453125 149.128906 23.890625 149.332031 Z M 32.304688 134.414062 L 32.453125 134.09375 C 31.925781 133.855469 31.273438 133.941406 30.832031 134.316406 C 30.386719 134.6875 30.1875 135.3125 30.339844 135.871094 L 30.679688 135.78125 C 30.566406 135.359375 30.722656 134.867188 31.058594 134.585938 C 31.394531 134.300781 31.90625 134.234375 32.304688 134.414062 Z M 28.160156 149.46875 L 28.503906 149.378906 C 28.332031 148.710938 27.679688 148.203125 26.992188 148.195312 L 26.984375 148.546875 C 27.519531 148.554688 28.027344 148.949219 28.160156 149.46875 Z M 25.039062 142.902344 C 25.742188 142.632812 26.285156 142.085938 26.492188 141.441406 L 26.15625 141.335938 C 25.980469 141.878906 25.515625 142.339844 24.914062 142.570312 C 24.308594 142.800781 23.65625 142.769531 23.160156 142.480469 L 22.984375 142.785156 C 23.3125 142.976562 23.703125 143.074219 24.109375 143.074219 C 24.417969 143.074219 24.734375 143.019531 25.039062 142.902344 Z M 35.242188 154.207031 C 35.359375 154.207031 35.476562 154.199219 35.59375 154.183594 L 35.546875 153.835938 C 34.488281 153.976562 33.355469 153.34375 32.910156 152.371094 L 32.589844 152.519531 C 33.054688 153.535156 34.132812 154.207031 35.242188 154.207031 Z M 27.421875 76.164062 C 27.386719 75.867188 27.421875 75.5625 27.519531 75.28125 L 27.183594 75.167969 C 27.070312 75.496094 27.03125 75.855469 27.070312 76.203125 Z M 32.960938 126.179688 C 33.464844 126.386719 33.808594 126.859375 34.105469 127.339844 L 34.40625 127.152344 C 34.09375 126.648438 33.691406 126.097656 33.097656 125.851562 C 32.742188 125.703125 32.304688 125.707031 31.953125 125.859375 C 31.671875 125.984375 31.460938 126.195312 31.367188 126.457031 L 31.699219 126.578125 C 31.777344 126.359375 31.957031 126.246094 32.09375 126.183594 C 32.359375 126.066406 32.691406 126.066406 32.960938 126.179688 Z M 28.359375 76.265625 L 28.046875 76.105469 C 27.945312 76.300781 27.816406 76.484375 27.667969 76.644531 L 27.925781 76.886719 C 28.097656 76.699219 28.246094 76.492188 28.359375 76.265625 Z M 38.035156 120.304688 C 37.386719 120.007812 36.949219 119.304688 36.96875 118.59375 L 36.617188 118.585938 C 36.59375 119.433594 37.117188 120.269531 37.886719 120.625 Z M 23.511719 137.699219 L 23.703125 137.402344 C 22.945312 136.914062 21.898438 136.875 21.105469 137.304688 L 21.273438 137.617188 C 21.957031 137.242188 22.855469 137.277344 23.511719 137.699219 Z M 36.25 148.679688 L 36.601562 148.636719 C 36.539062 148.125 36.234375 147.652344 35.761719 147.335938 C 35.292969 147.019531 34.738281 146.914062 34.238281 147.046875 L 34.328125 147.386719 C 34.730469 147.28125 35.179688 147.367188 35.566406 147.628906 C 35.949219 147.886719 36.199219 148.269531 36.25 148.679688 Z M 17.039062 157.6875 C 14.671875 156.96875 12.207031 155.769531 9.515625 154.027344 C 8.960938 153.667969 8.4375 153.304688 8.128906 152.78125 C 7.851562 152.316406 7.78125 151.59375 8.191406 151.171875 L 7.9375 150.925781 C 7.398438 151.476562 7.472656 152.367188 7.824219 152.960938 C 8.171875 153.546875 8.730469 153.941406 9.324219 154.324219 C 12.042969 156.085938 14.535156 157.296875 16.9375 158.027344 Z M 100.835938 147.359375 L 101.046875 147.078125 C 95.238281 142.703125 87.753906 139.800781 78.796875 138.453125 C 70.839844 137.257812 62.675781 137.386719 54.78125 137.515625 L 54.789062 137.867188 C 62.667969 137.742188 70.816406 137.609375 78.742188 138.800781 C 87.640625 140.140625 95.074219 143.019531 100.835938 147.359375 Z M 59.25 148.765625 C 58.628906 147.980469 58.246094 147.179688 57.882812 146.238281 C 57.503906 145.25 56.929688 144.1875 55.910156 143.894531 C 55.65625 143.824219 55.375 143.808594 55.140625 143.921875 C 54.996094 143.992188 54.878906 144.101562 54.792969 144.230469 C 54.527344 144.609375 54.523438 145.125 54.683594 145.554688 C 54.847656 145.988281 55.152344 146.351562 55.480469 146.675781 C 56.371094 147.558594 57.941406 148.773438 59.25 148.765625 Z M 104.875 158.8125 L 105.207031 158.929688 C 105.867188 157.042969 106.210938 155.042969 106.242188 153.042969 C 107.972656 152.816406 109.574219 152.042969 111.121094 151.292969 C 111.394531 151.160156 111.664062 151.03125 111.933594 150.902344 C 115.066406 149.421875 118.378906 148.308594 121.777344 147.597656 L 121.703125 147.253906 C 118.28125 147.96875 114.941406 149.089844 111.78125 150.582031 C 111.511719 150.710938 111.238281 150.84375 110.96875 150.976562 C 109.460938 151.703125 107.902344 152.457031 106.246094 152.683594 C 106.246094 152.011719 106.207031 151.339844 106.132812 150.671875 L 105.78125 150.714844 C 106.089844 153.429688 105.777344 156.230469 104.875 158.8125 Z M 53.25 139.964844 C 53.183594 139.570312 52.898438 139.164062 52.496094 139.15625 C 52.183594 139.152344 51.914062 139.402344 51.796875 139.691406 C 51.679688 139.980469 51.683594 140.300781 51.695312 140.613281 C 51.71875 141.535156 51.742188 142.796875 52.445312 143.484375 C 52.734375 142.589844 53.429688 140.960938 53.25 139.964844 Z M 178.433594 126.316406 C 176.066406 133.847656 171.625 139.832031 165.230469 144.089844 C 159.90625 147.640625 154.25 149.433594 149.34375 150.824219 C 152.015625 158.519531 152.613281 172.789062 152.617188 172.933594 L 152.625 173.070312 L 152.496094 173.109375 C 136.457031 178.164062 121.929688 179.605469 110.570312 179.605469 C 95.613281 179.605469 86.160156 177.105469 85.996094 177.0625 L 85.921875 177.039062 L 85.886719 176.972656 C 85.882812 176.96875 85.882812 176.964844 85.878906 176.964844 C 79.207031 180.011719 70.285156 182.570312 58.378906 183.714844 C 17.699219 187.609375 7.609375 159.089844 6.632812 152.644531 C 6.449219 151.425781 7.5 149.179688 10.5 146.695312 C 10.691406 149.457031 11.492188 152.03125 13.210938 153.96875 C 15.613281 156.679688 19.371094 157.679688 22.929688 158.386719 C 46.914062 163.179688 72.59375 160.734375 94.46875 149.808594 C 84.863281 152.988281 69.140625 154.175781 59.363281 150.441406 C 56.769531 149.453125 54.082031 147.425781 52.410156 145.21875 C 50.3125 142.453125 50.238281 138.558594 48.617188 135.566406 C 49.050781 135.535156 49.484375 135.503906 49.929688 135.472656 C 49.90625 136.167969 49.988281 136.730469 50.289062 136.835938 C 50.539062 136.921875 51.085938 136.136719 51.53125 135.375 C 52.628906 135.3125 53.753906 135.261719 54.90625 135.21875 C 65.363281 134.824219 73.796875 135.160156 80.613281 135.9375 C 81.128906 120.492188 83.082031 106.449219 83.507812 103.535156 C 80.796875 106.320312 64.34375 122.519531 49.351562 121.636719 C 47.117188 121.507812 44.546875 120.949219 41.804688 119.605469 C 41.734375 119.429688 41.65625 119.261719 41.566406 119.09375 C 44.410156 120.550781 47.070312 121.152344 49.375 121.285156 C 65.144531 122.195312 82.632812 103.953125 83.589844 102.9375 C 83.75 99.285156 86.019531 90.875 86.835938 88.8125 L 87.164062 88.941406 C 86.367188 90.953125 84.269531 98.828125 83.972656 102.527344 L 84.027344 102.46875 L 83.941406 103.039062 C 83.917969 103.195312 81.539062 118.714844 80.96875 135.976562 C 84.382812 136.375 87.386719 136.886719 90.03125 137.472656 C 89.007812 122.648438 89.144531 104.292969 92.96875 86.28125 L 92.988281 86.1875 L 93.074219 86.152344 C 94.8125 85.453125 96.492188 84.640625 98.117188 83.722656 C 98.132812 83.847656 98.152344 83.972656 98.171875 84.097656 C 96.597656 84.980469 94.972656 85.765625 93.296875 86.445312 C 89.488281 104.433594 89.363281 122.765625 90.390625 137.554688 C 102.34375 140.273438 106.78125 144.527344 108.605469 146.800781 L 114.320312 145.351562 C 114.320312 145.351562 122.761719 142.5625 123.847656 144.75 C 123.875 144.613281 123.894531 144.472656 123.902344 144.332031 C 123.929688 143.9375 123.878906 143.625 123.75 143.375 C 123.601562 143.089844 123.324219 142.894531 123.054688 142.890625 L 123.058594 142.539062 C 123.460938 142.542969 123.855469 142.808594 124.066406 143.210938 C 124.226562 143.519531 124.289062 143.894531 124.257812 144.359375 C 124.226562 144.792969 124.117188 145.21875 123.953125 145.621094 C 123.589844 148.835938 117.59375 156.9375 116.304688 156.542969 C 114.894531 156.109375 113.449219 156.21875 113.449219 156.21875 C 109.363281 157.300781 104.96875 159.359375 104.96875 159.359375 C 104.96875 159.359375 102.058594 169.417969 86.292969 176.773438 C 88.9375 177.433594 116.894531 183.921875 152.257812 172.8125 C 152.191406 171.332031 151.523438 158.121094 148.992188 150.886719 C 148.035156 151.109375 147.195312 151.621094 146.308594 152.160156 C 145.566406 152.613281 144.796875 153.085938 143.949219 153.363281 C 143.535156 153.5 143.105469 153.589844 142.6875 153.675781 L 142.617188 153.328125 C 143.023438 153.246094 143.445312 153.15625 143.839844 153.027344 C 144.644531 152.761719 145.398438 152.300781 146.125 151.859375 C 147.023438 151.308594 147.957031 150.742188 149.011719 150.515625 L 149.019531 150.546875 L 149.066406 150.535156 C 157.269531 148.21875 172.535156 143.902344 178.097656 126.210938 C 181.378906 115.769531 178.679688 103.765625 170.492188 92.410156 C 163.402344 82.578125 152.960938 74.457031 143.238281 71.226562 C 138.800781 69.746094 134.210938 68.589844 129.601562 67.789062 L 129.664062 67.441406 C 134.289062 68.246094 138.894531 69.410156 143.351562 70.890625 C 153.140625 74.144531 163.648438 82.3125 170.777344 92.203125 C 179.03125 103.652344 181.753906 115.765625 178.433594 126.316406 Z M 125.113281 64.078125 C 124.085938 64.664062 123.265625 65.527344 122.472656 66.359375 C 121.875 66.984375 121.257812 67.632812 120.566406 68.148438 C 119.910156 68.636719 119.171875 69.023438 118.457031 69.398438 L 115.621094 70.882812 L 115.785156 71.195312 L 118.621094 69.710938 C 119.347656 69.328125 120.101562 68.9375 120.777344 68.433594 C 121.496094 67.894531 122.121094 67.238281 122.730469 66.601562 C 123.503906 65.789062 124.308594 64.945312 125.289062 64.386719 Z M 117.667969 47.488281 C 117.984375 47.164062 118.359375 46.980469 118.714844 46.960938 L 118.699219 46.609375 C 118.253906 46.628906 117.796875 46.855469 117.417969 47.238281 C 117.085938 47.574219 116.851562 47.976562 116.628906 48.363281 C 116.460938 48.644531 116.472656 48.890625 116.65625 49.023438 L 116.867188 48.742188 C 116.859375 48.726562 116.871094 48.644531 116.933594 48.539062 C 117.148438 48.171875 117.371094 47.789062 117.667969 47.488281 Z M 121.109375 116.832031 C 121.40625 117.027344 121.878906 116.90625 122.105469 116.582031 C 122.339844 116.238281 122.28125 115.515625 121.980469 115.070312 C 121.84375 114.867188 121.609375 114.648438 121.257812 114.726562 C 120.886719 114.808594 120.765625 115.25 120.734375 115.4375 C 120.632812 115.992188 120.800781 116.632812 121.109375 116.832031 Z M 120.386719 115.371094 C 120.484375 114.835938 120.773438 114.472656 121.179688 114.382812 C 121.601562 114.289062 122 114.46875 122.273438 114.871094 C 122.660156 115.445312 122.714844 116.320312 122.394531 116.78125 C 122.175781 117.101562 121.800781 117.28125 121.441406 117.28125 C 121.253906 117.28125 121.070312 117.230469 120.914062 117.128906 C 120.4375 116.816406 120.269531 115.992188 120.386719 115.371094 Z M 119.34375 87.140625 C 119.675781 87.035156 119.945312 86.714844 120.011719 86.351562 C 120.074219 86.003906 119.902344 85.507812 119.609375 85.167969 C 119.402344 84.929688 119.164062 84.796875 118.929688 84.796875 C 118.925781 84.796875 118.917969 84.796875 118.914062 84.800781 C 118.597656 84.808594 118.390625 85.027344 118.277344 85.210938 C 118.027344 85.597656 117.953125 86.175781 118.105469 86.527344 C 118.304688 87 118.882812 87.289062 119.34375 87.140625 Z M 119.089844 87.53125 C 118.550781 87.53125 118 87.1875 117.777344 86.667969 C 117.582031 86.203125 117.664062 85.511719 117.976562 85.019531 C 118.207031 84.660156 118.535156 84.457031 118.902344 84.445312 C 119.238281 84.445312 119.59375 84.609375 119.875 84.9375 C 120.242188 85.355469 120.441406 85.964844 120.359375 86.414062 C 120.269531 86.902344 119.90625 87.332031 119.449219 87.476562 C 119.332031 87.515625 119.210938 87.53125 119.089844 87.53125 Z M 122.402344 132.972656 C 122.457031 133.140625 122.523438 133.308594 122.644531 133.394531 C 122.816406 133.515625 123.070312 133.449219 123.234375 133.335938 C 123.519531 133.140625 123.679688 132.765625 123.65625 132.351562 C 123.628906 131.945312 123.433594 131.605469 123.128906 131.449219 C 122.980469 131.371094 122.855469 131.332031 122.75 131.332031 C 122.664062 131.332031 122.589844 131.359375 122.535156 131.40625 C 122.234375 131.660156 122.25 132.519531 122.402344 132.972656 Z M 122.066406 133.085938 C 121.910156 132.628906 121.820312 131.554688 122.304688 131.136719 C 122.476562 130.992188 122.785156 130.871094 123.292969 131.132812 C 123.707031 131.351562 123.976562 131.796875 124.007812 132.328125 C 124.042969 132.863281 123.824219 133.363281 123.433594 133.628906 C 123.277344 133.738281 123.070312 133.8125 122.863281 133.8125 C 122.714844 133.8125 122.566406 133.773438 122.4375 133.679688 C 122.230469 133.535156 122.136719 133.296875 122.066406 133.085938 Z M 103.53125 76.746094 L 103.707031 76.4375 C 103.398438 76.269531 103.125 75.972656 102.894531 75.5625 C 102.765625 75.339844 102.699219 75.167969 102.675781 75.003906 C 102.652344 74.8125 102.6875 74.609375 102.722656 74.4375 C 102.796875 74.085938 102.910156 73.742188 103.058594 73.414062 C 103.125 73.269531 103.199219 73.125 103.304688 73.015625 C 103.40625 72.914062 103.539062 72.859375 103.644531 72.871094 L 103.675781 72.515625 C 103.460938 72.5 103.234375 72.589844 103.054688 72.765625 C 102.910156 72.914062 102.816406 73.09375 102.738281 73.269531 C 102.65625 73.445312 102.585938 73.628906 102.523438 73.816406 C 102.097656 73.953125 101.675781 74.117188 101.269531 74.300781 C 101.054688 74.402344 100.800781 74.523438 100.566406 74.6875 C 100.136719 74.988281 99.792969 75.394531 99.582031 75.871094 L 99.902344 76.019531 C 100.089844 75.601562 100.390625 75.242188 100.765625 74.980469 C 100.980469 74.832031 101.214844 74.714844 101.417969 74.621094 C 101.742188 74.476562 102.074219 74.347656 102.410156 74.230469 C 102.402344 74.273438 102.382812 74.320312 102.375 74.367188 C 102.332031 74.566406 102.292969 74.804688 102.328125 75.050781 C 102.363281 75.320312 102.484375 75.558594 102.585938 75.738281 C 102.851562 76.203125 103.167969 76.542969 103.53125 76.746094 Z M 119.460938 65.261719 L 119.535156 65.605469 C 119.910156 65.527344 120.253906 65.28125 120.449219 64.953125 C 120.648438 64.625 120.703125 64.210938 120.597656 63.839844 L 120.257812 63.9375 C 120.335938 64.214844 120.292969 64.523438 120.144531 64.773438 C 120 65.019531 119.742188 65.203125 119.460938 65.261719 Z M 130.230469 156.132812 L 129.980469 155.882812 C 128.773438 157.074219 127.433594 158.128906 125.996094 159.023438 L 126.183594 159.324219 C 127.644531 158.414062 129.007812 157.339844 130.230469 156.132812 Z M 119.121094 158.3125 L 119.28125 158.628906 C 121.742188 157.390625 123.695312 155.199219 124.644531 152.617188 L 124.3125 152.496094 C 123.394531 154.996094 121.503906 157.113281 119.121094 158.3125 Z M 126.980469 155.324219 L 126.695312 155.113281 C 125.589844 156.589844 124.164062 157.863281 122.566406 158.792969 L 122.746094 159.097656 C 124.382812 158.144531 125.847656 156.839844 126.980469 155.324219 Z M 114.808594 13.976562 C 114.644531 13.3125 114.652344 12.613281 114.835938 11.953125 L 114.496094 11.859375 C 114.296875 12.578125 114.285156 13.339844 114.464844 14.0625 Z M 131.519531 22.9375 L 131.636719 22.601562 C 129.082031 21.714844 126.996094 19.449219 126.324219 16.828125 C 126.1875 16.292969 126.148438 15.890625 126.195312 15.519531 L 125.84375 15.476562 C 125.773438 16.007812 125.878906 16.527344 125.980469 16.917969 C 126.691406 19.6875 128.8125 21.996094 131.519531 22.9375 Z M 129.917969 36.042969 L 129.707031 36.328125 C 130.398438 36.828125 131.257812 37.089844 132.113281 37.089844 C 132.511719 37.089844 132.910156 37.035156 133.292969 36.914062 L 133.1875 36.578125 C 132.09375 36.917969 130.84375 36.710938 129.917969 36.042969 Z M 101.597656 84.351562 C 101.492188 85.75 101.308594 87.195312 100.417969 88.191406 L 100.679688 88.425781 C 101.648438 87.347656 101.839844 85.835938 101.953125 84.378906 L 101.992188 83.832031 C 102.136719 81.890625 102.289062 79.882812 102.992188 78.058594 L 102.660156 77.933594 C 101.941406 79.804688 101.785156 81.839844 101.640625 83.808594 Z M 91.890625 30.867188 C 95.046875 28.488281 99.101562 27.1875 103.371094 27.1875 C 103.460938 27.1875 103.554688 27.1875 103.648438 27.1875 C 103.703125 27.191406 103.753906 27.191406 103.808594 27.195312 L 103.96875 27.207031 C 105.570312 27.773438 107.238281 28.257812 108.851562 28.726562 C 110.105469 29.089844 111.402344 29.46875 112.640625 29.875 L 112.886719 29.957031 C 114.285156 30.414062 115.730469 30.890625 117.089844 31.503906 C 118.15625 32.214844 118.996094 32.921875 119.683594 33.679688 C 120.742188 34.847656 121.5 36.222656 122.0625 37.5625 C 123.203125 38.167969 124.042969 39.351562 124.136719 40.652344 C 124.167969 41.042969 124.132812 41.433594 124.101562 41.8125 C 124.078125 42.09375 124.054688 42.386719 124.058594 42.671875 C 124.066406 43.550781 124.34375 44.433594 124.839844 45.160156 L 124.550781 45.359375 C 124.011719 44.574219 123.714844 43.625 123.703125 42.675781 C 123.699219 42.375 123.722656 42.074219 123.75 41.78125 C 123.78125 41.402344 123.8125 41.042969 123.785156 40.679688 C 123.707031 39.652344 123.121094 38.703125 122.285156 38.113281 C 122.667969 39.117188 122.949219 40.078125 123.164062 40.890625 C 123.804688 43.347656 124.054688 45.335938 123.949219 47.148438 C 123.859375 48.679688 123.453125 50.851562 122.058594 52.710938 C 123.453125 52.09375 125.769531 47.007812 127.578125 40.441406 L 127.617188 40.300781 L 127.621094 40.300781 C 128.3125 37.894531 129.144531 33.242188 129.390625 31.851562 C 127.09375 33.292969 125.175781 33.222656 123.382812 31.648438 C 122.203125 30.613281 121.457031 29.152344 120.800781 27.867188 C 120.441406 27.160156 120.15625 26.382812 119.878906 25.628906 C 119.253906 23.929688 118.664062 22.324219 117.285156 21.390625 C 112.261719 17.992188 106.0625 16.777344 100.273438 18.058594 C 99.332031 18.320312 97.332031 21.390625 96.574219 22.664062 L 96.582031 22.675781 L 96.507812 22.773438 C 95.058594 24.734375 93.738281 26.691406 92.164062 29.039062 C 91.867188 29.480469 91.714844 30.296875 91.890625 30.867188 Z M 96.367188 22.316406 C 96.917969 21.410156 98.601562 18.730469 99.777344 17.925781 C 99.476562 17.808594 99.1875 17.582031 98.949219 17.257812 C 98.808594 17.070312 98.6875 16.867188 98.574219 16.667969 C 98.453125 16.46875 98.34375 16.273438 98.207031 16.097656 L 98.492188 15.882812 C 98.636719 16.078125 98.761719 16.289062 98.878906 16.492188 C 98.992188 16.6875 99.101562 16.875 99.230469 17.046875 C 99.371094 17.234375 99.742188 17.660156 100.222656 17.660156 C 100.226562 17.660156 100.226562 17.660156 100.230469 17.660156 L 100.230469 17.707031 C 102.039062 17.3125 103.886719 17.152344 105.726562 17.226562 C 105.65625 17.121094 105.601562 17 105.5625 16.890625 C 105.386719 16.40625 105.289062 15.902344 105.277344 15.390625 L 105.628906 15.378906 C 105.644531 15.851562 105.734375 16.320312 105.894531 16.769531 C 105.953125 16.929688 106.023438 17.085938 106.144531 17.167969 L 106.089844 17.246094 C 110.023438 17.46875 113.902344 18.738281 117.277344 20.964844 C 116.726562 19.953125 116.074219 18.996094 115.324219 18.117188 C 114.777344 17.488281 114.035156 16.726562 113.089844 16.449219 L 113.191406 16.109375 C 114.226562 16.414062 115.015625 17.21875 115.589844 17.886719 C 116.507812 18.953125 117.285156 20.132812 117.90625 21.394531 L 117.875 21.40625 C 119.074219 22.429688 119.652344 23.992188 120.210938 25.507812 C 120.484375 26.253906 120.765625 27.019531 121.117188 27.707031 C 121.757812 28.964844 122.488281 30.390625 123.617188 31.382812 C 125.382812 32.933594 127.207031 32.921875 129.53125 31.335938 L 129.574219 31.308594 C 129.726562 30.964844 130.074219 30.675781 130.578125 30.488281 C 131.546875 30.125 132.644531 30.148438 133.59375 30.554688 L 133.457031 30.878906 C 132.589844 30.507812 131.585938 30.484375 130.703125 30.816406 C 130.421875 30.921875 129.941406 31.164062 129.851562 31.585938 L 129.796875 31.574219 C 129.6875 32.203125 128.753906 37.597656 127.984375 40.320312 C 128.425781 40.34375 128.859375 40.320312 129.273438 40.25 C 131.703125 39.835938 133.605469 38.164062 134.773438 36.835938 C 135.1875 36.367188 135.699219 35.738281 135.996094 35 C 136.761719 33.117188 136.828125 30.46875 136.148438 28.835938 L 136.144531 28.828125 C 135.796875 28.878906 135.421875 28.921875 135.039062 28.921875 C 134.753906 28.921875 134.46875 28.898438 134.1875 28.835938 C 133.390625 28.667969 132.746094 28.195312 132.460938 27.582031 L 132.78125 27.433594 C 133.023438 27.949219 133.574219 28.34375 134.261719 28.492188 C 134.925781 28.632812 135.625 28.546875 136.234375 28.457031 C 136.761719 26.796875 135.714844 24.953125 134.609375 23.84375 C 134.050781 23.28125 133.414062 22.777344 132.796875 22.289062 C 131.960938 21.625 131.09375 20.9375 130.398438 20.097656 C 129.097656 18.519531 128.457031 16.480469 127.890625 14.679688 C 127.789062 14.363281 127.695312 14.035156 127.601562 13.703125 C 127.15625 12.144531 126.695312 10.53125 125.503906 9.617188 C 124.558594 8.894531 123.273438 8.535156 121.460938 8.492188 C 120.03125 8.457031 118.605469 8.59375 117.214844 8.890625 C 116.964844 8.945312 116.714844 9.003906 116.464844 9.0625 C 115.519531 9.285156 114.542969 9.519531 113.546875 9.453125 C 112.441406 9.382812 111.40625 8.953125 110.410156 8.539062 C 109.621094 8.210938 108.804688 7.875 107.964844 7.71875 C 105.25 7.226562 102.320312 8.910156 101.363281 11.488281 C 101.816406 11.109375 102.503906 10.953125 103.410156 11.027344 C 105.453125 11.195312 107.410156 12.046875 108.921875 13.433594 L 108.679688 13.695312 C 107.226562 12.363281 105.347656 11.539062 103.378906 11.378906 C 102.472656 11.304688 101.824219 11.472656 101.460938 11.882812 L 101.261719 11.707031 L 101.191406 11.722656 C 98.425781 12.433594 95.847656 15.113281 95.453125 17.699219 C 95.214844 19.234375 95.550781 20.898438 96.367188 22.316406 Z M 113.851562 45.914062 C 112.835938 45.921875 112.304688 43.132812 111.933594 42.589844 C 112.136719 43.027344 112.105469 43.53125 112.144531 44.011719 C 112.1875 44.472656 112.296875 44.925781 112.476562 45.355469 C 112.527344 45.480469 112.585938 45.605469 112.679688 45.703125 C 112.90625 45.9375 113.265625 45.972656 113.589844 45.988281 C 113.683594 45.992188 113.945312 45.914062 113.851562 45.914062 Z M 111.625 43.0625 C 111.582031 42.714844 111.503906 42.378906 111.351562 42.066406 C 111.035156 41.425781 110.445312 40.988281 109.785156 40.675781 C 109.84375 40.757812 109.898438 40.832031 109.949219 40.90625 C 110.0625 41.078125 110.171875 41.25 110.285156 41.425781 C 110.539062 41.828125 110.804688 42.246094 111.128906 42.601562 C 111.28125 42.769531 111.445312 42.921875 111.625 43.0625 Z M 120.78125 54.992188 C 120.78125 54.992188 120.707031 57.722656 119.042969 58.246094 C 119.980469 58.269531 121.480469 56.65625 120.78125 54.992188 Z M 89.363281 32.109375 C 88.730469 32.109375 88.207031 31.957031 87.808594 31.652344 L 88.023438 31.371094 C 88.554688 31.777344 89.296875 31.789062 89.828125 31.730469 C 90.457031 31.660156 91.074219 31.46875 91.640625 31.1875 C 91.304688 30.488281 91.480469 29.421875 91.871094 28.839844 C 93.421875 26.527344 94.726562 24.597656 96.152344 22.660156 C 95.226562 21.140625 94.84375 19.320312 95.101562 17.648438 C 95.523438 14.914062 98.109375 12.195312 101.011719 11.40625 C 102.007812 8.648438 105.132812 6.84375 108.03125 7.375 C 108.902344 7.535156 109.738281 7.878906 110.546875 8.214844 C 111.5625 8.636719 112.523438 9.035156 113.570312 9.101562 C 114.507812 9.164062 115.464844 8.9375 116.382812 8.71875 C 116.636719 8.660156 116.886719 8.601562 117.140625 8.546875 C 118.5625 8.242188 120.019531 8.105469 121.46875 8.136719 C 123.359375 8.183594 124.710938 8.566406 125.71875 9.339844 C 127.003906 10.324219 127.480469 11.992188 127.941406 13.605469 C 128.035156 13.9375 128.128906 14.261719 128.226562 14.574219 C 128.785156 16.34375 129.414062 18.351562 130.671875 19.871094 C 131.347656 20.683594 132.195312 21.359375 133.015625 22.011719 C 133.640625 22.507812 134.285156 23.019531 134.859375 23.59375 C 136.140625 24.878906 137.234375 26.90625 136.503906 28.769531 C 137.289062 30.730469 137.011719 33.445312 136.324219 35.132812 C 136.003906 35.917969 135.46875 36.582031 135.039062 37.070312 C 133.832031 38.441406 131.863281 40.164062 129.332031 40.597656 C 128.863281 40.679688 128.378906 40.703125 127.882812 40.671875 C 126.183594 46.78125 123.59375 53.125 121.773438 53.128906 C 121.722656 53.128906 121.671875 53.121094 121.621094 53.113281 L 121.546875 53.097656 C 121.570312 53.910156 121.980469 54.714844 122.652344 55.171875 L 122.453125 55.464844 C 121.761719 54.996094 121.320312 54.203125 121.214844 53.375 C 121.011719 53.714844 120.953125 54.148438 121.023438 54.566406 C 121.136719 55.199219 121.367188 55.820312 121.3125 56.457031 C 121.246094 57.199219 120.769531 57.894531 120.097656 58.214844 C 119.308594 58.59375 118.390625 58.464844 117.519531 58.523438 C 117.453125 58.527344 117.386719 58.539062 117.324219 58.542969 C 116.851562 56.617188 116.527344 54.714844 116.570312 53.21875 C 116.570312 53.21875 122.511719 52.917969 121.363281 47.394531 C 120.953125 45.398438 117.179688 44.351562 114.648438 46.300781 C 113.867188 46.902344 112.722656 46.808594 112.167969 45.992188 C 111.773438 45.414062 111.71875 44.691406 111.6875 44 C 111.683594 43.84375 111.675781 43.6875 111.667969 43.527344 C 111.375 43.332031 111.101562 43.101562 110.863281 42.839844 C 110.523438 42.460938 110.25 42.03125 109.984375 41.613281 C 109.875 41.445312 109.769531 41.273438 109.65625 41.105469 C 109.503906 40.882812 109.324219 40.636719 109.113281 40.410156 C 109.097656 40.40625 109.082031 40.398438 109.070312 40.394531 C 108.148438 40.089844 107.171875 39.917969 106.328125 39.445312 C 105.621094 39.046875 105.015625 38.355469 104.90625 37.578125 C 104.867188 37.878906 104.855469 38.15625 104.894531 38.433594 C 104.933594 38.722656 105.035156 38.984375 105.175781 39.199219 C 105.175781 39.199219 105.179688 39.199219 105.183594 39.203125 L 105.179688 39.210938 C 105.292969 39.375 105.425781 39.515625 105.582031 39.609375 L 105.394531 39.910156 C 105.230469 39.808594 105.085938 39.675781 104.964844 39.519531 C 103.722656 39.261719 102.382812 39.445312 101.265625 40.039062 C 100.105469 40.65625 99.175781 41.710938 98.710938 42.9375 L 98.382812 42.8125 C 98.875 41.507812 99.867188 40.382812 101.101562 39.726562 C 102.195312 39.144531 103.492188 38.933594 104.722656 39.117188 C 104.636719 38.921875 104.574219 38.710938 104.542969 38.480469 C 104.496094 38.144531 104.515625 37.800781 104.5625 37.46875 C 104.117188 37.757812 103.414062 37.785156 102.878906 37.804688 C 102.175781 37.828125 101.488281 37.636719 100.789062 37.5625 C 99.351562 37.40625 97.867188 37.746094 96.640625 38.511719 C 96.277344 38.738281 95.929688 39.003906 95.535156 39.167969 C 94.757812 39.484375 93.863281 39.378906 93.074219 39.089844 C 92.390625 38.835938 91.554688 38.355469 90.863281 38.59375 C 89.730469 38.011719 88.988281 34.007812 90.984375 31.835938 C 90.621094 31.953125 90.246094 32.039062 89.867188 32.082031 C 89.691406 32.101562 89.523438 32.109375 89.363281 32.109375 Z M 130.277344 152.871094 C 130.066406 152.726562 129.929688 152.484375 129.789062 152.226562 C 129.757812 152.167969 129.726562 152.109375 129.695312 152.054688 C 129.183594 151.171875 128.117188 150.324219 126.988281 150.550781 L 127.058594 150.898438 C 128.019531 150.703125 128.9375 151.453125 129.386719 152.230469 C 129.417969 152.285156 129.449219 152.339844 129.480469 152.394531 C 129.636719 152.679688 129.796875 152.96875 130.078125 153.164062 C 130.339844 153.339844 130.640625 153.390625 130.929688 153.4375 C 131.082031 153.464844 131.222656 153.488281 131.359375 153.527344 C 132.132812 153.757812 132.625 154.542969 133.058594 155.324219 L 133.371094 155.152344 C 132.898438 154.308594 132.359375 153.457031 131.460938 153.1875 C 131.304688 153.140625 131.144531 153.117188 130.988281 153.089844 C 130.722656 153.046875 130.476562 153.003906 130.277344 152.871094 Z M 135.679688 97.59375 L 135.558594 97.261719 C 134.570312 97.632812 133.480469 97.648438 132.480469 97.316406 L 132.367188 97.648438 C 132.878906 97.820312 133.414062 97.90625 133.945312 97.90625 C 134.535156 97.90625 135.125 97.800781 135.679688 97.59375 Z M 119.265625 102.785156 C 119.542969 103.097656 120.074219 103.253906 120.425781 102.996094 C 120.726562 102.773438 120.847656 102.179688 120.703125 101.613281 C 120.589844 101.15625 120.332031 100.859375 120.023438 100.8125 C 119.976562 100.808594 119.933594 100.804688 119.886719 100.804688 C 119.472656 100.804688 119.25 101.09375 119.152344 101.28125 C 118.898438 101.761719 118.945312 102.4375 119.265625 102.785156 Z M 119.003906 103.023438 C 118.585938 102.5625 118.515625 101.722656 118.839844 101.113281 C 119.097656 100.628906 119.546875 100.390625 120.074219 100.464844 C 120.53125 100.527344 120.894531 100.925781 121.046875 101.527344 C 121.195312 102.113281 121.132812 102.914062 120.636719 103.28125 C 120.445312 103.417969 120.230469 103.476562 120.011719 103.476562 C 119.628906 103.476562 119.242188 103.292969 119.003906 103.023438 Z M 144.675781 128.128906 C 149.148438 126.3125 159.007812 122.230469 160.320312 117.417969 C 163.835938 104.539062 141.335938 96.585938 138.152344 95.53125 C 141.179688 102.761719 144.402344 123.136719 144.675781 128.128906 Z M 131.085938 137.570312 C 131.296875 135.671875 132.800781 134.371094 133.679688 133.761719 C 134.429688 133.246094 135.488281 132.882812 136.515625 132.53125 C 137.265625 132.273438 137.972656 132.03125 138.535156 131.742188 C 140.457031 130.753906 142.445312 129.734375 144.332031 128.304688 C 144.117188 123.554688 140.789062 102.398438 137.707031 95.390625 C 135.566406 94.886719 133.28125 93.707031 131.421875 92.140625 L 131.648438 91.871094 C 133.390625 93.335938 135.511719 94.453125 137.523438 94.976562 L 137.515625 94.960938 L 137.886719 95.074219 C 137.953125 95.09375 144.605469 97.152344 150.699219 100.914062 C 158.816406 105.917969 162.261719 111.660156 160.664062 117.511719 C 159.28125 122.566406 149.007812 126.75 144.597656 128.542969 C 142.671875 130.015625 140.652344 131.050781 138.695312 132.054688 C 138.109375 132.355469 137.390625 132.601562 136.632812 132.863281 C 135.628906 133.207031 134.589844 133.5625 133.878906 134.054688 C 133.050781 134.625 131.636719 135.847656 131.441406 137.605469 Z M 97.582031 19.523438 C 97.242188 19.167969 96.898438 18.777344 96.671875 18.316406 C 96.429688 17.835938 96.359375 17.339844 96.472656 16.917969 L 96.128906 16.828125 C 95.996094 17.332031 96.078125 17.917969 96.351562 18.472656 C 96.601562 18.976562 96.96875 19.390625 97.328125 19.769531 Z M 96.054688 47.890625 C 95.824219 48.691406 95.589844 49.519531 95.847656 50.339844 C 96.105469 51.15625 96.882812 51.789062 97.738281 51.878906 L 97.773438 51.527344 C 97.054688 51.453125 96.402344 50.917969 96.183594 50.234375 C 95.957031 49.515625 96.171875 48.773438 96.394531 47.988281 C 96.492188 47.648438 96.59375 47.296875 96.65625 46.945312 C 96.851562 45.84375 96.667969 44.738281 96.441406 43.707031 L 96.09375 43.78125 C 96.316406 44.777344 96.492188 45.84375 96.308594 46.882812 C 96.246094 47.214844 96.148438 47.558594 96.054688 47.890625 Z M 44.824219 155.519531 L 44.945312 155.851562 C 45.699219 155.578125 46.570312 155.695312 47.222656 156.164062 L 47.429688 155.875 C 46.683594 155.34375 45.683594 155.207031 44.824219 155.519531 Z M 49.1875 100.714844 C 54.453125 100.714844 60.386719 95.226562 67.261719 88.875 C 68.988281 87.277344 70.773438 85.625 72.644531 83.96875 C 78.324219 78.9375 85.328125 74.171875 91.378906 71.210938 L 91.222656 70.894531 C 85.144531 73.867188 78.113281 78.65625 72.410156 83.703125 C 70.535156 85.363281 68.746094 87.015625 67.019531 88.617188 C 60.203125 94.917969 54.316406 100.363281 49.1875 100.363281 C 43.457031 100.363281 38.085938 93.757812 34.96875 87.578125 L 34.652344 87.738281 C 37.816406 94.011719 43.292969 100.714844 49.1875 100.714844 Z M 42.714844 149.078125 C 42.507812 149.476562 42.527344 149.980469 42.765625 150.425781 C 43.003906 150.867188 43.414062 151.164062 43.863281 151.210938 L 43.902344 150.859375 C 43.566406 150.824219 43.261719 150.597656 43.078125 150.257812 C 42.894531 149.917969 42.875 149.539062 43.03125 149.242188 Z M 54.550781 102.980469 C 55.714844 103.894531 56.503906 105.261719 56.71875 106.726562 L 57.066406 106.675781 C 56.839844 105.125 56.003906 103.675781 54.773438 102.703125 Z M 41.355469 154.863281 C 41.09375 154.40625 41.09375 153.699219 41.550781 153.34375 L 41.332031 153.066406 C 40.726562 153.535156 40.710938 154.457031 41.050781 155.039062 C 41.433594 155.703125 42.152344 156.039062 42.6875 156.203125 L 42.789062 155.867188 C 42.316406 155.71875 41.683594 155.425781 41.355469 154.863281 Z M 43.242188 131.308594 L 43.59375 131.277344 C 43.519531 130.4375 44.023438 129.578125 44.796875 129.234375 L 44.652344 128.910156 C 43.746094 129.3125 43.152344 130.320312 43.242188 131.308594 Z M 40.101562 130.121094 C 39.894531 130.710938 39.972656 131.394531 40.316406 131.992188 C 40.660156 132.589844 41.210938 133 41.824219 133.121094 L 41.894531 132.773438 C 41.378906 132.675781 40.914062 132.324219 40.621094 131.816406 C 40.332031 131.308594 40.261719 130.730469 40.433594 130.238281 Z M 44.089844 137.160156 L 44.171875 137.503906 C 44.503906 137.421875 44.886719 137.59375 45.046875 137.894531 C 45.207031 138.191406 45.136719 138.601562 44.886719 138.832031 L 45.128906 139.09375 C 45.496094 138.753906 45.59375 138.167969 45.359375 137.726562 C 45.121094 137.285156 44.574219 137.042969 44.089844 137.160156 Z M 48.609375 148.261719 C 48.960938 147.648438 48.871094 146.820312 48.402344 146.292969 L 48.140625 146.527344 C 48.511719 146.945312 48.578125 147.601562 48.300781 148.085938 Z M 44.5625 143.324219 C 44.117188 143.492188 43.734375 143.890625 43.582031 144.34375 C 43.464844 144.699219 43.5 145.054688 43.6875 145.335938 L 43.984375 145.140625 C 43.824219 144.898438 43.859375 144.632812 43.917969 144.457031 C 44.035156 144.097656 44.339844 143.785156 44.6875 143.65625 C 45.304688 143.425781 45.988281 143.566406 46.753906 143.761719 L 46.839844 143.417969 C 46.046875 143.21875 45.277344 143.058594 44.5625 143.324219 Z M 107.546875 57.53125 L 107.222656 57.390625 C 106.796875 58.359375 105.855469 59.019531 105.183594 59.429688 C 103.277344 60.597656 101.167969 61.238281 99.082031 61.28125 L 99.085938 61.632812 C 101.238281 61.589844 103.410156 60.933594 105.371094 59.730469 C 106.082031 59.296875 107.082031 58.59375 107.546875 57.53125 Z M 98.078125 66.066406 L 97.886719 65.773438 C 97.660156 65.921875 97.527344 66.199219 97.523438 66.515625 C 97.523438 66.765625 97.597656 66.992188 97.675781 67.238281 C 97.742188 67.457031 97.800781 67.652344 97.789062 67.84375 L 98.140625 67.867188 C 98.15625 67.613281 98.089844 67.375 98.003906 67.109375 C 97.941406 66.902344 97.878906 66.710938 97.878906 66.515625 C 97.878906 66.363281 97.933594 66.164062 98.078125 66.066406 Z M 101.972656 52.597656 L 101.617188 52.632812 C 101.703125 53.535156 100.835938 54.269531 100.074219 54.621094 C 98.859375 55.183594 97.421875 55.304688 96.132812 54.949219 C 95.851562 54.875 95.699219 54.777344 95.65625 54.648438 L 95.320312 54.765625 C 95.4375 55.09375 95.785156 55.222656 96.039062 55.292969 C 96.554688 55.433594 97.09375 55.503906 97.636719 55.503906 C 98.527344 55.503906 99.417969 55.3125 100.222656 54.941406 C 101.089844 54.539062 102.070312 53.683594 101.972656 52.597656 Z M 94.597656 71.605469 C 95.878906 72.40625 97.351562 72.902344 98.855469 73.039062 L 98.886719 72.6875 C 97.4375 72.554688 96.019531 72.078125 94.789062 71.308594 Z M 39.003906 140.871094 C 38.992188 140.980469 39.042969 141.082031 39.144531 141.136719 L 39.316406 140.832031 C 39.347656 140.847656 39.363281 140.898438 39.351562 140.921875 C 39.363281 140.898438 39.414062 140.851562 39.457031 140.839844 C 40.460938 140.558594 41.636719 141.175781 41.96875 142.160156 L 42.304688 142.050781 C 41.914062 140.894531 40.535156 140.167969 39.359375 140.5 C 39.203125 140.542969 39.023438 140.699219 39.003906 140.871094 Z M 95.113281 67.328125 C 94.859375 68.492188 95.238281 69.789062 96.078125 70.636719 C 96.226562 70.785156 96.382812 70.917969 96.539062 71.050781 C 96.800781 71.269531 97.046875 71.480469 97.230469 71.742188 L 97.519531 71.542969 C 97.3125 71.242188 97.035156 71.007812 96.769531 70.78125 C 96.621094 70.65625 96.464844 70.523438 96.332031 70.386719 C 95.570312 69.625 95.230469 68.453125 95.457031 67.402344 Z M 93.59375 43.269531 C 92.738281 42.152344 91.621094 41.953125 91.179688 41.917969 L 91.152344 42.269531 C 91.546875 42.304688 92.542969 42.480469 93.3125 43.484375 Z M 107.019531 44.234375 L 107.273438 43.992188 C 107.246094 43.964844 104.546875 41.183594 101.917969 42.601562 C 99.371094 43.976562 99.148438 45.820312 99.289062 47.605469 L 99.464844 47.589844 C 100.855469 47.847656 102.011719 47.78125 102.976562 47.539062 C 103.5 46.957031 103.820312 46.1875 103.820312 45.34375 C 103.820312 44.273438 103.304688 43.324219 102.515625 42.722656 C 104.765625 41.921875 106.996094 44.210938 107.019531 44.234375 Z M 48.90625 139.488281 C 48.667969 138.675781 48.132812 138.046875 47.476562 137.808594 L 47.355469 138.144531 C 47.90625 138.34375 48.359375 138.878906 48.566406 139.585938 C 48.761719 140.257812 48.734375 140.988281 48.710938 141.632812 L 49.0625 141.644531 C 49.085938 141.007812 49.121094 140.214844 48.90625 139.488281 Z M 105.066406 78.734375 C 104.742188 79.058594 104.40625 79.367188 104.058594 79.65625 C 104.039062 79.832031 104.011719 80.003906 103.988281 80.179688 C 104.398438 79.84375 104.8125 79.484375 105.207031 79.097656 C 105.15625 78.976562 105.109375 78.855469 105.066406 78.734375 Z M 93.769531 48.378906 C 93.820312 48.140625 93.851562 47.902344 93.851562 47.660156 C 93.851562 46.921875 93.640625 46.207031 93.308594 45.542969 C 92.859375 45.167969 92.300781 44.859375 91.589844 44.609375 C 91.800781 45.757812 92.078125 47.203125 92.273438 48.320312 C 92.714844 48.445312 93.253906 48.460938 93.769531 48.378906 Z M 105.214844 75.183594 C 105.011719 75.527344 104.789062 76.0625 104.867188 76.636719 L 104.515625 76.683594 C 104.421875 76.011719 104.679688 75.398438 104.910156 75.003906 C 105.207031 74.496094 105.628906 74.054688 105.96875 73.703125 C 106.179688 73.476562 106.4375 73.238281 106.777344 73.238281 C 108.324219 73.246094 109.542969 74.417969 110.621094 75.453125 L 110.921875 75.738281 L 110.675781 75.996094 L 110.375 75.707031 C 109.296875 74.671875 108.179688 73.597656 106.777344 73.59375 C 106.578125 73.59375 106.394531 73.765625 106.222656 73.945312 C 105.808594 74.378906 105.46875 74.746094 105.214844 75.183594 " fill-opacity="1" fill-rule="nonzero"/></g></svg>