<svg xmlns="http://www.w3.org/2000/svg" xmlns:xlink="http://www.w3.org/1999/xlink" width="256" zoomAndPan="magnify" viewBox="0 0 192 191.999996" height="256" preserveAspectRatio="xMidYMid meet" version="1.0"><defs><g/><clipPath id="4f9002fbe1"><path d="M 103 32.554688 L 108 32.554688 L 108 53 L 103 53 Z M 103 32.554688 " clip-rule="nonzero"/></clipPath><clipPath id="0075173778"><path d="M 103 32.554688 L 108 32.554688 L 108 54 L 103 54 Z M 103 32.554688 " clip-rule="nonzero"/></clipPath><clipPath id="a3fda7fbc1"><path d="M 86 32.554688 L 100 32.554688 L 100 61 L 86 61 Z M 86 32.554688 " clip-rule="nonzero"/></clipPath><clipPath id="be5cc80073"><path d="M 130 61 L 136.632812 61 L 136.632812 68 L 130 68 Z M 130 61 " clip-rule="nonzero"/></clipPath><clipPath id="d74ec5ef8a"><path d="M 78 87 L 82 87 L 82 90.304688 L 78 90.304688 Z M 78 87 " clip-rule="nonzero"/></clipPath></defs><rect x="-19.2" width="230.4" fill="#ffffff" y="-19.2" height="230.399995" fill-opacity="1"/><rect x="-19.2" width="230.4" fill="#ffffff" y="-19.2" height="230.399995" fill-opacity="1"/><g fill="#f55951" fill-opacity="1"><g transform="translate(54.346771, 103.813676)"><g><path d="M 20.824219 -13.964844 C 20.714844 -13.964844 20.617188 -13.921875 20.539062 -13.84375 C 17.546875 -10.699219 11.59375 -8.4375 7.871094 -7.542969 C 7.835938 -7.53125 7.835938 -7.53125 7.824219 -7.542969 C 7.609375 -7.738281 7.347656 -7.878906 7.0625 -7.976562 C 9.578125 -10.785156 12.34375 -13.574219 14.769531 -15.609375 C 14.859375 -15.695312 14.902344 -15.792969 14.902344 -15.902344 C 14.902344 -16.109375 14.714844 -16.292969 14.507812 -16.292969 C 14.410156 -16.292969 14.324219 -16.261719 14.257812 -16.207031 C 11.710938 -14.050781 8.804688 -11.113281 6.183594 -8.175781 C 6.148438 -8.140625 6.140625 -8.140625 6.117188 -8.140625 C 4.660156 -8.132812 3.734375 -7.75 3.734375 -7.117188 C 3.734375 -6.738281 4.050781 -6.488281 4.636719 -6.390625 C 1.96875 -3.253906 -0.109375 -0.425781 -1 1.273438 L -0.992188 1.261719 C -1.023438 1.316406 -1.046875 1.394531 -1.046875 1.457031 C -1.046875 1.664062 -0.859375 1.851562 -0.652344 1.851562 C -0.511719 1.851562 -0.371094 1.761719 -0.304688 1.644531 C 0.585938 -0.078125 2.796875 -3.046875 5.605469 -6.3125 C 5.636719 -6.347656 5.648438 -6.355469 5.671875 -6.355469 C 6.183594 -6.398438 6.855469 -6.519531 7.574219 -6.671875 C 7.609375 -6.683594 7.609375 -6.683594 7.609375 -6.671875 C 8.292969 -5.898438 8.675781 -4.59375 9.089844 -3.144531 C 9.816406 -0.640625 10.679688 2.253906 13.617188 2.253906 C 16.109375 2.253906 18.527344 1.046875 19.089844 0.675781 C 19.199219 0.597656 19.265625 0.480469 19.265625 0.347656 C 19.265625 0.140625 19.082031 -0.0429688 18.875 -0.0429688 C 18.808594 -0.0429688 18.742188 -0.0234375 18.667969 0.0117188 C 18.144531 0.359375 15.925781 1.46875 13.617188 1.46875 C 11.253906 1.46875 10.578125 -0.859375 9.851562 -3.363281 C 9.480469 -4.636719 9.097656 -5.941406 8.4375 -6.867188 C 12.277344 -7.871094 18.113281 -10.144531 21.117188 -13.300781 C 21.179688 -13.386719 21.214844 -13.476562 21.214844 -13.574219 C 21.214844 -13.78125 21.027344 -13.964844 20.824219 -13.964844 Z M 6.5 -7.324219 C 6.5 -7.324219 6.507812 -7.324219 6.507812 -7.324219 L 6.671875 -7.292969 L 6.390625 -7.226562 L 6.398438 -7.238281 C 6.433594 -7.269531 6.464844 -7.304688 6.5 -7.324219 Z M 5.136719 -7.117188 L 4.515625 -7.117188 C 4.515625 -7.128906 5.027344 -7.25 5.421875 -7.304688 L 5.277344 -7.128906 C 5.257812 -7.117188 5.226562 -7.117188 5.136719 -7.117188 Z M 5.136719 -7.117188 "/></g></g></g><g fill="#f55951" fill-opacity="1"><g transform="translate(70.714225, 103.813676)"><g><path d="M 3.570312 -6.226562 C 3.691406 -6.226562 3.808594 -6.28125 3.886719 -6.378906 C 3.917969 -6.433594 3.984375 -6.507812 4.050781 -6.605469 C 4.210938 -6.8125 4.410156 -7.085938 4.507812 -7.195312 C 4.5625 -7.269531 4.59375 -7.359375 4.59375 -7.445312 C 4.59375 -7.664062 4.417969 -7.835938 4.203125 -7.835938 C 4.082031 -7.835938 3.972656 -7.78125 3.898438 -7.695312 L 3.265625 -6.855469 C 3.210938 -6.792969 3.179688 -6.703125 3.179688 -6.617188 C 3.179688 -6.398438 3.351562 -6.226562 3.570312 -6.226562 Z M 0.414062 0.390625 C 2.066406 0.390625 7.292969 -2.023438 9.925781 -3.691406 C 10.035156 -3.753906 10.113281 -3.898438 10.113281 -4.027344 C 10.113281 -4.234375 9.925781 -4.417969 9.71875 -4.417969 C 9.65625 -4.417969 9.589844 -4.398438 9.511719 -4.363281 C 6.910156 -2.722656 1.894531 -0.390625 0.414062 -0.390625 C -0.078125 -0.390625 -0.261719 -0.566406 -0.261719 -0.992188 C -0.261719 -1.65625 0.882812 -3.277344 2.546875 -4.984375 L 2.558594 -4.996094 C 2.625 -5.074219 2.65625 -5.160156 2.65625 -5.257812 C 2.65625 -5.464844 2.472656 -5.648438 2.265625 -5.648438 C 2.15625 -5.648438 2.058594 -5.605469 1.980469 -5.53125 C 0.0664062 -3.546875 -1.046875 -1.894531 -1.046875 -0.992188 C -1.046875 -0.121094 -0.5 0.390625 0.414062 0.390625 Z M 0.414062 0.390625 "/></g></g></g><g fill="#f55951" fill-opacity="1"><g transform="translate(79.322379, 103.813676)"><g><path d="M 20.039062 -11.496094 C 16.054688 -11.65625 11.929688 -11.648438 7.902344 -11.503906 C 10.527344 -14.542969 13.160156 -17.480469 15.726562 -20.289062 C 15.804688 -20.355469 15.835938 -20.453125 15.835938 -20.550781 C 15.835938 -20.769531 15.664062 -20.941406 15.445312 -20.941406 C 15.335938 -20.941406 15.226562 -20.898438 15.164062 -20.8125 C 12.246094 -17.65625 9.46875 -14.53125 6.835938 -11.460938 C 2.460938 -11.277344 -1.816406 -10.929688 -5.671875 -10.4375 C -5.867188 -10.417969 -6.019531 -10.242188 -6.019531 -10.046875 C -6.019531 -9.828125 -5.84375 -9.65625 -5.628906 -9.65625 L -5.574219 -9.65625 C -1.96875 -10.121094 2.023438 -10.460938 6.148438 -10.644531 C 0.0234375 -3.429688 -5.910156 4.246094 -10.578125 11.636719 C -10.667969 11.765625 -10.742188 11.90625 -10.785156 12.027344 L -10.785156 12.039062 C -10.90625 12.398438 -10.765625 12.625 -10.417969 12.625 C -10.167969 12.625 -9.851562 12.332031 -9.523438 11.789062 C -9.4375 11.625 -9.414062 11.472656 -9.480469 11.375 C -4.777344 4.039062 1.132812 -3.558594 7.214844 -10.6875 C 11.558594 -10.875 15.914062 -10.875 20.007812 -10.710938 L 20.027344 -10.710938 C 20.246094 -10.710938 20.417969 -10.882812 20.417969 -11.101562 C 20.417969 -11.308594 20.257812 -11.484375 20.039062 -11.496094 Z M 20.039062 -11.496094 "/></g></g></g><g fill="#f55951" fill-opacity="1"><g transform="translate(86.67903, 103.813676)"><g><path d="M 1.351562 0.335938 C 3.996094 0.335938 8.457031 -1.351562 12.039062 -3.699219 C 12.15625 -3.765625 12.222656 -3.898438 12.222656 -4.027344 C 12.222656 -4.246094 12.050781 -4.417969 11.832031 -4.417969 C 11.753906 -4.417969 11.679688 -4.398438 11.613281 -4.355469 C 8.140625 -2.078125 3.84375 -0.445312 1.351562 -0.445312 C 0.292969 -0.445312 -0.0546875 -0.640625 -0.0546875 -1.207031 C -0.0546875 -1.328125 -0.0429688 -1.457031 -0.0234375 -1.601562 C 0.21875 -2.917969 2.1875 -4.789062 3.351562 -4.789062 C 3.492188 -4.789062 3.570312 -4.722656 3.558594 -4.636719 C 3.558594 -4.363281 3.1875 -3.863281 2.820312 -3.644531 C 2.699219 -3.582031 2.625 -3.449219 2.625 -3.308594 C 2.625 -3.089844 2.796875 -2.917969 3.015625 -2.917969 C 3.082031 -2.917969 3.15625 -2.9375 3.222656 -2.972656 C 3.84375 -3.339844 4.355469 -4.136719 4.355469 -4.722656 C 4.355469 -5.234375 3.960938 -5.574219 3.351562 -5.574219 C 1.808594 -5.574219 -0.480469 -3.449219 -0.785156 -1.730469 C -0.816406 -1.578125 -0.839844 -1.402344 -0.839844 -1.207031 C -0.839844 -0.164062 -0.128906 0.335938 1.351562 0.335938 Z M 1.351562 0.335938 "/></g></g></g><g fill="#f55951" fill-opacity="1"><g transform="translate(97.398401, 103.813676)"><g><path d="M 16.707031 -4.417969 C 16.644531 -4.417969 16.578125 -4.398438 16.5 -4.363281 C 13.953125 -2.722656 9.242188 -0.433594 7.109375 -0.433594 C 6.433594 -0.433594 6.140625 -0.664062 6.140625 -1.175781 C 6.140625 -1.578125 6.347656 -2.089844 6.574219 -2.675781 C 6.804688 -3.253906 7.0625 -3.886719 7.0625 -4.410156 C 7.0625 -4.910156 6.757812 -5.234375 6.269531 -5.234375 C 5.234375 -5.234375 3.320312 -3.898438 0.382812 -1.121094 C -0.480469 -0.304688 -1.296875 0.488281 -1.925781 1.109375 C -2.078125 1.261719 -2.1875 1.25 -2.035156 1.023438 C -1.339844 -0.121094 -0.152344 -1.753906 1.4375 -3.765625 C 11.984375 -10.425781 21.910156 -21.671875 21.910156 -24.21875 C 21.910156 -24.796875 21.5625 -25.121094 20.953125 -25.121094 C 18.167969 -25.121094 -3.515625 -0.578125 -3.515625 2.558594 C -3.515625 2.839844 -3.296875 3.058594 -3.015625 3.058594 C -2.785156 3.058594 -2.570312 2.851562 -1.382812 1.664062 C -1.25 1.535156 -1.109375 1.402344 -0.957031 1.261719 C -0.402344 0.71875 0.238281 0.0976562 0.925781 -0.554688 C 3.320312 -2.820312 5.136719 -4.203125 6.050781 -4.417969 C 6.195312 -4.453125 6.28125 -4.363281 6.257812 -4.210938 C 6.203125 -3.851562 6.039062 -3.441406 5.855469 -2.980469 C 5.628906 -2.394531 5.355469 -1.730469 5.355469 -1.175781 C 5.355469 -0.21875 6.007812 0.347656 7.109375 0.347656 C 9.414062 0.347656 14.324219 -2.023438 16.925781 -3.699219 C 17.035156 -3.777344 17.101562 -3.898438 17.101562 -4.027344 C 17.101562 -4.234375 16.914062 -4.417969 16.707031 -4.417969 Z M 20.953125 -24.339844 C 21.082031 -24.339844 21.128906 -24.292969 21.128906 -24.1875 C 21.128906 -22.128906 12.679688 -12.429688 3.035156 -5.757812 C 10.449219 -14.835938 19.601562 -24.339844 20.953125 -24.339844 Z M 20.953125 -24.339844 "/></g></g></g><g fill="#f55951" fill-opacity="1"><g transform="translate(112.982311, 103.813676)"><g><path d="M 11.234375 -4.417969 C 11.144531 -4.417969 11.070312 -4.398438 11.003906 -4.34375 C 7.621094 -1.871094 3.058594 -0.535156 1.644531 -0.535156 C 0.542969 -0.535156 0 -0.828125 0 -1.371094 C 0 -1.90625 0.390625 -2.65625 1.046875 -3.375 C 1.371094 -3.234375 1.730469 -3.179688 2.253906 -3.179688 C 3.253906 -3.179688 4.410156 -3.984375 4.410156 -4.703125 C 4.410156 -5.226562 4.003906 -5.574219 3.394531 -5.574219 C 1.699219 -5.574219 -0.785156 -3.082031 -0.785156 -1.371094 C -0.785156 -0.335938 0.0976562 0.25 1.644531 0.25 C 3.167969 0.25 7.96875 -1.152344 11.460938 -3.710938 C 11.558594 -3.777344 11.625 -3.90625 11.625 -4.027344 C 11.625 -4.246094 11.449219 -4.417969 11.234375 -4.417969 Z M 3.625 -4.703125 C 3.625 -4.460938 3.070312 -3.960938 2.253906 -3.960938 C 2.023438 -3.960938 1.851562 -3.972656 1.699219 -3.996094 C 2.320312 -4.496094 2.9375 -4.789062 3.394531 -4.789062 C 3.59375 -4.789062 3.625 -4.757812 3.625 -4.703125 Z M 3.625 -4.703125 "/></g></g></g><g fill="#f55951" fill-opacity="1"><g transform="translate(123.103145, 103.813676)"><g><path d="M -1.382812 0.0859375 C -1.230469 0.0859375 -1 -0.0429688 -0.371094 -0.511719 C -0.28125 -0.578125 -0.183594 -0.640625 -0.0859375 -0.71875 C 1.828125 -2.101562 5.714844 -4.898438 7.183594 -4.898438 C 7.304688 -4.898438 7.359375 -4.820312 7.359375 -4.722656 C 7.359375 -4.527344 7.183594 -3.796875 7.007812 -3.070312 C 6.855469 -2.425781 6.703125 -1.785156 6.703125 -1.480469 C 6.703125 -0.816406 7.164062 -0.414062 7.914062 -0.414062 C 9.71875 -0.414062 12.820312 -1.6875 15.878906 -3.699219 C 16 -3.765625 16.066406 -3.898438 16.066406 -4.027344 C 16.066406 -4.246094 15.890625 -4.417969 15.675781 -4.417969 C 15.597656 -4.417969 15.523438 -4.398438 15.457031 -4.355469 C 12.539062 -2.4375 9.558594 -1.199219 7.914062 -1.199219 C 7.585938 -1.199219 7.488281 -1.273438 7.488281 -1.480469 C 7.488281 -1.699219 7.621094 -2.253906 7.773438 -2.882812 C 7.945312 -3.613281 8.140625 -4.429688 8.140625 -4.875 C 8.140625 -5.378906 7.792969 -5.683594 7.226562 -5.683594 C 5.996094 -5.683594 3.789062 -4.460938 -0.0546875 -1.707031 C -0.21875 -1.601562 -0.261719 -1.6875 -0.175781 -1.808594 C 0.75 -3.082031 2.828125 -5.53125 4.800781 -7.007812 C 4.898438 -7.085938 4.953125 -7.207031 4.953125 -7.324219 C 4.953125 -7.542969 4.777344 -7.71875 4.5625 -7.71875 C 4.472656 -7.71875 4.386719 -7.683594 4.320312 -7.640625 C 1.449219 -5.453125 -1.71875 -1.21875 -1.859375 -0.542969 C -1.9375 -0.195312 -1.71875 0.0859375 -1.382812 0.0859375 Z M -1.382812 0.0859375 "/></g></g></g><g fill="#f55951" fill-opacity="1"><g transform="translate(64.108489, 127.813674)"><g><path d="M 21.496094 -4.417969 C 21.421875 -4.417969 21.34375 -4.398438 21.28125 -4.355469 C 20.410156 -3.808594 18.230469 -2.730469 15.53125 -1.394531 L 13.585938 -0.414062 C 14.683594 -1.925781 15.640625 -3.460938 16.402344 -4.917969 C 16.5 -5.117188 16.46875 -5.300781 16.304688 -5.441406 L 16.273438 -5.476562 C 16.109375 -5.617188 15.925781 -5.636719 15.75 -5.519531 C 15.238281 -5.203125 14.671875 -4.8125 14.050781 -4.398438 C 10.960938 -2.296875 6.726562 0.566406 3.1875 0.566406 C 1.402344 0.566406 0.707031 -0.175781 0.980469 -1.753906 C 1.828125 -6.390625 10.253906 -15.980469 17.011719 -15.980469 C 18.472656 -15.980469 19.191406 -15.402344 19.191406 -14.214844 C 19.191406 -13.203125 18.449219 -12.027344 16.761719 -10.375 C 16.6875 -10.296875 16.644531 -10.199219 16.644531 -10.089844 C 16.644531 -9.871094 16.816406 -9.699219 17.035156 -9.699219 C 17.132812 -9.699219 17.230469 -9.742188 17.308594 -9.808594 C 19.167969 -11.636719 19.972656 -12.964844 19.972656 -14.214844 C 19.972656 -15.847656 18.90625 -16.761719 17.011719 -16.761719 C 9.90625 -16.761719 1.089844 -6.738281 0.21875 -1.882812 C -0.152344 0.183594 0.914062 1.351562 3.1875 1.351562 C 6.964844 1.351562 11.394531 -1.65625 14.5 -3.746094 L 14.988281 -4.082031 C 15.0625 -4.136719 15.074219 -4.125 15.019531 -4.039062 C 14.226562 -2.667969 13.214844 -1.1875 12.058594 0.328125 C 12.039062 0.347656 12.027344 0.371094 11.972656 0.390625 C 1.589844 5.648438 -2.21875 8.140625 -2.21875 9.753906 C -2.21875 10.546875 -1.621094 11.058594 -0.695312 11.058594 C 2.820312 11.058594 8.328125 6.292969 12.453125 1.089844 C 12.496094 1.023438 12.527344 0.992188 12.550781 0.980469 L 13.671875 0.414062 C 14.378906 0.0664062 15.117188 -0.316406 15.878906 -0.6875 C 18.582031 -2.023438 20.789062 -3.125 21.703125 -3.691406 C 21.8125 -3.765625 21.890625 -3.898438 21.890625 -4.027344 C 21.890625 -4.246094 21.714844 -4.417969 21.496094 -4.417969 Z M -0.695312 10.273438 C -1.1875 10.273438 -1.4375 10.089844 -1.4375 9.753906 C -1.4375 8.675781 2.351562 6.203125 10.796875 1.882812 C 6.945312 6.433594 2.265625 10.273438 -0.695312 10.273438 Z M -0.695312 10.273438 "/></g></g></g><g fill="#f55951" fill-opacity="1"><g transform="translate(84.480746, 127.813674)"><g><path d="M 11.234375 -4.417969 C 11.144531 -4.417969 11.070312 -4.398438 11.003906 -4.34375 C 7.621094 -1.871094 3.058594 -0.535156 1.644531 -0.535156 C 0.542969 -0.535156 0 -0.828125 0 -1.371094 C 0 -1.90625 0.390625 -2.65625 1.046875 -3.375 C 1.371094 -3.234375 1.730469 -3.179688 2.253906 -3.179688 C 3.253906 -3.179688 4.410156 -3.984375 4.410156 -4.703125 C 4.410156 -5.226562 4.003906 -5.574219 3.394531 -5.574219 C 1.699219 -5.574219 -0.785156 -3.082031 -0.785156 -1.371094 C -0.785156 -0.335938 0.0976562 0.25 1.644531 0.25 C 3.167969 0.25 7.96875 -1.152344 11.460938 -3.710938 C 11.558594 -3.777344 11.625 -3.90625 11.625 -4.027344 C 11.625 -4.246094 11.449219 -4.417969 11.234375 -4.417969 Z M 3.625 -4.703125 C 3.625 -4.460938 3.070312 -3.960938 2.253906 -3.960938 C 2.023438 -3.960938 1.851562 -3.972656 1.699219 -3.996094 C 2.320312 -4.496094 2.9375 -4.789062 3.394531 -4.789062 C 3.59375 -4.789062 3.625 -4.757812 3.625 -4.703125 Z M 3.625 -4.703125 "/></g></g></g><g fill="#f55951" fill-opacity="1"><g transform="translate(94.601579, 127.813674)"><g><path d="M -1.382812 0.0859375 C -1.230469 0.0859375 -1 -0.0429688 -0.371094 -0.511719 C -0.28125 -0.578125 -0.183594 -0.640625 -0.0859375 -0.71875 C 1.828125 -2.101562 5.714844 -4.898438 7.183594 -4.898438 C 7.304688 -4.898438 7.359375 -4.820312 7.359375 -4.722656 C 7.359375 -4.527344 7.183594 -3.796875 7.007812 -3.070312 C 6.855469 -2.425781 6.703125 -1.785156 6.703125 -1.480469 C 6.703125 -0.816406 7.164062 -0.414062 7.914062 -0.414062 C 9.71875 -0.414062 12.820312 -1.6875 15.878906 -3.699219 C 16 -3.765625 16.066406 -3.898438 16.066406 -4.027344 C 16.066406 -4.246094 15.890625 -4.417969 15.675781 -4.417969 C 15.597656 -4.417969 15.523438 -4.398438 15.457031 -4.355469 C 12.539062 -2.4375 9.558594 -1.199219 7.914062 -1.199219 C 7.585938 -1.199219 7.488281 -1.273438 7.488281 -1.480469 C 7.488281 -1.699219 7.621094 -2.253906 7.773438 -2.882812 C 7.945312 -3.613281 8.140625 -4.429688 8.140625 -4.875 C 8.140625 -5.378906 7.792969 -5.683594 7.226562 -5.683594 C 5.996094 -5.683594 3.789062 -4.460938 -0.0546875 -1.707031 C -0.21875 -1.601562 -0.261719 -1.6875 -0.175781 -1.808594 C 0.75 -3.082031 2.828125 -5.53125 4.800781 -7.007812 C 4.898438 -7.085938 4.953125 -7.207031 4.953125 -7.324219 C 4.953125 -7.542969 4.777344 -7.71875 4.5625 -7.71875 C 4.472656 -7.71875 4.386719 -7.683594 4.320312 -7.640625 C 1.449219 -5.453125 -1.71875 -1.21875 -1.859375 -0.542969 C -1.9375 -0.195312 -1.71875 0.0859375 -1.382812 0.0859375 Z M -1.382812 0.0859375 "/></g></g></g><g fill="#f55951" fill-opacity="1"><g transform="translate(109.151631, 127.813674)"><g><path d="M 3.570312 -6.226562 C 3.691406 -6.226562 3.808594 -6.28125 3.886719 -6.378906 C 3.917969 -6.433594 3.984375 -6.507812 4.050781 -6.605469 C 4.210938 -6.8125 4.410156 -7.085938 4.507812 -7.195312 C 4.5625 -7.269531 4.59375 -7.359375 4.59375 -7.445312 C 4.59375 -7.664062 4.417969 -7.835938 4.203125 -7.835938 C 4.082031 -7.835938 3.972656 -7.78125 3.898438 -7.695312 L 3.265625 -6.855469 C 3.210938 -6.792969 3.179688 -6.703125 3.179688 -6.617188 C 3.179688 -6.398438 3.351562 -6.226562 3.570312 -6.226562 Z M 0.414062 0.390625 C 2.066406 0.390625 7.292969 -2.023438 9.925781 -3.691406 C 10.035156 -3.753906 10.113281 -3.898438 10.113281 -4.027344 C 10.113281 -4.234375 9.925781 -4.417969 9.71875 -4.417969 C 9.65625 -4.417969 9.589844 -4.398438 9.511719 -4.363281 C 6.910156 -2.722656 1.894531 -0.390625 0.414062 -0.390625 C -0.078125 -0.390625 -0.261719 -0.566406 -0.261719 -0.992188 C -0.261719 -1.65625 0.882812 -3.277344 2.546875 -4.984375 L 2.558594 -4.996094 C 2.625 -5.074219 2.65625 -5.160156 2.65625 -5.257812 C 2.65625 -5.464844 2.472656 -5.648438 2.265625 -5.648438 C 2.15625 -5.648438 2.058594 -5.605469 1.980469 -5.53125 C 0.0664062 -3.546875 -1.046875 -1.894531 -1.046875 -0.992188 C -1.046875 -0.121094 -0.5 0.390625 0.414062 0.390625 Z M 0.414062 0.390625 "/></g></g></g><g fill="#f55951" fill-opacity="1"><g transform="translate(117.759785, 127.813674)"><g><path d="M 11.234375 -4.417969 C 11.144531 -4.417969 11.070312 -4.398438 11.003906 -4.34375 C 7.621094 -1.871094 3.058594 -0.535156 1.644531 -0.535156 C 0.542969 -0.535156 0 -0.828125 0 -1.371094 C 0 -1.90625 0.390625 -2.65625 1.046875 -3.375 C 1.371094 -3.234375 1.730469 -3.179688 2.253906 -3.179688 C 3.253906 -3.179688 4.410156 -3.984375 4.410156 -4.703125 C 4.410156 -5.226562 4.003906 -5.574219 3.394531 -5.574219 C 1.699219 -5.574219 -0.785156 -3.082031 -0.785156 -1.371094 C -0.785156 -0.335938 0.0976562 0.25 1.644531 0.25 C 3.167969 0.25 7.96875 -1.152344 11.460938 -3.710938 C 11.558594 -3.777344 11.625 -3.90625 11.625 -4.027344 C 11.625 -4.246094 11.449219 -4.417969 11.234375 -4.417969 Z M 3.625 -4.703125 C 3.625 -4.460938 3.070312 -3.960938 2.253906 -3.960938 C 2.023438 -3.960938 1.851562 -3.972656 1.699219 -3.996094 C 2.320312 -4.496094 2.9375 -4.789062 3.394531 -4.789062 C 3.59375 -4.789062 3.625 -4.757812 3.625 -4.703125 Z M 3.625 -4.703125 "/></g></g></g><path fill="#f55951" d="M 106.695312 55.921875 C 107.097656 56.902344 107.441406 57.90625 107.730469 58.929688 C 109.050781 61.6875 110.515625 66.0625 110.554688 71.953125 C 110.566406 74.128906 110.074219 76.949219 109.289062 79.125 C 108.957031 80.042969 108.390625 81.347656 107.609375 82.214844 C 107.25 82.898438 106.832031 83.378906 106.339844 83.535156 C 106.503906 83.328125 106.660156 82.917969 106.808594 82.113281 C 106.933594 81.4375 107.050781 80.484375 107.164062 79.140625 C 107.347656 76.886719 107.457031 73.988281 107.441406 71.746094 C 107.398438 65.320312 106.949219 60.644531 106.589844 57.882812 C 106.5 57.179688 106.414062 56.601562 106.339844 56.148438 C 105.957031 56.324219 105.574219 56.324219 105.191406 56.15625 C 105.121094 56.609375 105.046875 57.1875 104.960938 57.890625 C 104.652344 60.515625 104.289062 64.859375 104.289062 70.789062 C 104.289062 71.109375 104.289062 71.4375 104.292969 71.765625 C 104.308594 74.007812 104.457031 76.902344 104.671875 79.15625 C 104.789062 80.390625 104.910156 81.296875 105.03125 81.957031 C 105.195312 82.839844 105.359375 83.292969 105.53125 83.519531 C 105.109375 83.363281 104.71875 82.964844 104.363281 82.339844 C 103.519531 81.488281 102.902344 80.121094 102.542969 79.167969 C 101.730469 77.003906 101.199219 74.195312 101.183594 72.015625 C 101.183594 71.9375 101.183594 71.855469 101.183594 71.777344 C 101.183594 66.019531 102.566406 61.710938 103.832031 58.972656 C 104.109375 57.9375 104.441406 56.925781 104.832031 55.933594 C 104.804688 55.910156 104.777344 55.886719 104.753906 55.859375 C 103.449219 57.8125 100.503906 63.167969 100.503906 71.769531 C 100.503906 71.851562 100.503906 71.9375 100.503906 72.019531 C 100.515625 74.277344 101.070312 77.175781 101.90625 79.414062 C 102.65625 81.40625 103.957031 83.773438 105.917969 83.808594 L 105.976562 83.808594 C 109.453125 83.699219 111.234375 76.167969 111.234375 72.042969 C 111.234375 72.011719 111.234375 71.980469 111.234375 71.949219 C 111.179688 63.203125 108.117188 57.800781 106.773438 55.847656 C 106.75 55.871094 106.722656 55.894531 106.695312 55.921875 Z M 105.9375 82.820312 C 105.503906 81.570312 105.007812 76.671875 104.976562 71.761719 C 104.925781 64.453125 105.433594 59.429688 105.769531 56.925781 C 106.136719 59.425781 106.710938 64.441406 106.757812 71.75 C 106.789062 76.65625 106.355469 81.5625 105.941406 82.816406 L 105.9375 82.832031 Z M 105.9375 82.820312 " fill-opacity="1" fill-rule="nonzero"/><path fill="#f55951" d="M 102.324219 71.355469 C 102.324219 71.484375 102.324219 71.617188 102.324219 71.753906 C 102.339844 73.996094 102.691406 76.890625 103.222656 79.117188 C 103.558594 80.519531 103.9375 81.59375 104.363281 82.335938 C 104.722656 82.964844 105.113281 83.359375 105.53125 83.515625 C 105.363281 83.292969 105.195312 82.839844 105.03125 81.957031 C 104.683594 81.34375 104.3125 80.371094 103.972656 78.933594 C 103.457031 76.761719 103.109375 73.9375 103.097656 71.746094 C 103.066406 66.148438 103.859375 61.9375 104.527344 59.390625 C 104.671875 58.839844 104.820312 58.335938 104.960938 57.890625 C 105.046875 57.1875 105.125 56.609375 105.191406 56.15625 C 105.058594 56.097656 104.941406 56.023438 104.832031 55.929688 C 104.441406 56.921875 104.109375 57.933594 103.832031 58.96875 C 103.082031 61.742188 102.324219 65.882812 102.324219 71.355469 Z M 102.324219 71.355469 " fill-opacity="1" fill-rule="nonzero"/><path fill="#f55951" d="M 105.9375 82.820312 L 105.941406 82.835938 L 105.945312 82.820312 Z M 105.9375 82.820312 " fill-opacity="1" fill-rule="nonzero"/><path fill="#f55951" d="M 106.589844 57.882812 C 106.734375 58.316406 106.886719 58.804688 107.035156 59.34375 C 107.746094 61.882812 108.601562 66.089844 108.636719 71.710938 C 108.636719 71.769531 108.636719 71.828125 108.636719 71.886719 C 108.636719 75.722656 107.835938 80.371094 106.808594 82.109375 C 106.660156 82.917969 106.503906 83.328125 106.339844 83.535156 C 106.832031 83.378906 107.253906 82.898438 107.609375 82.214844 C 108.949219 79.644531 109.410156 74.183594 109.410156 71.816406 C 109.410156 71.78125 109.410156 71.746094 109.410156 71.703125 C 109.371094 66.027344 108.539062 61.757812 107.730469 58.929688 C 107.441406 57.90625 107.097656 56.902344 106.695312 55.921875 C 106.585938 56.015625 106.46875 56.089844 106.335938 56.152344 C 106.414062 56.601562 106.5 57.179688 106.589844 57.882812 Z M 106.589844 57.882812 " fill-opacity="1" fill-rule="nonzero"/><g clip-path="url(#4f9002fbe1)"><path fill="#000000" d="M 103.542969 40.714844 C 103.5625 43.515625 103.984375 48.972656 104.589844 52.566406 C 104.722656 52.378906 104.890625 52.234375 105.09375 52.128906 C 105.296875 52.023438 105.511719 51.96875 105.738281 51.96875 C 105.964844 51.96875 106.179688 52.019531 106.382812 52.121094 C 106.589844 52.222656 106.757812 52.367188 106.894531 52.550781 C 107.449219 48.953125 107.800781 43.488281 107.78125 40.6875 C 107.75 36.292969 106.777344 32.738281 105.609375 32.746094 C 104.441406 32.753906 103.515625 36.324219 103.542969 40.714844 Z M 106.320312 35.082031 C 106.320312 35.273438 106.253906 35.441406 106.121094 35.578125 C 105.984375 35.714844 105.820312 35.785156 105.628906 35.785156 C 105.4375 35.785156 105.273438 35.71875 105.136719 35.582031 C 105 35.449219 104.929688 35.28125 104.929688 35.089844 C 104.929688 34.898438 104.996094 34.730469 105.128906 34.59375 C 105.265625 34.457031 105.429688 34.386719 105.621094 34.386719 C 105.8125 34.382812 105.976562 34.453125 106.113281 34.585938 C 106.25 34.722656 106.320312 34.886719 106.320312 35.082031 Z M 106.320312 35.082031 " fill-opacity="1" fill-rule="nonzero"/></g><g clip-path="url(#0075173778)"><path fill="#000000" d="M 104.476562 53.054688 L 104.402344 52.597656 C 103.796875 49.019531 103.371094 43.566406 103.351562 40.71875 C 103.339844 38.574219 103.546875 36.558594 103.941406 35.039062 C 104.234375 33.90625 104.761719 32.558594 105.609375 32.554688 L 105.613281 32.554688 C 106.457031 32.554688 107 33.890625 107.3125 35.011719 C 107.726562 36.53125 107.957031 38.542969 107.976562 40.683594 C 107.992188 43.53125 107.640625 48.992188 107.085938 52.578125 L 107.011719 53.035156 L 106.734375 52.664062 C 106.488281 52.324219 106.152344 52.15625 105.734375 52.15625 C 105.316406 52.160156 104.984375 52.332031 104.742188 52.675781 Z M 103.738281 40.714844 C 103.753906 43.449219 104.148438 48.59375 104.71875 52.148438 C 105.011719 51.902344 105.351562 51.777344 105.734375 51.777344 C 106.121094 51.773438 106.460938 51.894531 106.761719 52.136719 C 107.28125 48.574219 107.605469 43.421875 107.589844 40.6875 C 107.574219 38.582031 107.34375 36.601562 106.9375 35.117188 C 106.5625 33.753906 106.070312 32.941406 105.613281 32.941406 C 104.703125 32.945312 103.710938 36.140625 103.738281 40.714844 Z M 105.625 35.976562 C 105.382812 35.972656 105.179688 35.882812 105.011719 35.710938 C 104.84375 35.535156 104.761719 35.328125 104.757812 35.085938 C 104.757812 34.847656 104.84375 34.636719 105.007812 34.464844 C 105.175781 34.289062 105.378906 34.199219 105.621094 34.191406 C 105.863281 34.191406 106.074219 34.277344 106.25 34.449219 C 106.421875 34.625 106.511719 34.832031 106.511719 35.078125 C 106.515625 35.328125 106.429688 35.539062 106.257812 35.710938 C 106.085938 35.886719 105.875 35.976562 105.628906 35.976562 Z M 105.625 34.578125 C 105.484375 34.578125 105.367188 34.628906 105.269531 34.726562 C 105.167969 34.828125 105.121094 34.945312 105.121094 35.085938 C 105.121094 35.226562 105.167969 35.34375 105.269531 35.445312 C 105.367188 35.542969 105.484375 35.59375 105.625 35.59375 L 105.628906 35.59375 C 105.765625 35.589844 105.882812 35.542969 105.980469 35.441406 C 106.078125 35.34375 106.128906 35.226562 106.128906 35.085938 C 106.128906 34.945312 106.078125 34.828125 105.980469 34.726562 C 105.882812 34.628906 105.761719 34.578125 105.625 34.578125 Z M 105.625 34.578125 " fill-opacity="1" fill-rule="nonzero"/></g><path fill="#f55951" d="M 105.738281 51.96875 C 105.546875 51.972656 105.367188 52.007812 105.191406 52.082031 C 105.019531 52.15625 104.863281 52.261719 104.730469 52.398438 C 104.597656 52.535156 104.496094 52.691406 104.425781 52.867188 C 104.355469 53.042969 104.320312 53.226562 104.320312 53.417969 L 104.328125 54.851562 C 104.332031 55.246094 104.472656 55.585938 104.753906 55.863281 C 104.777344 55.890625 104.804688 55.914062 104.832031 55.9375 C 104.941406 56.03125 105.058594 56.105469 105.191406 56.160156 C 105.578125 56.332031 105.960938 56.328125 106.34375 56.15625 C 106.472656 56.09375 106.59375 56.019531 106.703125 55.921875 C 106.730469 55.902344 106.753906 55.875 106.78125 55.851562 C 107.054688 55.570312 107.191406 55.234375 107.191406 54.839844 L 107.179688 53.402344 C 107.179688 53.210938 107.140625 53.03125 107.066406 52.855469 C 106.992188 52.679688 106.886719 52.523438 106.753906 52.390625 C 106.617188 52.257812 106.464844 52.15625 106.289062 52.082031 C 106.113281 52.011719 105.929688 51.976562 105.742188 51.976562 Z M 105.75 53.710938 C 105.859375 53.710938 105.953125 53.746094 106.027344 53.824219 C 106.105469 53.902344 106.144531 53.996094 106.148438 54.105469 C 106.148438 54.214844 106.109375 54.308594 106.03125 54.386719 C 105.957031 54.464844 105.863281 54.503906 105.753906 54.503906 C 105.644531 54.503906 105.550781 54.46875 105.472656 54.390625 C 105.398438 54.3125 105.359375 54.21875 105.355469 54.109375 C 105.355469 54 105.394531 53.90625 105.472656 53.828125 C 105.546875 53.75 105.640625 53.710938 105.75 53.710938 Z M 105.75 53.710938 " fill-opacity="1" fill-rule="nonzero"/><path fill="#000000" d="M 105.753906 54.503906 C 105.863281 54.503906 105.957031 54.464844 106.03125 54.386719 C 106.109375 54.308594 106.148438 54.214844 106.148438 54.105469 C 106.144531 53.996094 106.105469 53.902344 106.03125 53.824219 C 105.953125 53.746094 105.859375 53.710938 105.75 53.710938 C 105.640625 53.710938 105.546875 53.75 105.472656 53.828125 C 105.394531 53.90625 105.355469 54 105.355469 54.109375 C 105.359375 54.21875 105.398438 54.3125 105.476562 54.390625 C 105.550781 54.464844 105.644531 54.503906 105.753906 54.503906 Z M 105.753906 54.503906 " fill-opacity="1" fill-rule="nonzero"/><path fill="#000000" d="M 105.753906 54.699219 C 105.59375 54.691406 105.460938 54.632812 105.347656 54.519531 C 105.238281 54.40625 105.183594 54.269531 105.183594 54.109375 C 105.183594 53.949219 105.238281 53.8125 105.347656 53.699219 C 105.457031 53.585938 105.589844 53.523438 105.746094 53.515625 C 105.90625 53.523438 106.039062 53.582031 106.148438 53.695312 C 106.261719 53.808594 106.316406 53.945312 106.316406 54.105469 C 106.316406 54.265625 106.261719 54.402344 106.152344 54.515625 C 106.042969 54.628906 105.910156 54.691406 105.753906 54.699219 Z M 105.753906 53.902344 C 105.617188 53.902344 105.550781 53.972656 105.550781 54.105469 C 105.554688 54.238281 105.621094 54.308594 105.753906 54.308594 C 105.882812 54.300781 105.945312 54.234375 105.945312 54.105469 C 105.945312 53.976562 105.882812 53.910156 105.753906 53.902344 Z M 105.753906 53.902344 " fill-opacity="1" fill-rule="nonzero"/><g clip-path="url(#a3fda7fbc1)"><path fill="#f55951" d="M 93.757812 60.753906 L 93.757812 54.90625 C 96.824219 54.191406 99.191406 49.527344 99.191406 43.878906 C 99.191406 37.730469 96.390625 32.75 92.9375 32.75 C 89.484375 32.75 86.683594 37.730469 86.683594 43.875 C 86.683594 49.351562 88.90625 53.898438 91.835938 54.824219 L 91.835938 60.578125 C 91.976562 60.46875 92.132812 60.386719 92.304688 60.335938 C 92.476562 60.285156 92.652344 60.269531 92.832031 60.285156 C 93.007812 60.300781 93.179688 60.347656 93.339844 60.429688 C 93.5 60.511719 93.640625 60.617188 93.757812 60.753906 Z M 88.148438 43.875 C 88.148438 39.167969 90.292969 35.351562 92.941406 35.351562 C 95.585938 35.351562 97.730469 39.167969 97.730469 43.875 C 97.730469 48.582031 95.585938 52.398438 92.9375 52.398438 C 90.292969 52.398438 88.148438 48.582031 88.148438 43.875 Z M 88.148438 43.875 " fill-opacity="1" fill-rule="nonzero"/></g><path fill="#000000" d="M 94.914062 75.835938 C 94.894531 73.039062 94.472656 67.578125 93.867188 63.988281 C 93.734375 64.171875 93.566406 64.320312 93.367188 64.425781 C 93.164062 64.53125 92.949219 64.582031 92.722656 64.585938 C 92.492188 64.585938 92.277344 64.535156 92.074219 64.433594 C 91.871094 64.332031 91.703125 64.1875 91.566406 64.003906 C 91.007812 67.601562 90.660156 73.066406 90.679688 75.867188 C 90.707031 80.261719 91.679688 83.816406 92.847656 83.808594 C 94.019531 83.800781 94.941406 80.230469 94.914062 75.835938 Z M 92.136719 81.472656 C 92.136719 81.277344 92.203125 81.113281 92.335938 80.976562 C 92.472656 80.839844 92.636719 80.769531 92.828125 80.769531 C 93.019531 80.765625 93.183594 80.832031 93.320312 80.96875 C 93.457031 81.105469 93.527344 81.269531 93.527344 81.460938 C 93.53125 81.65625 93.464844 81.820312 93.328125 81.957031 C 93.195312 82.097656 93.03125 82.164062 92.839844 82.167969 C 92.644531 82.167969 92.480469 82.101562 92.34375 81.964844 C 92.207031 81.828125 92.140625 81.664062 92.136719 81.472656 Z M 92.136719 81.472656 " fill-opacity="1" fill-rule="nonzero"/><path fill="#000000" d="M 92.84375 84 C 92 84 91.457031 82.660156 91.152344 81.539062 C 90.738281 80.019531 90.503906 78.011719 90.488281 75.871094 C 90.46875 73.019531 90.820312 67.5625 91.375 63.976562 L 91.449219 63.519531 L 91.722656 63.890625 C 91.964844 64.230469 92.296875 64.398438 92.710938 64.398438 L 92.722656 64.398438 C 93.140625 64.390625 93.472656 64.21875 93.714844 63.878906 L 93.984375 63.503906 L 94.0625 63.957031 C 94.664062 67.539062 95.089844 72.992188 95.109375 75.839844 C 95.125 77.980469 94.914062 79.996094 94.519531 81.519531 C 94.226562 82.648438 93.699219 83.996094 92.855469 84.003906 Z M 91.703125 64.417969 C 91.183594 67.980469 90.855469 73.128906 90.875 75.863281 C 90.90625 80.433594 91.9375 83.613281 92.847656 83.613281 C 93.757812 83.605469 94.753906 80.410156 94.722656 75.839844 C 94.703125 73.105469 94.308594 67.960938 93.742188 64.402344 C 93.445312 64.648438 93.105469 64.773438 92.722656 64.777344 C 92.339844 64.777344 92 64.65625 91.703125 64.417969 Z M 92.835938 82.359375 C 92.59375 82.355469 92.386719 82.269531 92.210938 82.097656 C 92.039062 81.925781 91.953125 81.714844 91.949219 81.472656 C 91.949219 81.222656 92.03125 81.011719 92.203125 80.839844 C 92.378906 80.664062 92.585938 80.574219 92.832031 80.574219 L 92.835938 80.574219 C 93.082031 80.570312 93.292969 80.65625 93.464844 80.832031 C 93.640625 81.003906 93.726562 81.214844 93.726562 81.460938 C 93.726562 81.707031 93.640625 81.917969 93.46875 82.09375 C 93.296875 82.269531 93.085938 82.355469 92.84375 82.359375 Z M 92.835938 80.957031 C 92.699219 80.960938 92.582031 81.007812 92.484375 81.109375 C 92.382812 81.207031 92.335938 81.328125 92.335938 81.46875 C 92.335938 81.605469 92.386719 81.726562 92.484375 81.824219 C 92.582031 81.921875 92.703125 81.972656 92.839844 81.972656 C 92.980469 81.972656 93.097656 81.921875 93.195312 81.824219 C 93.296875 81.722656 93.34375 81.605469 93.34375 81.464844 C 93.34375 81.324219 93.292969 81.203125 93.191406 81.105469 C 93.09375 81.007812 92.972656 80.960938 92.832031 80.960938 Z M 92.835938 80.957031 " fill-opacity="1" fill-rule="nonzero"/><path fill="#f55951" d="M 92.722656 64.585938 C 92.910156 64.582031 93.09375 64.542969 93.265625 64.46875 C 93.441406 64.394531 93.59375 64.289062 93.726562 64.15625 C 93.859375 64.019531 93.960938 63.863281 94.035156 63.6875 C 94.105469 63.511719 94.140625 63.328125 94.140625 63.136719 L 94.128906 61.707031 C 94.128906 61.515625 94.089844 61.335938 94.015625 61.160156 C 93.945312 60.984375 93.839844 60.828125 93.703125 60.695312 C 93.570312 60.5625 93.414062 60.457031 93.238281 60.386719 C 93.0625 60.316406 92.882812 60.28125 92.691406 60.28125 C 92.503906 60.28125 92.320312 60.320312 92.148438 60.394531 C 91.972656 60.46875 91.820312 60.574219 91.6875 60.707031 C 91.554688 60.84375 91.453125 61 91.378906 61.175781 C 91.308594 61.351562 91.273438 61.535156 91.273438 61.726562 L 91.285156 63.160156 C 91.285156 63.351562 91.324219 63.535156 91.398438 63.710938 C 91.472656 63.886719 91.578125 64.039062 91.710938 64.171875 C 91.847656 64.304688 92 64.410156 92.175781 64.480469 C 92.351562 64.550781 92.535156 64.585938 92.722656 64.585938 Z M 92.703125 62.050781 C 92.8125 62.050781 92.90625 62.089844 92.984375 62.167969 C 93.0625 62.242188 93.101562 62.335938 93.101562 62.445312 C 93.101562 62.554688 93.0625 62.648438 92.988281 62.726562 C 92.910156 62.804688 92.816406 62.84375 92.710938 62.84375 C 92.601562 62.847656 92.507812 62.808594 92.429688 62.730469 C 92.351562 62.652344 92.3125 62.5625 92.3125 62.453125 C 92.3125 62.339844 92.347656 62.246094 92.425781 62.167969 C 92.5 62.089844 92.59375 62.050781 92.703125 62.050781 Z M 92.703125 62.050781 " fill-opacity="1" fill-rule="nonzero"/><path fill="#000000" d="M 92.707031 63.035156 C 92.550781 63.03125 92.417969 62.972656 92.304688 62.859375 C 92.195312 62.742188 92.140625 62.605469 92.140625 62.449219 C 92.140625 62.289062 92.195312 62.152344 92.304688 62.039062 C 92.414062 61.921875 92.546875 61.863281 92.707031 61.855469 C 92.863281 61.859375 92.996094 61.921875 93.109375 62.035156 C 93.21875 62.148438 93.273438 62.285156 93.273438 62.445312 C 93.273438 62.601562 93.21875 62.738281 93.109375 62.855469 C 93 62.96875 92.867188 63.03125 92.710938 63.035156 Z M 92.707031 62.242188 C 92.574219 62.242188 92.507812 62.308594 92.507812 62.445312 C 92.511719 62.578125 92.578125 62.644531 92.707031 62.648438 C 92.84375 62.648438 92.910156 62.578125 92.910156 62.445312 C 92.910156 62.308594 92.84375 62.242188 92.707031 62.242188 Z M 92.707031 62.242188 " fill-opacity="1" fill-rule="nonzero"/><path fill="#f55951" d="M 97.730469 43.875 C 97.730469 39.167969 95.585938 35.351562 92.9375 35.351562 C 90.292969 35.351562 88.148438 39.167969 88.148438 43.875 C 88.148438 48.582031 90.292969 52.398438 92.9375 52.398438 C 95.585938 52.398438 97.730469 48.582031 97.730469 43.875 Z M 97.730469 43.875 " fill-opacity="1" fill-rule="nonzero"/><path fill="#000000" d="M 112.476562 81.203125 C 114.292969 80.375 116.039062 79.429688 117.722656 78.359375 C 119.402344 77.292969 121.007812 76.125 122.542969 74.855469 C 124.082031 73.597656 125.550781 72.253906 126.964844 70.847656 C 128.382812 69.445312 129.746094 67.988281 131.082031 66.5 C 129.863281 68.089844 128.5625 69.609375 127.179688 71.058594 C 125.796875 72.515625 124.332031 73.878906 122.785156 75.15625 C 121.234375 76.429688 119.601562 77.585938 117.878906 78.613281 C 116.160156 79.648438 114.359375 80.507812 112.476562 81.203125 Z M 112.476562 81.203125 " fill-opacity="1" fill-rule="nonzero"/><g clip-path="url(#be5cc80073)"><path fill="#000000" d="M 131.085938 66.421875 C 130.703125 65.734375 130.417969 64.972656 130.386719 64.179688 C 130.355469 63.386719 130.601562 62.570312 131.152344 62.007812 C 131.699219 61.449219 132.585938 61.199219 133.316406 61.488281 C 134.042969 61.78125 134.542969 62.605469 134.289062 63.351562 C 135.007812 63.042969 135.75 63.382812 136.09375 64.089844 C 136.4375 64.800781 136.25 65.703125 135.734375 66.296875 C 135.21875 66.894531 134.421875 67.199219 133.636719 67.222656 C 132.851562 67.25 131.894531 66.820312 131.183594 66.484375 " fill-opacity="1" fill-rule="nonzero"/><path fill="#000000" d="M 131.085938 66.421875 C 130.667969 65.761719 130.363281 65.007812 130.292969 64.203125 C 130.226562 63.398438 130.453125 62.546875 131.023438 61.929688 C 131.316406 61.613281 131.667969 61.398438 132.082031 61.28125 C 132.503906 61.152344 132.921875 61.160156 133.339844 61.304688 C 133.761719 61.460938 134.085938 61.734375 134.316406 62.125 C 134.5625 62.53125 134.617188 62.960938 134.472656 63.414062 L 134.210938 63.175781 C 134.65625 62.980469 135.089844 62.996094 135.515625 63.21875 C 135.921875 63.441406 136.195312 63.777344 136.339844 64.21875 C 136.613281 65.058594 136.3125 65.996094 135.691406 66.5625 C 135.074219 67.128906 134.222656 67.371094 133.414062 67.3125 C 133.011719 67.261719 132.625 67.15625 132.253906 67 C 131.886719 66.847656 131.53125 66.675781 131.183594 66.484375 C 131.914062 66.773438 132.65625 67.09375 133.425781 67.125 C 134.179688 67.136719 134.957031 66.863281 135.484375 66.34375 C 136.011719 65.820312 136.242188 65.011719 136 64.335938 C 135.882812 63.992188 135.664062 63.730469 135.347656 63.554688 C 135.023438 63.390625 134.695312 63.382812 134.367188 63.53125 L 133.960938 63.707031 L 134.109375 63.289062 C 134.21875 62.945312 134.179688 62.621094 133.992188 62.316406 C 133.808594 62.003906 133.550781 61.78125 133.214844 61.648438 C 132.558594 61.390625 131.75 61.628906 131.238281 62.136719 C 130.71875 62.660156 130.46875 63.4375 130.480469 64.195312 C 130.492188 64.953125 130.746094 65.722656 131.085938 66.421875 Z M 131.085938 66.421875 " fill-opacity="1" fill-rule="nonzero"/></g><path fill="#000000" d="M 118.65625 70.777344 C 118.277344 70.65625 117.941406 70.457031 117.65625 70.175781 C 117.382812 69.890625 117.203125 69.503906 117.222656 69.109375 C 117.246094 68.714844 117.492188 68.324219 117.859375 68.191406 C 118.226562 68.054688 118.6875 68.195312 118.839844 68.558594 C 119.007812 68.203125 119.394531 68.082031 119.757812 68.230469 C 120.121094 68.382812 120.351562 68.78125 120.351562 69.175781 C 120.355469 69.570312 120.160156 69.949219 119.875 70.222656 C 119.589844 70.496094 119.09375 70.65625 118.714844 70.765625 " fill-opacity="1" fill-rule="nonzero"/><path fill="#000000" d="M 118.65625 70.777344 C 118.257812 70.691406 117.90625 70.511719 117.597656 70.242188 C 117.257812 69.945312 117.085938 69.566406 117.078125 69.117188 C 117.074219 68.878906 117.140625 68.664062 117.265625 68.464844 C 117.394531 68.269531 117.5625 68.121094 117.777344 68.027344 C 118.003906 67.933594 118.238281 67.925781 118.472656 68 C 118.726562 68.078125 118.910156 68.238281 119.015625 68.480469 L 118.667969 68.472656 C 118.78125 68.226562 118.96875 68.070312 119.230469 68.003906 C 119.480469 67.945312 119.714844 67.980469 119.9375 68.113281 C 120.136719 68.238281 120.289062 68.40625 120.390625 68.621094 C 120.492188 68.832031 120.527344 69.054688 120.5 69.292969 C 120.4375 69.742188 120.222656 70.101562 119.851562 70.367188 C 119.5 70.601562 119.105469 70.6875 118.71875 70.765625 C 119.078125 70.609375 119.457031 70.460938 119.734375 70.214844 C 120.015625 69.960938 120.171875 69.644531 120.203125 69.265625 C 120.214844 68.929688 120.039062 68.578125 119.761719 68.433594 C 119.625 68.355469 119.480469 68.335938 119.328125 68.371094 C 119.183594 68.410156 119.078125 68.5 119.019531 68.636719 L 118.820312 69.0625 L 118.664062 68.632812 C 118.570312 68.375 118.191406 68.257812 117.90625 68.367188 C 117.625 68.480469 117.402344 68.796875 117.375 69.128906 C 117.34375 69.464844 117.488281 69.835938 117.734375 70.113281 C 117.976562 70.394531 118.304688 70.609375 118.65625 70.777344 Z M 118.65625 70.777344 " fill-opacity="1" fill-rule="nonzero"/><path fill="#000000" d="M 119.667969 86.40625 C 120.035156 86.25 120.417969 86.191406 120.816406 86.222656 C 121.207031 86.265625 121.59375 86.445312 121.828125 86.761719 C 122.0625 87.078125 122.121094 87.535156 121.925781 87.875 C 121.726562 88.21875 121.285156 88.40625 120.9375 88.222656 C 121.035156 88.605469 120.816406 88.949219 120.441406 89.066406 C 120.066406 89.1875 119.636719 89.027344 119.382812 88.726562 C 119.125 88.425781 119.035156 88 119.082031 87.613281 C 119.128906 87.226562 119.410156 86.777344 119.625 86.449219 " fill-opacity="1" fill-rule="nonzero"/><path fill="#000000" d="M 119.667969 86.40625 C 120.027344 86.210938 120.414062 86.117188 120.820312 86.128906 C 121.230469 86.148438 121.65625 86.3125 121.9375 86.660156 C 122.089844 86.839844 122.179688 87.046875 122.207031 87.28125 C 122.234375 87.511719 122.199219 87.734375 122.09375 87.945312 C 121.976562 88.164062 121.804688 88.320312 121.574219 88.414062 C 121.332031 88.519531 121.089844 88.515625 120.851562 88.394531 L 121.125 88.179688 C 121.195312 88.441406 121.148438 88.683594 120.992188 88.902344 C 120.835938 89.105469 120.632812 89.230469 120.378906 89.273438 C 120.144531 89.304688 119.921875 89.273438 119.707031 89.175781 C 119.496094 89.078125 119.324219 88.929688 119.195312 88.730469 C 118.957031 88.34375 118.894531 87.925781 119.011719 87.484375 C 119.132812 87.078125 119.378906 86.757812 119.628906 86.449219 C 119.449219 86.800781 119.253906 87.15625 119.199219 87.527344 C 119.144531 87.902344 119.226562 88.246094 119.445312 88.554688 C 119.648438 88.824219 120.007812 88.980469 120.3125 88.910156 C 120.46875 88.882812 120.59375 88.804688 120.6875 88.679688 C 120.773438 88.554688 120.796875 88.417969 120.753906 88.273438 L 120.636719 87.824219 L 121.027344 88.050781 C 121.265625 88.1875 121.628906 88.035156 121.777344 87.765625 C 121.9375 87.5 121.894531 87.117188 121.707031 86.839844 C 121.519531 86.5625 121.167969 86.371094 120.804688 86.3125 C 120.441406 86.25 120.042969 86.304688 119.667969 86.40625 Z M 119.667969 86.40625 " fill-opacity="1" fill-rule="nonzero"/><path fill="#000000" d="M 123.632812 71.703125 C 123.398438 71.808594 123.234375 71.984375 123.140625 72.222656 C 123.046875 72.445312 123.011719 72.675781 123.035156 72.917969 C 123.089844 73.390625 123.335938 73.832031 123.585938 74.277344 L 123.691406 74.464844 L 123.480469 74.527344 L 123.324219 74.574219 L 123.261719 74.589844 L 123.203125 74.5625 C 122.949219 74.445312 122.726562 74.28125 122.539062 74.078125 C 122.355469 73.875 122.207031 73.648438 122.089844 73.402344 C 121.863281 72.917969 121.726562 72.414062 121.679688 71.882812 C 121.644531 71.359375 121.75 70.804688 122.058594 70.347656 C 122.398438 69.828125 122.878906 69.574219 123.496094 69.582031 C 123.792969 69.589844 124.066406 69.675781 124.316406 69.84375 C 124.5625 70.003906 124.757812 70.214844 124.902344 70.46875 C 125.195312 70.976562 125.214844 71.585938 125.085938 72.117188 C 124.949219 72.652344 124.691406 73.121094 124.320312 73.527344 C 123.972656 73.917969 123.601562 74.28125 123.207031 74.621094 L 123.179688 74.59375 C 123.496094 74.183594 123.832031 73.792969 124.121094 73.375 C 124.265625 73.171875 124.390625 72.957031 124.5 72.730469 C 124.605469 72.511719 124.675781 72.277344 124.722656 72.039062 C 124.8125 71.566406 124.765625 71.070312 124.542969 70.675781 C 124.320312 70.277344 123.929688 69.960938 123.480469 69.9375 C 122.980469 69.917969 122.570312 70.101562 122.25 70.488281 C 121.917969 70.890625 121.765625 71.351562 121.800781 71.875 C 121.832031 72.390625 121.992188 72.863281 122.277344 73.296875 C 122.542969 73.71875 122.898438 74.039062 123.351562 74.25 L 123.230469 74.238281 L 123.386719 74.191406 L 123.28125 74.445312 C 123.152344 74.214844 123.039062 73.976562 122.9375 73.730469 C 122.835938 73.476562 122.777344 73.207031 122.765625 72.933594 C 122.761719 72.644531 122.832031 72.378906 122.984375 72.136719 C 123.125 71.90625 123.355469 71.710938 123.621094 71.664062 Z M 123.632812 71.703125 " fill-opacity="1" fill-rule="nonzero"/><path fill="#000000" d="M 124.457031 78.183594 C 124.46875 77.816406 124.347656 77.496094 124.097656 77.222656 C 123.871094 76.957031 123.589844 76.765625 123.261719 76.652344 C 122.605469 76.425781 121.886719 76.488281 121.175781 76.546875 L 121.105469 76.554688 L 121.054688 76.511719 L 120.910156 76.394531 L 120.746094 76.265625 L 120.90625 76.128906 C 121.484375 75.621094 122.226562 75.367188 122.960938 75.285156 C 123.328125 75.242188 123.695312 75.242188 124.0625 75.277344 C 124.429688 75.3125 124.789062 75.382812 125.140625 75.496094 C 125.835938 75.71875 126.496094 76.132812 126.933594 76.753906 C 127.160156 77.066406 127.308594 77.414062 127.378906 77.796875 C 127.445312 78.191406 127.417969 78.574219 127.292969 78.953125 C 127.164062 79.339844 126.941406 79.660156 126.628906 79.917969 C 126.316406 80.171875 125.964844 80.335938 125.574219 80.417969 C 125.183594 80.496094 124.796875 80.488281 124.410156 80.398438 C 124.035156 80.304688 123.683594 80.152344 123.359375 79.9375 C 123.042969 79.726562 122.761719 79.476562 122.511719 79.1875 C 122.269531 78.902344 122.054688 78.597656 121.871094 78.273438 C 121.496094 77.632812 121.230469 76.949219 120.996094 76.261719 L 121.03125 76.246094 C 121.199219 76.570312 121.355469 76.898438 121.535156 77.210938 C 121.703125 77.527344 121.890625 77.835938 122.09375 78.132812 C 122.5 78.714844 122.976562 79.253906 123.566406 79.605469 C 124.15625 79.960938 124.835938 80.144531 125.492188 80.011719 C 126.148438 79.898438 126.746094 79.46875 126.964844 78.832031 C 127.207031 78.207031 127.113281 77.464844 126.75 76.871094 C 126.5625 76.566406 126.328125 76.308594 126.046875 76.089844 C 125.761719 75.878906 125.445312 75.714844 125.105469 75.605469 C 124.410156 75.386719 123.707031 75.355469 122.996094 75.503906 C 122.296875 75.640625 121.675781 75.933594 121.128906 76.390625 L 121.125 76.125 L 121.265625 76.242188 L 121.148438 76.203125 C 121.515625 76.171875 121.882812 76.160156 122.25 76.171875 C 122.632812 76.183594 123 76.261719 123.355469 76.402344 C 123.71875 76.554688 124.015625 76.792969 124.242188 77.117188 C 124.460938 77.429688 124.578125 77.824219 124.496094 78.191406 Z M 124.457031 78.183594 " fill-opacity="1" fill-rule="nonzero"/><path fill="#000000" d="M 128.753906 72.9375 C 128.734375 72.671875 128.628906 72.449219 128.433594 72.269531 C 128.253906 72.097656 128.039062 71.980469 127.792969 71.925781 C 127.308594 71.824219 126.808594 71.925781 126.3125 72.03125 L 126.265625 72.042969 L 126.21875 72.015625 L 126.109375 71.945312 L 125.972656 71.863281 L 126.082031 71.738281 C 126.460938 71.335938 126.917969 71.0625 127.453125 70.921875 C 127.980469 70.769531 128.511719 70.75 129.050781 70.855469 C 129.617188 70.960938 130.085938 71.234375 130.457031 71.675781 C 130.855469 72.144531 130.984375 72.679688 130.847656 73.28125 C 130.773438 73.574219 130.632812 73.820312 130.414062 74.027344 C 130.203125 74.222656 129.960938 74.363281 129.683594 74.441406 C 129.144531 74.609375 128.5625 74.492188 128.09375 74.242188 C 127.625 73.976562 127.238281 73.621094 126.9375 73.175781 C 126.640625 72.753906 126.386719 72.304688 126.175781 71.828125 C 126.453125 72.261719 126.722656 72.699219 127.054688 73.082031 C 127.386719 73.464844 127.765625 73.804688 128.207031 74.003906 C 128.648438 74.203125 129.140625 74.277344 129.585938 74.125 C 130.03125 73.984375 130.390625 73.636719 130.484375 73.195312 C 130.585938 72.714844 130.480469 72.289062 130.160156 71.917969 C 129.847656 71.542969 129.449219 71.3125 128.972656 71.21875 C 128.492188 71.117188 128.011719 71.125 127.535156 71.242188 C 127.050781 71.351562 126.628906 71.578125 126.273438 71.925781 L 126.246094 71.71875 L 126.355469 71.789062 L 126.261719 71.769531 C 126.519531 71.730469 126.78125 71.703125 127.042969 71.691406 C 127.3125 71.671875 127.574219 71.703125 127.835938 71.78125 C 128.09375 71.863281 128.316406 72.007812 128.496094 72.214844 C 128.683594 72.417969 128.769531 72.660156 128.753906 72.9375 Z M 128.753906 72.9375 " fill-opacity="1" fill-rule="nonzero"/><path fill="#000000" d="M 116.609375 79.203125 C 117.003906 78.539062 117.425781 77.898438 117.808594 77.238281 C 118.191406 76.578125 118.539062 75.910156 118.789062 75.203125 C 119.046875 74.496094 119.1875 73.761719 119.207031 73.011719 C 119.226562 72.242188 119.078125 71.503906 118.761719 70.804688 C 119.226562 71.425781 119.464844 72.21875 119.503906 73.003906 C 119.542969 73.804688 119.425781 74.582031 119.148438 75.332031 C 118.875 76.070312 118.511719 76.757812 118.058594 77.402344 C 117.617188 78.035156 117.132812 78.636719 116.609375 79.203125 Z M 116.609375 79.203125 " fill-opacity="1" fill-rule="nonzero"/><path fill="#000000" d="M 113.148438 80.949219 C 113.890625 81.101562 114.613281 81.316406 115.320312 81.585938 C 116.039062 81.859375 116.714844 82.207031 117.351562 82.636719 C 117.980469 83.074219 118.566406 83.605469 118.996094 84.253906 C 119.429688 84.902344 119.699219 85.667969 119.671875 86.429688 C 119.53125 85.6875 119.226562 85.019531 118.753906 84.429688 C 118.289062 83.855469 117.75 83.363281 117.132812 82.957031 C 116.519531 82.539062 115.875 82.175781 115.203125 81.863281 C 114.53125 81.539062 113.835938 81.253906 113.148438 80.949219 Z M 113.148438 80.949219 " fill-opacity="1" fill-rule="nonzero"/><path fill="#000000" d="M 126.625 68.367188 C 126.507812 68.367188 126.410156 68.328125 126.328125 68.246094 C 126.246094 68.164062 126.207031 68.066406 126.203125 67.949219 C 126.203125 67.832031 126.242188 67.734375 126.324219 67.652344 C 126.402344 67.570312 126.5 67.527344 126.617188 67.523438 C 126.730469 67.519531 126.832031 67.558594 126.914062 67.640625 C 126.996094 67.71875 127.039062 67.816406 127.042969 67.933594 C 127.046875 68.050781 127.011719 68.152344 126.929688 68.234375 C 126.851562 68.320312 126.753906 68.367188 126.640625 68.371094 Z M 126.625 67.910156 C 126.613281 67.910156 126.605469 67.914062 126.597656 67.921875 C 126.585938 67.9375 126.585938 67.953125 126.597656 67.972656 C 126.613281 67.988281 126.632812 67.988281 126.648438 67.96875 C 126.664062 67.953125 126.664062 67.933594 126.644531 67.917969 C 126.640625 67.914062 126.632812 67.910156 126.625 67.910156 Z M 126.625 67.910156 " fill-opacity="1" fill-rule="nonzero"/><path fill="#000000" d="M 128.867188 77.132812 C 128.757812 77.132812 128.660156 77.089844 128.578125 77.011719 C 128.496094 76.933594 128.453125 76.839844 128.449219 76.722656 C 128.445312 76.609375 128.484375 76.507812 128.5625 76.421875 C 128.640625 76.335938 128.738281 76.292969 128.855469 76.289062 C 128.972656 76.28125 129.070312 76.320312 129.15625 76.402344 C 129.292969 76.527344 129.328125 76.679688 129.261719 76.855469 C 129.199219 77.03125 129.070312 77.125 128.886719 77.132812 Z M 128.867188 76.675781 C 128.859375 76.675781 128.851562 76.679688 128.84375 76.683594 C 128.828125 76.703125 128.828125 76.71875 128.84375 76.734375 C 128.851562 76.742188 128.859375 76.746094 128.871094 76.746094 C 128.878906 76.746094 128.886719 76.742188 128.894531 76.734375 C 128.910156 76.71875 128.910156 76.699219 128.894531 76.683594 C 128.886719 76.675781 128.878906 76.671875 128.871094 76.675781 Z M 128.867188 76.675781 " fill-opacity="1" fill-rule="nonzero"/><path fill="#000000" d="M 119.285156 79.800781 C 119.175781 79.800781 119.078125 79.765625 119 79.6875 C 118.914062 79.609375 118.871094 79.511719 118.867188 79.394531 C 118.863281 79.277344 118.898438 79.179688 118.976562 79.09375 C 119.027344 79.039062 119.082031 79.003906 119.152344 78.980469 C 119.21875 78.957031 119.285156 78.953125 119.355469 78.964844 C 119.425781 78.976562 119.488281 79.003906 119.542969 79.046875 C 119.597656 79.09375 119.640625 79.148438 119.667969 79.210938 C 119.699219 79.277344 119.707031 79.34375 119.703125 79.417969 C 119.695312 79.488281 119.675781 79.550781 119.636719 79.613281 C 119.597656 79.671875 119.546875 79.71875 119.484375 79.75 C 119.421875 79.785156 119.355469 79.800781 119.285156 79.800781 Z M 119.285156 79.347656 C 119.277344 79.347656 119.269531 79.347656 119.261719 79.355469 C 119.246094 79.371094 119.246094 79.390625 119.261719 79.40625 C 119.277344 79.421875 119.292969 79.421875 119.308594 79.40625 C 119.324219 79.390625 119.324219 79.371094 119.308594 79.355469 C 119.304688 79.351562 119.296875 79.347656 119.289062 79.347656 Z M 119.285156 79.347656 " fill-opacity="1" fill-rule="nonzero"/><path fill="#000000" d="M 120.339844 75.605469 C 120.230469 75.609375 120.132812 75.570312 120.054688 75.492188 C 119.96875 75.414062 119.925781 75.316406 119.921875 75.199219 C 119.917969 75.085938 119.953125 74.984375 120.03125 74.898438 C 120.109375 74.8125 120.207031 74.769531 120.324219 74.761719 C 120.441406 74.757812 120.539062 74.796875 120.625 74.875 C 120.710938 74.957031 120.753906 75.054688 120.757812 75.167969 C 120.761719 75.285156 120.726562 75.386719 120.648438 75.472656 C 120.5625 75.5625 120.460938 75.605469 120.339844 75.605469 Z M 120.339844 75.152344 C 120.332031 75.152344 120.324219 75.152344 120.316406 75.160156 C 120.300781 75.179688 120.300781 75.195312 120.316406 75.210938 C 120.332031 75.222656 120.347656 75.222656 120.363281 75.210938 C 120.382812 75.195312 120.382812 75.179688 120.363281 75.160156 C 120.359375 75.15625 120.351562 75.152344 120.339844 75.152344 Z M 120.339844 75.152344 " fill-opacity="1" fill-rule="nonzero"/><path fill="#000000" d="M 132.816406 70.09375 C 132.722656 70.191406 132.613281 70.25 132.476562 70.269531 C 132.34375 70.285156 132.222656 70.257812 132.109375 70.1875 C 131.96875 70.097656 131.886719 69.96875 131.863281 69.804688 C 131.835938 69.625 131.886719 69.472656 132.007812 69.339844 C 132.128906 69.207031 132.277344 69.148438 132.457031 69.15625 C 132.621094 69.167969 132.753906 69.242188 132.855469 69.375 C 132.9375 69.484375 132.972656 69.605469 132.964844 69.742188 C 132.957031 69.878906 132.90625 69.996094 132.816406 70.09375 Z M 132.816406 70.09375 C 132.902344 70 132.933594 69.890625 132.910156 69.765625 C 132.890625 69.664062 132.835938 69.585938 132.75 69.53125 C 132.664062 69.476562 132.570312 69.464844 132.472656 69.492188 C 132.402344 69.511719 132.339844 69.546875 132.289062 69.601562 C 132.160156 69.738281 132.144531 69.886719 132.238281 70.046875 C 132.296875 70.144531 132.386719 70.199219 132.496094 70.214844 C 132.625 70.226562 132.730469 70.1875 132.816406 70.09375 Z M 132.816406 70.09375 " fill-opacity="1" fill-rule="nonzero"/><path fill="#000000" d="M 118.371094 73.652344 C 118.285156 73.734375 118.195312 73.847656 118.042969 73.90625 C 117.867188 73.972656 117.71875 73.929688 117.601562 73.78125 C 117.5 73.648438 117.496094 73.476562 117.503906 73.347656 C 117.511719 73.203125 117.546875 73.070312 117.613281 72.945312 C 117.75 72.65625 118.222656 72.582031 118.472656 72.839844 C 118.53125 72.902344 118.578125 72.976562 118.605469 73.058594 C 118.628906 73.140625 118.628906 73.222656 118.605469 73.304688 C 118.554688 73.441406 118.476562 73.554688 118.371094 73.652344 Z M 118.339844 73.625 C 118.425781 73.523438 118.425781 73.421875 118.351562 73.316406 C 118.304688 73.25 118.253906 73.195312 118.191406 73.144531 C 118.140625 73.097656 118.078125 73.070312 118.011719 73.054688 C 117.925781 73.042969 117.84375 73.054688 117.765625 73.089844 C 117.660156 73.140625 117.613281 73.222656 117.628906 73.34375 C 117.65625 73.445312 117.71875 73.511719 117.820312 73.542969 C 117.894531 73.578125 117.96875 73.617188 118.035156 73.660156 C 118.148438 73.730469 118.25 73.71875 118.339844 73.625 Z M 118.339844 73.625 " fill-opacity="1" fill-rule="nonzero"/><path fill="#000000" d="M 117.429688 80.683594 C 117.335938 80.785156 117.222656 80.84375 117.089844 80.859375 C 116.957031 80.878906 116.832031 80.851562 116.71875 80.777344 C 116.582031 80.6875 116.5 80.558594 116.476562 80.394531 C 116.453125 80.21875 116.5 80.0625 116.621094 79.929688 C 116.742188 79.796875 116.894531 79.738281 117.074219 79.75 C 117.238281 79.761719 117.371094 79.832031 117.472656 79.964844 C 117.550781 80.074219 117.585938 80.199219 117.578125 80.332031 C 117.570312 80.46875 117.519531 80.585938 117.429688 80.683594 Z M 117.429688 80.683594 C 117.515625 80.589844 117.546875 80.484375 117.523438 80.359375 C 117.503906 80.257812 117.453125 80.179688 117.363281 80.125 C 117.277344 80.070312 117.183594 80.054688 117.085938 80.082031 C 117.011719 80.101562 116.953125 80.136719 116.902344 80.191406 C 116.773438 80.328125 116.757812 80.476562 116.851562 80.636719 C 116.910156 80.734375 116.996094 80.789062 117.109375 80.804688 C 117.234375 80.816406 117.339844 80.777344 117.429688 80.683594 Z M 117.429688 80.683594 " fill-opacity="1" fill-rule="nonzero"/><path fill="#000000" d="M 88.042969 82.167969 C 86.164062 81.476562 84.363281 80.613281 82.644531 79.582031 C 80.921875 78.554688 79.285156 77.398438 77.734375 76.121094 C 76.1875 74.847656 74.722656 73.480469 73.339844 72.027344 C 71.957031 70.578125 70.65625 69.058594 69.4375 67.46875 C 70.773438 68.957031 72.140625 70.414062 73.554688 71.816406 C 74.96875 73.222656 76.4375 74.566406 77.976562 75.824219 C 79.511719 77.09375 81.117188 78.261719 82.796875 79.328125 C 84.480469 80.398438 86.230469 81.34375 88.042969 82.167969 Z M 88.042969 82.167969 " fill-opacity="1" fill-rule="nonzero"/><path fill="#000000" d="M 69.4375 67.390625 C 69.820312 66.699219 70.105469 65.9375 70.136719 65.144531 C 70.167969 64.355469 69.921875 63.535156 69.371094 62.976562 C 68.820312 62.414062 67.9375 62.164062 67.207031 62.457031 C 66.480469 62.75 65.976562 63.570312 66.234375 64.316406 C 65.515625 64.007812 64.769531 64.347656 64.425781 65.058594 C 64.082031 65.769531 64.273438 66.667969 64.789062 67.265625 C 65.304688 67.859375 66.101562 68.164062 66.886719 68.191406 C 67.667969 68.214844 68.628906 67.785156 69.339844 67.449219 " fill-opacity="1" fill-rule="nonzero"/><path fill="#000000" d="M 69.4375 67.390625 C 69.777344 66.6875 70.039062 65.929688 70.042969 65.160156 C 70.042969 64.390625 69.804688 63.628906 69.285156 63.105469 C 68.773438 62.59375 67.964844 62.359375 67.3125 62.613281 C 66.972656 62.746094 66.714844 62.96875 66.53125 63.28125 C 66.34375 63.589844 66.304688 63.914062 66.414062 64.253906 L 66.5625 64.671875 L 66.160156 64.496094 C 65.828125 64.347656 65.5 64.355469 65.179688 64.519531 C 64.859375 64.695312 64.640625 64.957031 64.527344 65.304688 C 64.285156 65.976562 64.519531 66.796875 65.039062 67.308594 C 65.558594 67.820312 66.34375 68.101562 67.101562 68.089844 C 67.871094 68.0625 68.613281 67.742188 69.339844 67.449219 C 68.996094 67.644531 68.636719 67.8125 68.273438 67.964844 C 67.898438 68.125 67.515625 68.230469 67.113281 68.28125 C 66.304688 68.335938 65.460938 68.101562 64.832031 67.527344 C 64.207031 66.957031 63.910156 66.023438 64.1875 65.183594 C 64.328125 64.742188 64.605469 64.410156 65.007812 64.183594 C 65.4375 63.964844 65.871094 63.949219 66.308594 64.140625 L 66.050781 64.382812 C 65.90625 63.929688 65.960938 63.5 66.207031 63.09375 C 66.4375 62.703125 66.761719 62.429688 67.183594 62.277344 C 67.601562 62.132812 68.019531 62.121094 68.441406 62.25 C 68.855469 62.367188 69.207031 62.585938 69.5 62.902344 C 70.070312 63.519531 70.285156 64.375 70.230469 65.171875 C 70.171875 65.972656 69.851562 66.726562 69.4375 67.390625 Z M 69.4375 67.390625 " fill-opacity="1" fill-rule="nonzero"/><path fill="#000000" d="M 81.863281 71.742188 C 82.246094 71.621094 82.582031 71.421875 82.867188 71.140625 C 83.140625 70.855469 83.320312 70.46875 83.296875 70.074219 C 83.277344 69.679688 83.03125 69.292969 82.664062 69.15625 C 82.292969 69.023438 81.835938 69.160156 81.683594 69.523438 C 81.515625 69.167969 81.128906 69.046875 80.765625 69.199219 C 80.402344 69.347656 80.171875 69.746094 80.167969 70.140625 C 80.167969 70.539062 80.363281 70.917969 80.648438 71.1875 C 80.933594 71.460938 81.429688 71.621094 81.808594 71.734375 " fill-opacity="1" fill-rule="nonzero"/><path fill="#000000" d="M 81.863281 71.742188 C 82.21875 71.574219 82.554688 71.367188 82.792969 71.082031 C 83.035156 70.792969 83.179688 70.4375 83.152344 70.097656 C 83.125 69.753906 82.910156 69.4375 82.617188 69.335938 C 82.328125 69.230469 81.957031 69.34375 81.863281 69.601562 L 81.703125 70.027344 L 81.511719 69.605469 C 81.449219 69.46875 81.34375 69.378906 81.199219 69.339844 C 81.046875 69.304688 80.902344 69.324219 80.769531 69.402344 C 80.488281 69.546875 80.3125 69.898438 80.328125 70.234375 C 80.355469 70.613281 80.511719 70.929688 80.789062 71.183594 C 81.066406 71.429688 81.445312 71.578125 81.808594 71.730469 C 81.421875 71.660156 81.027344 71.566406 80.671875 71.332031 C 80.300781 71.070312 80.085938 70.710938 80.027344 70.257812 C 79.996094 70.023438 80.035156 69.800781 80.136719 69.585938 C 80.238281 69.375 80.386719 69.203125 80.589844 69.082031 C 80.808594 68.949219 81.042969 68.914062 81.292969 68.972656 C 81.554688 69.039062 81.746094 69.195312 81.859375 69.441406 L 81.507812 69.449219 C 81.617188 69.203125 81.796875 69.042969 82.054688 68.96875 C 82.289062 68.890625 82.519531 68.902344 82.75 68.992188 C 82.964844 69.089844 83.132812 69.238281 83.261719 69.433594 C 83.386719 69.632812 83.449219 69.847656 83.449219 70.082031 C 83.441406 70.535156 83.265625 70.914062 82.925781 71.210938 C 82.617188 71.480469 82.265625 71.65625 81.863281 71.742188 Z M 81.863281 71.742188 " fill-opacity="1" fill-rule="nonzero"/><g clip-path="url(#d74ec5ef8a)"><path fill="#000000" d="M 80.855469 87.371094 C 80.488281 87.21875 80.101562 87.15625 79.703125 87.1875 C 79.316406 87.230469 78.929688 87.414062 78.695312 87.730469 C 78.460938 88.046875 78.398438 88.5 78.597656 88.84375 C 78.796875 89.183594 79.238281 89.371094 79.585938 89.191406 C 79.488281 89.574219 79.707031 89.914062 80.082031 90.03125 C 80.457031 90.152344 80.886719 89.992188 81.140625 89.691406 C 81.394531 89.390625 81.488281 88.972656 81.441406 88.578125 C 81.394531 88.1875 81.113281 87.742188 80.894531 87.414062 " fill-opacity="1" fill-rule="nonzero"/><path fill="#000000" d="M 80.855469 87.371094 C 80.476562 87.269531 80.089844 87.214844 79.722656 87.28125 C 79.351562 87.34375 79.015625 87.527344 78.820312 87.808594 C 78.625 88.089844 78.585938 88.46875 78.75 88.738281 C 78.890625 89.003906 79.261719 89.15625 79.5 89.019531 L 79.890625 88.792969 L 79.773438 89.238281 C 79.730469 89.386719 79.753906 89.519531 79.839844 89.644531 C 79.933594 89.769531 80.058594 89.847656 80.214844 89.875 C 80.519531 89.949219 80.878906 89.789062 81.082031 89.519531 C 81.304688 89.210938 81.386719 88.867188 81.332031 88.492188 C 81.273438 88.121094 81.078125 87.765625 80.898438 87.414062 C 81.148438 87.722656 81.394531 88.042969 81.519531 88.449219 C 81.632812 88.890625 81.574219 89.308594 81.332031 89.695312 C 81.203125 89.894531 81.03125 90.042969 80.820312 90.140625 C 80.605469 90.238281 80.382812 90.269531 80.148438 90.238281 C 79.894531 90.195312 79.691406 90.070312 79.539062 89.867188 C 79.378906 89.648438 79.332031 89.40625 79.402344 89.144531 L 79.675781 89.359375 C 79.4375 89.476562 79.195312 89.484375 78.953125 89.378906 C 78.722656 89.285156 78.550781 89.128906 78.433594 88.910156 C 78.332031 88.699219 78.292969 88.476562 78.320312 88.242188 C 78.351562 88.011719 78.4375 87.804688 78.589844 87.625 C 78.882812 87.28125 79.257812 87.105469 79.707031 87.089844 C 80.113281 87.085938 80.496094 87.179688 80.855469 87.371094 Z M 80.855469 87.371094 " fill-opacity="1" fill-rule="nonzero"/></g><path fill="#000000" d="M 76.902344 72.628906 C 77.167969 72.675781 77.394531 72.871094 77.539062 73.101562 C 77.6875 73.347656 77.761719 73.609375 77.753906 73.898438 C 77.746094 74.175781 77.6875 74.441406 77.585938 74.695312 C 77.484375 74.941406 77.371094 75.175781 77.242188 75.40625 L 77.136719 75.164062 L 77.296875 75.210938 L 77.175781 75.21875 C 77.625 75.007812 77.980469 74.6875 78.246094 74.265625 C 78.53125 73.835938 78.691406 73.359375 78.722656 72.84375 C 78.757812 72.320312 78.605469 71.859375 78.273438 71.457031 C 77.953125 71.070312 77.542969 70.886719 77.046875 70.90625 C 76.59375 70.929688 76.199219 71.246094 75.980469 71.644531 C 75.761719 72.042969 75.710938 72.535156 75.800781 73.007812 C 75.847656 73.25 75.917969 73.480469 76.023438 73.699219 C 76.132812 73.925781 76.257812 74.140625 76.402344 74.347656 C 76.6875 74.761719 77.027344 75.15625 77.34375 75.566406 L 77.316406 75.589844 C 76.921875 75.25 76.550781 74.886719 76.207031 74.496094 C 75.832031 74.09375 75.578125 73.621094 75.441406 73.085938 C 75.308594 72.554688 75.332031 71.945312 75.625 71.441406 C 75.769531 71.183594 75.964844 70.976562 76.207031 70.8125 C 76.457031 70.644531 76.730469 70.554688 77.027344 70.546875 C 77.644531 70.539062 78.125 70.792969 78.464844 71.308594 C 78.777344 71.765625 78.882812 72.324219 78.847656 72.84375 C 78.800781 73.375 78.664062 73.882812 78.433594 74.363281 C 78.320312 74.613281 78.171875 74.839844 77.988281 75.042969 C 77.796875 75.246094 77.578125 75.410156 77.324219 75.527344 L 77.265625 75.554688 L 77.203125 75.539062 L 77.046875 75.492188 L 76.835938 75.433594 L 76.941406 75.242188 C 77.191406 74.796875 77.4375 74.359375 77.492188 73.882812 C 77.515625 73.640625 77.480469 73.410156 77.386719 73.1875 C 77.289062 72.949219 77.128906 72.773438 76.894531 72.667969 Z M 76.902344 72.628906 " fill-opacity="1" fill-rule="nonzero"/><path fill="#000000" d="M 78.140625 82.246094 C 78.058594 81.878906 78.179688 81.484375 78.394531 81.171875 C 78.621094 80.847656 78.914062 80.609375 79.277344 80.457031 C 79.632812 80.316406 80.003906 80.238281 80.386719 80.226562 C 80.753906 80.214844 81.121094 80.226562 81.488281 80.257812 L 81.367188 80.296875 L 81.511719 80.179688 L 81.507812 80.445312 C 80.960938 79.992188 80.335938 79.699219 79.640625 79.566406 C 78.929688 79.414062 78.226562 79.449219 77.53125 79.664062 C 77.191406 79.773438 76.878906 79.9375 76.589844 80.152344 C 76.308594 80.367188 76.074219 80.625 75.886719 80.929688 C 75.527344 81.523438 75.429688 82.265625 75.671875 82.890625 C 75.894531 83.527344 76.492188 83.957031 77.144531 84.070312 C 77.800781 84.207031 78.488281 84.027344 79.070312 83.667969 C 79.652344 83.308594 80.136719 82.773438 80.542969 82.191406 C 80.75 81.894531 80.933594 81.589844 81.101562 81.269531 C 81.28125 80.957031 81.4375 80.628906 81.601562 80.304688 L 81.636719 80.320312 C 81.40625 81.011719 81.132812 81.695312 80.765625 82.332031 C 80.578125 82.65625 80.363281 82.957031 80.121094 83.242188 C 79.875 83.53125 79.589844 83.78125 79.277344 83.992188 C 78.953125 84.207031 78.601562 84.359375 78.226562 84.453125 C 77.839844 84.546875 77.453125 84.554688 77.066406 84.472656 C 76.671875 84.394531 76.320312 84.226562 76.011719 83.976562 C 75.695312 83.71875 75.472656 83.398438 75.34375 83.007812 C 75.21875 82.628906 75.191406 82.246094 75.261719 81.851562 C 75.328125 81.46875 75.476562 81.121094 75.707031 80.804688 C 76.140625 80.183594 76.800781 79.773438 77.496094 79.550781 C 77.847656 79.4375 78.207031 79.367188 78.574219 79.332031 C 78.941406 79.296875 79.308594 79.296875 79.675781 79.339844 C 80.410156 79.421875 81.152344 79.679688 81.734375 80.179688 L 81.890625 80.316406 L 81.726562 80.449219 L 81.585938 80.5625 L 81.53125 80.605469 L 81.464844 80.601562 C 80.746094 80.539062 80.03125 80.480469 79.378906 80.703125 C 79.046875 80.820312 78.769531 81.011719 78.539062 81.277344 C 78.289062 81.546875 78.171875 81.867188 78.179688 82.238281 Z M 78.140625 82.246094 " fill-opacity="1" fill-rule="nonzero"/><path fill="#000000" d="M 71.769531 73.902344 C 71.753906 73.625 71.839844 73.382812 72.027344 73.179688 C 72.207031 72.972656 72.429688 72.828125 72.691406 72.746094 C 72.949219 72.667969 73.214844 72.636719 73.480469 72.652344 C 73.742188 72.667969 74 72.695312 74.257812 72.738281 L 74.164062 72.757812 L 74.273438 72.683594 L 74.246094 72.890625 C 73.890625 72.546875 73.46875 72.320312 72.984375 72.210938 C 72.507812 72.089844 72.027344 72.082031 71.546875 72.183594 C 71.070312 72.277344 70.671875 72.511719 70.359375 72.886719 C 70.039062 73.257812 69.933594 73.683594 70.035156 74.160156 C 70.128906 74.601562 70.488281 74.953125 70.933594 75.09375 C 71.375 75.246094 71.875 75.179688 72.3125 74.972656 C 72.75 74.765625 73.132812 74.425781 73.464844 74.046875 C 73.792969 73.667969 74.066406 73.230469 74.34375 72.796875 C 74.132812 73.269531 73.878906 73.71875 73.582031 74.144531 C 73.277344 74.589844 72.894531 74.945312 72.425781 75.210938 C 71.957031 75.460938 71.375 75.574219 70.835938 75.410156 C 70.558594 75.332031 70.3125 75.191406 70.105469 74.992188 C 69.886719 74.789062 69.746094 74.539062 69.671875 74.25 C 69.535156 73.648438 69.664062 73.113281 70.058594 72.640625 C 70.429688 72.199219 70.902344 71.925781 71.464844 71.820312 C 72.003906 71.714844 72.539062 71.738281 73.066406 71.886719 C 73.601562 72.027344 74.058594 72.300781 74.4375 72.703125 L 74.550781 72.824219 L 74.414062 72.910156 L 74.300781 72.976562 L 74.253906 73.007812 L 74.207031 72.996094 C 73.710938 72.886719 73.210938 72.785156 72.730469 72.890625 C 72.484375 72.945312 72.269531 73.058594 72.085938 73.234375 C 71.890625 73.414062 71.785156 73.636719 71.769531 73.902344 Z M 71.769531 73.902344 " fill-opacity="1" fill-rule="nonzero"/><path fill="#000000" d="M 83.914062 80.167969 C 83.386719 79.601562 82.90625 79 82.460938 78.367188 C 82.011719 77.726562 81.648438 77.035156 81.375 76.300781 C 81.097656 75.546875 80.980469 74.769531 81.019531 73.96875 C 81.058594 73.183594 81.296875 72.390625 81.761719 71.769531 C 81.445312 72.472656 81.296875 73.207031 81.316406 73.976562 C 81.335938 74.730469 81.476562 75.460938 81.734375 76.167969 C 81.984375 76.875 82.335938 77.546875 82.714844 78.207031 C 83.097656 78.863281 83.519531 79.503906 83.914062 80.167969 Z M 83.914062 80.167969 " fill-opacity="1" fill-rule="nonzero"/><path fill="#000000" d="M 87.375 81.914062 C 86.683594 82.222656 85.992188 82.507812 85.320312 82.828125 C 84.644531 83.140625 84.003906 83.503906 83.386719 83.921875 C 82.773438 84.328125 82.234375 84.820312 81.769531 85.394531 C 81.296875 85.984375 80.992188 86.652344 80.851562 87.394531 C 80.824219 86.632812 81.089844 85.859375 81.527344 85.21875 C 81.960938 84.574219 82.542969 84.039062 83.171875 83.601562 C 83.808594 83.171875 84.484375 82.820312 85.203125 82.550781 C 85.910156 82.277344 86.632812 82.066406 87.375 81.914062 Z M 87.375 81.914062 " fill-opacity="1" fill-rule="nonzero"/><path fill="#000000" d="M 73.898438 69.332031 L 73.882812 69.332031 C 73.695312 69.328125 73.570312 69.234375 73.503906 69.058594 C 73.441406 68.882812 73.476562 68.730469 73.613281 68.605469 C 73.664062 68.554688 73.722656 68.523438 73.789062 68.503906 C 73.855469 68.488281 73.921875 68.484375 73.992188 68.5 C 74.058594 68.515625 74.117188 68.546875 74.171875 68.59375 C 74.222656 68.636719 74.261719 68.691406 74.289062 68.757812 C 74.3125 68.820312 74.324219 68.890625 74.316406 68.957031 C 74.308594 69.027344 74.285156 69.089844 74.246094 69.148438 C 74.207031 69.207031 74.15625 69.25 74.097656 69.285156 C 74.035156 69.316406 73.96875 69.332031 73.902344 69.335938 Z M 73.898438 68.875 C 73.890625 68.875 73.882812 68.878906 73.875 68.886719 C 73.859375 68.902344 73.859375 68.917969 73.875 68.9375 C 73.890625 68.953125 73.90625 68.953125 73.925781 68.9375 C 73.9375 68.917969 73.9375 68.902344 73.925781 68.886719 C 73.917969 68.878906 73.910156 68.875 73.898438 68.875 Z M 73.898438 68.875 " fill-opacity="1" fill-rule="nonzero"/><path fill="#000000" d="M 71.652344 78.097656 C 71.53125 78.097656 71.429688 78.050781 71.347656 77.964844 C 71.265625 77.878906 71.230469 77.777344 71.234375 77.660156 C 71.238281 77.542969 71.28125 77.445312 71.367188 77.367188 C 71.453125 77.285156 71.550781 77.25 71.667969 77.253906 C 71.785156 77.257812 71.882812 77.300781 71.960938 77.386719 C 72.085938 77.523438 72.113281 77.675781 72.039062 77.84375 C 71.964844 78.011719 71.835938 78.097656 71.652344 78.097656 Z M 71.628906 77.699219 C 71.644531 77.714844 71.660156 77.714844 71.675781 77.699219 C 71.695312 77.683594 71.695312 77.667969 71.675781 77.648438 C 71.671875 77.644531 71.664062 77.640625 71.652344 77.636719 C 71.644531 77.636719 71.636719 77.640625 71.628906 77.648438 C 71.609375 77.664062 71.609375 77.683594 71.628906 77.699219 Z M 71.628906 77.699219 " fill-opacity="1" fill-rule="nonzero"/><path fill="#000000" d="M 81.238281 80.769531 C 81.097656 80.765625 80.988281 80.710938 80.90625 80.597656 C 80.824219 80.488281 80.800781 80.367188 80.839844 80.230469 C 80.878906 80.097656 80.960938 80.007812 81.089844 79.957031 C 81.21875 79.90625 81.339844 79.917969 81.457031 79.992188 C 81.578125 80.0625 81.640625 80.167969 81.65625 80.308594 C 81.667969 80.445312 81.625 80.5625 81.523438 80.65625 C 81.441406 80.730469 81.347656 80.769531 81.238281 80.769531 Z M 81.238281 80.3125 C 81.226562 80.3125 81.21875 80.316406 81.210938 80.320312 C 81.199219 80.335938 81.199219 80.355469 81.210938 80.371094 C 81.230469 80.386719 81.246094 80.386719 81.261719 80.371094 C 81.277344 80.355469 81.277344 80.335938 81.261719 80.320312 C 81.253906 80.3125 81.246094 80.3125 81.234375 80.3125 Z M 81.238281 80.3125 " fill-opacity="1" fill-rule="nonzero"/><path fill="#000000" d="M 80.183594 76.574219 L 80.167969 76.574219 C 80.050781 76.570312 79.957031 76.523438 79.878906 76.441406 C 79.75 76.300781 79.726562 76.148438 79.804688 75.976562 C 79.878906 75.804688 80.011719 75.722656 80.199219 75.730469 C 80.316406 75.734375 80.414062 75.777344 80.496094 75.859375 C 80.574219 75.945312 80.613281 76.042969 80.613281 76.160156 C 80.609375 76.277344 80.566406 76.375 80.484375 76.457031 C 80.402344 76.535156 80.300781 76.574219 80.183594 76.574219 Z M 80.183594 76.117188 C 80.171875 76.117188 80.164062 76.121094 80.15625 76.125 C 80.144531 76.140625 80.144531 76.160156 80.15625 76.175781 C 80.175781 76.191406 80.191406 76.191406 80.207031 76.175781 C 80.222656 76.160156 80.222656 76.140625 80.207031 76.125 C 80.199219 76.117188 80.191406 76.117188 80.179688 76.117188 Z M 80.183594 76.117188 " fill-opacity="1" fill-rule="nonzero"/><path fill="#000000" d="M 67.707031 71.058594 C 67.792969 71.152344 67.898438 71.191406 68.023438 71.179688 C 68.136719 71.164062 68.226562 71.109375 68.285156 71.011719 C 68.378906 70.851562 68.363281 70.703125 68.234375 70.566406 C 68.183594 70.515625 68.121094 70.480469 68.050781 70.460938 C 67.960938 70.4375 67.878906 70.445312 67.796875 70.488281 C 67.695312 70.539062 67.632812 70.621094 67.613281 70.734375 C 67.589844 70.859375 67.621094 70.96875 67.707031 71.058594 Z M 67.707031 71.058594 C 67.617188 70.960938 67.566406 70.84375 67.558594 70.707031 C 67.550781 70.574219 67.585938 70.453125 67.664062 70.34375 C 67.765625 70.210938 67.898438 70.136719 68.0625 70.125 C 68.148438 70.121094 68.230469 70.132812 68.308594 70.164062 C 68.386719 70.195312 68.457031 70.242188 68.515625 70.304688 C 68.570312 70.367188 68.613281 70.441406 68.640625 70.523438 C 68.664062 70.605469 68.671875 70.6875 68.660156 70.773438 C 68.636719 70.9375 68.554688 71.066406 68.414062 71.15625 C 68.300781 71.226562 68.179688 71.253906 68.042969 71.234375 C 67.910156 71.21875 67.796875 71.160156 67.707031 71.058594 Z M 67.707031 71.058594 " fill-opacity="1" fill-rule="nonzero"/><path fill="#000000" d="M 82.179688 74.59375 C 82.273438 74.6875 82.378906 74.699219 82.488281 74.628906 C 82.558594 74.582031 82.628906 74.546875 82.703125 74.511719 C 82.777344 74.480469 82.878906 74.417969 82.894531 74.308594 C 82.914062 74.1875 82.867188 74.105469 82.761719 74.054688 C 82.679688 74.019531 82.597656 74.007812 82.511719 74.019531 C 82.445312 74.035156 82.386719 74.066406 82.332031 74.109375 C 82.273438 74.160156 82.222656 74.21875 82.175781 74.28125 C 82.097656 74.386719 82.101562 74.488281 82.179688 74.59375 Z M 82.152344 74.617188 C 82.046875 74.523438 81.96875 74.40625 81.917969 74.273438 C 81.894531 74.191406 81.894531 74.109375 81.917969 74.027344 C 81.945312 73.941406 81.992188 73.871094 82.054688 73.808594 C 82.304688 73.550781 82.773438 73.621094 82.917969 73.910156 C 82.980469 74.035156 83.015625 74.171875 83.023438 74.3125 C 83.03125 74.445312 83.027344 74.613281 82.925781 74.746094 C 82.808594 74.898438 82.660156 74.941406 82.480469 74.875 C 82.328125 74.816406 82.238281 74.703125 82.152344 74.617188 Z M 82.152344 74.617188 " fill-opacity="1" fill-rule="nonzero"/><path fill="#000000" d="M 83.09375 81.648438 C 83.179688 81.742188 83.285156 81.785156 83.414062 81.769531 C 83.527344 81.757812 83.613281 81.699219 83.671875 81.601562 C 83.765625 81.441406 83.75 81.292969 83.621094 81.160156 C 83.570312 81.105469 83.507812 81.066406 83.4375 81.050781 C 83.339844 81.019531 83.246094 81.035156 83.160156 81.089844 C 83.070312 81.144531 83.019531 81.222656 83 81.324219 C 82.976562 81.449219 83.007812 81.558594 83.09375 81.648438 Z M 83.09375 81.648438 C 83.003906 81.550781 82.953125 81.433594 82.945312 81.300781 C 82.9375 81.164062 82.972656 81.042969 83.050781 80.933594 C 83.152344 80.800781 83.285156 80.726562 83.449219 80.714844 C 83.535156 80.710938 83.617188 80.722656 83.695312 80.753906 C 83.773438 80.789062 83.84375 80.835938 83.902344 80.898438 C 83.960938 80.960938 84 81.03125 84.027344 81.113281 C 84.050781 81.195312 84.058594 81.277344 84.046875 81.363281 C 84.023438 81.527344 83.941406 81.65625 83.804688 81.746094 C 83.6875 81.816406 83.566406 81.84375 83.433594 81.828125 C 83.296875 81.808594 83.1875 81.75 83.09375 81.648438 Z M 83.09375 81.648438 " fill-opacity="1" fill-rule="nonzero"/></svg>