<svg xmlns="http://www.w3.org/2000/svg" xmlns:xlink="http://www.w3.org/1999/xlink" width="256" zoomAndPan="magnify" viewBox="0 0 192 191.999996" height="256" preserveAspectRatio="xMidYMid meet" version="1.0"><defs><g/><clipPath id="a6c322cf9c"><path d="M 37.320312 73.167969 L 158.527344 73.167969 L 158.527344 139.917969 L 37.320312 139.917969 Z M 37.320312 73.167969 " clip-rule="nonzero"/></clipPath></defs><rect x="-19.2" width="230.4" fill="#ffffff" y="-19.2" height="230.399995" fill-opacity="1"/><rect x="-19.2" width="230.4" fill="#ffffff" y="-19.2" height="230.399995" fill-opacity="1"/><g fill="#f55951" fill-opacity="1"><g transform="translate(49.299709, 100.197064)"><g><path d="M 6.171875 -4.175781 C 6.171875 -1.308594 4.863281 -0.808594 1.871094 -0.808594 L 1.871094 0 L 17.394531 0 L 17.394531 -0.808594 C 14.402344 -0.808594 13.03125 -1.308594 13.03125 -4.175781 L 13.03125 -20.074219 L 15.648438 -23.003906 L 26.558594 -7.167969 C 28.988281 -3.742188 31.171875 0 36.40625 0 L 43.140625 0 L 43.140625 -0.808594 C 40.773438 -0.808594 38.777344 -1.496094 36.90625 -4.175781 L 25.683594 -20.511719 C 24.8125 -19.761719 23.753906 -19.386719 22.566406 -19.386719 C 20.386719 -19.386719 17.890625 -20.761719 16.269531 -23.628906 L 32.167969 -41.457031 C 34.601562 -44.261719 36.222656 -44.636719 39.835938 -44.636719 L 39.835938 -45.449219 L 27.867188 -45.449219 L 27.867188 -44.636719 C 31.234375 -44.636719 34.101562 -44.386719 31.171875 -41.394531 L 13.03125 -21.195312 L 13.03125 -41.269531 C 13.03125 -44.136719 14.402344 -44.636719 17.394531 -44.636719 L 17.394531 -45.449219 L 1.871094 -45.449219 L 1.871094 -44.636719 C 4.863281 -44.636719 6.171875 -44.136719 6.171875 -41.269531 Z M 6.171875 -4.175781 "/></g></g></g><g clip-path="url(#a6c322cf9c)"><path fill="#f55951" d="M 137.402344 109.964844 C 138.144531 110.183594 138.90625 110.347656 139.683594 110.457031 C 140.449219 110.566406 141.230469 110.621094 142.019531 110.621094 C 146.570312 110.621094 150.691406 108.78125 153.675781 105.800781 C 156.65625 102.824219 158.503906 98.710938 158.503906 94.167969 C 158.503906 89.621094 156.65625 85.507812 153.675781 82.53125 C 150.691406 79.550781 146.570312 77.710938 142.019531 77.710938 C 139.488281 77.710938 137.089844 78.28125 134.945312 79.300781 C 132.71875 80.355469 130.769531 81.898438 129.226562 83.789062 C 124.5625 89.429688 120.765625 95.351562 116.96875 101.265625 C 109.144531 113.457031 101.332031 125.628906 86.0625 135.140625 C 84.664062 135.898438 83.210938 136.5625 81.699219 137.113281 C 78.203125 138.390625 74.425781 139.089844 70.480469 139.089844 C 61.480469 139.089844 53.328125 135.445312 47.429688 129.558594 C 41.53125 123.667969 37.882812 115.53125 37.882812 106.546875 C 37.882812 97.558594 41.53125 89.421875 47.429688 83.535156 C 53.011719 77.960938 60.605469 74.402344 69.027344 74.035156 C 68.367188 74.511719 67.933594 75.289062 67.933594 76.171875 C 67.933594 77.625 69.117188 78.804688 70.574219 78.804688 C 72.03125 78.804688 73.214844 77.625 73.214844 76.171875 C 73.214844 74.902344 72.316406 73.84375 71.125 73.59375 L 71.132812 73.179688 L 70.484375 73.171875 C 61.253906 73.171875 52.894531 76.90625 46.84375 82.945312 C 40.792969 88.988281 37.050781 97.328125 37.050781 106.546875 C 37.050781 115.761719 40.792969 124.109375 46.84375 130.148438 C 52.894531 136.1875 61.25 139.921875 70.484375 139.921875 C 74.523438 139.921875 78.398438 139.207031 81.988281 137.894531 C 85.707031 136.535156 89.117188 134.53125 92.082031 132.023438 C 103.949219 123.09375 110.804688 112.414062 117.667969 101.714844 C 121.457031 95.816406 125.246094 89.910156 129.871094 84.3125 L 129.550781 84.050781 L 129.875 84.3125 C 131.335938 82.519531 133.1875 81.054688 135.300781 80.050781 C 137.335938 79.085938 139.617188 78.542969 142.019531 78.542969 C 146.34375 78.542969 150.257812 80.292969 153.089844 83.121094 C 155.921875 85.949219 157.671875 89.855469 157.671875 94.171875 C 157.671875 98.484375 155.921875 102.390625 153.089844 105.21875 C 150.257812 108.046875 146.34375 109.796875 142.019531 109.796875 C 141.261719 109.796875 140.519531 109.742188 139.800781 109.640625 C 139.058594 109.535156 138.335938 109.378906 137.636719 109.175781 L 137.40625 109.972656 Z M 137.402344 109.964844 " fill-opacity="1" fill-rule="nonzero"/></g><g fill="#000000" fill-opacity="1"><g transform="translate(58.189753, 120.148347)"><g><path d="M 2.964844 -1.078125 C 2.964844 -1.355469 2.894531 -1.589844 2.765625 -1.769531 C 2.628906 -1.953125 2.445312 -2.078125 2.222656 -2.140625 C 2.351562 -2.199219 2.46875 -2.300781 2.554688 -2.457031 C 2.59375 -2.523438 2.621094 -2.59375 2.644531 -2.667969 C 2.667969 -2.742188 2.679688 -2.84375 2.679688 -2.976562 C 2.679688 -3.101562 2.644531 -3.234375 2.585938 -3.359375 C 2.417969 -3.707031 2.046875 -3.882812 1.480469 -3.882812 L 0.429688 -3.882812 L 0.429688 0 L 1.617188 0 C 2.011719 0 2.324219 -0.0859375 2.566406 -0.269531 C 2.683594 -0.359375 2.78125 -0.480469 2.855469 -0.628906 C 2.925781 -0.769531 2.964844 -0.917969 2.964844 -1.078125 Z M 2.277344 -2.914062 C 2.277344 -2.703125 2.214844 -2.546875 2.089844 -2.445312 C 1.964844 -2.34375 1.800781 -2.289062 1.59375 -2.289062 L 0.828125 -2.289062 L 0.828125 -3.5 L 1.480469 -3.5 C 2.011719 -3.5 2.277344 -3.300781 2.277344 -2.914062 Z M 2.566406 -1.160156 C 2.566406 -0.925781 2.484375 -0.738281 2.324219 -0.59375 C 2.171875 -0.453125 1.972656 -0.382812 1.730469 -0.382812 L 0.828125 -0.382812 L 0.828125 -1.890625 L 1.792969 -1.890625 C 1.992188 -1.890625 2.171875 -1.820312 2.324219 -1.683594 C 2.394531 -1.621094 2.449219 -1.546875 2.496094 -1.460938 C 2.542969 -1.371094 2.566406 -1.273438 2.566406 -1.160156 Z M 2.566406 -1.160156 "/></g></g></g><g fill="#000000" fill-opacity="1"><g transform="translate(65.335828, 120.148347)"><g><path d="M 2.734375 0 L 2.734375 -0.371094 L 0.828125 -0.371094 L 0.828125 -1.753906 L 2.679688 -1.753906 L 2.679688 -2.128906 L 0.828125 -2.128906 L 0.828125 -3.511719 L 2.734375 -3.511719 L 2.734375 -3.882812 L 0.429688 -3.882812 L 0.429688 0 Z M 2.734375 0 "/></g></g></g><g fill="#000000" fill-opacity="1"><g transform="translate(72.567544, 120.148347)"><g><path d="M 1.503906 -1.828125 C 2.003906 -1.707031 2.347656 -1.578125 2.53125 -1.429688 C 2.65625 -1.324219 2.71875 -1.195312 2.71875 -1.035156 C 2.71875 -0.875 2.683594 -0.742188 2.617188 -0.652344 C 2.445312 -0.410156 2.136719 -0.292969 1.703125 -0.292969 C 1.097656 -0.292969 0.753906 -0.496094 0.679688 -0.910156 L 0.210938 -0.910156 C 0.347656 -0.25 0.84375 0.0742188 1.703125 0.0742188 C 2.085938 0.0742188 2.40625 -0.00390625 2.660156 -0.175781 C 2.96875 -0.378906 3.128906 -0.675781 3.128906 -1.0625 C 3.128906 -1.382812 3.003906 -1.628906 2.753906 -1.800781 C 2.578125 -1.925781 2.289062 -2.039062 1.894531 -2.140625 C 1.496094 -2.246094 1.238281 -2.332031 1.121094 -2.394531 C 0.855469 -2.523438 0.726562 -2.707031 0.730469 -2.949219 C 0.730469 -3.074219 0.753906 -3.183594 0.8125 -3.261719 C 0.960938 -3.484375 1.222656 -3.597656 1.597656 -3.597656 C 2.128906 -3.597656 2.433594 -3.425781 2.511719 -3.097656 L 2.949219 -3.097656 C 2.804688 -3.65625 2.351562 -3.941406 1.597656 -3.941406 C 1.257812 -3.941406 0.953125 -3.851562 0.703125 -3.667969 C 0.445312 -3.484375 0.3125 -3.214844 0.3125 -2.851562 C 0.3125 -2.351562 0.714844 -2.011719 1.503906 -1.828125 Z M 1.503906 -1.828125 "/></g></g></g><g fill="#000000" fill-opacity="1"><g transform="translate(79.913451, 120.148347)"><g><path d="M 0.113281 -3.523438 L 1.058594 -3.523438 L 1.058594 -0.0117188 L 1.457031 -0.0117188 L 1.457031 -3.523438 L 2.398438 -3.523438 L 2.398438 -3.894531 L 0.113281 -3.894531 Z M 0.113281 -3.523438 "/></g></g></g><g fill="#000000" fill-opacity="1"><g transform="translate(86.494274, 120.148347)"><g/></g></g><g fill="#000000" fill-opacity="1"><g transform="translate(92.104467, 120.148347)"><g><path d="M 0.828125 -1.917969 L 0.828125 -3.5 L 1.730469 -3.5 C 1.964844 -3.5 2.152344 -3.425781 2.296875 -3.277344 C 2.433594 -3.128906 2.507812 -2.949219 2.507812 -2.71875 C 2.507812 -2.492188 2.433594 -2.300781 2.285156 -2.148438 C 2.136719 -1.992188 1.953125 -1.917969 1.730469 -1.917969 Z M 2.90625 -2.714844 C 2.90625 -3.042969 2.78125 -3.332031 2.542969 -3.554688 C 2.308594 -3.769531 2.015625 -3.882812 1.671875 -3.882812 L 0.429688 -3.882812 L 0.429688 0 L 0.828125 0 L 0.828125 -1.535156 L 1.289062 -1.535156 L 2.433594 0 L 2.96875 0 L 1.769531 -1.535156 C 2.074219 -1.554688 2.332031 -1.664062 2.542969 -1.863281 C 2.78125 -2.085938 2.90625 -2.371094 2.90625 -2.714844 Z M 2.90625 -2.714844 "/></g></g></g><g fill="#000000" fill-opacity="1"><g transform="translate(99.279087, 120.148347)"><g><path d="M 2.734375 0 L 2.734375 -0.371094 L 0.828125 -0.371094 L 0.828125 -1.753906 L 2.679688 -1.753906 L 2.679688 -2.128906 L 0.828125 -2.128906 L 0.828125 -3.511719 L 2.734375 -3.511719 L 2.734375 -3.882812 L 0.429688 -3.882812 L 0.429688 0 Z M 2.734375 0 "/></g></g></g><g fill="#000000" fill-opacity="1"><g transform="translate(106.510803, 120.148347)"><g><path d="M 3.992188 -1.1875 L 3.554688 -1.1875 C 3.414062 -0.9375 3.226562 -0.730469 2.988281 -0.582031 C 2.746094 -0.429688 2.480469 -0.355469 2.195312 -0.355469 C 1.765625 -0.355469 1.398438 -0.507812 1.097656 -0.828125 C 0.800781 -1.132812 0.65625 -1.503906 0.65625 -1.9375 C 0.65625 -2.371094 0.800781 -2.742188 1.097656 -3.050781 C 1.234375 -3.191406 1.398438 -3.308594 1.589844 -3.394531 C 1.769531 -3.480469 1.953125 -3.523438 2.136719 -3.523438 C 2.3125 -3.523438 2.46875 -3.5 2.605469 -3.460938 C 3.023438 -3.335938 3.335938 -3.085938 3.546875 -2.703125 L 3.988281 -2.703125 C 3.839844 -3.066406 3.605469 -3.363281 3.277344 -3.59375 C 2.949219 -3.820312 2.585938 -3.9375 2.195312 -3.9375 C 1.652344 -3.9375 1.195312 -3.734375 0.816406 -3.339844 C 0.640625 -3.160156 0.503906 -2.941406 0.40625 -2.703125 C 0.304688 -2.460938 0.257812 -2.203125 0.257812 -1.9375 C 0.257812 -1.386719 0.441406 -0.925781 0.816406 -0.535156 C 1.195312 -0.136719 1.652344 0.0585938 2.195312 0.0585938 C 2.585938 0.0585938 2.949219 -0.0585938 3.285156 -0.285156 C 3.609375 -0.515625 3.84375 -0.8125 3.992188 -1.1875 Z M 3.992188 -1.1875 "/></g></g></g><g fill="#000000" fill-opacity="1"><g transform="translate(114.741699, 120.148347)"><g><path d="M 0.828125 0 L 0.828125 -3.882812 L 0.429688 -3.882812 L 0.429688 0 Z M 0.828125 0 "/></g></g></g><g fill="#000000" fill-opacity="1"><g transform="translate(120.06641, 120.148347)"><g><path d="M 0.828125 -1.925781 L 0.828125 -3.5 L 1.730469 -3.5 C 1.964844 -3.5 2.152344 -3.425781 2.296875 -3.285156 C 2.433594 -3.136719 2.507812 -2.953125 2.507812 -2.726562 C 2.507812 -2.492188 2.433594 -2.300781 2.285156 -2.148438 C 2.136719 -2 1.953125 -1.925781 1.730469 -1.925781 Z M 2.90625 -2.714844 C 2.90625 -3.054688 2.78125 -3.335938 2.542969 -3.558594 C 2.300781 -3.777344 2.015625 -3.882812 1.671875 -3.882812 L 0.429688 -3.882812 L 0.429688 0 L 0.828125 0 L 0.828125 -1.535156 L 1.671875 -1.535156 C 2.015625 -1.535156 2.308594 -1.644531 2.542969 -1.863281 C 2.78125 -2.089844 2.90625 -2.371094 2.90625 -2.714844 Z M 2.90625 -2.714844 "/></g></g></g><g fill="#000000" fill-opacity="1"><g transform="translate(127.155386, 120.148347)"><g><path d="M 2.734375 0 L 2.734375 -0.371094 L 0.828125 -0.371094 L 0.828125 -1.753906 L 2.679688 -1.753906 L 2.679688 -2.128906 L 0.828125 -2.128906 L 0.828125 -3.511719 L 2.734375 -3.511719 L 2.734375 -3.882812 L 0.429688 -3.882812 L 0.429688 0 Z M 2.734375 0 "/></g></g></g><g fill="#000000" fill-opacity="1"><g transform="translate(134.387099, 120.148347)"><g><path d="M 1.503906 -1.828125 C 2.003906 -1.707031 2.347656 -1.578125 2.53125 -1.429688 C 2.65625 -1.324219 2.71875 -1.195312 2.71875 -1.035156 C 2.71875 -0.875 2.683594 -0.742188 2.617188 -0.652344 C 2.445312 -0.410156 2.136719 -0.292969 1.703125 -0.292969 C 1.097656 -0.292969 0.753906 -0.496094 0.679688 -0.910156 L 0.210938 -0.910156 C 0.347656 -0.25 0.84375 0.0742188 1.703125 0.0742188 C 2.085938 0.0742188 2.40625 -0.00390625 2.660156 -0.175781 C 2.96875 -0.378906 3.128906 -0.675781 3.128906 -1.0625 C 3.128906 -1.382812 3.003906 -1.628906 2.753906 -1.800781 C 2.578125 -1.925781 2.289062 -2.039062 1.894531 -2.140625 C 1.496094 -2.246094 1.238281 -2.332031 1.121094 -2.394531 C 0.855469 -2.523438 0.726562 -2.707031 0.730469 -2.949219 C 0.730469 -3.074219 0.753906 -3.183594 0.8125 -3.261719 C 0.960938 -3.484375 1.222656 -3.597656 1.597656 -3.597656 C 2.128906 -3.597656 2.433594 -3.425781 2.511719 -3.097656 L 2.949219 -3.097656 C 2.804688 -3.65625 2.351562 -3.941406 1.597656 -3.941406 C 1.257812 -3.941406 0.953125 -3.851562 0.703125 -3.667969 C 0.445312 -3.484375 0.3125 -3.214844 0.3125 -2.851562 C 0.3125 -2.351562 0.714844 -2.011719 1.503906 -1.828125 Z M 1.503906 -1.828125 "/></g></g></g><g fill="#f55951" fill-opacity="1"><g transform="translate(92.217126, 110.255644)"><g><path d="M 25.644531 0.8125 C 30.648438 0.8125 34.238281 0 38.5 -3.722656 C 41.003906 -5.953125 42.152344 -6.765625 43.640625 -6.765625 C 45.941406 -6.765625 46.414062 -5.007812 46.414062 0 L 47.363281 0 L 47.292969 -22.058594 C 47.292969 -24.695312 49.460938 -25.167969 52.03125 -25.167969 L 52.03125 -26.050781 L 34.4375 -26.050781 L 34.4375 -25.167969 C 38.632812 -25.167969 39.851562 -24.628906 39.851562 -22.058594 L 39.851562 -13.261719 C 39.851562 -6.023438 37.484375 -2.234375 29.566406 -2.234375 C 16.578125 -2.234375 11.503906 -16.578125 11.503906 -27.132812 C 11.503906 -40.664062 17.320312 -48.445312 28.214844 -48.445312 C 37.28125 -48.445312 43.507812 -42.964844 45.601562 -34.167969 L 46.414062 -34.167969 L 45.402344 -49.324219 L 44.519531 -49.324219 C 44.519531 -47.769531 43.707031 -46.6875 41.882812 -46.6875 C 38.429688 -46.6875 35.996094 -50.070312 27.605469 -50.070312 C 14.207031 -50.070312 3.382812 -40.527344 3.382812 -23.546875 C 3.382812 -6.96875 14.140625 0.8125 25.644531 0.8125 Z M 25.644531 0.8125 "/></g></g></g></svg>