<svg xmlns="http://www.w3.org/2000/svg" xmlns:xlink="http://www.w3.org/1999/xlink" width="256" zoomAndPan="magnify" viewBox="0 0 192 191.999996" height="256" preserveAspectRatio="xMidYMid meet" version="1.0"><defs><g/><clipPath id="50fb0351ef"><path d="M 107 48.078125 L 109 48.078125 L 109 51 L 107 51 Z M 107 48.078125 " clip-rule="nonzero"/></clipPath><clipPath id="738acfcc87"><path d="M 114 48.078125 L 116 48.078125 L 116 51 L 114 51 Z M 114 48.078125 " clip-rule="nonzero"/></clipPath><clipPath id="644b9fd50a"><path d="M 56.351562 50 L 135.851562 50 L 135.851562 65.328125 L 56.351562 65.328125 Z M 56.351562 50 " clip-rule="nonzero"/></clipPath></defs><rect x="-19.2" width="230.4" fill="#ffffff" y="-19.2" height="230.399995" fill-opacity="1"/><rect x="-19.2" width="230.4" fill="#ffffff" y="-19.2" height="230.399995" fill-opacity="1"/><g clip-path="url(#50fb0351ef)"><path fill="#f55951" d="M 107.832031 48.363281 C 108.019531 48.125 108.175781 48.011719 108.40625 48.125 C 108.625 48.230469 109.113281 50.128906 108.324219 50.058594 C 107.769531 50.007812 107.949219 48.945312 107.832031 48.363281 " fill-opacity="1" fill-rule="evenodd"/></g><g clip-path="url(#738acfcc87)"><path fill="#f55951" d="M 114.90625 48.363281 C 115.105469 48.585938 115.101562 50.300781 114.535156 50.300781 C 113.855469 50.300781 113.933594 48.015625 114.90625 48.363281 " fill-opacity="1" fill-rule="evenodd"/></g><path fill="#f55951" d="M 101.535156 50.21875 C 101.910156 50.078125 102.855469 50.914062 102.8125 51.347656 C 102.792969 51.523438 102.644531 51.699219 102.441406 51.710938 C 102.171875 51.726562 102.097656 51.496094 101.824219 51.226562 C 101.710938 51.117188 100.84375 50.476562 101.535156 50.21875 " fill-opacity="1" fill-rule="evenodd"/><g clip-path="url(#644b9fd50a)"><path fill="#f55951" d="M 81.582031 58.480469 C 81.484375 59.351562 81.566406 60.398438 81.539062 61.339844 L 88.660156 61.339844 C 88.289062 60.4375 87.902344 59.554688 87.710938 58.480469 Z M 124.164062 58.316406 C 123.96875 58.503906 123.71875 58.632812 123.507812 58.800781 C 124.542969 58.742188 125.574219 58.679688 126.511719 58.519531 C 125.707031 58.472656 124.96875 58.363281 124.164062 58.316406 Z M 96.1875 58.558594 C 97.1875 58.625 98.121094 58.757812 99.148438 58.800781 L 99.148438 58.277344 C 98.132812 58.34375 97.105469 58.402344 96.1875 58.558594 Z M 57.015625 58.316406 L 57.015625 61.621094 L 80.71875 61.621094 L 80.71875 58.195312 L 57.058594 58.195312 C 57.011719 58.203125 57.015625 58.261719 57.019531 58.316406 Z M 89.441406 62.386719 C 92.253906 63.769531 95.9375 64 99.722656 64.320312 C 103.511719 64.644531 107.546875 64.765625 111.53125 64.765625 C 117.554688 64.765625 123.675781 64.507812 128.855469 63.71875 C 130.578125 63.453125 132.28125 63.1875 133.625 62.386719 C 133.960938 60.792969 134.371094 59.273438 134.695312 57.671875 C 131.5 58.730469 127.695312 59.15625 123.710938 59.445312 C 115.714844 60.027344 106.898438 59.996094 98.941406 59.445312 C 94.980469 59.171875 91.167969 58.722656 88 57.632812 C 87.976562 57.636719 87.953125 57.640625 87.957031 57.671875 C 88.484375 59.214844 89.003906 60.757812 89.441406 62.386719 Z M 126.550781 54.570312 C 126.535156 55.882812 125.96875 56.851562 125.316406 57.511719 C 125.25 57.578125 125.050781 57.636719 125.109375 57.753906 C 126.449219 57.761719 127.855469 58.195312 129.222656 58.195312 C 130.265625 58.195312 131.507812 57.871094 132.515625 57.632812 C 133.453125 57.410156 134.691406 57.148438 135.109375 56.425781 C 132.996094 55.042969 129.613281 54.902344 126.550781 54.449219 C 126.566406 54.519531 126.488281 54.554688 126.550781 54.570312 Z M 105.773438 53.84375 C 100.980469 53.992188 96.222656 54.328125 92.070312 55.011719 C 90.449219 55.28125 88.804688 55.5625 87.589844 56.464844 C 88.136719 57.148438 89.230469 57.398438 90.21875 57.632812 C 91.210938 57.867188 92.398438 58.195312 93.472656 58.195312 C 94.390625 58.195312 95.355469 57.960938 96.3125 57.875 C 97.296875 57.785156 98.273438 57.695312 99.230469 57.632812 C 99.742188 55.6875 101.179688 54.308594 103.507812 54.367188 C 103.917969 54.378906 104.347656 54.535156 104.785156 54.609375 C 107.773438 55.132812 111.511719 54.621094 114.042969 53.804688 C 111.285156 53.722656 108.472656 53.761719 105.773438 53.84375 Z M 119.636719 59.042969 C 120.59375 58.996094 121.644531 59.074219 122.4375 58.882812 C 122.957031 58.753906 123.617188 58.144531 124.121094 57.753906 C 124.640625 57.355469 125.253906 56.792969 125.523438 56.304688 C 126.535156 54.457031 125.703125 52.410156 124.207031 51.589844 C 121.871094 50.3125 119.945312 52.066406 118.238281 52.917969 C 117.085938 53.492188 115.753906 54.003906 114.453125 54.410156 C 111.894531 55.207031 108.417969 55.84375 105.238281 55.375 C 104.472656 55.265625 103.601562 54.832031 102.605469 55.011719 C 100.847656 55.332031 99.652344 56.828125 99.722656 58.839844 C 106.046875 59.304688 113.121094 59.371094 119.636719 59.042969 Z M 126.429688 53.804688 C 129.046875 54.128906 131.777344 54.359375 134.078125 55.132812 C 134.753906 55.363281 135.707031 55.699219 135.808594 56.34375 C 135.882812 56.816406 135.554688 57.015625 135.4375 57.390625 C 134.933594 58.976562 134.695312 61.054688 134.203125 62.75 C 132.921875 63.691406 131.171875 63.964844 129.433594 64.242188 C 124.105469 65.09375 117.84375 65.328125 111.699219 65.328125 C 105.535156 65.328125 99.316406 65.105469 93.921875 64.28125 C 92.164062 64.011719 90.433594 63.738281 89.066406 62.910156 C 88.945312 62.535156 88.832031 62.148438 88.699219 61.785156 C 87.039062 61.785156 85.128906 61.785156 83.265625 61.785156 C 82.730469 61.785156 81.886719 61.648438 81.5 61.785156 C 81.1875 61.894531 81.414062 62.042969 81.085938 62.144531 C 80.761719 62.25 80.074219 62.144531 79.523438 62.144531 C 71.914062 62.148438 63.78125 62.210938 56.441406 62.066406 C 56.398438 60.71875 56.320312 58.992188 56.484375 57.714844 C 63.8125 57.640625 71.898438 57.671875 79.566406 57.671875 C 80.109375 57.671875 80.78125 57.578125 81.085938 57.671875 C 81.335938 57.753906 81.257812 57.890625 81.457031 58.035156 L 87.464844 58.035156 C 87.5 57.5 86.882812 57 86.929688 56.425781 C 86.996094 55.554688 88.578125 55.121094 89.441406 54.894531 C 92.601562 54.0625 96.511719 53.671875 100.09375 53.484375 C 104.351562 53.257812 109.199219 53.03125 113.878906 53.160156 C 114.570312 53.179688 115.277344 53.285156 115.855469 53.199219 C 116.597656 53.09375 117.570312 52.46875 118.199219 52.152344 C 119.386719 51.558594 120.441406 50.71875 122.023438 50.582031 C 124.453125 50.371094 126.019531 51.925781 126.429688 53.804688 " fill-opacity="1" fill-rule="evenodd"/></g><g fill="#f55951" fill-opacity="1"><g transform="translate(33.063281, 97.676303)"><g><path d="M 2.046875 -0.121094 C 1.984375 -0.121094 1.925781 -0.0585938 1.925781 0.03125 C 1.925781 0.0898438 1.984375 0.148438 2.046875 0.148438 L 3.878906 0.148438 C 3.96875 0.148438 4.03125 0.0898438 4.03125 0.03125 C 4.03125 -0.0585938 3.96875 -0.121094 3.878906 -0.121094 C 3.640625 -0.121094 3.457031 -0.332031 3.457031 -0.570312 L 3.457031 -9.953125 C 3.730469 -9.5625 4.210938 -9.292969 4.722656 -9.292969 C 5.292969 -9.292969 5.773438 -9.59375 6.074219 -10.046875 L 7.820312 -12.902344 L 14.195312 -1.925781 C 14.917969 -0.691406 16.210938 0.0898438 17.625 0.148438 C 17.625 0.148438 17.625 0.148438 17.652344 0.148438 C 17.714844 0.148438 17.773438 0.0898438 17.773438 0.03125 C 17.804688 -0.0585938 17.746094 -0.121094 17.652344 -0.148438 C 16.8125 -0.210938 16.03125 -0.691406 15.640625 -1.414062 L 8.449219 -13.953125 L 14.253906 -23.488281 C 14.4375 -23.757812 14.765625 -23.96875 15.039062 -23.96875 C 15.128906 -23.96875 15.1875 -24.03125 15.1875 -24.121094 C 15.1875 -24.210938 15.128906 -24.269531 15.039062 -24.269531 L 13.894531 -24.269531 C 13.804688 -24.269531 13.746094 -24.210938 13.746094 -24.121094 C 13.746094 -24.03125 13.804688 -23.96875 13.894531 -23.96875 C 13.953125 -23.96875 14.015625 -23.96875 14.046875 -23.910156 C 14.074219 -23.847656 14.074219 -23.757812 13.984375 -23.609375 L 5.835938 -10.195312 C 5.59375 -9.835938 5.171875 -9.59375 4.722656 -9.59375 C 4.03125 -9.59375 3.457031 -10.164062 3.457031 -10.855469 L 3.457031 -23.546875 C 3.457031 -23.789062 3.640625 -23.96875 3.878906 -23.96875 C 3.96875 -23.96875 4.03125 -24.03125 4.03125 -24.121094 C 4.03125 -24.210938 3.96875 -24.269531 3.878906 -24.269531 L 2.046875 -24.269531 C 1.984375 -24.269531 1.925781 -24.210938 1.925781 -24.121094 C 1.925781 -24.03125 1.984375 -23.96875 2.046875 -23.96875 C 2.285156 -23.96875 2.496094 -23.789062 2.496094 -23.546875 L 2.496094 -0.570312 C 2.496094 -0.332031 2.285156 -0.121094 2.046875 -0.121094 Z M 2.046875 -0.121094 "/></g></g></g><g fill="#f55951" fill-opacity="1"><g transform="translate(50.985151, 97.676303)"><g><path d="M 3.878906 -23.96875 C 3.96875 -23.96875 4.03125 -24.03125 4.03125 -24.121094 C 4.03125 -24.210938 3.96875 -24.269531 3.878906 -24.269531 L 2.046875 -24.269531 C 1.984375 -24.269531 1.925781 -24.210938 1.925781 -24.121094 C 1.925781 -24.03125 1.984375 -23.96875 2.046875 -23.96875 C 2.285156 -23.96875 2.496094 -23.789062 2.496094 -23.546875 L 2.496094 -0.570312 C 2.496094 -0.332031 2.285156 -0.121094 2.046875 -0.121094 C 1.984375 -0.121094 1.925781 -0.0585938 1.925781 0.03125 C 1.925781 0.0898438 1.984375 0.148438 2.046875 0.148438 L 3.878906 0.148438 C 3.96875 0.148438 4.03125 0.0898438 4.03125 0.03125 C 4.03125 -0.0585938 3.96875 -0.121094 3.878906 -0.121094 C 3.640625 -0.121094 3.457031 -0.332031 3.457031 -0.570312 L 3.457031 -23.546875 C 3.457031 -23.789062 3.640625 -23.96875 3.878906 -23.96875 Z M 3.878906 -23.96875 "/></g></g></g><g fill="#f55951" fill-opacity="1"><g transform="translate(56.969129, 97.676303)"><g><path d="M 0.210938 -22.496094 C 0.242188 -22.464844 0.269531 -22.464844 0.269531 -22.464844 C 0.300781 -22.464844 0.332031 -22.464844 0.359375 -22.496094 C 2.164062 -23.820312 4.269531 -23.96875 9.324219 -23.96875 L 9.324219 -0.542969 C 9.324219 -0.332031 9.144531 -0.121094 8.902344 -0.121094 C 8.8125 -0.121094 8.75 -0.0585938 8.75 0.03125 C 8.75 0.0898438 8.8125 0.148438 8.902344 0.148438 L 10.738281 0.148438 C 10.796875 0.148438 10.855469 0.0898438 10.855469 0.03125 C 10.855469 -0.0585938 10.796875 -0.121094 10.738281 -0.121094 C 10.496094 -0.121094 10.285156 -0.332031 10.285156 -0.542969 L 10.285156 -23.96875 C 15.339844 -23.96875 17.445312 -23.820312 19.246094 -22.496094 C 19.277344 -22.464844 19.308594 -22.464844 19.339844 -22.464844 C 19.367188 -22.464844 19.398438 -22.464844 19.398438 -22.496094 C 19.457031 -22.496094 19.488281 -22.554688 19.488281 -22.617188 L 19.488281 -24.121094 C 19.488281 -24.210938 19.429688 -24.269531 19.339844 -24.269531 L 0.269531 -24.269531 C 0.210938 -24.269531 0.148438 -24.210938 0.148438 -24.121094 L 0.148438 -22.617188 C 0.148438 -22.554688 0.179688 -22.496094 0.210938 -22.496094 Z M 0.210938 -22.496094 "/></g></g></g><g fill="#f55951" fill-opacity="1"><g transform="translate(76.635067, 97.676303)"><g><path d="M 23.578125 -4.601562 C 23.640625 -4.660156 23.609375 -4.75 23.546875 -4.8125 C 23.488281 -4.871094 23.398438 -4.84375 23.339844 -4.78125 C 21.023438 -1.714844 17.503906 0.0585938 13.652344 0.0585938 L 13.351562 0.0585938 C 7.15625 -0.121094 2.316406 -5.445312 2.316406 -12.058594 C 2.316406 -18.675781 7.15625 -23.96875 13.351562 -24.148438 L 13.652344 -24.148438 C 14.796875 -24.148438 15.941406 -24 17.050781 -23.667969 C 17.050781 -23.667969 17.082031 -23.667969 17.082031 -23.667969 C 17.082031 -23.667969 17.082031 -23.667969 17.113281 -23.667969 C 17.171875 -23.640625 17.261719 -23.609375 17.351562 -23.609375 L 17.414062 -23.578125 C 19.941406 -22.738281 21.773438 -21.082031 22.765625 -18.765625 C 22.796875 -18.738281 22.828125 -18.675781 22.886719 -18.675781 C 22.945312 -18.675781 22.976562 -18.707031 23.007812 -18.738281 L 23.578125 -19.308594 C 23.609375 -19.367188 23.640625 -19.429688 23.578125 -19.488281 C 22.046875 -21.5625 19.941406 -23.066406 17.535156 -23.847656 C 17.535156 -23.847656 17.503906 -23.847656 17.503906 -23.847656 L 17.414062 -23.878906 C 17.351562 -23.910156 17.261719 -23.941406 17.144531 -23.96875 C 17.144531 -23.96875 17.113281 -23.96875 17.113281 -23.96875 C 16 -24.300781 14.828125 -24.449219 13.652344 -24.449219 L 13.351562 -24.449219 C 6.554688 -24.269531 1.261719 -18.828125 1.261719 -12.058594 C 1.261719 -5.261719 6.554688 0.179688 13.351562 0.359375 L 13.652344 0.359375 C 17.59375 0.359375 21.203125 -1.445312 23.578125 -4.601562 Z M 23.578125 -4.601562 "/></g></g></g><g fill="#f55951" fill-opacity="1"><g transform="translate(101.142313, 97.676303)"><g><path d="M 18.074219 -23.96875 C 18.164062 -23.96875 18.226562 -24.03125 18.226562 -24.121094 C 18.226562 -24.210938 18.164062 -24.269531 18.074219 -24.269531 L 16.269531 -24.269531 C 16.179688 -24.269531 16.121094 -24.210938 16.121094 -24.121094 C 16.121094 -24.03125 16.179688 -23.96875 16.269531 -23.96875 C 16.480469 -23.96875 16.691406 -23.789062 16.691406 -23.546875 L 16.691406 -16.421875 C 16.691406 -12.78125 11.609375 -9.351562 3.457031 -7.519531 L 3.457031 -23.546875 C 3.457031 -23.789062 3.640625 -23.96875 3.878906 -23.96875 C 3.96875 -23.96875 4.03125 -24.03125 4.03125 -24.121094 C 4.03125 -24.210938 3.96875 -24.269531 3.878906 -24.269531 L 2.046875 -24.269531 C 1.984375 -24.269531 1.925781 -24.210938 1.925781 -24.121094 C 1.925781 -24.03125 1.984375 -23.96875 2.046875 -23.96875 C 2.285156 -23.96875 2.496094 -23.789062 2.496094 -23.546875 L 2.496094 -0.570312 C 2.496094 -0.332031 2.285156 -0.121094 2.046875 -0.121094 C 1.984375 -0.121094 1.925781 -0.0585938 1.925781 0.03125 C 1.925781 0.0898438 1.984375 0.148438 2.046875 0.148438 L 3.878906 0.148438 C 3.96875 0.148438 4.03125 0.0898438 4.03125 0.03125 C 4.03125 -0.0585938 3.96875 -0.121094 3.878906 -0.121094 C 3.640625 -0.121094 3.457031 -0.332031 3.457031 -0.570312 L 3.457031 -7.1875 C 10.648438 -8.8125 15.488281 -11.667969 16.691406 -14.855469 L 16.691406 -0.570312 C 16.691406 -0.332031 16.480469 -0.121094 16.269531 -0.121094 C 16.179688 -0.121094 16.121094 -0.0585938 16.121094 0.03125 C 16.121094 0.0898438 16.179688 0.148438 16.269531 0.148438 L 18.074219 0.148438 C 18.164062 0.148438 18.226562 0.0898438 18.226562 0.03125 C 18.226562 -0.0585938 18.164062 -0.121094 18.074219 -0.121094 C 17.835938 -0.121094 17.652344 -0.332031 17.652344 -0.570312 L 17.652344 -23.546875 C 17.652344 -23.789062 17.835938 -23.96875 18.074219 -23.96875 Z M 18.074219 -23.96875 "/></g></g></g><g fill="#f55951" fill-opacity="1"><g transform="translate(121.319447, 97.676303)"><g><path d="M 17.324219 -24.269531 L 2.046875 -24.269531 C 1.984375 -24.269531 1.925781 -24.210938 1.925781 -24.121094 C 1.925781 -24.03125 1.984375 -23.96875 2.046875 -23.96875 C 2.285156 -23.96875 2.496094 -23.789062 2.496094 -23.546875 L 2.496094 -0.570312 C 2.496094 -0.332031 2.285156 -0.121094 2.046875 -0.121094 C 1.984375 -0.121094 1.925781 -0.0585938 1.925781 0.03125 C 1.925781 0.0898438 1.984375 0.148438 2.046875 0.148438 L 3.308594 0.148438 C 3.308594 0.148438 9.746094 0.148438 9.746094 0.148438 L 17.324219 0.148438 C 17.414062 0.148438 17.472656 0.0898438 17.472656 0 L 17.472656 -1.472656 C 17.472656 -1.535156 17.445312 -1.59375 17.414062 -1.625 C 17.351562 -1.625 17.292969 -1.652344 17.261719 -1.625 C 14.464844 -0.269531 11.25 -0.121094 3.457031 -0.121094 L 3.457031 -11.910156 L 12.269531 -11.910156 C 12.359375 -11.910156 12.421875 -11.96875 12.421875 -12.058594 C 12.421875 -12.121094 12.359375 -12.210938 12.269531 -12.210938 L 3.457031 -12.210938 L 3.457031 -23.96875 C 11.25 -23.96875 14.464844 -23.820312 17.261719 -22.496094 C 17.261719 -22.464844 17.292969 -22.464844 17.324219 -22.464844 C 17.351562 -22.464844 17.382812 -22.464844 17.414062 -22.496094 C 17.445312 -22.527344 17.472656 -22.554688 17.472656 -22.617188 L 17.472656 -24.121094 C 17.472656 -24.210938 17.414062 -24.269531 17.324219 -24.269531 Z M 17.324219 -24.269531 "/></g></g></g><g fill="#f55951" fill-opacity="1"><g transform="translate(139.391659, 97.676303)"><g><path d="M 2.046875 -0.121094 C 1.984375 -0.121094 1.925781 -0.0585938 1.925781 0.03125 C 1.925781 0.0898438 1.984375 0.148438 2.046875 0.148438 L 3.1875 0.148438 C 3.277344 0.148438 3.339844 0.0898438 3.339844 0.03125 C 3.339844 -0.0585938 3.277344 -0.121094 3.1875 -0.121094 C 2.976562 -0.121094 2.765625 -0.332031 2.765625 -0.570312 L 2.765625 -23.546875 C 2.796875 -23.519531 2.828125 -23.488281 2.828125 -23.457031 L 16.421875 0.0898438 C 16.449219 0.121094 16.480469 0.148438 16.542969 0.148438 C 16.542969 0.148438 16.902344 0.148438 16.902344 0.148438 C 16.960938 0.148438 16.992188 0.121094 17.023438 0.0585938 C 17.023438 0.0585938 17.050781 0.03125 17.050781 0 C 17.050781 0 17.050781 -23.546875 17.050781 -23.546875 C 17.050781 -23.789062 17.234375 -23.96875 17.472656 -23.96875 C 17.535156 -23.96875 17.625 -24.03125 17.625 -24.121094 C 17.625 -24.210938 17.535156 -24.269531 17.472656 -24.269531 L 16.332031 -24.269531 C 16.242188 -24.269531 16.179688 -24.210938 16.179688 -24.121094 C 16.179688 -24.03125 16.242188 -23.96875 16.332031 -23.96875 C 16.542969 -23.96875 16.75 -23.789062 16.75 -23.546875 L 16.75 -1.292969 L 3.550781 -24.179688 C 3.519531 -24.242188 3.457031 -24.269531 3.429688 -24.269531 L 2.046875 -24.269531 C 1.984375 -24.269531 1.925781 -24.210938 1.925781 -24.121094 C 1.925781 -24.03125 1.984375 -23.96875 2.046875 -23.96875 C 2.195312 -23.96875 2.347656 -23.910156 2.496094 -23.820312 L 2.496094 -0.542969 C 2.496094 -0.332031 2.285156 -0.121094 2.046875 -0.121094 Z M 2.046875 -0.121094 "/></g></g></g><g fill="#f55951" fill-opacity="1"><g transform="translate(52.387499, 127.676301)"><g><path d="M 24.03125 -12.210938 L 22.796875 -12.210938 C 22.796875 -12.210938 22.765625 -12.210938 22.765625 -12.210938 L 22.226562 -12.210938 C 22.136719 -12.210938 22.074219 -12.121094 22.074219 -12.058594 C 22.074219 -11.96875 22.136719 -11.910156 22.226562 -11.910156 C 22.4375 -11.910156 22.617188 -11.730469 22.644531 -11.488281 L 22.644531 -3.910156 C 20.332031 -1.382812 17.082031 0.0585938 13.652344 0.0585938 L 13.351562 0.0585938 C 7.15625 -0.121094 2.316406 -5.445312 2.316406 -12.058594 C 2.316406 -18.675781 7.15625 -23.96875 13.351562 -24.148438 L 13.652344 -24.148438 C 14.828125 -24.148438 15.941406 -24 17.050781 -23.699219 C 17.171875 -23.640625 17.292969 -23.609375 17.445312 -23.546875 C 17.535156 -23.519531 17.625 -23.488281 17.746094 -23.457031 C 20.089844 -22.617188 21.835938 -20.992188 22.765625 -18.765625 C 22.796875 -18.738281 22.828125 -18.675781 22.886719 -18.675781 C 22.945312 -18.675781 22.976562 -18.707031 23.007812 -18.738281 L 23.578125 -19.308594 C 23.609375 -19.367188 23.640625 -19.429688 23.578125 -19.488281 C 22.105469 -21.445312 20.121094 -22.917969 17.835938 -23.730469 C 17.835938 -23.730469 17.835938 -23.730469 17.804688 -23.757812 C 17.746094 -23.789062 17.652344 -23.820312 17.5625 -23.820312 L 17.535156 -23.847656 C 17.382812 -23.878906 17.261719 -23.941406 17.113281 -23.96875 C 16 -24.300781 14.828125 -24.449219 13.652344 -24.449219 L 13.351562 -24.449219 C 13.351562 -24.449219 13.351562 -24.449219 13.324219 -24.449219 C 6.554688 -24.269531 1.261719 -18.828125 1.261719 -12.058594 C 1.261719 -5.261719 6.554688 0.179688 13.324219 0.359375 C 13.351562 0.359375 13.351562 0.359375 13.351562 0.359375 L 13.652344 0.359375 C 17.171875 0.359375 20.542969 -1.144531 22.886719 -3.757812 C 23.007812 -3.878906 23.128906 -4.03125 23.246094 -4.179688 C 23.308594 -4.269531 23.398438 -4.359375 23.457031 -4.449219 C 23.488281 -4.511719 23.546875 -4.542969 23.578125 -4.601562 C 23.609375 -4.632812 23.609375 -4.660156 23.609375 -4.691406 L 23.609375 -11.488281 C 23.609375 -11.699219 23.789062 -11.910156 24.03125 -11.910156 C 24.121094 -11.910156 24.179688 -11.96875 24.179688 -12.058594 C 24.179688 -12.121094 24.121094 -12.210938 24.03125 -12.210938 Z M 24.03125 -12.210938 "/></g></g></g><g fill="#f55951" fill-opacity="1"><g transform="translate(77.947201, 127.676301)"><g><path d="M 17.324219 -24.269531 L 2.046875 -24.269531 C 1.984375 -24.269531 1.925781 -24.210938 1.925781 -24.121094 C 1.925781 -24.03125 1.984375 -23.96875 2.046875 -23.96875 C 2.285156 -23.96875 2.496094 -23.789062 2.496094 -23.546875 L 2.496094 -0.570312 C 2.496094 -0.332031 2.285156 -0.121094 2.046875 -0.121094 C 1.984375 -0.121094 1.925781 -0.0585938 1.925781 0.03125 C 1.925781 0.0898438 1.984375 0.148438 2.046875 0.148438 L 3.308594 0.148438 C 3.308594 0.148438 9.746094 0.148438 9.746094 0.148438 L 17.324219 0.148438 C 17.414062 0.148438 17.472656 0.0898438 17.472656 0 L 17.472656 -1.472656 C 17.472656 -1.535156 17.445312 -1.59375 17.414062 -1.625 C 17.351562 -1.625 17.292969 -1.652344 17.261719 -1.625 C 14.464844 -0.269531 11.25 -0.121094 3.457031 -0.121094 L 3.457031 -11.910156 L 12.269531 -11.910156 C 12.359375 -11.910156 12.421875 -11.96875 12.421875 -12.058594 C 12.421875 -12.121094 12.359375 -12.210938 12.269531 -12.210938 L 3.457031 -12.210938 L 3.457031 -23.96875 C 11.25 -23.96875 14.464844 -23.820312 17.261719 -22.496094 C 17.261719 -22.464844 17.292969 -22.464844 17.324219 -22.464844 C 17.351562 -22.464844 17.382812 -22.464844 17.414062 -22.496094 C 17.445312 -22.527344 17.472656 -22.554688 17.472656 -22.617188 L 17.472656 -24.121094 C 17.472656 -24.210938 17.414062 -24.269531 17.324219 -24.269531 Z M 17.324219 -24.269531 "/></g></g></g><g fill="#f55951" fill-opacity="1"><g transform="translate(96.019412, 127.676301)"><g><path d="M 2.046875 -0.121094 C 1.984375 -0.121094 1.925781 -0.0585938 1.925781 0.03125 C 1.925781 0.0898438 1.984375 0.148438 2.046875 0.148438 L 3.1875 0.148438 C 3.277344 0.148438 3.339844 0.0898438 3.339844 0.03125 C 3.339844 -0.0585938 3.277344 -0.121094 3.1875 -0.121094 C 2.976562 -0.121094 2.765625 -0.332031 2.765625 -0.570312 L 2.765625 -23.546875 C 2.796875 -23.519531 2.828125 -23.488281 2.828125 -23.457031 L 16.421875 0.0898438 C 16.449219 0.121094 16.480469 0.148438 16.542969 0.148438 C 16.542969 0.148438 16.902344 0.148438 16.902344 0.148438 C 16.960938 0.148438 16.992188 0.121094 17.023438 0.0585938 C 17.023438 0.0585938 17.050781 0.03125 17.050781 0 C 17.050781 0 17.050781 -23.546875 17.050781 -23.546875 C 17.050781 -23.789062 17.234375 -23.96875 17.472656 -23.96875 C 17.535156 -23.96875 17.625 -24.03125 17.625 -24.121094 C 17.625 -24.210938 17.535156 -24.269531 17.472656 -24.269531 L 16.332031 -24.269531 C 16.242188 -24.269531 16.179688 -24.210938 16.179688 -24.121094 C 16.179688 -24.03125 16.242188 -23.96875 16.332031 -23.96875 C 16.542969 -23.96875 16.75 -23.789062 16.75 -23.546875 L 16.75 -1.292969 L 3.550781 -24.179688 C 3.519531 -24.242188 3.457031 -24.269531 3.429688 -24.269531 L 2.046875 -24.269531 C 1.984375 -24.269531 1.925781 -24.210938 1.925781 -24.121094 C 1.925781 -24.03125 1.984375 -23.96875 2.046875 -23.96875 C 2.195312 -23.96875 2.347656 -23.910156 2.496094 -23.820312 L 2.496094 -0.542969 C 2.496094 -0.332031 2.285156 -0.121094 2.046875 -0.121094 Z M 2.046875 -0.121094 "/></g></g></g><g fill="#f55951" fill-opacity="1"><g transform="translate(115.565073, 127.676301)"><g><path d="M 3.878906 -23.96875 C 3.96875 -23.96875 4.03125 -24.03125 4.03125 -24.121094 C 4.03125 -24.210938 3.96875 -24.269531 3.878906 -24.269531 L 2.046875 -24.269531 C 1.984375 -24.269531 1.925781 -24.210938 1.925781 -24.121094 C 1.925781 -24.03125 1.984375 -23.96875 2.046875 -23.96875 C 2.285156 -23.96875 2.496094 -23.789062 2.496094 -23.546875 L 2.496094 -0.570312 C 2.496094 -0.332031 2.285156 -0.121094 2.046875 -0.121094 C 1.984375 -0.121094 1.925781 -0.0585938 1.925781 0.03125 C 1.925781 0.0898438 1.984375 0.148438 2.046875 0.148438 L 3.878906 0.148438 C 3.96875 0.148438 4.03125 0.0898438 4.03125 0.03125 C 4.03125 -0.0585938 3.96875 -0.121094 3.878906 -0.121094 C 3.640625 -0.121094 3.457031 -0.332031 3.457031 -0.570312 L 3.457031 -23.546875 C 3.457031 -23.789062 3.640625 -23.96875 3.878906 -23.96875 Z M 3.878906 -23.96875 "/></g></g></g><g fill="#f55951" fill-opacity="1"><g transform="translate(121.549051, 127.676301)"><g><path d="M 17.324219 -24.269531 L 2.046875 -24.269531 C 1.984375 -24.269531 1.925781 -24.210938 1.925781 -24.121094 C 1.925781 -24.03125 1.984375 -23.96875 2.046875 -23.96875 C 2.285156 -23.96875 2.496094 -23.789062 2.496094 -23.546875 L 2.496094 -0.570312 C 2.496094 -0.332031 2.285156 -0.121094 2.046875 -0.121094 C 1.984375 -0.121094 1.925781 -0.0585938 1.925781 0.03125 C 1.925781 0.0898438 1.984375 0.148438 2.046875 0.148438 L 3.308594 0.148438 C 3.308594 0.148438 9.746094 0.148438 9.746094 0.148438 L 17.324219 0.148438 C 17.414062 0.148438 17.472656 0.0898438 17.472656 0 L 17.472656 -1.472656 C 17.472656 -1.535156 17.445312 -1.59375 17.414062 -1.625 C 17.351562 -1.625 17.292969 -1.652344 17.261719 -1.625 C 14.464844 -0.269531 11.25 -0.121094 3.457031 -0.121094 L 3.457031 -11.910156 L 12.269531 -11.910156 C 12.359375 -11.910156 12.421875 -11.96875 12.421875 -12.058594 C 12.421875 -12.121094 12.359375 -12.210938 12.269531 -12.210938 L 3.457031 -12.210938 L 3.457031 -23.96875 C 11.25 -23.96875 14.464844 -23.820312 17.261719 -22.496094 C 17.261719 -22.464844 17.292969 -22.464844 17.324219 -22.464844 C 17.351562 -22.464844 17.382812 -22.464844 17.414062 -22.496094 C 17.445312 -22.527344 17.472656 -22.554688 17.472656 -22.617188 L 17.472656 -24.121094 C 17.472656 -24.210938 17.414062 -24.269531 17.324219 -24.269531 Z M 17.324219 -24.269531 "/></g></g></g><g fill="#000000" fill-opacity="1"><g transform="translate(65.074199, 149.504616)"><g><path d="M 0.324219 -2.605469 L 0.324219 0 L 0.679688 0 L 0.679688 -1.179688 L 1.691406 -1.179688 L 1.691406 -1.523438 L 0.679688 -1.523438 L 0.679688 -2.265625 L 1.984375 -2.265625 L 1.984375 -2.605469 Z M 0.324219 -2.605469 "/></g></g></g><g fill="#000000" fill-opacity="1"><g transform="translate(71.129902, 149.504616)"><g><path d="M 1.4375 -2.648438 C 0.699219 -2.648438 0.285156 -1.980469 0.285156 -1.300781 C 0.285156 -0.605469 0.6875 0.0429688 1.4375 0.0429688 C 2.191406 0.0429688 2.589844 -0.605469 2.589844 -1.300781 C 2.589844 -1.980469 2.183594 -2.648438 1.4375 -2.648438 Z M 1.4375 -2.324219 C 1.996094 -2.324219 2.199219 -1.773438 2.199219 -1.300781 C 2.199219 -0.820312 2.003906 -0.277344 1.4375 -0.277344 C 0.875 -0.277344 0.675781 -0.828125 0.675781 -1.300781 C 0.675781 -1.773438 0.882812 -2.324219 1.4375 -2.324219 Z M 1.4375 -2.324219 "/></g></g></g><g fill="#000000" fill-opacity="1"><g transform="translate(77.78448, 149.504616)"><g><path d="M 1.4375 -2.648438 C 0.699219 -2.648438 0.285156 -1.980469 0.285156 -1.300781 C 0.285156 -0.605469 0.6875 0.0429688 1.4375 0.0429688 C 2.191406 0.0429688 2.589844 -0.605469 2.589844 -1.300781 C 2.589844 -1.980469 2.183594 -2.648438 1.4375 -2.648438 Z M 1.4375 -2.324219 C 1.996094 -2.324219 2.199219 -1.773438 2.199219 -1.300781 C 2.199219 -0.820312 2.003906 -0.277344 1.4375 -0.277344 C 0.875 -0.277344 0.675781 -0.828125 0.675781 -1.300781 C 0.675781 -1.773438 0.882812 -2.324219 1.4375 -2.324219 Z M 1.4375 -2.324219 "/></g></g></g><g fill="#000000" fill-opacity="1"><g transform="translate(84.439059, 149.504616)"><g><path d="M 0.324219 -2.605469 L 0.324219 0 L 1.113281 0 C 1.828125 0 2.273438 -0.644531 2.273438 -1.3125 C 2.273438 -2.007812 1.859375 -2.605469 1.113281 -2.605469 Z M 0.6875 -2.265625 L 0.996094 -2.265625 C 1.054688 -2.265625 1.109375 -2.265625 1.171875 -2.257812 C 1.664062 -2.230469 1.882812 -1.753906 1.882812 -1.3125 C 1.882812 -0.882812 1.648438 -0.382812 1.171875 -0.34375 C 1.109375 -0.339844 1.054688 -0.339844 0.996094 -0.339844 L 0.6875 -0.339844 Z M 0.6875 -2.265625 "/></g></g></g><g fill="#000000" fill-opacity="1"><g transform="translate(90.778438, 149.504616)"><g/></g></g><g fill="#000000" fill-opacity="1"><g transform="translate(95.47092, 149.504616)"><g><path d="M 0.324219 -2.605469 L 0.324219 0 L 0.679688 0 L 0.679688 -1.105469 L 1.226562 -1.105469 L 1.867188 0 L 2.292969 0 L 1.601562 -1.160156 C 1.929688 -1.226562 2.125 -1.558594 2.125 -1.878906 C 2.125 -2.28125 1.8125 -2.605469 1.414062 -2.605469 Z M 0.679688 -2.296875 L 1.375 -2.296875 C 1.605469 -2.296875 1.777344 -2.078125 1.777344 -1.855469 C 1.777344 -1.636719 1.609375 -1.414062 1.375 -1.414062 L 0.679688 -1.414062 Z M 0.679688 -2.296875 "/></g></g></g><g fill="#000000" fill-opacity="1"><g transform="translate(101.830001, 149.504616)"><g><path d="M 0.324219 -2.605469 L 0.324219 0 L 1.984375 0 L 1.984375 -0.339844 L 0.6875 -0.339844 L 0.6875 -1.210938 L 1.734375 -1.210938 L 1.734375 -1.523438 L 0.6875 -1.523438 L 0.6875 -2.265625 L 1.984375 -2.265625 L 1.984375 -2.605469 Z M 0.324219 -2.605469 "/></g></g></g><g fill="#000000" fill-opacity="1"><g transform="translate(107.921168, 149.504616)"><g><path d="M 1.5625 -2.648438 C 0.816406 -2.648438 0.285156 -2.027344 0.285156 -1.300781 C 0.285156 -0.574219 0.816406 0.0390625 1.5625 0.0390625 C 1.820312 0.0390625 2.140625 -0.0507812 2.335938 -0.222656 L 2.183594 -0.535156 C 2.027344 -0.394531 1.792969 -0.308594 1.585938 -0.308594 C 1.027344 -0.308594 0.65625 -0.765625 0.65625 -1.300781 C 0.65625 -1.839844 1.027344 -2.296875 1.585938 -2.296875 C 1.792969 -2.296875 2.027344 -2.210938 2.183594 -2.070312 L 2.335938 -2.375 C 2.140625 -2.554688 1.820312 -2.648438 1.5625 -2.648438 Z M 1.5625 -2.648438 "/></g></g></g><g fill="#000000" fill-opacity="1"><g transform="translate(114.296005, 149.504616)"><g><path d="M 0.6875 -2.605469 L 0.324219 -2.605469 L 0.324219 0 L 0.6875 0 Z M 0.6875 -2.605469 "/></g></g></g><g fill="#000000" fill-opacity="1"><g transform="translate(119.086986, 149.504616)"><g><path d="M 0.324219 -2.605469 L 0.324219 0 L 0.6875 0 L 0.6875 -0.960938 C 0.835938 -0.960938 0.976562 -0.957031 1.125 -0.957031 C 1.246094 -0.957031 1.363281 -0.957031 1.480469 -0.972656 C 1.871094 -1.027344 2.128906 -1.425781 2.128906 -1.800781 C 2.128906 -2.195312 1.816406 -2.605469 1.394531 -2.605469 Z M 0.6875 -2.265625 L 1.367188 -2.265625 C 1.605469 -2.265625 1.789062 -2.007812 1.789062 -1.785156 C 1.789062 -1.550781 1.609375 -1.300781 1.367188 -1.300781 L 0.6875 -1.300781 Z M 0.6875 -2.265625 "/></g></g></g><g fill="#000000" fill-opacity="1"><g transform="translate(125.280593, 149.504616)"><g><path d="M 0.324219 -2.605469 L 0.324219 0 L 1.984375 0 L 1.984375 -0.339844 L 0.6875 -0.339844 L 0.6875 -1.210938 L 1.734375 -1.210938 L 1.734375 -1.523438 L 0.6875 -1.523438 L 0.6875 -2.265625 L 1.984375 -2.265625 L 1.984375 -2.605469 Z M 0.324219 -2.605469 "/></g></g></g><g fill="#000000" fill-opacity="1"><g transform="translate(131.371762, 149.504616)"><g><path d="M 1.277344 -2.648438 C 0.835938 -2.648438 0.394531 -2.433594 0.394531 -1.929688 C 0.394531 -1.15625 1.640625 -1.292969 1.640625 -0.730469 C 1.640625 -0.433594 1.371094 -0.304688 1.105469 -0.304688 C 0.917969 -0.304688 0.59375 -0.429688 0.441406 -0.542969 L 0.285156 -0.21875 C 0.507812 -0.0507812 0.859375 0.0429688 1.132812 0.0429688 C 1.636719 0.0429688 2.015625 -0.277344 2.015625 -0.789062 C 2.015625 -1.582031 0.765625 -1.449219 0.765625 -1.917969 C 0.765625 -2.214844 1.066406 -2.320312 1.316406 -2.320312 C 1.484375 -2.320312 1.710938 -2.25 1.84375 -2.144531 L 1.964844 -2.425781 C 1.792969 -2.585938 1.503906 -2.648438 1.277344 -2.648438 Z M 1.277344 -2.648438 "/></g></g></g></svg>